<svg id="Capa_1" enable-background="new 0 0 511.992 511.992" height="512" viewBox="0 0 511.992 511.992" width="512" xmlns="http://www.w3.org/2000/svg"><g><g><g><path d="m331.762 133.489-123.318-123.318c-3.573-3.573-9.365-3.572-12.937 0l-108.2 108.2c-3.573 3.573-3.573 9.365 0 12.937l123.317 123.317z" fill="#26d192"/><path d="m331.761 133.49-19.54 19.54-123.314-123.326c-3.463-3.463-9.001-3.573-12.594-.329l19.19-19.2c3.573-3.573 9.371-3.573 12.943 0z" fill="#1ec186"/><path d="m157.789 60.817h116.426v156.101h-116.426z" fill="#fff2e3" transform="matrix(.707 -.707 .707 .707 -34.928 193.41)"/><path d="m312.351 152.899-16.206 16.207-110.382-110.372 16.217-16.216z" fill="#fee7c9"/></g><g><g><g><g><g><path d="m351.517 165.958-9.541 9.541c10.059-10.059 26.508-9.845 36.289.66 9.321 10.007 8.597 25.752-1.067 35.416l-9.14 9.14c4.923-4.923 11.372-7.387 17.828-7.387s12.905 2.465 17.827 7.387c9.845 9.845 9.845 25.81 0 35.655l-19.16 19.16c10.059-10.059 26.508-9.845 36.289.66 9.315 10.001 8.597 25.752-1.067 35.416l-79.9 79.9v112.986h-131.559l2.549-111.033-52.558-112.961c-4.884-10.499-7.42-21.935-7.42-33.514v-52.098l50.203 50.203 114.779-114.779c4.923-4.923 11.372-7.387 17.828-7.387 6.449-.006 12.898 2.458 17.821 7.381 9.844 9.844 9.844 25.809-.001 35.654z" fill="#ffcec0"/></g></g><g fill="#fdb0a0"><path d="m420.837 276.194c-9.78-10.508-26.226-10.728-36.285-.669l19.16-19.16c9.85-9.84 9.85-25.807 0-35.646-4.92-4.93-11.376-7.395-17.823-7.395-6.457 0-12.913 2.465-17.833 7.395l9.141-9.141c9.66-9.67 10.389-25.407 1.068-35.417-9.78-10.508-26.226-10.718-36.285-.659l9.54-9.54c9.84-9.85 9.84-25.817 0-35.656-4.93-4.93-11.376-7.395-17.823-7.385-6.457 0-12.903 2.465-17.833 7.385l-25.158 25.168c4.92-4.92 11.367-7.385 17.823-7.385 6.447-.01 12.903 2.455 17.823 7.375 9.84 9.85 9.84 25.817 0 35.656l-9.54 9.54c10.059-10.059 26.505-9.84 36.285.669 9.321 9.999 8.602 25.747-1.068 35.407l-9.141 9.141c4.93-4.92 11.376-7.385 17.833-7.385s12.903 2.465 17.823 7.385c9.85 9.85 9.85 25.817 0 35.656l-19.16 19.16c4.846-4.846 11.177-7.306 17.53-7.38 9.473-.11 14.505 11.436 7.844 18.172-.038.039-.077.077-.115.116l-71.859 71.859c-5.149 5.148-8.041 12.131-8.041 19.412v101.618h35.13v-112.99l79.895-79.901c9.671-9.658 10.389-25.405 1.069-35.405z"/><path d="m183.497 262.684 17.594-17.595-50.206-50.206v35.189z"/></g></g></g></g></g><g><circle cx="237.771" cy="160.635" fill="#26d192" r="33.787"/><path d="m261.666 184.524c-10.099 10.089-24.988 12.464-37.343 7.095 3.792-1.627 7.345-4.002 10.438-7.095 13.193-13.193 13.193-34.588 0-47.781-3.094-3.094-6.646-5.469-10.438-7.095 12.354-5.369 27.244-2.994 37.343 7.095 13.193 13.193 13.193 34.588 0 47.781z" fill="#1ec186"/><g><path d="m339.873 451.648c-4.142 0-7.5 3.357-7.5 7.5v45.344c0 4.143 3.358 7.5 7.5 7.5s7.5-3.357 7.5-7.5v-45.344c0-4.142-3.358-7.5-7.5-7.5z"/><path d="m426.33 271.079c-4.638-4.982-10.534-8.316-17.02-9.704 12.458-12.777 12.36-33.308-.294-45.963-5.265-5.266-12.007-8.516-19.292-9.362 4.808-11.638 2.878-25.503-5.97-35.001-5.319-5.713-12.292-9.259-19.912-10.189 1.678-3.975 2.559-8.284 2.559-12.729 0-8.738-3.402-16.953-9.581-23.132-6.177-6.176-14.378-9.576-23.088-9.576-2.867-.015-5.673.351-8.372 1.057l-111.612-111.611c-6.491-6.492-17.053-6.491-23.544-.001l-23.529 23.529c-2.929 2.93-2.929 7.678 0 10.607 2.929 2.928 7.678 2.928 10.606 0l23.528-23.529c.644-.644 1.689-.644 2.332 0l108.503 108.502c-.365.334-.726.675-1.079 1.028l-7.746 7.746-95.541-95.541c-2.929-2.928-7.678-2.928-10.606 0l-82.326 82.326c-1.407 1.407-2.197 3.314-2.197 5.304s.79 3.896 2.197 5.304l39.444 39.443c1.464 1.464 3.384 2.196 5.303 2.196s3.839-.732 5.303-2.196c2.929-2.93 2.929-7.678 0-10.607l-34.141-34.14 71.72-71.72 90.237 90.237-13.343 13.343c-.896-9.543-5.042-18.397-11.905-25.26v.001c-7.798-7.799-18.166-12.094-29.194-12.094s-21.396 4.295-29.194 12.093-12.093 18.166-12.093 29.194 4.294 21.396 12.093 29.194c7.054 7.054 16.045 11.016 25.276 11.888l-13.359 13.359-30.693-30.693c-2.929-2.928-7.678-2.928-10.606 0-2.929 2.93-2.929 7.678 0 10.607l30.693 30.692-8.798 8.798-108.479-108.472c-.399-.399-.483-.854-.483-1.166s.084-.767.483-1.165l59.267-59.268c2.929-2.93 2.929-7.678 0-10.607-2.929-2.928-7.678-2.928-10.606 0l-59.267 59.268c-3.145 3.145-4.877 7.325-4.877 11.772 0 4.446 1.732 8.627 4.876 11.772l61.383 61.383v48.988c0 12.575 2.808 25.258 8.12 36.678l51.819 111.374-2.509 109.284c-.095 4.141 3.185 7.575 7.326 7.67.059.001.117.002.176.002 4.062 0 7.401-3.245 7.495-7.328l2.549-111.033c.026-1.15-.212-2.292-.698-3.336l-52.557-112.96c-4.396-9.451-6.72-19.945-6.72-30.351v-33.992l32.093 32.094-12.29 12.29c-2.929 2.929-2.929 7.678 0 10.606 1.465 1.465 3.384 2.197 5.304 2.197 1.919 0 3.839-.732 5.303-2.196l132.376-132.371c3.346-3.347 7.794-5.189 12.532-5.189h.02c4.711 0 9.147 1.841 12.49 5.183 3.345 3.346 5.187 7.794 5.187 12.525s-1.842 9.179-5.187 12.523l-36.945 36.945c-2.929 2.93-2.929 7.678 0 10.607 1.464 1.464 3.384 2.196 5.303 2.196s3.839-.732 5.303-2.196c0 0 27.111-27.112 27.404-27.404 3.431-3.431 8.021-5.259 12.844-5.186 4.846.087 9.339 2.094 12.654 5.654 6.414 6.885 6.018 18.101-.883 25l-39.212 39.218c-2.929 2.93-2.929 7.678 0 10.607 1.464 1.464 3.384 2.196 5.303 2.196s3.839-.732 5.303-2.196c0 0 29.825-29.831 30.072-30.078v-.001c3.346-3.347 7.794-5.189 12.523-5.189 4.73 0 9.178 1.843 12.524 5.189 6.905 6.906 6.905 18.144 0 25.049l-38.929 38.928c-2.929 2.93-2.929 7.678 0 10.607 1.464 1.464 3.384 2.196 5.303 2.196s3.839-.732 5.303-2.196c0 0 19.412-19.411 19.769-19.768 3.431-3.431 7.997-5.259 12.846-5.186 4.845.086 9.338 2.094 12.652 5.652 6.414 6.886 6.018 18.102-.882 25.001l-79.9 79.9c-1.407 1.407-2.197 3.314-2.197 5.304v31.716c0 4.143 3.358 7.5 7.5 7.5s7.5-3.357 7.5-7.5v-28.609l77.704-77.703c12.544-12.543 13.106-33.103 1.253-45.828zm-207.147-91.857c-4.965-4.965-7.699-11.565-7.699-18.587s2.734-13.622 7.7-18.588c4.964-4.965 11.565-7.699 18.587-7.699s13.623 2.734 18.587 7.699v.001c4.965 4.965 7.699 11.565 7.699 18.587 0 6.929-2.667 13.445-7.508 18.386l-.384.384c-10.264 10.062-26.796 10.004-36.982-.183z"/></g></g></g></svg>