<svg version="1.1" id="Layer_1" xmlns="http://www.w3.org/2000/svg" xmlns:xlink="http://www.w3.org/1999/xlink" x="0px" y="0px"
	 width="100%" viewBox="0 0 1024 1024" enable-background="new 0 0 1024 1024" xml:space="preserve">
<path fill="#000000" opacity="1.000000" stroke="none" 
	d="
M99.710693,497.078033 
	C88.849167,462.387299 80.970154,427.404694 75.958809,391.834259 
	C73.016479,370.949646 71.430183,349.912079 70.382637,328.798157 
	C69.562241,312.262421 70.223625,295.826965 70.819817,279.384430 
	C71.911491,249.276871 76.815491,219.622269 83.278503,190.229889 
	C85.115654,181.874924 89.910057,175.687820 97.116592,170.883453 
	C133.765152,146.450974 173.577332,128.297668 214.023956,111.347290 
	C267.459808,88.953369 322.893677,73.317062 379.792664,62.895149 
	C407.216858,57.871998 434.871155,54.374069 462.749237,52.452572 
	C484.045593,50.984718 505.327179,50.275120 526.629333,50.737988 
	C551.896301,51.287003 577.063171,53.390507 602.175537,56.450871 
	C678.772278,65.785446 752.300415,86.486206 823.517578,115.752480 
	C859.634827,130.594666 894.238037,148.355164 927.129150,169.559372 
	C938.986023,177.203278 943.080811,188.014099 945.174805,200.687286 
	C947.770691,216.396942 951.008179,232.019318 953.028015,247.799774 
	C954.797729,261.625397 955.773560,275.602386 956.187805,289.539612 
	C956.756653,308.678162 956.776672,327.855347 955.267700,346.971222 
	C952.611755,380.617371 947.603088,413.916046 939.972717,446.804810 
	C914.557007,556.353088 867.061218,655.730408 801.396057,746.647156 
	C765.158875,796.819397 723.626404,842.277954 676.913513,882.869385 
	C634.779663,919.481750 589.178589,951.139648 539.720215,977.213867 
	C522.403320,986.343384 505.670410,986.760132 488.285065,977.751587 
	C446.416931,956.057007 407.326294,930.109314 370.671204,900.567627 
	C291.114746,836.450256 227.344986,758.873596 176.000046,670.793518 
	C144.005157,615.907593 118.586090,558.150146 99.710693,497.078033 
M692.605103,839.092285 
	C717.571411,814.977234 740.691528,789.184387 762.237549,761.990784 
	C808.844177,703.167725 847.098694,639.396179 876.450256,570.241272 
	C901.781677,510.557892 920.389038,449.080750 928.839844,384.654877 
	C932.977356,353.111816 935.594421,321.587830 933.952087,289.684998 
	C932.539185,262.237000 929.192444,235.122147 924.699524,208.045975 
	C922.796631,196.578415 917.504700,189.129852 907.416138,183.269669 
	C858.444641,154.823212 807.481750,130.871246 753.670166,113.110268 
	C706.236938,97.454559 657.911255,85.751511 608.332275,79.047852 
	C577.758911,74.913986 547.105774,72.842804 516.321106,72.451256 
	C488.336334,72.095329 460.459259,74.110252 432.638092,77.180901 
	C403.700134,80.374794 375.063721,85.243820 346.744629,91.916328 
	C287.743591,105.818085 230.942383,126.003654 176.335983,152.309052 
	C154.264893,162.941315 132.870728,174.836594 112.118446,187.867676 
	C108.549232,190.108902 105.365868,192.649796 104.363785,197.167450 
	C97.690712,227.251190 93.582283,257.727295 92.540131,288.470093 
	C91.644341,314.895294 92.116959,341.339569 95.125137,367.743103 
	C98.061050,393.512390 102.121346,419.042419 107.903114,444.287872 
	C120.323509,498.520142 139.231415,550.508179 163.209000,600.648254 
	C184.675629,645.537598 209.915634,688.228821 238.937363,728.675781 
	C289.368286,798.960144 348.505035,860.574829 419.619751,910.259216 
	C443.947540,927.255798 469.196472,942.747681 495.292511,956.922852 
	C507.524078,963.566956 519.076660,964.371948 531.166138,957.150146 
	C538.455017,952.796021 546.098328,949.038391 553.432190,944.755493 
	C603.891541,915.287964 649.805115,879.815369 692.605103,839.092285 
z"/>
<path fill="#000000" opacity="1.000000" stroke="none" 
	d="
M218.658066,662.275635 
	C171.905167,584.185608 138.045914,501.416412 120.917038,412.174713 
	C116.630135,389.839874 114.016975,367.250275 112.461212,344.506439 
	C111.264114,327.005798 111.195900,309.510284 111.925903,292.082062 
	C112.940468,267.860626 117.199226,243.948547 120.871056,219.980270 
	C122.695473,208.071243 128.650650,201.633026 138.783966,196.041275 
	C206.347031,158.758743 277.178284,129.978485 352.369263,112.265701 
	C378.399323,106.133797 404.736053,101.755585 431.299500,98.500198 
	C464.081879,94.482681 496.950287,93.180702 529.926392,93.659203 
	C554.728821,94.019096 579.392578,96.125465 603.965637,99.499458 
	C699.799988,112.657967 789.884277,143.168442 874.840759,189.158768 
	C882.161499,193.121796 889.235168,197.539215 896.524902,201.562134 
	C900.334045,203.664276 902.395935,206.767670 903.318542,210.896027 
	C907.302368,228.721542 910.751831,246.615814 912.458191,264.846863 
	C914.024719,281.584229 915.466797,298.318878 915.098022,315.131622 
	C913.962830,366.880859 906.364746,417.679413 892.332520,467.514740 
	C871.616028,541.088989 840.872620,610.230347 800.136841,674.868652 
	C759.652405,739.108093 711.263550,796.708435 654.205688,846.940063 
	C615.037781,881.422119 572.646301,911.228760 526.827759,936.259583 
	C517.683472,941.255066 510.062042,941.453613 500.794769,936.402039 
	C457.194702,912.635986 416.224823,885.152344 378.583588,852.717407 
	C315.050598,797.971741 261.999146,734.442322 218.658066,662.275635 
M491.838715,670.643860 
	C494.113373,672.608276 495.591095,675.656433 498.915710,676.320007 
	C500.353485,674.188049 499.878754,672.136597 499.882416,670.197571 
	C499.921753,649.380737 499.516449,628.552734 500.098297,607.752014 
	C500.351624,598.696350 496.252533,593.372986 489.155243,589.295471 
	C479.132996,583.537598 468.157898,581.113892 456.762421,580.355713 
	C440.025726,579.242249 423.604248,582.182434 407.180267,584.628967 
	C377.636566,589.029846 348.147522,593.796631 318.612640,598.258362 
	C314.200073,598.925049 311.012909,600.771545 308.240570,604.289856 
	C291.144592,625.985474 274.005981,647.648071 256.336029,668.886047 
	C253.388214,672.429138 249.729248,675.665649 248.048660,680.958191 
	C250.987747,680.736267 253.311981,680.731995 255.577011,680.363586 
	C283.401154,675.837524 311.203430,671.175842 339.037872,666.714661 
	C369.823364,661.780457 400.563995,656.473633 431.461548,652.361633 
	C453.708405,649.400818 474.649689,653.234741 491.838715,670.643860 
M567.675293,652.743835 
	C578.455505,651.082336 589.235291,651.257812 599.981384,652.959412 
	C624.407715,656.827209 648.826294,660.745300 673.239502,664.695312 
	C696.999695,668.539673 720.743591,672.485168 744.506287,676.314026 
	C755.280273,678.050049 766.082397,679.611633 777.008606,681.273071 
	C777.080811,678.461487 775.483826,677.047546 774.281189,675.560547 
	C756.158752,653.153076 737.939453,630.815979 720.700195,607.721313 
	C715.919128,601.316406 710.109253,598.432373 702.409241,597.315186 
	C672.506042,592.976562 642.657593,588.258057 612.801819,583.597656 
	C608.362000,582.904602 604.927246,583.746765 601.635742,587.208557 
	C583.150757,606.649841 564.288452,625.733887 545.894104,645.259460 
	C537.446899,654.226074 530.056946,664.092041 526.541748,677.840637 
	C537.887085,664.555542 550.244385,655.162842 567.675293,652.743835 
M382.832062,425.683258 
	C385.438843,418.287140 388.532806,411.148163 392.703674,404.447174 
	C399.978455,392.759369 409.068939,382.671967 418.780945,372.988586 
	C460.080872,331.810608 501.241516,290.492889 542.424683,249.197906 
	C553.457581,238.135010 563.243164,226.301224 567.048096,210.549347 
	C569.651794,199.770691 568.553894,189.060837 567.080139,178.360352 
	C566.551941,174.525314 567.229248,170.144958 563.925476,166.798447 
	C563.357361,167.446671 562.886475,167.762283 562.732422,168.191589 
	C555.904541,187.216766 543.116577,202.032257 529.062805,215.962479 
	C493.322174,251.388947 457.508423,286.742310 421.904053,322.305237 
	C411.773712,332.423798 402.261505,343.143524 394.366150,355.202118 
	C382.231873,373.734863 377.302521,394.372955 376.405243,416.159668 
	C376.072357,424.242126 375.958466,432.381561 378.142120,440.939178 
	C381.394226,436.245728 380.755951,430.947968 382.832062,425.683258 
M501.787506,362.287628 
	C516.265381,347.776642 530.232727,332.707458 545.343262,318.888367 
	C566.873413,299.198395 571.116089,274.516418 568.474609,247.329636 
	C568.433472,246.906097 567.984558,246.522186 567.728638,246.123962 
	C565.571716,246.340973 565.221558,248.229355 564.360413,249.545288 
	C558.872375,257.931763 552.699768,265.784424 545.860901,273.097778 
	C520.814148,299.882111 494.409058,325.335388 468.837738,351.606018 
	C449.778534,371.186523 429.622498,389.740601 411.794312,410.466888 
	C394.240784,430.873932 383.481995,454.330933 384.416016,481.934235 
	C384.781433,492.733185 387.339813,503.120697 392.992676,513.646790 
	C393.258698,509.793243 393.652435,506.979126 393.615173,504.170746 
	C393.325470,482.312988 401.743774,463.935944 416.446533,448.331512 
	C443.993378,419.095306 473.005646,391.301483 501.787506,362.287628 
M431.202881,506.775299 
	C435.683960,500.523956 440.946655,494.963745 446.374146,489.542877 
	C477.736481,458.218536 508.864807,426.655609 540.519287,395.629425 
	C562.188904,374.389801 572.412109,349.410889 568.604126,319.053894 
	C568.500732,318.229279 568.460205,317.371124 567.380615,317.216766 
	C566.382996,317.273987 565.973206,318.060822 565.583923,318.767181 
	C558.029175,332.475861 547.770264,344.053864 536.859741,355.097046 
	C501.843933,390.538300 466.764404,425.916626 431.769470,461.378418 
	C424.851288,468.388855 418.666718,476.024323 413.570251,484.499969 
	C397.460297,511.291626 400.541382,540.612671 421.805054,562.536926 
	C420.502991,557.583984 418.978302,552.737610 418.563232,547.527527 
	C417.362885,532.459839 422.071594,519.335571 431.202881,506.775299 
M536.089661,527.521545 
	C523.769409,546.250427 520.302429,566.923096 521.631470,589.182129 
	C524.556335,588.366760 524.861328,586.518494 525.540283,585.103516 
	C529.091125,577.703247 533.513489,570.905640 538.865234,564.671814 
	C548.209412,553.787415 558.913574,544.238281 568.827026,533.914917 
	C587.842896,514.112732 608.671204,496.054779 626.052734,474.683044 
	C641.557251,455.619171 649.673706,434.361542 644.614868,409.444672 
	C643.535400,404.127533 642.615601,398.681000 639.623352,393.334442 
	C638.843079,394.493988 638.488403,394.855743 638.330750,395.289154 
	C637.990173,396.225189 637.603333,397.181091 637.491638,398.158173 
	C635.373657,416.693298 626.426270,431.635834 613.506348,444.646179 
	C594.032959,464.255890 574.789062,484.093475 555.321594,503.709076 
	C548.250854,510.833527 541.898926,518.482483 536.089661,527.521545 
M548.178162,482.654663 
	C561.810608,468.727112 575.336853,454.693451 589.107483,440.903839 
	C601.242859,428.751770 613.682678,416.890961 621.539001,401.266602 
	C636.191528,372.126434 633.088013,346.808197 614.552673,320.633423 
	C613.912720,319.729706 613.321228,318.254395 611.448669,318.555878 
	C612.504517,323.818146 614.491089,328.804260 614.354248,334.200378 
	C613.867615,353.398346 606.497681,370.091248 595.543335,385.384674 
	C583.263916,402.528015 568.026917,417.023163 553.154907,431.820862 
	C545.536316,439.401428 539.217773,447.877625 534.105225,457.334991 
	C525.775757,472.743103 522.334167,489.390900 521.443665,506.651947 
	C521.187378,511.620026 520.722595,516.737305 522.718689,521.887024 
	C528.779053,507.363800 536.665283,494.253448 548.178162,482.654663 
M598.216980,571.705383 
	C606.979248,562.562317 616.083923,553.720093 624.434753,544.215515 
	C643.781677,522.195862 650.540710,496.328796 646.816162,467.140747 
	C635.276489,492.860626 629.427917,501.221619 609.411377,520.484802 
	C585.157532,543.825745 560.648865,566.919678 538.593811,592.416931 
	C532.989258,598.896179 527.243530,605.330139 522.788574,613.579895 
	C532.109863,614.994507 540.783997,616.314453 549.459595,617.625000 
	C551.850586,617.986267 553.501343,616.831726 555.129089,615.182068 
	C569.292114,600.828186 583.518738,586.536987 598.216980,571.705383 
M531.159485,633.285461 
	C528.862854,632.965576 526.572937,632.580078 524.267517,632.346741 
	C522.448914,632.162720 521.411743,633.098083 521.406372,634.949280 
	C521.384766,642.427612 521.397461,649.906067 521.397461,657.384460 
	C526.457703,649.686523 531.545532,642.548767 536.331055,635.449463 
	C534.919678,633.643494 533.430359,633.502319 531.159485,633.285461 
z"/>
</svg>