<svg id="Capa_1" enable-background="new 0 0 512 512" height="512" viewBox="0 0 512 512" width="512" xmlns="http://www.w3.org/2000/svg"><g><g clip-rule="evenodd" fill-rule="evenodd"><path d="m130.566 462.011h196.414v-211.495l-127.334-9.213-160.755 9.213 29.595 154.689c5.868 30.67 30.841 56.806 62.08 56.806z" fill="#e28086"/><path d="m293.021 250.516h29.112v211.495h-29.112z" fill="#f96573"/><path d="m66.332 52.202c19.021-6.917 40.252 2.976 47.169 21.997l46.63 128.069-39.062 6.293-39.289-6.293-37.445-102.897c-6.946-19.021 2.977-40.252 21.997-47.169z" fill="#ffe07d"/><path d="m222.183 124.57c7.427 0 17.915 5.472 24.859 5.472 6.917 0 17.405-5.472 24.832-5.472 22.564 0 36.427 18.284 36.427 40.849 0 11.225-5.188 24.803-13.409 36.85l-47.452 8.25-47.906-8.25c-8.419-11.933-13.776-25.455-13.776-36.85-.001-22.565 13.86-40.849 36.425-40.849z" fill="#aadca5"/><path d="m326.98 250.516h-295.345c-13.266 0-24.123-10.856-24.123-24.123 0-13.266 10.857-24.124 24.123-24.124h310.795l-15.449 26.364v21.883z" fill="#f96573"/><path d="m326.98 250.516h-33.96v-12.812c-.17-6.832.596-10.46 3.373-14.882l12.077-20.553h30.897l1.53 2.608-13.918 23.756v21.883z" fill="#f74c55"/><path d="m473.619 180.755v-27.865c0-10.006-8.193-18.198-18.2-18.198h-84.218c-9.979 0-18.17 8.192-18.17 18.198v27.865z" fill="#90d8f9"/><path d="m473.619 180.755v-27.865c0-10.006-8.193-18.198-18.2-18.198h-29.111c10.006 0 18.17 8.192 18.17 18.198v27.865z" fill="#75cef9"/><path d="m353.031 175.907 15.448 26.362 15.45 26.364v9.07h-61.796v-9.07l15.449-26.364z" fill="#90d8f9"/><path d="m322.133 228.633h61.796v233.378h-61.796z" fill="#e4f6ff"/><path d="m504.517 228.633-30.898-52.726h-120.588l30.898 52.726v9.07h120.588z" fill="#b1e4f9"/><path d="m383.929 228.633h120.588v227.539c0 3.968-1.928 5.839-5.84 5.839h-114.748z" fill="#f4fbff"/><path d="m475.376 228.633h29.141v227.539c0 3.968-1.928 5.839-5.84 5.839h-29.111c3.911 0 5.811-1.871 5.811-5.839v-227.539z" fill="#e4f6ff"/><path d="m322.133 429.922h-167.529c-8.164 0-14.825-6.689-14.825-14.853 0-8.163 6.661-14.854 14.825-14.854h167.529zm0-117.611h-196.642c-8.164 0-14.854-6.689-14.854-14.855 0-8.163 6.689-14.853 14.854-14.853h196.642zm0 58.791h-182.07c-8.164 0-14.854-6.689-14.854-14.853 0-8.163 6.69-14.825 14.854-14.825h182.07z" fill="#f96573"/><path d="m257.871 127.745c4.847-1.502 9.893-3.175 14.003-3.175 22.564 0 36.427 18.284 36.427 40.849 0 11.225-5.188 24.803-13.409 36.85h-29.112c8.221-12.047 13.38-25.625 13.38-36.85-.001-16.951-7.825-31.493-21.289-37.674z" fill="#87cda0"/><path d="m66.332 52.202c19.021-6.917 40.252 2.976 47.169 21.997l46.63 128.069h-29.14l-46.602-128.069c-3.601-9.893-11.083-17.32-20.098-21.203.681-.283 1.36-.539 2.041-.794z" fill="#ffc269"/><g fill="#90d8f9"><path d="m444.223 325.408c16.951 0 30.785-13.833 30.785-30.785 0-16.951-13.834-30.784-30.785-30.784s-30.784 13.833-30.784 30.784c0 16.952 13.833 30.785 30.784 30.785z"/><path d="m444.478 175.907h29.141l30.898 52.726h-29.141z"/></g></g><path d="m55.021 374.731c-.765-4.055 1.899-7.994 5.953-8.76s7.993 1.899 8.759 5.953l6.095 31.862c2.722 14.258 10.006 27.383 20.211 36.736 9.411 8.618 21.345 13.976 34.527 13.976h184.055v-17.093h-160.017c-6.15 0-11.735-2.494-15.76-6.549-4.055-4.053-6.577-9.637-6.577-15.789 0-6.15 2.522-11.734 6.577-15.789 4.024-4.053 9.609-6.547 15.76-6.547h160.018v-14.118h-174.56c-6.151 0-11.736-2.523-15.79-6.576-4.054-4.025-6.549-9.638-6.549-15.789s2.495-11.735 6.549-15.761c4.054-4.054 9.639-6.576 15.79-6.576h174.559v-14.116h-189.13c-6.151 0-11.735-2.495-15.789-6.549-4.054-4.053-6.548-9.637-6.548-15.79 0-6.15 2.494-11.734 6.548-15.789 4.054-4.053 9.638-6.547 15.789-6.547h189.13v-17.094h-266.657l15.392 80.534c.766 4.053-1.899 7.965-5.952 8.758-4.054.767-7.966-1.898-8.76-5.952l-15.932-83.34c-9.099 0-16.923-2.777-23.414-9.297-5.726-5.725-9.298-13.633-9.298-22.336 0-8.702 3.572-16.612 9.298-22.337 5.726-5.727 13.635-9.299 22.337-9.299h39.46l-11.878-32.598c-1.417-3.884.596-8.192 4.479-9.582 3.883-1.416 8.163.596 9.58 4.48l13.721 37.7h62.448l-42.974-118.007c-1.503-4.167-3.884-7.795-6.86-10.715-3.117-3.09-6.859-5.414-10.941-6.859-5.84-2.07-11.99-2.211-17.66-.624-5.612 1.559-10.771 4.847-14.711 9.638-3.233 3.939-5.415 8.702-6.266 13.748-.85 4.848-.453 9.979 1.333 14.882l10.29 28.29c1.417 3.883-.596 8.165-4.479 9.582-3.884 1.417-8.192-.596-9.581-4.479l-10.29-28.29c-2.722-7.455-3.289-15.193-2.041-22.508 1.304-7.625 4.563-14.768 9.44-20.721 5.896-7.229 13.748-12.189 22.309-14.57 8.589-2.382 17.857-2.183 26.617.936 6.15 2.154 11.792 5.67 16.469 10.29 4.508 4.479 8.136 9.978 10.432 16.299l44.817 123.109h20.919c-1.502-2.919-2.806-5.867-3.911-8.844-3.033-8.135-4.508-15.817-3.941-24.463.255-4.139 3.827-7.257 7.937-7.002 4.139.256 7.257 3.799 7.002 7.938-.426 6.435.766 12.273 3.005 18.312 1.757 4.677 4.195 9.439 7.144 14.059h87.364c2.834-4.592 5.188-9.383 6.889-14.059 1.956-5.357 3.033-10.602 3.033-15.278 0-9.752-2.977-18.453-8.391-24.52-4.848-5.471-11.85-8.816-20.523-8.816-2.721 0-6.718 1.248-10.63 2.467-4.904 1.502-9.751 3.004-14.202 3.004-4.479 0-9.325-1.502-14.23-3.004-3.911-1.219-7.908-2.467-10.63-2.467-3.486 0-6.633.511-9.439 1.445-2.892.965-5.5 2.41-7.824 4.252-3.231 2.58-7.938 2.041-10.517-1.189-2.58-3.232-2.041-7.938 1.191-10.518 3.628-2.891 7.767-5.158 12.416-6.717 4.395-1.475 9.128-2.269 14.174-2.269 5.783 0 11.792 2.183 17.348 3.855.766-10.686 4.564-27.326 20.07-35.632 3.656-1.984 8.191-.596 10.147 3.033s.595 8.192-3.061 10.148c-9.043 4.847-11.622 15.137-12.246 22.479 5.585-1.673 11.623-3.884 17.434-3.884 13.266 0 24.066 5.273 31.721 13.862 7.853 8.788 12.189 21.033 12.189 34.47 0 6.378-1.417 13.352-3.968 20.381-1.077 3.005-2.382 5.98-3.855 8.957h25.37l12.189-20.834v-21.034c0-7.086 2.891-13.493 7.54-18.142 4.648-4.649 11.083-7.541 18.142-7.541h84.218c7.087 0 13.494 2.892 18.144 7.541 4.648 4.648 7.539 11.056 7.539 18.142v21.033l29.51 50.345c.906 1.219 1.389 2.834 1.389 4.365v233.378c0 4.139-3.346 7.483-7.483 7.483h-373.95c-17.095 0-32.515-6.889-44.591-17.943-12.613-11.537-21.515-27.581-24.859-44.957zm363.519-12.699c-4.139 0-7.512-3.373-7.512-7.512s3.373-7.484 7.512-7.484h51.365c4.139 0 7.512 3.346 7.512 7.484s-3.373 7.512-7.512 7.512zm0 58.253c-4.139 0-7.512-3.373-7.512-7.512s3.373-7.512 7.512-7.512h51.365c4.139 0 7.512 3.373 7.512 7.512s-3.373 7.512-7.512 7.512zm0-29.141c-4.139 0-7.512-3.345-7.512-7.484s3.373-7.512 7.512-7.512h51.365c4.139 0 7.512 3.373 7.512 7.512 0 4.14-3.373 7.484-7.512 7.484zm25.683-134.789c10.573 0 20.154 4.28 27.071 11.197 6.917 6.944 11.197 16.497 11.197 27.07 0 10.574-4.28 20.155-11.197 27.071-6.917 6.917-16.498 11.226-27.071 11.226s-20.154-4.309-27.071-11.226c-6.916-6.916-11.225-16.497-11.225-27.071 0-10.573 4.309-20.126 11.225-27.07 6.916-6.916 16.497-11.197 27.071-11.197zm16.468 21.799c-4.224-4.195-10.034-6.804-16.469-6.804s-12.246 2.608-16.47 6.804c-4.195 4.223-6.803 10.034-6.803 16.469 0 6.436 2.607 12.247 6.803 16.47 4.224 4.225 10.035 6.804 16.47 6.804s12.245-2.579 16.469-6.804c4.195-4.223 6.804-10.034 6.804-16.47 0-6.435-2.608-12.246-6.804-16.469zm-358.246-93.829c-3.884 1.418-8.164-.595-9.581-4.479-1.418-3.883.596-8.191 4.478-9.58l21.118-7.683c3.884-1.417 8.192.595 9.582 4.479 1.418 3.883-.597 8.163-4.479 9.58zm-9.95-27.353c-3.883 1.389-8.191-.624-9.58-4.508-1.418-3.883.595-8.163 4.479-9.58l21.118-7.682c3.884-1.39 8.163.595 9.581 4.479 1.417 3.883-.596 8.191-4.478 9.58zm-9.977-27.383c-3.884 1.418-8.163-.597-9.581-4.479-1.389-3.884.624-8.164 4.508-9.582l21.117-7.682c3.884-1.417 8.164.596 9.582 4.479 1.389 3.885-.624 8.164-4.508 9.582zm-9.95-27.356c-3.884 1.39-8.164-.595-9.581-4.479-1.418-3.884.595-8.192 4.478-9.581l21.118-7.711c3.884-1.389 8.192.624 9.581 4.508 1.417 3.883-.596 8.164-4.479 9.581zm82.036 320.177h160.018v-14.684h-160.018c-2.012 0-3.826.822-5.158 2.154-1.333 1.333-2.184 3.176-2.184 5.188 0 2.014.851 3.855 2.184 5.188 1.331 1.333 3.146 2.154 5.158 2.154zm-29.113-117.61h189.13v-14.685h-189.13c-2.013 0-3.856.822-5.188 2.154-1.332 1.333-2.154 3.176-2.154 5.188 0 2.014.822 3.857 2.154 5.189 1.333 1.331 3.176 2.154 5.188 2.154zm14.571 58.791h174.559v-14.684h-174.559c-2.013 0-3.855.851-5.188 2.183-1.332 1.333-2.154 3.175-2.154 5.159 0 2.013.822 3.855 2.154 5.188 1.333 1.332 3.176 2.154 5.188 2.154zm174.559-120.559v-14.399c0-2.268.936-3.572 2.013-5.414l7.881-13.466h-292.88c-4.563 0-8.73 1.898-11.735 4.905-3.033 3.004-4.903 7.171-4.903 11.734 0 4.564 1.87 8.73 4.903 11.736 3.005 3.004 7.172 4.903 11.735 4.903h282.986zm20.58-21.911h35.688l-17.857-30.446c-5.954 10.148-11.907 20.297-17.831 30.446zm25.342-52.726h105.563v-15.505c0-2.948-1.191-5.613-3.146-7.54-1.928-1.956-4.593-3.146-7.541-3.146h-84.218c-2.92 0-5.584 1.191-7.54 3.146-1.928 1.927-3.118 4.592-3.118 7.54zm27.667 52.726h103.239l-22.112-37.702h-103.238zm108.794 14.994h-105.563v92.212c0 4.139-3.373 7.513-7.513 7.513-4.139 0-7.483-3.374-7.483-7.513v-92.212h-46.828v218.384h46.828v-92.184c0-4.167 3.345-7.512 7.483-7.512 4.14 0 7.513 3.345 7.513 7.512v92.184h105.562v-218.384z"/></g></svg>