<?xml version="1.0" encoding="iso-8859-1"?>
<!-- Generator: Adobe Illustrator 19.0.0, SVG Export Plug-In . SVG Version: 6.00 Build 0)  -->
<svg version="1.1" id="Capa_1" xmlns="http://www.w3.org/2000/svg" xmlns:xlink="http://www.w3.org/1999/xlink" x="0px" y="0px"
	 viewBox="0 0 512.002 512.002" style="enable-background:new 0 0 512.002 512.002;" xml:space="preserve">
<path style="fill:#F2DFA6;" d="M471.666,442.653H157.063c-8.58,0-15.535-6.955-15.535-15.535V23.035
	c0-8.58,6.955-15.535,15.535-15.535h314.604c8.58,0,15.535,6.955,15.535,15.535v404.084
	C487.201,435.698,480.246,442.653,471.666,442.653z"/>
<path style="opacity:0.15;enable-background:new    ;" d="M414.429,43.281H141.528v383.838c0,8.58,6.955,15.535,15.535,15.535
	h272.901V58.816C429.963,50.236,423.008,43.281,414.429,43.281z"/>
<path style="fill:#76C9D2;" d="M382.348,504.5H67.744c-8.58,0-15.535-6.955-15.535-15.535V84.881c0-8.58,6.955-15.535,15.535-15.535
	h314.604c8.58,0,15.535,6.955,15.535,15.535v404.084C397.883,497.545,390.927,504.5,382.348,504.5z"/>
<rect x="51.111" y="367.81" style="fill:#507CDD;" width="346.77" height="81.84"/>
<rect x="351.741" y="69.35" style="fill:#F6D83E;" width="23.677" height="435.15"/>
<path style="fill:#FFFFFF;" d="M293.896,225.077H151.793c-5.669,0-10.265,4.596-10.265,10.265v41.316
	c0,5.669,4.596,10.265,10.265,10.265h142.103c5.669,0,10.265-4.596,10.265-10.265v-41.316
	C304.161,229.673,299.565,225.077,293.896,225.077z"/>
<g>
	<path style="fill:#394049;" d="M63.105,136.589H39.112c-7.904,0-14.311-6.407-14.311-14.311l0,0
		c0-7.904,6.407-14.311,14.311-14.311h23.993c7.904,0,14.311,6.407,14.311,14.311l0,0C77.416,130.182,71.009,136.589,63.105,136.589
		z"/>
	<path style="fill:#394049;" d="M63.105,218.434H39.112c-7.904,0-14.311-6.407-14.311-14.311l0,0
		c0-7.904,6.407-14.311,14.311-14.311h23.993c7.904,0,14.311,6.407,14.311,14.311l0,0C77.416,212.027,71.009,218.434,63.105,218.434
		z"/>
	<path style="fill:#394049;" d="M63.105,300.28H39.112c-7.904,0-14.311-6.407-14.311-14.311l0,0c0-7.904,6.407-14.311,14.311-14.311
		h23.993c7.904,0,14.311,6.407,14.311,14.311l0,0C77.416,293.872,71.009,300.28,63.105,300.28z"/>
	<path style="fill:#394049;" d="M63.105,382.125H39.112c-7.904,0-14.311-6.407-14.311-14.311l0,0
		c0-7.904,6.407-14.311,14.311-14.311h23.993c7.904,0,14.311,6.407,14.311,14.311l0,0C77.416,375.717,71.009,382.125,63.105,382.125
		z"/>
	<path style="fill:#394049;" d="M63.105,463.97H39.112c-7.904,0-14.311-6.407-14.311-14.311l0,0c0-7.904,6.407-14.311,14.311-14.311
		h23.993c7.904,0,14.311,6.407,14.311,14.311l0,0C77.416,457.562,71.009,463.97,63.105,463.97z"/>
</g>
<path style="opacity:0.15;enable-background:new    ;" d="M382.348,69.346H354.09c8.58,0,15.535,6.955,15.535,15.535v404.084
	c0,8.58-6.955,15.535-15.535,15.535h28.258c8.58,0,15.535-6.955,15.535-15.535V84.881C397.883,76.302,390.927,69.346,382.348,69.346
	z"/>
<path d="M134.028,235.342v41.316c0,9.796,7.969,17.765,17.765,17.765h142.103c9.796,0,17.765-7.969,17.765-17.765v-41.316
	c0-9.796-7.969-17.765-17.765-17.765H151.793C141.997,217.577,134.028,225.546,134.028,235.342z M149.028,235.342
	c0-1.525,1.24-2.765,2.765-2.765h142.103c1.525,0,2.765,1.24,2.765,2.765v41.316c0,1.525-1.24,2.765-2.765,2.765H151.793
	c-1.525,0-2.765-1.24-2.765-2.765V235.342L149.028,235.342z M179.653,263.5h86.382c4.142,0,7.5-3.358,7.5-7.5s-3.358-7.5-7.5-7.5
	h-86.382c-4.142,0-7.5,3.358-7.5,7.5S175.511,263.5,179.653,263.5z M487.201,60.042c4.142,0,7.5-3.358,7.5-7.5V23.035
	C494.701,10.333,484.368,0,471.666,0H157.063c-12.701,0-23.035,10.333-23.035,23.035v38.812H67.744
	c-12.701,0-23.035,10.334-23.035,23.035v15.585h-5.597c-12.027,0-21.812,9.784-21.812,21.811s9.785,21.812,21.812,21.812h5.597
	v38.223h-5.597c-12.027,0-21.812,9.784-21.812,21.811s9.785,21.812,21.812,21.812h5.597v38.222h-5.597
	c-12.027,0-21.812,9.785-21.812,21.812s9.785,21.811,21.812,21.811h5.597v38.223h-5.597c-12.027,0-21.812,9.785-21.812,21.811
	c0,12.027,9.785,21.811,21.812,21.811h5.597v38.223h-5.597c-12.027,0-21.812,9.785-21.812,21.811
	c0,12.027,9.785,21.811,21.812,21.811h5.597v17.496c0,12.701,10.333,23.035,23.035,23.035h37.582c4.142,0,7.5-3.358,7.5-7.5
	s-3.358-7.5-7.5-7.5H67.744c-4.43,0-8.035-3.604-8.035-8.035V471.47h3.396c12.027,0,21.811-9.785,21.811-21.811
	c0-12.027-9.784-21.811-21.811-21.811h-3.396v-38.223h3.396c12.027,0,21.811-9.784,21.811-21.811s-9.784-21.811-21.811-21.811
	h-3.396V307.78h3.396c12.027,0,21.811-9.784,21.811-21.811s-9.784-21.812-21.811-21.812h-3.396v-38.222h3.396
	c12.027,0,21.811-9.785,21.811-21.812c0-12.027-9.784-21.811-21.811-21.811h-3.396v-38.223h3.396
	c12.027,0,21.811-9.785,21.811-21.812s-9.784-21.811-21.811-21.811h-3.396V84.881c0-4.431,3.605-8.035,8.035-8.035h276.497V290.56
	c0,4.142,3.358,7.5,7.5,7.5s7.5-3.358,7.5-7.5V76.846h8.677V497h-8.677V321.875c0-4.142-3.358-7.5-7.5-7.5s-7.5,3.358-7.5,7.5V497
	H141.528c-4.142,0-7.5,3.358-7.5,7.5s3.358,7.5,7.5,7.5h240.82c12.702,0,23.035-10.333,23.035-23.035v-38.812h66.284
	c12.701,0,23.035-10.333,23.035-23.035V85.983c0-4.142-3.358-7.5-7.5-7.5s-7.5,3.358-7.5,7.5v341.136
	c0,4.43-3.604,8.035-8.035,8.035h-66.284V320.737h33.808c4.142,0,7.5-3.358,7.5-7.5s-3.358-7.5-7.5-7.5h-33.808v-35.789h33.808
	c4.142,0,7.5-3.358,7.5-7.5s-3.358-7.5-7.5-7.5h-33.808V219.16h33.808c4.142,0,7.5-3.358,7.5-7.5s-3.358-7.5-7.5-7.5h-33.808
	v-35.788h33.808c4.142,0,7.5-3.358,7.5-7.5s-3.358-7.5-7.5-7.5h-33.808v-68.49c0-12.702-10.333-23.035-23.035-23.035h-233.32V23.035
	c0-4.43,3.604-8.035,8.035-8.035h314.604c4.43,0,8.035,3.604,8.035,8.035v29.508C479.701,56.685,483.059,60.042,487.201,60.042z
	 M63.105,442.847c3.756,0,6.811,3.056,6.811,6.811s-3.055,6.811-6.811,6.811H39.112c-3.756,0-6.812-3.056-6.812-6.811
	s3.056-6.811,6.812-6.811H63.105z M63.105,361.002c3.756,0,6.811,3.056,6.811,6.811c0,3.756-3.055,6.811-6.811,6.811H39.112
	c-3.756,0-6.812-3.055-6.812-6.811s3.056-6.811,6.812-6.811H63.105z M63.105,279.157c3.756,0,6.811,3.056,6.811,6.812
	c0,3.755-3.055,6.811-6.811,6.811H39.112c-3.756,0-6.812-3.056-6.812-6.811c0-3.756,3.056-6.812,6.812-6.812H63.105z
	 M63.105,197.312c3.756,0,6.811,3.055,6.811,6.811c0,3.756-3.055,6.812-6.811,6.812H39.112c-3.756,0-6.812-3.056-6.812-6.812
	s3.056-6.811,6.812-6.811H63.105z M63.105,115.467c3.756,0,6.811,3.056,6.811,6.811c0,3.756-3.055,6.812-6.811,6.812H39.112
	c-3.756,0-6.812-3.056-6.812-6.812c0-3.755,3.056-6.811,6.812-6.811H63.105z M382.919,76.875c4.164,0.295,7.464,3.768,7.464,8.006
	v404.084c0,4.238-3.3,7.711-7.464,8.006V76.875z"/>
<g>
</g>
<g>
</g>
<g>
</g>
<g>
</g>
<g>
</g>
<g>
</g>
<g>
</g>
<g>
</g>
<g>
</g>
<g>
</g>
<g>
</g>
<g>
</g>
<g>
</g>
<g>
</g>
<g>
</g>
</svg>
