<svg id="Capa_1" enable-background="new 0 0 512 512" height="512" viewBox="0 0 512 512" width="512" xmlns="http://www.w3.org/2000/svg"><g><g clip-rule="evenodd" fill-rule="evenodd"><path d="m244.747 114.408 142.81 132.804-192.361 11.169-187.684-11.169 88.612-82.404c3.316-3.09 5.527-2.806 8.532 0l38.693 35.972 92.893-86.373c3.09-2.89 5.755-2.607 8.505.001z" fill="#e4f6ff"/><path d="m104.656 164.809 88.613 82.404h-29.141l-78.293-72.851 10.29-9.553c3.315-3.09 5.526-2.807 8.531 0zm140.091-50.401 142.81 132.804h-29.112l-132.521-123.251 10.318-9.553c3.09-2.891 5.755-2.608 8.505 0z" fill="#d3effb"/><path d="m17.206 443.429h477.587c5.357 0 9.723-4.365 9.723-9.694v-186.523h-497.004v186.522c0 5.33 4.365 9.695 9.694 9.695z" fill="#bf8e5e"/><path d="m222.692 281.2 55.135 81.129 55.163 81.1h-110.298-110.297l55.135-81.1z" fill="#dd636e"/><path d="m504.517 247.212c0 53.887-43.683 97.57-97.57 97.57s-97.541-43.683-97.541-97.57c.085-24.718 9.468-49.267 26.76-67.097 9.042-9.326 7.171-5.641 3.146-17.235-2.551-7.37-3.713-15.138-3.77-22.933 0-39.431 31.976-71.377 71.405-71.377 39.431 0 71.406 31.946 71.406 71.377-.057 9.071-1.559 18.114-5.244 26.42-3.628 8.192-.368 8.645 5.046 14.173 11.792 12.076 20.495 29.254 24.095 45.667 1.529 7.002 2.238 13.862 2.267 21.005z" fill="#b3e59f"/><path d="m504.517 247.212c0 53.887-43.683 97.57-97.57 97.57-4.932 0-9.808-.369-14.542-1.077 46.97-7.03 82.971-47.538 82.971-96.493-.028-7.143-.708-14.003-2.268-21.005-3.6-16.413-12.302-33.591-24.094-45.667-5.387-5.527-8.646-5.981-5.018-14.173 3.657-8.306 5.188-17.349 5.245-26.42 0-34.441-24.407-63.185-56.835-69.903 4.677-.964 9.553-1.474 14.542-1.474 39.431 0 71.406 31.946 71.406 71.377-.057 9.071-1.559 18.114-5.244 26.42-3.628 8.192-.368 8.645 5.046 14.173 11.792 12.076 20.495 29.254 24.095 45.667 1.528 7.002 2.237 13.862 2.266 21.005z" fill="#95d6a4"/><path d="m378.118 286.02 107.037 157.409h-152.165l-110.298-162.229h146.327c3.741 0 6.831 1.475 9.099 4.82z" fill="#e28086"/><path d="m378.118 286.02 107.037 157.409h-29.14l-107.009-157.409c-2.296-3.345-5.358-4.819-9.1-4.819h29.113c3.741-.001 6.831 1.474 9.099 4.819z" fill="#dd636e"/><path d="m47.339 280.237h75.743c3.316 0 4.536 2.098 2.778 4.961-3.486 5.754-6.86 11.537-10.46 17.235-2.098 3.373-2.098 6.491 0 9.95l10.46 17.235c1.843 3.005.34 4.961-2.778 4.961h-75.743z" fill="#ffc269"/><path d="m93.941 280.237h29.141c3.316 0 4.536 2.098 2.778 4.961-3.486 5.754-6.86 11.537-10.46 17.235-2.098 3.373-2.098 6.491 0 9.95l10.46 17.235c1.843 3.005.34 4.961-2.778 4.961h-29.141c3.146 0 4.621-1.956 2.806-4.961l-10.459-17.235c-2.098-3.458-2.126-6.577 0-9.95 3.571-5.698 6.973-11.48 10.459-17.235 1.73-2.863.539-4.961-2.806-4.961z" fill="#ffa95f"/></g><path d="m302.148 254.724h-287.152v179.01c0 1.19 1.021 2.211 2.211 2.211h22.65v-155.708c0-4.139 3.345-7.513 7.483-7.513h81.554c4.139 0 7.512 3.374 7.512 7.513 0 1.672-.567 3.232-1.503 4.479l-13.776 22.706 14.145 23.301c2.154 3.515 1.02 8.107-2.523 10.262-1.162.709-2.495 1.105-3.855 1.105h-74.043v93.856h53.604l107.661-158.346c1.616-2.381 3.855-3.855 6.576-3.912h82.574c-.68-2.607-1.247-5.216-1.729-7.852-.651-3.656-1.105-7.341-1.389-11.112zm-158.798-64.148 92.042-85.636c2.892-2.693 7.371-2.636 10.205 0l30.898 28.744c3.033 2.835 3.204 7.568.397 10.602-2.835 3.005-7.569 3.175-10.602.369l-25.795-24.01-86.146 80.137 41.84 38.948h105.96c.936-12.926 4.195-25.229 9.383-36.454 1.757-3.827 3.742-7.512 5.924-11.056l-26.277-24.435c-3.033-2.806-3.203-7.54-.368-10.573 2.806-3.033 7.54-3.203 10.573-.368l24.889 23.131c2.58-3.09 5.329-6.038 8.248-8.788-1.729-3.997-3.146-8.164-4.195-12.444-1.474-6.066-2.268-12.359-2.268-18.794 0-21.77 8.816-41.499 23.103-55.787 14.287-14.258 34.016-23.102 55.786-23.102 7.371 0 14.514 1.021 21.346 2.948 7.001 1.956 13.606 4.876 19.701 8.561 3.515 2.154 4.62 6.775 2.494 10.29-2.154 3.543-6.775 4.649-10.29 2.495-4.932-3.005-10.29-5.358-15.959-6.945-5.471-1.531-11.254-2.353-17.292-2.353-17.631 0-33.619 7.171-45.185 18.708-11.565 11.566-18.709 27.553-18.709 45.185 0 5.329.624 10.461 1.815 15.279 1.19 4.904 2.977 9.581 5.216 13.947 1.814 3.09 1.247 7.115-1.559 9.496-9.95 8.476-17.943 19.021-23.414 30.87-5.272 11.424-8.221 24.208-8.221 37.673 0 5.471.482 10.8 1.418 15.987.652 3.629 1.502 7.115 2.523 10.488h54.001c2.835 0 5.301 1.588 6.577 3.912l18.057 26.504v-32.287l-46.404-46.404c-2.919-2.92-2.919-7.682 0-10.602 2.92-2.919 7.682-2.919 10.602 0l35.802 35.774v-83.737l-24.803-24.775c-2.919-2.948-2.919-7.682 0-10.63 2.92-2.92 7.682-2.92 10.602 0l14.202 14.201v-20.721c0-4.139 3.345-7.512 7.483-7.512 4.139 0 7.512 3.374 7.512 7.512v20.721l14.173-14.201c2.92-2.92 7.682-2.92 10.602 0 2.948 2.948 2.948 7.682 0 10.63l-24.775 24.775v83.737l35.774-35.774c2.92-2.919 7.682-2.919 10.602 0 2.948 2.92 2.948 7.682 0 10.602l-46.376 46.404v54.37l6.775 9.978c20.977-3.345 39.544-13.918 53.037-29.112 14.145-15.902 22.734-36.851 22.734-59.84 0-13.465-2.948-26.249-8.22-37.673-5.471-11.849-13.465-22.394-23.386-30.87-2.579-2.211-3.402-5.981-1.758-9.127 2.324-4.479 4.167-9.27 5.386-14.315 1.19-4.818 1.814-9.95 1.814-15.279 0-6.01-.822-11.82-2.353-17.263-1.588-5.698-3.94-11.055-6.945-15.959-2.126-3.544-1.02-8.136 2.495-10.29 3.543-2.154 8.135-1.049 10.29 2.494 3.714 6.095 6.633 12.7 8.589 19.702 1.899 6.831 2.92 13.975 2.92 21.316 0 6.435-.765 12.728-2.267 18.794-1.049 4.281-2.438 8.447-4.167 12.444 9.553 9.071 17.377 19.956 22.99 32.089 6.179 13.379 9.609 28.289 9.609 43.937v186.522c0 9.467-7.71 17.206-17.207 17.206-159.196 0-318.391 0-477.587 0-9.472-.001-17.211-7.74-17.211-17.208v-186.522c0-2.268 1.02-4.365 2.778-5.811l92.495-86.061c2.892-2.693 7.37-2.636 10.205 0zm-42.974-19.532-73.815 68.685h147.659c-24.606-22.904-49.239-45.78-73.844-68.685zm270.542 117.668h-134.108l42.577 62.618c2.325 3.43 1.446 8.05-1.985 10.375-3.401 2.324-8.05 1.417-10.374-1.985l-36.851-54.199v73.277c0 .878-.142 1.757-.425 2.551l-16.412 54.596h105.535l-32.74-48.133c-2.296-3.401-1.418-8.05 2.013-10.375 3.401-2.324 8.05-1.417 10.346 1.984l38.439 56.523h134.08c-33.367-49.095-66.731-98.163-100.095-147.232zm-316.067-.992v39.374h60.748l-9.525-15.704c-1.446-2.296-1.587-5.357-.057-7.852l9.582-15.817h-60.748zm375.539 61.909 58.678 86.316h5.726c1.219 0 2.211-1.021 2.211-2.211v-132.408c-3.374 5.584-7.228 10.829-11.537 15.676-14.26 16.044-33.393 27.695-55.078 32.627zm-232.671 86.316 17.462-58.224v-72.2l-88.668 130.424z"/></g></svg>