<svg id="Capa_1" enable-background="new 0 0 512 512" height="512" viewBox="0 0 512 512" width="512" xmlns="http://www.w3.org/2000/svg"><g><g><path d="m316.61 92.354v-64.65c0-11.158 9.045-20.203 20.203-20.203h40.406c11.158 0 20.203 9.045 20.203 20.203v64.65z" fill="#818181"/></g><g><path d="m397.423 67.368c-3.23-.834-6.615-1.279-10.102-1.279h-70.711v26.264h80.813z" fill="#595959"/></g><g><path d="m195.39 92.354v-64.65c0-11.158-9.045-20.203-20.203-20.203h-40.407c-11.158 0-20.203 9.045-20.203 20.203v64.65z" fill="#818181"/></g><g><path d="m114.577 67.368c3.23-.834 6.615-1.279 10.102-1.279h70.711v26.264h-80.813z" fill="#595959"/></g><g><path d="m377.22 504.5h-242.44c-11.158 0-20.203-9.045-20.203-20.203v-268.704h282.846v268.703c0 11.159-9.046 20.204-20.203 20.204z" fill="#e49542"/></g><g><path d="m114.577 215.593v25.254h251.53c5.579 0 10.102 4.523 10.102 10.102v233.348c0 11.158-9.045 20.203-20.203 20.203h21.213c11.158 0 20.203-9.045 20.203-20.203v-268.704z" fill="#e28424"/></g><g><path d="m163.065 273.173c8.926 0 16.163-7.236 16.163-16.163v-38.386h-32.325v38.386c-.001 8.927 7.236 16.163 16.162 16.163z" fill="#818181"/></g><g><path d="m146.902 218.624h32.325v22.224h-32.325z" fill="#595959"/></g><g><path d="m348.935 273.173c-8.926 0-16.163-7.236-16.163-16.163v-38.386h32.325v38.386c.001 8.927-7.236 16.163-16.162 16.163z" fill="#818181"/></g><g><path d="m332.772 218.624h32.325v22.224h-32.325z" fill="#595959"/></g><g><path d="m387.321 218.624h-262.642c-11.158 0-20.203-9.045-20.203-20.203v-91.925c0-11.158 9.045-20.203 20.203-20.203h262.642c11.158 0 20.203 9.045 20.203 20.203v91.925c0 11.158-9.045 20.203-20.203 20.203z" fill="#eab14d"/></g><g><path d="m387.321 86.293h-27.274c11.158 0 20.203 9.045 20.203 20.203v91.925c0 11.158-9.045 20.203-20.203 20.203h27.274c11.158 0 20.203-9.045 20.203-20.203v-91.925c0-11.158-9.045-20.203-20.203-20.203z" fill="#e49542"/></g><g><path d="m146.902 451.972v-101.017c0-11.158 9.045-20.203 20.203-20.203h177.789c11.158 0 20.203 9.045 20.203 20.203v101.016c0 11.158-9.045 20.203-20.203 20.203h-177.788c-11.158.001-20.204-9.045-20.204-20.202z" fill="#818181"/></g><g><path d="m344.894 330.752h-20.203c11.158 0 20.203 9.045 20.203 20.203v101.016c0 11.158-9.045 20.203-20.203 20.203h20.203c11.158 0 20.203-9.045 20.203-20.203v-101.016c.001-11.158-9.045-20.203-20.203-20.203z" fill="#595959"/></g><g><path d="m397.423 472.175v-141.423h24.244c11.158 0 20.203 9.045 20.203 20.203v101.016c0 11.158-9.045 20.203-20.203 20.203h-24.244z" fill="#ffd064"/></g><g><path d="m205.492 135.286h101.016v34.346h-101.016z" fill="#ffe07d" transform="matrix(-1 0 0 -1 512 304.917)"/></g><g><path d="m114.577 472.175v-141.423h-24.244c-11.158 0-20.203 9.045-20.203 20.203v101.016c0 11.158 9.045 20.203 20.203 20.203h24.244z" fill="#ffe07d"/></g><g><path d="m315.6 398.862c4.143 0 7.5-3.358 7.5-7.5v-12.703h3.611c4.143 0 7.5-3.358 7.5-7.5s-3.357-7.5-7.5-7.5h-141.422c-4.143 0-7.5 3.358-7.5 7.5s3.357 7.5 7.5 7.5h122.811v12.703c0 4.142 3.357 7.5 7.5 7.5z"/><path d="m306.508 177.131c4.143 0 7.5-3.358 7.5-7.5v-34.345c0-4.142-3.357-7.5-7.5-7.5h-101.016c-4.143 0-7.5 3.358-7.5 7.5v34.345c0 4.142 3.357 7.5 7.5 7.5zm-93.516-34.345h86.016v19.345h-86.016z"/><path d="m421.667 323.252h-16.744v-44.953c0-4.142-3.357-7.5-7.5-7.5s-7.5 3.358-7.5 7.5v205.998c0 7.004-5.698 12.703-12.703 12.703h-242.44c-7.005 0-12.703-5.699-12.703-12.703v-258.299c.857.08 1.724.126 2.602.126h14.724v30.886c0 13.048 10.615 23.663 23.663 23.663 13.047 0 23.662-10.615 23.662-23.663v-30.886h138.545v30.886c0 13.048 10.615 23.663 23.662 23.663 13.048 0 23.663-10.615 23.663-23.663v-30.886h14.724c.878 0 1.745-.046 2.602-.126v17.288c0 4.142 3.357 7.5 7.5 7.5s7.5-3.358 7.5-7.5v-23.488c6.165-5.085 10.102-12.78 10.102-21.377v-91.925c0-8.597-3.937-16.292-10.102-21.377v-57.416c-.001-15.275-12.429-27.703-27.704-27.703h-40.406c-15.276 0-27.704 12.428-27.704 27.703v51.089h-26.285l-2.35-18.802c-1.541-12.316-12.063-21.604-24.475-21.604s-22.934 9.288-24.475 21.605l-2.35 18.801h-26.285v-51.089c.001-15.275-12.427-27.703-27.703-27.703h-40.407c-15.275 0-27.703 12.428-27.703 27.703v57.416c-6.165 5.085-10.102 12.78-10.102 21.377v42.933c0 4.142 3.357 7.5 7.5 7.5s7.5-3.358 7.5-7.5v-42.933c0-7.005 5.698-12.704 12.703-12.704h262.643c7.005 0 12.703 5.699 12.703 12.704v91.925c0 7.004-5.698 12.703-12.703 12.703h-262.642c-7.005 0-12.703-5.699-12.703-12.703v-13.992c0-4.142-3.357-7.5-7.5-7.5s-7.5 3.358-7.5 7.5v13.992c0 8.597 3.937 16.292 10.102 21.377v103.454h-16.745c-15.275 0-27.703 12.428-27.703 27.703v101.017c0 15.275 12.428 27.703 27.703 27.703h16.744v4.622c0 15.275 12.428 27.703 27.703 27.703h242.44c15.275 0 27.703-12.428 27.703-27.703v-4.622h16.744c15.275 0 27.703-12.428 27.703-27.703v-101.017c0-15.275-12.428-27.703-27.703-27.703zm-175.257-261.4c.604-4.826 4.727-8.466 9.59-8.466s8.986 3.64 9.59 8.465l2.117 16.941h-23.414zm-124.333 17.066v-51.215c0-7.004 5.698-12.703 12.703-12.703h40.406c7.005 0 12.704 5.699 12.704 12.703v51.089h-63.212c-.877 0-1.744.046-2.601.126zm202.032-.126v-51.089c0-7.004 5.699-12.703 12.704-12.703h40.406c7.005 0 12.703 5.699 12.703 12.703v51.215c-.857-.08-1.724-.126-2.602-.126zm-152.381 178.218c0 4.776-3.886 8.663-8.662 8.663s-8.663-3.886-8.663-8.663v-30.886h17.325zm185.87 0c0 4.776-3.887 8.663-8.663 8.663s-8.662-3.886-8.662-8.663v-30.886h17.325zm-267.265 207.665c-7.005 0-12.703-5.699-12.703-12.703v-101.017c0-7.004 5.698-12.703 12.703-12.703h16.744v126.423zm344.037-12.703c0 7.004-5.698 12.703-12.703 12.703h-16.744v-126.423h16.744c7.005 0 12.703 5.699 12.703 12.703z"/><path d="m146.902 382.071c-4.143 0-7.5 3.358-7.5 7.5v62.4c0 15.275 12.428 27.703 27.703 27.703h177.789c15.275 0 27.703-12.428 27.703-27.703v-101.016c0-15.275-12.428-27.703-27.703-27.703h-177.789c-15.275 0-27.703 12.428-27.703 27.703v3.609c0 4.142 3.357 7.5 7.5 7.5s7.5-3.358 7.5-7.5v-3.609c0-7.004 5.698-12.703 12.703-12.703h177.789c7.005 0 12.703 5.699 12.703 12.703v101.017c0 7.004-5.698 12.703-12.703 12.703h-177.789c-7.005 0-12.703-5.699-12.703-12.703v-62.4c0-4.143-3.357-7.501-7.5-7.501z"/></g></g></svg>