<?xml version="1.0" encoding="UTF-8"?>
<!DOCTYPE svg PUBLIC "-//W3C//DTD SVG 1.1//EN" "http://www.w3.org/Graphics/SVG/1.1/DTD/svg11.dtd">
<svg xmlns="http://www.w3.org/2000/svg" version="1.1" width="590px" height="612px" style="shape-rendering:geometricPrecision; text-rendering:geometricPrecision; image-rendering:optimizeQuality; fill-rule:evenodd; clip-rule:evenodd" xmlns:xlink="http://www.w3.org/1999/xlink">
<g><path style="opacity:0.929" fill="#d74640" d="M -0.5,-0.5 C -0.166667,-0.5 0.166667,-0.5 0.5,-0.5C 0.333349,33.5016 0.500016,67.5016 1,101.5C 3.61092,104.721 5.11092,108.387 5.5,112.5C 3.5,109.833 1.5,107.167 -0.5,104.5C -0.5,69.5 -0.5,34.5 -0.5,-0.5 Z"/></g>
<g><path style="opacity:0.998" fill="#d22d24" d="M 0.5,-0.5 C 196.833,-0.5 393.167,-0.5 589.5,-0.5C 589.5,34.5 589.5,69.5 589.5,104.5C 492.527,271.769 395.527,439.102 298.5,606.5C 296.621,607.341 294.621,607.675 292.5,607.5C 250.775,536.43 209.442,465.097 168.5,393.5C 168.034,391.799 168.034,390.299 168.5,389C 166.935,387.588 165.269,386.421 163.5,385.5C 110.086,294.914 57.4191,203.914 5.5,112.5C 5.11092,108.387 3.61092,104.721 1,101.5C 0.500016,67.5016 0.333349,33.5016 0.5,-0.5 Z"/></g>
<g><path style="opacity:1" fill="#eeae23" d="M 571.5,102.5 C 571.5,73.8333 571.5,45.1667 571.5,16.5C 386.833,16.5 202.167,16.5 17.5,16.5C 17.5,45.1667 17.5,73.8333 17.5,102.5C 16.502,73.6715 16.1686,44.6715 16.5,15.5C 201.833,15.5 387.167,15.5 572.5,15.5C 572.831,44.6715 572.498,73.6715 571.5,102.5 Z"/></g>
<g><path style="opacity:1" fill="#f6d018" d="M 571.5,102.5 C 479.57,262.034 387.404,421.367 295,580.5C 202.25,421.335 109.75,262.002 17.5,102.5C 17.5,73.8333 17.5,45.1667 17.5,16.5C 202.167,16.5 386.833,16.5 571.5,16.5C 571.5,45.1667 571.5,73.8333 571.5,102.5 Z"/></g>
<g><path style="opacity:1" fill="#d12820" d="M 33.5,32.5 C 207.5,32.5 381.5,32.5 555.5,32.5C 555.5,50.8333 555.5,69.1667 555.5,87.5C 381.5,87.5 207.5,87.5 33.5,87.5C 33.5,69.1667 33.5,50.8333 33.5,32.5 Z"/></g>
<g><path style="opacity:1" fill="#f6cd1a" d="M 55.5,38.5 C 60.5365,38.4126 65.5365,38.746 70.5,39.5C 70.5,41.5 70.5,43.5 70.5,45.5C 62.524,42.876 55.6906,44.5427 50,50.5C 46.2544,57.2812 47.0878,63.4479 52.5,69C 58.51,70.4342 64.51,70.9342 70.5,70.5C 69.6518,72.4086 69.3184,74.4086 69.5,76.5C 63.4908,76.6662 57.4908,76.4995 51.5,76C 38.8656,69.1858 36.0322,59.3524 43,46.5C 46.6715,42.9227 50.8381,40.2561 55.5,38.5 Z"/></g>
<g><path style="opacity:1" fill="#f6ce19" d="M 91.5,38.5 C 112.719,37.6715 120.552,47.3382 115,67.5C 107.851,76.1056 98.6841,78.9389 87.5,76C 75.2814,68.9688 72.4481,59.1355 79,46.5C 82.6715,42.9227 86.8381,40.2561 91.5,38.5 Z"/></g>
<g><path style="opacity:1" fill="#f6cd1a" d="M 124.5,39.5 C 128.106,39.2108 131.606,39.5442 135,40.5C 140.333,49.1667 145.667,57.8333 151,66.5C 151.358,57.4845 151.858,48.4845 152.5,39.5C 154.833,39.5 157.167,39.5 159.5,39.5C 159.067,51.83 158.734,64.1633 158.5,76.5C 155.15,76.665 151.817,76.4983 148.5,76C 142.958,67.0818 137.291,58.2485 131.5,49.5C 130.502,58.4754 130.168,67.4754 130.5,76.5C 127.753,76.8134 125.086,76.48 122.5,75.5C 123.443,63.5424 124.11,51.5424 124.5,39.5 Z"/></g>
<g><path style="opacity:1" fill="#f6ce1a" d="M 181.5,38.5 C 199.249,37.0837 207.416,45.0837 206,62.5C 204.939,65.5616 203.106,68.0616 200.5,70C 202.936,69.9466 205.269,70.1133 207.5,70.5C 206.691,72.0709 206.357,73.7376 206.5,75.5C 197.189,76.5206 187.856,76.6872 178.5,76C 167.679,71.8639 163.512,64.0306 166,52.5C 168.869,45.1236 174.036,40.4569 181.5,38.5 Z"/></g>
<g><path style="opacity:1" fill="#f6cf19" d="M 214.5,39.5 C 217.167,39.5 219.833,39.5 222.5,39.5C 221.615,48.4867 221.448,57.4867 222,66.5C 223.804,69.8171 226.637,71.1504 230.5,70.5C 233.637,70.949 236.137,69.949 238,67.5C 239.419,58.2224 240.252,48.889 240.5,39.5C 243.167,39.5 245.833,39.5 248.5,39.5C 247.983,48.8278 247.483,58.1611 247,67.5C 245.895,70.9371 243.728,73.4371 240.5,75C 232.658,77.3204 224.991,76.987 217.5,74C 215.951,72.786 214.785,71.286 214,69.5C 213.676,59.497 213.843,49.497 214.5,39.5 Z"/></g>
<g><path style="opacity:1" fill="#f6cc1a" d="M 255.5,39.5 C 258.5,39.5 261.5,39.5 264.5,39.5C 263.582,51.803 263.248,64.1363 263.5,76.5C 260.5,76.5 257.5,76.5 254.5,76.5C 255.285,64.1831 255.618,51.8497 255.5,39.5 Z"/></g>
<g><path style="opacity:1" fill="#f6ce1a" d="M 278.5,38.5 C 283.203,38.4372 287.87,38.7705 292.5,39.5C 292.5,41.5 292.5,43.5 292.5,45.5C 288.854,44.7166 285.188,44.5499 281.5,45C 279.327,46.8647 278.993,49.0314 280.5,51.5C 286.173,55.6616 290.506,60.8282 293.5,67C 292.688,71.1498 290.354,74.1498 286.5,76C 280.796,76.6873 275.13,76.5207 269.5,75.5C 269.201,73.396 269.534,71.396 270.5,69.5C 274.002,71.2622 277.668,71.7622 281.5,71C 283.513,70.3203 284.846,68.987 285.5,67C 282.346,62.5124 278.512,58.6791 274,55.5C 268.47,47.9848 269.97,42.3181 278.5,38.5 Z"/></g>
<g><path style="opacity:1" fill="#f6cc1b" d="M 297.5,39.5 C 307.833,39.5 318.167,39.5 328.5,39.5C 328.5,41.5 328.5,43.5 328.5,45.5C 324.5,45.5 320.5,45.5 316.5,45.5C 316.125,55.8317 315.792,66.165 315.5,76.5C 312.833,76.5 310.167,76.5 307.5,76.5C 307.792,66.165 308.125,55.8317 308.5,45.5C 304.833,45.5 301.167,45.5 297.5,45.5C 297.5,43.5 297.5,41.5 297.5,39.5 Z"/></g>
<g><path style="opacity:1" fill="#f6cc1a" d="M 345.5,39.5 C 349.106,39.2108 352.606,39.5442 356,40.5C 360.277,52.4976 364.443,64.4976 368.5,76.5C 365.552,76.7771 362.719,76.4438 360,75.5C 358.523,71.5701 357.356,67.5701 356.5,63.5C 351.167,63.5 345.833,63.5 340.5,63.5C 338.87,67.4378 337.203,71.4378 335.5,75.5C 332.5,76.8333 329.5,76.8333 326.5,75.5C 333.214,63.6843 339.547,51.6843 345.5,39.5 Z"/></g>
<g><path style="opacity:1" fill="#f6cd1a" d="M 374.5,39.5 C 383.582,39.0863 392.582,39.5863 401.5,41C 406.778,44.5543 409.445,49.5543 409.5,56C 409.162,67.4094 403.495,74.0761 392.5,76C 385.842,76.4996 379.175,76.6663 372.5,76.5C 373.609,64.1946 374.276,51.8613 374.5,39.5 Z"/></g>
<g><path style="opacity:1" fill="#f6cd1a" d="M 429.5,38.5 C 450.089,37.2445 458.256,46.5779 454,66.5C 451.778,70.3881 448.612,73.2214 444.5,75C 436.135,77.5465 428.135,76.8798 420.5,73C 417.894,71.0616 416.061,68.5616 415,65.5C 412.011,52.1378 416.844,43.1378 429.5,38.5 Z"/></g>
<g><path style="opacity:1" fill="#f6ce1a" d="M 462.5,39.5 C 469.841,39.3337 477.174,39.5003 484.5,40C 487.057,40.6853 488.891,42.1853 490,44.5C 492.248,52.394 489.414,57.0607 481.5,58.5C 483.346,64.527 486.013,70.1936 489.5,75.5C 486.628,76.7825 483.795,76.7825 481,75.5C 478.44,69.3791 475.606,63.3791 472.5,57.5C 475.144,56.6042 477.81,55.7709 480.5,55C 484.84,51.0662 484.507,47.7329 479.5,45C 476.24,44.2165 473.073,44.3832 470,45.5C 469.5,55.828 469.334,66.1613 469.5,76.5C 466.833,76.5 464.167,76.5 461.5,76.5C 461.798,64.1655 462.132,51.8322 462.5,39.5 Z"/></g>
<g><path style="opacity:1" fill="#f6cf19" d="M 523.5,39.5 C 523.5,41.1667 523.5,42.8333 523.5,44.5C 517.31,44.1771 511.31,44.5104 505.5,45.5C 505.5,48.5 505.5,51.5 505.5,54.5C 510.833,54.5 516.167,54.5 521.5,54.5C 521.5,56.5 521.5,58.5 521.5,60.5C 515.833,60.5 510.167,60.5 504.5,60.5C 504.5,63.8333 504.5,67.1667 504.5,70.5C 510.5,70.5 516.5,70.5 522.5,70.5C 522.5,72.1667 522.5,73.8333 522.5,75.5C 513.833,75.5 505.167,75.5 496.5,75.5C 496.5,73.8333 496.5,72.1667 496.5,70.5C 497.267,60.1851 497.601,49.8518 497.5,39.5C 506.167,39.5 514.833,39.5 523.5,39.5 Z"/></g>
<g><path style="opacity:1" fill="#f6ce1a" d="M 537.5,38.5 C 542.203,38.4372 546.87,38.7705 551.5,39.5C 551.5,41.5 551.5,43.5 551.5,45.5C 547.869,44.588 544.203,44.4213 540.5,45C 538.604,46.8083 538.104,48.975 539,51.5C 544.985,55.4778 549.485,60.6445 552.5,67C 551.598,71.5684 548.932,74.5684 544.5,76C 539.129,76.6761 533.796,76.5095 528.5,75.5C 528.201,73.396 528.534,71.396 529.5,69.5C 534.063,72.0407 538.563,72.0407 543,69.5C 543.667,67.8333 543.667,66.1667 543,64.5C 539.965,61.1298 536.632,58.1298 533,55.5C 527.47,47.9848 528.97,42.3181 537.5,38.5 Z"/></g>
<g><path style="opacity:1" fill="#e88c22" d="M 523.5,39.5 C 524.461,41.2646 524.795,43.2646 524.5,45.5C 518.167,45.5 511.833,45.5 505.5,45.5C 511.31,44.5104 517.31,44.1771 523.5,44.5C 523.5,42.8333 523.5,41.1667 523.5,39.5 Z"/></g>
<g><path style="opacity:1" fill="#d12920" d="M 92.5,44.5 C 107.416,44.5787 112.25,51.5787 107,65.5C 102.509,70.2591 97.0092,71.7591 90.5,70C 84.2397,66.2351 82.0731,60.7351 84,53.5C 85.6878,49.3148 88.5212,46.3148 92.5,44.5 Z"/></g>
<g><path style="opacity:1" fill="#d12720" d="M 182.5,44.5 C 195.334,43.8367 200.501,49.8367 198,62.5C 197.31,65.196 195.81,67.3626 193.5,69C 178.665,73.1797 172.165,67.6797 174,52.5C 176.074,48.9231 178.907,46.2565 182.5,44.5 Z"/></g>
<g><path style="opacity:1" fill="#d22b20" d="M 382.5,44.5 C 396.352,42.193 402.519,47.8597 401,61.5C 396.937,69.4447 390.437,72.4447 381.5,70.5C 381.197,61.7489 381.53,53.0823 382.5,44.5 Z"/></g>
<g><path style="opacity:1" fill="#d12720" d="M 430.5,44.5 C 445.02,43.8631 450.186,50.5298 446,64.5C 444.749,67.3807 442.583,69.214 439.5,70C 425.519,72.3495 420.019,66.5162 423,52.5C 425.028,49.3078 427.528,46.6411 430.5,44.5 Z"/></g>
<g><path style="opacity:1" fill="#d02a20" d="M 349.5,45.5 C 351.935,49.0583 353.268,53.0583 353.5,57.5C 350.428,57.8174 347.428,57.4841 344.5,56.5C 346.453,52.9307 348.119,49.264 349.5,45.5 Z"/></g>
<g><path style="opacity:1" fill="#e89c23" d="M 496.5,70.5 C 496.5,72.1667 496.5,73.8333 496.5,75.5C 505.167,75.5 513.833,75.5 522.5,75.5C 513.682,76.4933 504.682,76.8266 495.5,76.5C 495.205,74.2646 495.539,72.2646 496.5,70.5 Z"/></g>
<g><path style="opacity:1" fill="#d12520" d="M 34.5,102.5 C 207.835,102.167 381.168,102.5 554.5,103.5C 468.266,251.632 381.766,399.632 295,547.5C 208.374,400.264 121.707,252.93 35,105.5C 34.5172,104.552 34.3505,103.552 34.5,102.5 Z"/></g>
<g><path style="opacity:1" fill="#f6cf19" d="M 466.5,166.5 C 460.335,168.959 454.001,170.959 447.5,172.5C 448.779,164.879 449.779,157.212 450.5,149.5C 426.705,153.974 402.705,156.641 378.5,157.5C 367.751,157.704 357.084,156.87 346.5,155C 328.883,152.054 311.383,148.554 294,144.5C 272.673,149.54 251.173,153.707 229.5,157C 198.824,158.527 168.49,156.027 138.5,149.5C 142.28,184.667 151.447,218.334 166,250.5C 170.262,257.368 174.762,264.035 179.5,270.5C 177.114,271.298 174.78,272.298 172.5,273.5C 169.377,269.422 166.377,265.255 163.5,261C 160.406,260.749 157.406,261.249 154.5,262.5C 142.576,241.572 134.076,219.239 129,195.5C 123.869,173.419 120.369,151.086 118.5,128.5C 135.675,132.96 153.008,136.793 170.5,140C 195.558,144.819 220.558,144.485 245.5,139C 261.885,136.057 278.052,132.223 294,127.5C 322.573,136.115 351.74,141.448 381.5,143.5C 395.619,143.121 409.619,141.621 423.5,139C 439.219,135.653 454.886,132.153 470.5,128.5C 469.331,141.188 467.997,153.855 466.5,166.5 Z"/></g>
<g><path style="opacity:1" fill="#d12921" d="M 447.5,172.5 C 442.314,174.676 436.981,176.676 431.5,178.5C 431.541,174.384 432.207,170.384 433.5,166.5C 409.908,169.37 386.242,170.87 362.5,171C 338.99,167.831 315.823,162.998 293,156.5C 271.174,162.831 249.007,167.664 226.5,171C 202.011,171.964 177.677,170.464 153.5,166.5C 159.03,194.923 167.863,222.256 180,248.5C 183.329,253.986 186.829,259.32 190.5,264.5C 187.028,266.738 183.362,268.738 179.5,270.5C 174.762,264.035 170.262,257.368 166,250.5C 151.447,218.334 142.28,184.667 138.5,149.5C 168.49,156.027 198.824,158.527 229.5,157C 251.173,153.707 272.673,149.54 294,144.5C 311.383,148.554 328.883,152.054 346.5,155C 357.084,156.87 367.751,157.704 378.5,157.5C 402.705,156.641 426.705,153.974 450.5,149.5C 449.779,157.212 448.779,164.879 447.5,172.5 Z"/></g>
<g><path style="opacity:1" fill="#fefdfd" d="M 431.5,178.5 C 361.443,202.297 291.443,226.297 221.5,250.5C 218.274,239.433 215.274,228.266 212.5,217C 214.617,212.716 216.95,208.549 219.5,204.5C 219,204.167 218.5,203.833 218,203.5C 203.384,207.54 188.884,211.873 174.5,216.5C 180.061,219.074 185.561,221.741 191,224.5C 195.901,235.866 199.568,247.533 202,259.5C 198.219,261.308 194.385,262.974 190.5,264.5C 186.829,259.32 183.329,253.986 180,248.5C 167.863,222.256 159.03,194.923 153.5,166.5C 177.677,170.464 202.011,171.964 226.5,171C 249.007,167.664 271.174,162.831 293,156.5C 315.823,162.998 338.99,167.831 362.5,171C 386.242,170.87 409.908,169.37 433.5,166.5C 432.207,170.384 431.541,174.384 431.5,178.5 Z"/></g>
<g><path style="opacity:1" fill="#f6cf19" d="M 464.5,169.5 C 460.431,200.783 451.265,230.449 437,258.5C 426.01,274.831 413.51,289.998 399.5,304C 367.336,333.413 332.336,358.913 294.5,380.5C 253.998,357.426 216.998,329.76 183.5,297.5C 183.577,296.25 184.244,295.417 185.5,295C 189.894,293.591 194.228,292.091 198.5,290.5C 209.582,302.252 221.582,312.918 234.5,322.5C 233.717,326.513 232.717,330.513 231.5,334.5C 231.833,335.167 232.167,335.833 232.5,336.5C 236.517,334.139 240.517,331.806 244.5,329.5C 260.416,341.47 277.082,352.47 294.5,362.5C 335.146,339.709 371.646,311.376 404,277.5C 416.129,263.587 425.462,247.921 432,230.5C 437.756,213.477 442.256,196.144 445.5,178.5C 451.401,174.718 457.734,171.718 464.5,169.5 Z"/></g>
<g><path style="opacity:1" fill="#1a1a63" d="M 464.5,169.5 C 457.734,171.718 451.401,174.718 445.5,178.5C 439.708,180.896 434.041,183.563 428.5,186.5C 363.552,216.972 298.552,247.472 233.5,278C 232.483,279.049 232.316,280.216 233,281.5C 238,290.167 243,298.833 248,307.5C 253.771,310.593 259.605,313.593 265.5,316.5C 262.1,318.856 258.767,321.189 255.5,323.5C 251.7,325.234 248.034,327.234 244.5,329.5C 240.517,331.806 236.517,334.139 232.5,336.5C 232.167,335.833 231.833,335.167 231.5,334.5C 232.717,330.513 233.717,326.513 234.5,322.5C 231.165,312.832 226.499,303.832 220.5,295.5C 219.293,292.394 217.793,289.394 216,286.5C 214.384,285.199 212.884,285.199 211.5,286.5C 207.035,287.433 202.702,288.766 198.5,290.5C 194.228,292.091 189.894,293.591 185.5,295C 184.244,295.417 183.577,296.25 183.5,297.5C 184.464,302.81 184.964,308.143 185,313.5C 180.487,316.725 175.654,318.392 170.5,318.5C 163.302,300.605 155.968,282.771 148.5,265C 150.287,263.681 152.287,262.848 154.5,262.5C 157.406,261.249 160.406,260.749 163.5,261C 166.377,265.255 169.377,269.422 172.5,273.5C 174.78,272.298 177.114,271.298 179.5,270.5C 183.362,268.738 187.028,266.738 190.5,264.5C 194.385,262.974 198.219,261.308 202,259.5C 199.568,247.533 195.901,235.866 191,224.5C 185.561,221.741 180.061,219.074 174.5,216.5C 188.884,211.873 203.384,207.54 218,203.5C 218.5,203.833 219,204.167 219.5,204.5C 216.95,208.549 214.617,212.716 212.5,217C 215.274,228.266 218.274,239.433 221.5,250.5C 291.443,226.297 361.443,202.297 431.5,178.5C 436.981,176.676 442.314,174.676 447.5,172.5C 454.001,170.959 460.335,168.959 466.5,166.5C 468.137,165.782 469.803,165.616 471.5,166C 469.14,167.18 466.807,168.347 464.5,169.5 Z"/></g>
<g><path style="opacity:1" fill="#d12721" d="M 445.5,178.5 C 442.256,196.144 437.756,213.477 432,230.5C 425.462,247.921 416.129,263.587 404,277.5C 371.646,311.376 335.146,339.709 294.5,362.5C 277.082,352.47 260.416,341.47 244.5,329.5C 248.034,327.234 251.7,325.234 255.5,323.5C 267.796,332.32 280.462,340.653 293.5,348.5C 327.674,328.176 358.841,303.842 387,275.5C 400.288,261.272 410.288,244.939 417,226.5C 421.459,213.327 425.292,199.994 428.5,186.5C 434.041,183.563 439.708,180.896 445.5,178.5 Z"/></g>
<g><path style="opacity:1" fill="#fefdfd" d="M 428.5,186.5 C 425.292,199.994 421.459,213.327 417,226.5C 410.288,244.939 400.288,261.272 387,275.5C 358.841,303.842 327.674,328.176 293.5,348.5C 280.462,340.653 267.796,332.32 255.5,323.5C 258.767,321.189 262.1,318.856 265.5,316.5C 259.605,313.593 253.771,310.593 248,307.5C 243,298.833 238,290.167 233,281.5C 232.316,280.216 232.483,279.049 233.5,278C 298.552,247.472 363.552,216.972 428.5,186.5 Z"/></g>
<g><path style="opacity:1" fill="#ecdee2" d="M 220.5,295.5 C 217.167,292.833 214.167,289.833 211.5,286.5C 212.884,285.199 214.384,285.199 216,286.5C 217.793,289.394 219.293,292.394 220.5,295.5 Z"/></g>
<g><path style="opacity:1" fill="#d02821" d="M 211.5,286.5 C 214.167,289.833 217.167,292.833 220.5,295.5C 226.499,303.832 231.165,312.832 234.5,322.5C 221.582,312.918 209.582,302.252 198.5,290.5C 202.702,288.766 207.035,287.433 211.5,286.5 Z"/></g>
<g><path style="opacity:1" fill="#e87a6c" d="M 163.5,385.5 C 165.269,386.421 166.935,387.588 168.5,389C 168.034,390.299 168.034,391.799 168.5,393.5C 166.347,391.206 164.68,388.54 163.5,385.5 Z"/></g>
<g><path style="opacity:1" fill="#f7bf05" d="M 254.5,399.5 C 264.802,397.325 270.136,401.325 270.5,411.5C 267.833,411.5 265.167,411.5 262.5,411.5C 263.592,406.877 261.925,405.044 257.5,406C 256.167,412.667 256.167,419.333 257.5,426C 259.112,426.72 260.612,426.554 262,425.5C 262.495,423.527 262.662,421.527 262.5,419.5C 265.167,419.5 267.833,419.5 270.5,419.5C 270.492,430.869 264.825,435.035 253.5,432C 252.333,430.833 251.167,429.667 250,428.5C 248.437,420.913 248.104,413.246 249,405.5C 250.36,402.977 252.193,400.977 254.5,399.5 Z"/></g>
<g><path style="opacity:1" fill="#e9881c" d="M 274.5,400.5 C 274.5,410.833 274.5,421.167 274.5,431.5C 280.167,431.5 285.833,431.5 291.5,431.5C 285.69,432.49 279.69,432.823 273.5,432.5C 273.172,421.654 273.506,410.987 274.5,400.5 Z"/></g>
<g><path style="opacity:1" fill="#f7c005" d="M 274.5,400.5 C 277.167,400.5 279.833,400.5 282.5,400.5C 282.5,408.833 282.5,417.167 282.5,425.5C 285.5,425.5 288.5,425.5 291.5,425.5C 291.5,427.5 291.5,429.5 291.5,431.5C 285.833,431.5 280.167,431.5 274.5,431.5C 274.5,421.167 274.5,410.833 274.5,400.5 Z"/></g>
<g><path style="opacity:1" fill="#f7c203" d="M 294.5,400.5 C 297.167,400.5 299.833,400.5 302.5,400.5C 302.334,409.173 302.5,417.84 303,426.5C 304.938,427.86 306.604,427.527 308,425.5C 308.5,417.173 308.666,408.84 308.5,400.5C 311.167,400.5 313.833,400.5 316.5,400.5C 316.917,409.915 316.417,419.248 315,428.5C 312.464,431.766 309.131,433.1 305,432.5C 300.164,432.997 296.831,430.997 295,426.5C 294.5,417.84 294.334,409.173 294.5,400.5 Z"/></g>
<g><path style="opacity:1" fill="#e88717" d="M 320.5,400.5 C 320.5,410.833 320.5,421.167 320.5,431.5C 324.833,431.5 329.167,431.5 333.5,431.5C 329.03,432.486 324.363,432.819 319.5,432.5C 319.172,421.654 319.506,410.987 320.5,400.5 Z"/></g>
<g><path style="opacity:1" fill="#f7c202" d="M 320.5,400.5 C 325.511,400.334 330.511,400.501 335.5,401C 342.637,404.692 343.304,409.359 337.5,415C 342.765,420.26 342.765,425.593 337.5,431C 336.207,431.49 334.873,431.657 333.5,431.5C 329.167,431.5 324.833,431.5 320.5,431.5C 320.5,421.167 320.5,410.833 320.5,400.5 Z"/></g>
<g><path style="opacity:1" fill="#d3381f" d="M 327.5,406.5 C 332.667,405.492 334.334,407.325 332.5,412C 330.866,412.494 329.199,412.66 327.5,412.5C 327.5,410.5 327.5,408.5 327.5,406.5 Z"/></g>
<g><path style="opacity:1" fill="#d43c1f" d="M 327.5,418.5 C 332.881,418.452 334.547,420.952 332.5,426C 330.866,426.494 329.199,426.66 327.5,426.5C 327.5,423.833 327.5,421.167 327.5,418.5 Z"/></g>
<g><path style="opacity:1" fill="#e87a6b" d="M 298.5,606.5 C 298.107,608.284 297.441,609.95 296.5,611.5C 295.833,611.5 295.167,611.5 294.5,611.5C 293.4,610.395 292.733,609.062 292.5,607.5C 294.621,607.675 296.621,607.341 298.5,606.5 Z"/></g>
</svg>
