<?xml version="1.0" encoding="UTF-8"?>
<!DOCTYPE svg PUBLIC "-//W3C//DTD SVG 1.1//EN" "http://www.w3.org/Graphics/SVG/1.1/DTD/svg11.dtd">
<svg xmlns="http://www.w3.org/2000/svg" version="1.1" width="997px" height="699px" style="shape-rendering:geometricPrecision; text-rendering:geometricPrecision; image-rendering:optimizeQuality; fill-rule:evenodd; clip-rule:evenodd" xmlns:xlink="http://www.w3.org/1999/xlink">
<g><path style="opacity:1" fill="#3f1428" d="M 456.5,-0.5 C 456.833,-0.5 457.167,-0.5 457.5,-0.5C 458.167,0.833333 458.833,0.833333 459.5,-0.5C 459.833,-0.5 460.167,-0.5 460.5,-0.5C 461.833,0.833333 463.167,0.833333 464.5,-0.5C 464.833,-0.5 465.167,-0.5 465.5,-0.5C 465.833,0.833333 466.167,0.833333 466.5,-0.5C 467.167,-0.5 467.833,-0.5 468.5,-0.5C 468.833,0.833333 469.167,0.833333 469.5,-0.5C 469.833,-0.5 470.167,-0.5 470.5,-0.5C 470.833,0.833333 471.167,0.833333 471.5,-0.5C 471.833,-0.5 472.167,-0.5 472.5,-0.5C 472.833,0.833333 473.167,0.833333 473.5,-0.5C 473.833,-0.5 474.167,-0.5 474.5,-0.5C 474.833,0.833333 475.167,0.833333 475.5,-0.5C 476.5,-0.5 477.5,-0.5 478.5,-0.5C 478.833,0.833333 479.167,0.833333 479.5,-0.5C 480.833,-0.5 482.167,-0.5 483.5,-0.5C 483.833,0.833333 484.167,0.833333 484.5,-0.5C 485.833,-0.5 487.167,-0.5 488.5,-0.5C 488.833,0.833333 489.167,0.833333 489.5,-0.5C 490.833,-0.5 492.167,-0.5 493.5,-0.5C 493.833,0.833333 494.167,0.833333 494.5,-0.5C 495.833,-0.5 497.167,-0.5 498.5,-0.5C 498.833,0.833333 499.167,0.833333 499.5,-0.5C 500.833,-0.5 502.167,-0.5 503.5,-0.5C 503.833,0.833333 504.167,0.833333 504.5,-0.5C 505.833,-0.5 507.167,-0.5 508.5,-0.5C 508.833,0.833333 509.167,0.833333 509.5,-0.5C 510.833,-0.5 512.167,-0.5 513.5,-0.5C 513.833,0.833333 514.167,0.833333 514.5,-0.5C 515.833,-0.5 517.167,-0.5 518.5,-0.5C 518.833,0.833333 519.167,0.833333 519.5,-0.5C 520.833,-0.5 522.167,-0.5 523.5,-0.5C 523.833,0.833333 524.167,0.833333 524.5,-0.5C 524.833,-0.5 525.167,-0.5 525.5,-0.5C 525.833,0.833333 526.167,0.833333 526.5,-0.5C 527.167,-0.5 527.833,-0.5 528.5,-0.5C 528.833,0.833333 529.167,0.833333 529.5,-0.5C 529.833,-0.5 530.167,-0.5 530.5,-0.5C 531.5,0.833333 532.5,0.833333 533.5,-0.5C 533.833,-0.5 534.167,-0.5 534.5,-0.5C 535.167,0.833333 535.833,0.833333 536.5,-0.5C 536.833,-0.5 537.167,-0.5 537.5,-0.5C 541.565,0.193263 545.732,0.85993 550,1.5C 550.333,1.16667 550.667,0.833333 551,0.5C 554.495,1.14713 558.162,2.14713 562,3.5C 564.267,2.06516 566.267,2.3985 568,4.5C 572.374,3.525 577.041,3.85833 582,5.5C 584.024,4.70596 586.024,5.03929 588,6.5C 589.889,5.91061 591.889,5.57727 594,5.5C 595.892,6.13003 597.559,7.13003 599,8.5C 599.561,7.97814 600.228,7.6448 601,7.5C 611.564,8.75174 622.231,10.7517 633,13.5C 633.333,13.1667 633.667,12.8333 634,12.5C 639.901,13.9951 645.901,15.9951 652,18.5C 652.561,17.9781 653.228,17.6448 654,17.5C 663.393,20.1277 672.893,22.2944 682.5,24C 685.242,25.0704 687.742,26.5704 690,28.5C 690.414,28.0426 690.914,27.7093 691.5,27.5C 765.663,48.325 831.83,83.6584 890,133.5C 931.963,171.047 962.463,215.881 981.5,268C 982.865,273.582 984.531,279.415 986.5,285.5C 985.145,286.675 985.312,287.675 987,288.5C 990.535,302.716 993.369,316.549 995.5,330C 997.443,396.691 978.443,457.191 938.5,511.5C 905.542,554.6 865.375,589.6 818,616.5C 768.534,646.118 715.201,666.785 658,678.5C 631.942,686.324 606.109,691.157 580.5,693C 574.832,695.026 569.165,696.86 563.5,698.5C 562.833,698.5 562.167,698.5 561.5,698.5C 561.167,697.167 560.833,697.167 560.5,698.5C 560.167,698.5 559.833,698.5 559.5,698.5C 551.833,697.167 544.167,697.167 536.5,698.5C 535.833,698.5 535.167,698.5 534.5,698.5C 534.167,697.167 533.833,697.167 533.5,698.5C 532.167,698.5 530.833,698.5 529.5,698.5C 529.167,697.167 528.833,697.167 528.5,698.5C 527.167,698.5 525.833,698.5 524.5,698.5C 524.167,697.167 523.833,697.167 523.5,698.5C 522.167,698.5 520.833,698.5 519.5,698.5C 519.167,697.167 518.833,697.167 518.5,698.5C 517.167,698.5 515.833,698.5 514.5,698.5C 514.167,697.167 513.833,697.167 513.5,698.5C 512.167,698.5 510.833,698.5 509.5,698.5C 509.167,697.167 508.833,697.167 508.5,698.5C 507.167,698.5 505.833,698.5 504.5,698.5C 504.167,697.167 503.833,697.167 503.5,698.5C 502.167,698.5 500.833,698.5 499.5,698.5C 499.167,697.167 498.833,697.167 498.5,698.5C 497.167,698.5 495.833,698.5 494.5,698.5C 494.167,697.167 493.833,697.167 493.5,698.5C 492.167,698.5 490.833,698.5 489.5,698.5C 489.167,697.167 488.833,697.167 488.5,698.5C 487.167,698.5 485.833,698.5 484.5,698.5C 484.167,697.167 483.833,697.167 483.5,698.5C 482.167,698.5 480.833,698.5 479.5,698.5C 479.167,697.167 478.833,697.167 478.5,698.5C 477.167,698.5 475.833,698.5 474.5,698.5C 474.167,697.167 473.833,697.167 473.5,698.5C 472.167,698.5 470.833,698.5 469.5,698.5C 469.167,697.167 468.833,697.167 468.5,698.5C 467.5,698.5 466.5,698.5 465.5,698.5C 465.167,697.167 464.833,697.167 464.5,698.5C 463.833,698.5 463.167,698.5 462.5,698.5C 454.167,697.167 445.833,697.167 437.5,698.5C 436.5,698.5 435.5,698.5 434.5,698.5C 434.167,697.167 433.833,697.167 433.5,698.5C 433.167,698.5 432.833,698.5 432.5,698.5C 428.047,696.712 423.38,695.212 418.5,694C 385.91,689.947 354.076,683.78 323,675.5C 237.413,654.949 161.58,615.116 95.5,556C 75.8584,535.667 58.3584,514.167 43,491.5C 22.5686,457.633 9.4019,421.799 3.5,384C 2.83333,382.333 2.16667,380.667 1.5,379C 2.86557,375.861 2.53224,372.527 0.5,369C 0.833333,368.667 1.16667,368.333 1.5,368C 0.85993,363.732 0.193263,359.565 -0.5,355.5C -0.5,355.167 -0.5,354.833 -0.5,354.5C 0.833333,353.5 0.833333,352.5 -0.5,351.5C -0.5,350.833 -0.5,350.167 -0.5,349.5C 0.833333,348.833 0.833333,348.167 -0.5,347.5C -0.5,347.167 -0.5,346.833 -0.5,346.5C 0.833333,346.167 0.833333,345.833 -0.5,345.5C -0.5,344.5 -0.5,343.5 -0.5,342.5C 0.82317,335.694 1.82317,328.86 2.5,322C 0.997713,319.994 1.33105,318.328 3.5,317C 9.39541,273.783 24.3954,234.283 48.5,198.5C 60.7108,181.387 74.2108,164.721 89,148.5C 89.6667,149.833 90.3333,149.833 91,148.5C 97.0773,139.443 104.744,131.776 114,125.5C 130.864,112.488 148.53,99.8218 167,87.5C 167.333,87.8333 167.667,88.1667 168,88.5C 169.097,86.9474 170.43,85.614 172,84.5C 201.21,67.1715 231.21,52.8382 262,41.5C 275.476,36.2302 289.143,31.5635 303,27.5C 303.772,27.6448 304.439,27.9781 305,28.5C 309.478,25.5545 314.478,23.5545 320,22.5C 320.772,22.6448 321.439,22.9781 322,23.5C 322.903,22.2986 324.069,21.4652 325.5,21C 339.307,18.4466 352.14,15.6132 364,12.5C 364.772,12.6448 365.439,12.9781 366,13.5C 367.733,11.3985 369.733,11.0652 372,12.5C 372.953,10.4078 374.286,10.0745 376,11.5C 376.5,11 377,10.5 377.5,10C 386.366,9.56715 395.033,8.06715 403.5,5.5C 406.8,6.6507 410.3,6.31737 414,4.5C 415.343,5.2135 416.676,4.88017 418,3.5C 423.821,2.96132 429.488,2.96132 435,3.5C 439.626,2.30777 444.626,1.30777 450,0.5C 452.632,1.81642 454.798,1.48308 456.5,-0.5 Z"/></g>
<g><path style="opacity:1" fill="#e1e228" d="M 515.5,26.5 C 524.607,28.2253 533.94,28.8919 543.5,28.5C 554.372,29.5527 565.372,30.5527 576.5,31.5C 579.997,32.4025 583.663,33.0691 587.5,33.5C 677.433,43.8145 760.1,73.9811 835.5,124C 870.089,149.255 899.922,179.089 925,213.5C 935.491,231.032 944.825,249.032 953,267.5C 954.81,276.117 957.477,284.451 961,292.5C 962.189,301.167 964.022,309.667 966.5,318C 965.507,320.453 965.34,322.953 966,325.5C 967.363,326.893 968.196,328.559 968.5,330.5C 966.83,334.465 966.497,338.465 967.5,342.5C 967.167,348.5 966.833,354.5 966.5,360.5C 966.918,361.222 967.584,361.722 968.5,362C 965.991,376.541 963.491,391.041 961,405.5C 957.246,415.308 953.913,425.308 951,435.5C 938.729,463.134 923.062,488.801 904,512.5C 850.439,570.704 785.939,611.87 710.5,636C 707.833,637.333 705.167,638.667 702.5,640C 689.879,643.657 677.212,647.324 664.5,651C 660.833,651.333 657.167,651.667 653.5,652C 641.646,655.619 629.646,658.619 617.5,661C 599.659,664.313 581.659,666.48 563.5,667.5C 563.5,668.833 563.5,670.167 563.5,671.5C 560.215,671.319 557.215,670.319 554.5,668.5C 551.978,669.089 549.478,669.755 547,670.5C 543.002,670.3 538.835,670.3 534.5,670.5C 505.158,670.685 475.825,670.352 446.5,669.5C 442.289,667.908 438.456,668.575 435,671.5C 432.567,670.403 430.4,668.903 428.5,667C 401.771,664.704 375.105,660.704 348.5,655C 342.537,652.082 336.204,650.749 329.5,651C 314.271,645.008 298.605,640.008 282.5,636C 231.587,617.611 184.587,592.278 141.5,560C 131.604,551.034 121.604,542.201 111.5,533.5C 88.8492,509.866 69.3492,483.866 53,455.5C 46.4011,439.807 40.4011,423.807 35,407.5C 33.6797,397.726 31.5131,388.226 28.5,379C 29.0903,376.804 29.7569,374.638 30.5,372.5C 29.1468,371.476 28.4802,370.143 28.5,368.5C 28.5,356.833 28.5,345.167 28.5,333.5C 29.1848,328.779 29.1848,324.112 28.5,319.5C 31.178,312.776 32.8447,305.776 33.5,298.5C 34.9238,296.485 35.5905,294.152 35.5,291.5C 38.5705,280.881 41.9039,270.381 45.5,260C 62.1098,224.098 84.1098,192.098 111.5,164C 112.766,163.691 113.933,163.191 115,162.5C 117.809,158.39 120.975,154.557 124.5,151C 139.012,140.577 153.345,129.91 167.5,119C 181.346,110.913 195.013,102.579 208.5,94C 226.764,85.3653 245.098,77.032 263.5,69C 285.298,60.4011 307.298,53.0678 329.5,47C 337.447,46.4903 345.114,44.8236 352.5,42C 361.127,41.3859 369.461,39.7192 377.5,37C 395.161,33.9239 412.994,31.4239 431,29.5C 432,29.8333 433,30.1667 434,30.5C 440.072,29.0352 446.238,28.2019 452.5,28C 473.486,26.8837 494.486,26.3837 515.5,26.5 Z"/></g>
<g><path style="opacity:1" fill="#bba94a" d="M 515.5,26.5 C 522.841,26.3337 530.174,26.5003 537.5,27C 539.708,27.1909 541.708,27.6909 543.5,28.5C 533.94,28.8919 524.607,28.2253 515.5,26.5 Z"/></g>
<g><path style="opacity:1" fill="#a28f48" d="M 576.5,31.5 C 579.518,31.3354 582.518,31.502 585.5,32C 586.416,32.2784 587.082,32.7784 587.5,33.5C 583.663,33.0691 579.997,32.4025 576.5,31.5 Z"/></g>
<g><path style="opacity:1" fill="#fdfdf9" d="M 539.5,88.5 C 529.833,88.5 520.167,88.5 510.5,88.5C 510.5,82.5 510.5,76.5 510.5,70.5C 512.199,70.3398 513.866,70.5065 515.5,71C 524.525,75.5397 532.525,81.3731 539.5,88.5 Z"/></g>
<g><path style="opacity:1" fill="#fdfcf6" d="M 486.5,88.5 C 476.5,88.5 466.5,88.5 456.5,88.5C 464.444,81.8558 472.777,75.6891 481.5,70C 483.134,69.5065 484.801,69.3398 486.5,69.5C 486.5,75.8333 486.5,82.1667 486.5,88.5 Z"/></g>
<g><path style="opacity:1" fill="#fdfbf7" d="M 411.5,97.5 C 398.167,101.167 384.834,104.833 371.5,108.5C 364.922,106.717 358.255,105.217 351.5,104C 350.289,103.107 350.289,102.274 351.5,101.5C 376.125,90.0881 401.792,81.5881 428.5,76C 430.833,75.3333 433.167,75.3333 435.5,76C 426.362,82.041 418.362,89.2076 411.5,97.5 Z"/></g>
<g><path style="opacity:1" fill="#fdfcf7" d="M 619.5,110.5 C 607.466,106.266 595.466,102.266 583.5,98.5C 585.379,98.6068 585.712,98.1068 584.5,97C 576.485,89.9823 568.485,82.9823 560.5,76C 564.211,75.5611 567.878,75.8944 571.5,77C 596.452,82.5609 620.452,90.5609 643.5,101C 635.247,103.692 627.247,106.859 619.5,110.5 Z"/></g>
<g><path style="opacity:1" fill="#fcfaea" d="M 643.5,73.5 C 655.517,76.7048 667.517,80.0381 679.5,83.5C 678.019,84.4803 676.685,85.647 675.5,87C 673.833,87.6667 672.167,87.6667 670.5,87C 662.426,82.3471 653.926,78.5138 645,75.5C 643.97,75.1639 643.47,74.4972 643.5,73.5 Z"/></g>
<g><path style="opacity:1" fill="#fcfaed" d="M 344.5,75.5 C 345.873,75.3433 347.207,75.51 348.5,76C 339.908,79.4217 331.575,83.4217 323.5,88C 322.207,88.49 320.873,88.6567 319.5,88.5C 319.744,85.7374 321.077,83.5707 323.5,82C 330.637,79.8961 337.637,77.7294 344.5,75.5 Z"/></g>
<g><path style="opacity:1" fill="#a86568" d="M 454.5,89.5 C 454.842,88.6618 455.508,88.3284 456.5,88.5C 466.5,88.5 476.5,88.5 486.5,88.5C 494.5,88.5 502.5,88.5 510.5,88.5C 520.167,88.5 529.833,88.5 539.5,88.5C 541.153,88.6596 542.486,89.3263 543.5,90.5C 513.858,89.5317 484.192,89.1983 454.5,89.5 Z"/></g>
<g><path style="opacity:1" fill="#801635" d="M 454.5,89.5 C 484.192,89.1983 513.858,89.5317 543.5,90.5C 557.01,92.1901 570.344,94.8568 583.5,98.5C 595.466,102.266 607.466,106.266 619.5,110.5C 630.398,114.615 641.064,119.282 651.5,124.5C 676.513,136.276 700.18,150.276 722.5,166.5C 743.56,183.228 762.56,201.894 779.5,222.5C 781.617,227.64 784.617,232.307 788.5,236.5C 795.376,247.615 801.209,259.281 806,271.5C 809.767,283.017 812.767,294.683 815,306.5C 817.251,324.925 814.751,342.592 807.5,359.5C 800.849,374.488 792.516,388.488 782.5,401.5C 779.984,401.245 777.65,400.411 775.5,399C 769.475,395.396 763.475,391.896 757.5,388.5C 759.554,385.764 762.054,383.431 765,381.5C 772.192,369.771 778.359,357.438 783.5,344.5C 784.01,340.154 785.01,335.988 786.5,332C 785.284,325.393 785.284,318.726 786.5,312C 785.09,305.581 784.256,299.081 784,292.5C 777.765,267.684 766.099,246.018 749,227.5C 746.65,224.801 744.65,221.801 743,218.5C 741.989,217.663 740.822,217.33 739.5,217.5C 739.5,216.5 739.5,215.5 739.5,214.5C 736.324,214.33 734.324,212.663 733.5,209.5C 729.978,207.007 726.644,204.34 723.5,201.5C 721.833,200.334 720.166,200.334 718.5,201.5C 721.444,196.201 724.444,190.867 727.5,185.5C 726.635,184.417 725.635,184.251 724.5,185C 721.164,188.326 717.498,191.159 713.5,193.5C 712.791,192.596 711.791,192.263 710.5,192.5C 720.114,184.356 718.78,182.69 706.5,187.5C 704.815,185.182 702.481,184.182 699.5,184.5C 699.719,183.325 699.386,182.325 698.5,181.5C 694.447,180.639 690.78,178.973 687.5,176.5C 678.15,169.164 668.483,162.33 658.5,156C 654.895,155.357 651.895,153.69 649.5,151C 647.527,150.505 645.527,150.338 643.5,150.5C 643.5,149.5 643.5,148.5 643.5,147.5C 637.251,145.808 631.251,143.641 625.5,141C 623.842,139.17 621.842,137.836 619.5,137C 607.257,133.536 595.257,129.536 583.5,125C 571.027,122.573 558.694,119.907 546.5,117C 534.121,116.244 521.788,115.077 509.5,113.5C 507.046,107.258 504.046,101.258 500.5,95.5C 498.747,101.694 498.081,108.027 498.5,114.5C 497.5,114.5 496.5,114.5 495.5,114.5C 494.916,108.518 494.25,102.518 493.5,96.5C 490.464,102.571 487.464,108.571 484.5,114.5C 481.361,114.06 477.861,113.726 474,113.5C 461.167,114.94 448.334,116.44 435.5,118C 423.375,120.793 411.375,123.793 399.5,127C 390.461,131.124 381.128,134.458 371.5,137C 363.79,142.02 355.457,145.687 346.5,148C 337.323,154.064 327.656,159.398 317.5,164C 311.457,169.921 304.457,174.254 296.5,177C 293.758,178.886 292.091,181.386 291.5,184.5C 286.794,183.881 284.127,185.881 283.5,190.5C 281.62,190.229 280.287,190.896 279.5,192.5C 275.936,192.312 272.603,191.312 269.5,189.5C 268.417,190.365 268.251,191.365 269,192.5C 271.167,193.488 273,194.821 274.5,196.5C 273.833,197.167 273.167,197.833 272.5,198.5C 270.66,196.832 268.66,195.332 266.5,194C 265.365,193.251 264.365,193.417 263.5,194.5C 265.22,197.202 266.887,199.868 268.5,202.5C 265.901,202.549 263.734,203.549 262,205.5C 252.449,215.853 243.282,226.52 234.5,237.5C 230.028,245.541 225.362,253.541 220.5,261.5C 217.769,270.659 214.602,279.659 211,288.5C 207.706,307.786 207.706,327.12 211,346.5C 214.114,354.729 217.781,362.729 222,370.5C 225.669,374.591 228.503,379.258 230.5,384.5C 231.726,386.278 233.393,387.278 235.5,387.5C 228.729,391.391 222.063,395.558 215.5,400C 214.207,400.49 212.873,400.657 211.5,400.5C 200.405,388.593 192.072,374.926 186.5,359.5C 184.17,353.675 182.337,347.675 181,341.5C 180.545,325.521 180.378,309.687 180.5,294C 189.707,263.416 204.041,235.583 223.5,210.5C 230.985,201.515 238.985,193.015 247.5,185C 255.564,177.451 263.898,170.118 272.5,163C 281.511,156.666 290.511,150.333 299.5,144C 311.934,137.253 324.267,130.42 336.5,123.5C 348.38,118.719 360.047,113.719 371.5,108.5C 384.834,104.833 398.167,101.167 411.5,97.5C 425.676,94.0649 440.01,91.3982 454.5,89.5 Z"/></g>
<g><path style="opacity:1" fill="#fefefc" d="M 286.5,93.5 C 287.496,93.4142 288.329,93.7476 289,94.5C 290.465,98.4187 292.132,102.085 294,105.5C 250.252,134.916 215.085,172.416 188.5,218C 186.5,218.667 184.5,218.667 182.5,218C 162.829,211.387 143.162,204.887 123.5,198.5C 132.657,187.844 142.657,178.01 153.5,169C 193.544,136.495 237.878,111.329 286.5,93.5 Z"/></g>
<g><path style="opacity:1" fill="#f9da08" d="M 509.5,113.5 C 526.521,155.58 543.521,197.58 560.5,239.5C 540.5,272.5 520.5,305.5 500.5,338.5C 499.791,339.404 498.791,339.737 497.5,339.5C 496.983,335.192 496.649,330.859 496.5,326.5C 497.458,255.839 498.125,185.172 498.5,114.5C 498.081,108.027 498.747,101.694 500.5,95.5C 504.046,101.258 507.046,107.258 509.5,113.5 Z"/></g>
<g><path style="opacity:1" fill="#273772" d="M 484.5,114.5 C 468.985,154.491 453.152,194.491 437,234.5C 436.51,236.545 436.677,238.545 437.5,240.5C 437.062,241.506 436.396,241.506 435.5,240.5C 435.426,238.589 434.426,237.422 432.5,237C 381.478,222.099 330.478,207.266 279.5,192.5C 280.287,190.896 281.62,190.229 283.5,190.5C 284.127,185.881 286.794,183.881 291.5,184.5C 292.091,181.386 293.758,178.886 296.5,177C 304.457,174.254 311.457,169.921 317.5,164C 327.656,159.398 337.323,154.064 346.5,148C 355.457,145.687 363.79,142.02 371.5,137C 381.128,134.458 390.461,131.124 399.5,127C 411.375,123.793 423.375,120.793 435.5,118C 448.334,116.44 461.167,114.94 474,113.5C 477.861,113.726 481.361,114.06 484.5,114.5 Z"/></g>
<g><path style="opacity:1" fill="#263772" d="M 509.5,113.5 C 521.788,115.077 534.121,116.244 546.5,117C 558.694,119.907 571.027,122.573 583.5,125C 595.257,129.536 607.257,133.536 619.5,137C 621.842,137.836 623.842,139.17 625.5,141C 631.251,143.641 637.251,145.808 643.5,147.5C 643.5,148.5 643.5,149.5 643.5,150.5C 645.527,150.338 647.527,150.505 649.5,151C 651.895,153.69 654.895,155.357 658.5,156C 668.483,162.33 678.15,169.164 687.5,176.5C 690.78,178.973 694.447,180.639 698.5,181.5C 699.386,182.325 699.719,183.325 699.5,184.5C 702.481,184.182 704.815,185.182 706.5,187.5C 660.708,204.729 614.708,221.396 568.5,237.5C 566.862,236.086 565.528,236.42 564.5,238.5C 563.719,237.271 563.219,235.938 563,234.5C 562.626,236.491 561.793,238.158 560.5,239.5C 543.521,197.58 526.521,155.58 509.5,113.5 Z"/></g>
<g><path style="opacity:1" fill="#f9d90c" d="M 495.5,114.5 C 495.559,167.17 495.226,219.837 494.5,272.5C 494.163,294.686 493.163,316.686 491.5,338.5C 490.833,338.5 490.5,338.167 490.5,337.5C 473.165,304.872 455.499,272.538 437.5,240.5C 436.677,238.545 436.51,236.545 437,234.5C 453.152,194.491 468.985,154.491 484.5,114.5C 487.464,108.571 490.464,102.571 493.5,96.5C 494.25,102.518 494.916,108.518 495.5,114.5 Z"/></g>
<g><path style="opacity:1" fill="#fefefc" d="M 703.5,93.5 C 715.932,95.8099 727.932,99.6433 739.5,105C 784.104,124.294 824.437,150.127 860.5,182.5C 864.557,185.891 867.89,189.891 870.5,194.5C 862.571,197.969 854.571,201.136 846.5,204C 835.495,207.111 824.495,210.444 813.5,214C 810.874,214.995 808.207,215.328 805.5,215C 777.94,167.936 740.94,129.769 694.5,100.5C 697.519,98.1428 700.519,95.8094 703.5,93.5 Z"/></g>
<g><path style="opacity:1" fill="#fbfaf7" d="M 779.5,222.5 C 762.56,201.894 743.56,183.228 722.5,166.5C 700.18,150.276 676.513,136.276 651.5,124.5C 651.47,123.503 651.97,122.836 653,122.5C 658.041,120.728 662.875,118.561 667.5,116C 669.167,115.333 670.833,115.333 672.5,116C 715.769,140.934 750.935,174.434 778,216.5C 779.128,218.345 779.628,220.345 779.5,222.5 Z"/></g>
<g><path style="opacity:1" fill="#faf8f5" d="M 336.5,123.5 C 324.267,130.42 311.934,137.253 299.5,144C 290.511,150.333 281.511,156.666 272.5,163C 263.898,170.118 255.564,177.451 247.5,185C 238.985,193.015 230.985,201.515 223.5,210.5C 241.477,181.753 264.144,157.253 291.5,137C 301.323,130.515 311.156,124.015 321,117.5C 326.421,119.293 331.588,121.293 336.5,123.5 Z"/></g>
<g><path style="opacity:1" fill="#f9da0b" d="M 279.5,192.5 C 330.478,207.266 381.478,222.099 432.5,237C 434.426,237.422 435.426,238.589 435.5,240.5C 451.742,271.317 468.242,301.984 485,332.5C 486.474,335.756 487.64,339.089 488.5,342.5C 487.448,342.649 486.448,342.483 485.5,342C 415.165,293.5 344.832,245 274.5,196.5C 273,194.821 271.167,193.488 269,192.5C 268.251,191.365 268.417,190.365 269.5,189.5C 272.603,191.312 275.936,192.312 279.5,192.5 Z"/></g>
<g><path style="opacity:1" fill="#f8da0c" d="M 710.5,192.5 C 643.994,240.518 577.661,288.684 511.5,337C 509.559,338.903 507.226,339.736 504.5,339.5C 522.605,306.638 541.771,274.305 562,242.5C 563.965,240.45 566.132,238.783 568.5,237.5C 614.708,221.396 660.708,204.729 706.5,187.5C 718.78,182.69 720.114,184.356 710.5,192.5 Z"/></g>
<g><path style="opacity:1" fill="#f9da09" d="M 718.5,201.5 C 693.175,239.827 667.842,278.161 642.5,316.5C 640.617,318.398 638.617,320.231 636.5,322C 593.935,329.747 551.602,337.914 509.5,346.5C 508.167,346.5 506.833,346.5 505.5,346.5C 505.5,345.5 505.5,344.5 505.5,343.5C 575.118,293.88 644.451,243.88 713.5,193.5C 717.498,191.159 721.164,188.326 724.5,185C 725.635,184.251 726.635,184.417 727.5,185.5C 724.444,190.867 721.444,196.201 718.5,201.5 Z"/></g>
<g><path style="opacity:1" fill="#263772" d="M 757.5,388.5 C 724.812,370.824 692.145,353.157 659.5,335.5C 658.754,333.657 657.421,332.324 655.5,331.5C 655.709,330.914 656.043,330.414 656.5,330C 653.899,329.08 651.232,328.413 648.5,328C 649.711,327.107 649.711,326.274 648.5,325.5C 646.929,324.691 645.262,324.357 643.5,324.5C 643.178,322.278 643.845,320.444 645.5,319C 644.058,318.623 643.058,317.79 642.5,316.5C 667.842,278.161 693.175,239.827 718.5,201.5C 720.166,200.334 721.833,200.334 723.5,201.5C 726.644,204.34 729.978,207.007 733.5,209.5C 734.324,212.663 736.324,214.33 739.5,214.5C 739.5,215.5 739.5,216.5 739.5,217.5C 740.822,217.33 741.989,217.663 743,218.5C 744.65,221.801 746.65,224.801 749,227.5C 766.099,246.018 777.765,267.684 784,292.5C 784.256,299.081 785.09,305.581 786.5,312C 785.284,318.726 785.284,325.393 786.5,332C 785.01,335.988 784.01,340.154 783.5,344.5C 778.359,357.438 772.192,369.771 765,381.5C 762.054,383.431 759.554,385.764 757.5,388.5 Z"/></g>
<g><path style="opacity:1" fill="#f9da0a" d="M 272.5,198.5 C 342.974,246.476 413.307,294.642 483.5,343C 484.337,344.011 484.67,345.178 484.5,346.5C 446.874,339.348 409.208,332.014 371.5,324.5C 365.771,323.964 360.271,322.631 355,320.5C 326.283,280.969 297.449,241.636 268.5,202.5C 266.887,199.868 265.22,197.202 263.5,194.5C 264.365,193.417 265.365,193.251 266.5,194C 268.66,195.332 270.66,196.832 272.5,198.5 Z"/></g>
<g><path style="opacity:1" fill="#263772" d="M 268.5,202.5 C 297.449,241.636 326.283,280.969 355,320.5C 360.271,322.631 365.771,323.964 371.5,324.5C 370.486,325.674 369.153,326.34 367.5,326.5C 363.644,326.029 359.811,325.362 356,324.5C 315.283,344.277 275.116,365.277 235.5,387.5C 233.393,387.278 231.726,386.278 230.5,384.5C 228.503,379.258 225.669,374.591 222,370.5C 217.781,362.729 214.114,354.729 211,346.5C 207.706,327.12 207.706,307.786 211,288.5C 214.602,279.659 217.769,270.659 220.5,261.5C 225.362,253.541 230.028,245.541 234.5,237.5C 243.282,226.52 252.449,215.853 262,205.5C 263.734,203.549 265.901,202.549 268.5,202.5 Z"/></g>
<g><path style="opacity:1" fill="#fefefd" d="M 880.5,211.5 C 883.119,211.232 885.619,211.565 888,212.5C 913.861,244.011 930.528,280.011 938,320.5C 939.012,326.796 939.512,333.129 939.5,339.5C 906.5,339.5 873.5,339.5 840.5,339.5C 838.85,321.783 836.684,304.116 834,286.5C 833.581,285.328 832.915,284.328 832,283.5C 830.371,276.518 828.704,269.518 827,262.5C 822.465,252.721 818.631,242.721 815.5,232.5C 829.255,230.122 842.588,226.289 855.5,221C 858.167,220.667 860.833,220.333 863.5,220C 869.53,217.834 875.197,215.001 880.5,211.5 Z"/></g>
<g><path style="opacity:1" fill="#fefefd" d="M 165.5,275.5 C 162.78,280.733 161.447,286.399 161.5,292.5C 158.913,308.017 156.913,323.684 155.5,339.5C 152.833,339.5 150.167,339.5 147.5,339.5C 118.338,338.502 89.0047,338.169 59.5,338.5C 59.5,335.167 59.5,331.833 59.5,328.5C 65.5149,286.931 81.5149,249.764 107.5,217C 109.167,216.333 110.833,216.333 112.5,217C 134.443,224.902 156.776,231.402 179.5,236.5C 177.971,241.902 176.137,247.235 174,252.5C 169.367,259.498 166.533,267.165 165.5,275.5 Z"/></g>
<g><path style="opacity:1" fill="#ddd881" d="M 165.5,275.5 C 164.906,281.532 163.573,287.199 161.5,292.5C 161.447,286.399 162.78,280.733 165.5,275.5 Z"/></g>
<g><path style="opacity:1" fill="#9e8845" d="M 35.5,291.5 C 35.5905,294.152 34.9238,296.485 33.5,298.5C 33.4095,295.848 34.0762,293.515 35.5,291.5 Z"/></g>
<g><path style="opacity:1" fill="#474370" d="M 710.5,192.5 C 711.791,192.263 712.791,192.596 713.5,193.5C 644.451,243.88 575.118,293.88 505.5,343.5C 504.791,342.596 503.791,342.263 502.5,342.5C 502.771,340.62 502.104,339.287 500.5,338.5C 520.5,305.5 540.5,272.5 560.5,239.5C 561.793,238.158 562.626,236.491 563,234.5C 563.219,235.938 563.719,237.271 564.5,238.5C 565.528,236.42 566.862,236.086 568.5,237.5C 566.132,238.783 563.965,240.45 562,242.5C 541.771,274.305 522.605,306.638 504.5,339.5C 507.226,339.736 509.559,338.903 511.5,337C 577.661,288.684 643.994,240.518 710.5,192.5 Z"/></g>
<g><path style="opacity:1" fill="#c9ac66" d="M 494.5,272.5 C 494.5,294.833 494.5,317.167 494.5,339.5C 493.209,339.737 492.209,339.404 491.5,338.5C 493.163,316.686 494.163,294.686 494.5,272.5 Z"/></g>
<g><path style="opacity:1" fill="#f9da0a" d="M 367.5,326.5 C 404.645,334.195 441.979,341.529 479.5,348.5C 479.5,349.5 479.5,350.5 479.5,351.5C 425.924,362.755 372.258,373.255 318.5,383C 293.326,388.3 268.326,393.8 243.5,399.5C 234.07,401.339 224.736,403.006 215.5,404.5C 214.833,404.833 214.167,405.167 213.5,405.5C 212.527,405.013 211.527,404.513 210.5,404C 211.337,402.989 211.67,401.822 211.5,400.5C 212.873,400.657 214.207,400.49 215.5,400C 222.063,395.558 228.729,391.391 235.5,387.5C 275.116,365.277 315.283,344.277 356,324.5C 359.811,325.362 363.644,326.029 367.5,326.5 Z"/></g>
<g><path style="opacity:1" fill="#3d3d71" d="M 642.5,316.5 C 643.058,317.79 644.058,318.623 645.5,319C 643.845,320.444 643.178,322.278 643.5,324.5C 645.262,324.357 646.929,324.691 648.5,325.5C 649.711,326.274 649.711,327.107 648.5,328C 651.232,328.413 653.899,329.08 656.5,330C 656.043,330.414 655.709,330.914 655.5,331.5C 657.421,332.324 658.754,333.657 659.5,335.5C 651.921,331.041 643.921,327.707 635.5,325.5C 596.467,332.675 557.467,340.008 518.5,347.5C 518.209,346.351 517.376,345.684 516,345.5C 513.863,346.077 511.696,346.41 509.5,346.5C 551.602,337.914 593.935,329.747 636.5,322C 638.617,320.231 640.617,318.398 642.5,316.5 Z"/></g>
<g><path style="opacity:1" fill="#f9da0b" d="M 659.5,335.5 C 692.145,353.157 724.812,370.824 757.5,388.5C 763.475,391.896 769.475,395.396 775.5,399C 777.65,400.411 779.984,401.245 782.5,401.5C 783.167,401.5 783.5,401.833 783.5,402.5C 772.272,403.448 761.272,402.114 750.5,398.5C 671.816,383.329 593.15,367.829 514.5,352C 513.027,351.29 512.36,350.124 512.5,348.5C 514.415,348.784 516.081,348.451 517.5,347.5C 517.833,347.5 518.167,347.5 518.5,347.5C 557.467,340.008 596.467,332.675 635.5,325.5C 643.921,327.707 651.921,331.041 659.5,335.5 Z"/></g>
<g><path style="opacity:1" fill="#795e5e" d="M 28.5,333.5 C 28.5,345.167 28.5,356.833 28.5,368.5C 27.79,366.107 27.1233,363.607 26.5,361C 26.5545,352.646 26.5545,344.313 26.5,336C 27.0659,335.005 27.7326,334.172 28.5,333.5 Z"/></g>
<g><path style="opacity:1" fill="#e7e3a1" d="M 59.5,328.5 C 59.5,331.833 59.5,335.167 59.5,338.5C 89.0047,338.169 118.338,338.502 147.5,339.5C 117.926,339.171 88.4263,339.505 59,340.5C 58.1881,336.311 58.3547,332.311 59.5,328.5 Z"/></g>
<g><path style="opacity:1" fill="#775c51" d="M 967.5,342.5 C 968.794,344.048 969.461,346.048 969.5,348.5C 968.876,352.242 968.876,355.908 969.5,359.5C 968.606,359.517 967.606,359.851 966.5,360.5C 966.833,354.5 967.167,348.5 967.5,342.5 Z"/></g>
<g><path style="opacity:1" fill="#ececa0" d="M 939.5,368.5 C 939.5,365.5 939.5,362.5 939.5,359.5C 906.832,359.333 874.165,359.5 841.5,360C 840.851,366.266 840.185,372.433 839.5,378.5C 839.189,371.91 839.522,365.41 840.5,359C 873.832,358.5 907.165,358.333 940.5,358.5C 940.813,362.042 940.479,365.375 939.5,368.5 Z"/></g>
<g><path style="opacity:1" fill="#fefefc" d="M 58.5,358.5 C 90.8333,358.5 123.167,358.5 155.5,358.5C 155.988,365.681 156.655,372.848 157.5,380C 157.167,381.667 156.833,383.333 156.5,385C 158.704,399.876 161.704,414.542 165.5,429C 167.836,434.007 169.836,439.174 171.5,444.5C 171.868,445.91 172.701,446.91 174,447.5C 174.641,452.051 175.641,456.384 177,460.5C 174.955,461.887 172.788,463.054 170.5,464C 164.167,465 157.833,466 151.5,467C 136.128,472.338 120.628,477.171 105,481.5C 103.893,481.415 102.893,481.081 102,480.5C 75.5807,444.198 61.0807,403.531 58.5,358.5 Z"/></g>
<g><path style="opacity:1" fill="#414070" d="M 274.5,196.5 C 344.832,245 415.165,293.5 485.5,342C 486.448,342.483 487.448,342.649 488.5,342.5C 487.64,339.089 486.474,335.756 485,332.5C 468.242,301.984 451.742,271.317 435.5,240.5C 436.396,241.506 437.062,241.506 437.5,240.5C 455.499,272.538 473.165,304.872 490.5,337.5C 489.992,339.842 488.992,342.009 487.5,344C 488.423,346.041 488.756,348.208 488.5,350.5C 484.205,350.721 483.538,349.388 486.5,346.5C 486.333,345.833 486.167,345.167 486,344.5C 485.487,346.521 484.32,348.021 482.5,349C 483.641,349.741 483.641,350.575 482.5,351.5C 484.766,352.314 487.1,352.814 489.5,353C 487.867,353.48 486.534,354.313 485.5,355.5C 485.38,354.414 484.713,353.747 483.5,353.5C 403.589,370.142 323.589,386.142 243.5,401.5C 243.5,400.833 243.5,400.167 243.5,399.5C 268.326,393.8 293.326,388.3 318.5,383C 372.258,373.255 425.924,362.755 479.5,351.5C 479.5,350.5 479.5,349.5 479.5,348.5C 441.979,341.529 404.645,334.195 367.5,326.5C 369.153,326.34 370.486,325.674 371.5,324.5C 409.208,332.014 446.874,339.348 484.5,346.5C 484.67,345.178 484.337,344.011 483.5,343C 413.307,294.642 342.974,246.476 272.5,198.5C 273.167,197.833 273.833,197.167 274.5,196.5 Z"/></g>
<g><path style="opacity:1" fill="#f9da0c" d="M 485.5,355.5 C 485.5,356.167 485.167,356.5 484.5,356.5C 453.18,377.497 422.18,398.997 391.5,421C 388.048,423.393 384.381,425.226 380.5,426.5C 339.485,423.014 298.485,419.347 257.5,415.5C 245.9,413.116 234.233,412.449 222.5,413.5C 220.833,413.5 219.167,413.5 217.5,413.5C 215.681,412.064 215.348,410.397 216.5,408.5C 218.982,407.933 221.316,407.266 223.5,406.5C 229.959,404.338 236.626,402.671 243.5,401.5C 323.589,386.142 403.589,370.142 483.5,353.5C 484.713,353.747 485.38,354.414 485.5,355.5 Z"/></g>
<g><path style="opacity:1" fill="#fefefd" d="M 939.5,368.5 C 935.098,412.376 919.431,451.543 892.5,486C 874.358,479.63 856.024,473.63 837.5,468C 831.172,466.838 824.839,465.671 818.5,464.5C 818.457,461.09 818.957,457.757 820,454.5C 826.732,438.216 831.899,421.549 835.5,404.5C 836.768,399.669 837.768,394.669 838.5,389.5C 838.185,385.629 838.518,381.962 839.5,378.5C 840.185,372.433 840.851,366.266 841.5,360C 874.165,359.5 906.832,359.333 939.5,359.5C 939.5,362.5 939.5,365.5 939.5,368.5 Z"/></g>
<g><path style="opacity:1" fill="#fdfcfa" d="M 807.5,359.5 C 809.833,359.5 812.167,359.5 814.5,359.5C 813.952,393.247 806.285,425.247 791.5,455.5C 788.216,456.657 784.882,456.824 781.5,456C 769.663,452.851 757.663,450.351 745.5,448.5C 749.626,440.583 754.959,433.583 761.5,427.5C 765.209,422.137 768.876,416.803 772.5,411.5C 775.5,411.5 778.5,411.5 781.5,411.5C 781.923,409.219 781.256,407.552 779.5,406.5C 780.919,405.549 782.585,405.216 784.5,405.5C 784.737,404.209 784.404,403.209 783.5,402.5C 783.5,401.833 783.167,401.5 782.5,401.5C 792.516,388.488 800.849,374.488 807.5,359.5 Z"/></g>
<g><path style="opacity:1" fill="#454170" d="M 506.5,354.5 C 506.414,355.496 506.748,356.329 507.5,357C 538.928,378.034 569.928,399.534 600.5,421.5C 599.662,421.842 599.328,422.508 599.5,423.5C 568.345,402.42 537.345,381.087 506.5,359.5C 505.264,358.754 503.93,358.421 502.5,358.5C 504.555,363.138 506.721,367.804 509,372.5C 544.592,434.678 579.425,497.345 613.5,560.5C 613.158,561.338 612.492,561.672 611.5,561.5C 576.499,498.83 541.499,436.163 506.5,373.5C 504.557,369.867 502.557,366.201 500.5,362.5C 499.675,361.614 498.675,361.281 497.5,361.5C 499.497,358.708 502.497,356.375 506.5,354.5 Z"/></g>
<g><path style="opacity:1" fill="#f9da0b" d="M 506.5,353.5 C 587.041,370.135 667.708,386.135 748.5,401.5C 758.864,403.04 769.197,404.707 779.5,406.5C 781.256,407.552 781.923,409.219 781.5,411.5C 778.5,411.5 775.5,411.5 772.5,411.5C 758.938,411.976 745.604,413.309 732.5,415.5C 691.208,419.996 649.874,423.83 608.5,427C 605.978,424.91 603.312,423.076 600.5,421.5C 569.928,399.534 538.928,378.034 507.5,357C 506.748,356.329 506.414,355.496 506.5,354.5C 506.5,354.167 506.5,353.833 506.5,353.5 Z"/></g>
<g><path style="opacity:1" fill="#fdfcfa" d="M 186.5,359.5 C 192.072,374.926 200.405,388.593 211.5,400.5C 211.67,401.822 211.337,402.989 210.5,404C 211.527,404.513 212.527,405.013 213.5,405.5C 213.611,406.117 213.944,406.617 214.5,407C 212.826,408.506 211.826,410.339 211.5,412.5C 213.565,412.517 215.565,412.85 217.5,413.5C 219.167,413.5 220.833,413.5 222.5,413.5C 231.158,424.803 239.824,436.137 248.5,447.5C 234.095,449.993 219.762,452.993 205.5,456.5C 190.579,426.035 182.579,393.701 181.5,359.5C 183.167,359.5 184.833,359.5 186.5,359.5 Z"/></g>
<g><path style="opacity:1" fill="#f9da08" d="M 506.5,373.5 C 541.499,436.163 576.499,498.83 611.5,561.5C 614.848,567.532 618.181,573.532 621.5,579.5C 621.573,581.027 620.906,582.027 619.5,582.5C 614.195,578.485 609.195,573.985 604.5,569C 603.255,568.209 601.922,567.709 600.5,567.5C 598.01,564.51 595.343,561.677 592.5,559C 579.975,550.153 568.309,540.153 557.5,529C 538.485,512.321 519.152,495.987 499.5,480C 498.695,478.887 498.028,477.721 497.5,476.5C 497.5,439.167 497.5,401.833 497.5,364.5C 498.5,364.5 499.5,364.5 500.5,364.5C 501.408,366.891 501.574,369.224 501,371.5C 501.333,371.167 501.667,370.833 502,370.5C 502.333,371.833 502.667,373.167 503,374.5C 504.011,373.663 505.178,373.33 506.5,373.5 Z"/></g>
<g><path style="opacity:1" fill="#f9da0c" d="M 485.5,358.5 C 487.179,358.285 488.179,358.952 488.5,360.5C 451.356,425.997 415.023,491.997 379.5,558.5C 375.973,565.051 372.307,571.551 368.5,578C 369.025,578.692 369.692,579.192 370.5,579.5C 374.672,573.159 378.339,566.492 381.5,559.5C 418.073,493.359 454.406,427.025 490.5,360.5C 491.833,360.5 493.167,360.5 494.5,360.5C 494.628,399.068 494.461,437.735 494,476.5C 460.406,505.919 426.906,535.586 393.5,565.5C 386.918,569.908 380.751,574.908 375,580.5C 374.536,581.094 374.369,581.761 374.5,582.5C 374.565,582.938 374.399,583.272 374,583.5C 373.085,581.02 371.585,580.353 369.5,581.5C 366.649,580.988 365.316,579.321 365.5,576.5C 366.414,567.52 367.081,558.52 367.5,549.5C 369.718,540.108 371.051,530.442 371.5,520.5C 372.268,519.737 372.768,518.737 373,517.5C 373.499,513.848 373.665,510.182 373.5,506.5C 376.745,482.871 379.745,459.205 382.5,435.5C 383.309,433.708 383.809,431.708 384,429.5C 417.761,405.547 451.594,381.88 485.5,358.5 Z"/></g>
<g><path style="opacity:1" fill="#f9da0b" d="M 599.5,423.5 C 603.112,425.609 606.278,428.276 609,431.5C 614.205,471.513 619.372,511.513 624.5,551.5C 624.776,558.21 625.442,564.877 626.5,571.5C 626.66,573.199 626.494,574.866 626,576.5C 625.329,577.252 624.496,577.586 623.5,577.5C 620.167,571.833 616.833,566.167 613.5,560.5C 579.425,497.345 544.592,434.678 509,372.5C 506.721,367.804 504.555,363.138 502.5,358.5C 503.93,358.421 505.264,358.754 506.5,359.5C 537.345,381.087 568.345,402.42 599.5,423.5 Z"/></g>
<g><path style="opacity:1" fill="#3e3e71" d="M 517.5,347.5 C 516.081,348.451 514.415,348.784 512.5,348.5C 512.36,350.124 513.027,351.29 514.5,352C 593.15,367.829 671.816,383.329 750.5,398.5C 750.218,399.778 749.551,400.778 748.5,401.5C 667.708,386.135 587.041,370.135 506.5,353.5C 505.63,351.968 505.964,350.468 507.5,349C 510.726,347.801 514.059,347.301 517.5,347.5 Z"/></g>
<g><path style="opacity:1" fill="#662141" d="M 243.5,399.5 C 243.5,400.167 243.5,400.833 243.5,401.5C 236.626,402.671 229.959,404.338 223.5,406.5C 220.302,407.036 217.635,406.369 215.5,404.5C 224.736,403.006 234.07,401.339 243.5,399.5 Z"/></g>
<g><path style="opacity:1" fill="#e8e69d" d="M 838.5,389.5 C 837.768,394.669 836.768,399.669 835.5,404.5C 835.671,399.804 836.171,395.137 837,390.5C 837.383,389.944 837.883,389.611 838.5,389.5 Z"/></g>
<g><path style="opacity:1" fill="#682e42" d="M 750.5,398.5 C 761.272,402.114 772.272,403.448 783.5,402.5C 784.404,403.209 784.737,404.209 784.5,405.5C 782.585,405.216 780.919,405.549 779.5,406.5C 769.197,404.707 758.864,403.04 748.5,401.5C 749.551,400.778 750.218,399.778 750.5,398.5 Z"/></g>
<g><path style="opacity:1" fill="#e2d47d" d="M 215.5,404.5 C 217.635,406.369 220.302,407.036 223.5,406.5C 221.316,407.266 218.982,407.933 216.5,408.5C 215.348,410.397 215.681,412.064 217.5,413.5C 215.565,412.85 213.565,412.517 211.5,412.5C 211.826,410.339 212.826,408.506 214.5,407C 213.944,406.617 213.611,406.117 213.5,405.5C 214.167,405.167 214.833,404.833 215.5,404.5 Z"/></g>
<g><path style="opacity:1" fill="#433f70" d="M 484.5,356.5 C 484.328,357.492 484.662,358.158 485.5,358.5C 451.594,381.88 417.761,405.547 384,429.5C 383.809,431.708 383.309,433.708 382.5,435.5C 382.719,434.325 382.386,433.325 381.5,432.5C 376.413,430.657 376.746,429.157 382.5,428C 381.584,427.722 380.918,427.222 380.5,426.5C 384.381,425.226 388.048,423.393 391.5,421C 422.18,398.997 453.18,377.497 484.5,356.5 Z"/></g>
<g><path style="opacity:1" fill="#801635" d="M 257.5,415.5 C 259.037,419.373 261.37,422.707 264.5,425.5C 266.133,427.503 268.133,428.836 270.5,429.5C 270.264,432.226 271.097,434.559 273,436.5C 279.428,443.259 285.094,450.592 290,458.5C 295.715,462.532 300.049,467.866 303,474.5C 305.842,476.892 308.676,479.225 311.5,481.5C 312.719,484.667 314.219,487.667 316,490.5C 317.011,491.337 318.178,491.67 319.5,491.5C 319.5,492.833 319.5,494.167 319.5,495.5C 322.356,496.414 324.856,498.081 327,500.5C 331.718,506.218 336.051,512.218 340,518.5C 349.775,528.433 358.942,538.766 367.5,549.5C 367.081,558.52 366.414,567.52 365.5,576.5C 361.863,575.014 358.53,573.014 355.5,570.5C 345.56,561.732 335.727,552.732 326,543.5C 305.044,517.699 284.211,491.699 263.5,465.5C 258.956,459.051 253.956,453.051 248.5,447.5C 239.824,436.137 231.158,424.803 222.5,413.5C 234.233,412.449 245.9,413.116 257.5,415.5 Z"/></g>
<g><path style="opacity:1" fill="#801635" d="M 772.5,411.5 C 768.876,416.803 765.209,422.137 761.5,427.5C 754.959,433.583 749.626,440.583 745.5,448.5C 739.533,453.808 734.199,459.808 729.5,466.5C 706.276,495.887 682.776,525.22 659,554.5C 652.971,559.699 647.138,565.033 641.5,570.5C 637.38,573.063 633.047,575.396 628.5,577.5C 627.831,575.369 627.165,573.369 626.5,571.5C 625.442,564.877 624.776,558.21 624.5,551.5C 625.911,549.461 627.911,548.461 630.5,548.5C 630.33,547.178 630.663,546.011 631.5,545C 634.665,542.453 637.665,539.786 640.5,537C 641.448,536.517 642.448,536.351 643.5,536.5C 652.528,521.121 663.028,506.788 675,493.5C 680.669,485.507 686.669,477.84 693,470.5C 698.216,462.608 704.216,455.275 711,448.5C 713.87,442.657 717.37,437.324 721.5,432.5C 722.5,432.5 723.5,432.5 724.5,432.5C 727.403,426.396 731.403,420.896 736.5,416C 735.207,415.51 733.873,415.343 732.5,415.5C 745.604,413.309 758.938,411.976 772.5,411.5 Z"/></g>
<g><path style="opacity:1" fill="#ead93b" d="M 497.5,361.5 C 498.675,361.281 499.675,361.614 500.5,362.5C 502.557,366.201 504.557,369.867 506.5,373.5C 505.178,373.33 504.011,373.663 503,374.5C 502.667,373.167 502.333,371.833 502,370.5C 501.667,370.833 501.333,371.167 501,371.5C 501.574,369.224 501.408,366.891 500.5,364.5C 499.5,364.5 498.5,364.5 497.5,364.5C 497.5,401.833 497.5,439.167 497.5,476.5C 496.167,438.167 496.167,399.833 497.5,361.5 Z"/></g>
<g><path style="opacity:1" fill="#273772" d="M 257.5,415.5 C 298.485,419.347 339.485,423.014 380.5,426.5C 380.918,427.222 381.584,427.722 382.5,428C 376.746,429.157 376.413,430.657 381.5,432.5C 382.386,433.325 382.719,434.325 382.5,435.5C 379.745,459.205 376.745,482.871 373.5,506.5C 372.356,510.964 371.69,515.63 371.5,520.5C 371.051,530.442 369.718,540.108 367.5,549.5C 358.942,538.766 349.775,528.433 340,518.5C 336.051,512.218 331.718,506.218 327,500.5C 324.856,498.081 322.356,496.414 319.5,495.5C 319.5,494.167 319.5,492.833 319.5,491.5C 318.178,491.67 317.011,491.337 316,490.5C 314.219,487.667 312.719,484.667 311.5,481.5C 308.676,479.225 305.842,476.892 303,474.5C 300.049,467.866 295.715,462.532 290,458.5C 285.094,450.592 279.428,443.259 273,436.5C 271.097,434.559 270.264,432.226 270.5,429.5C 268.133,428.836 266.133,427.503 264.5,425.5C 261.37,422.707 259.037,419.373 257.5,415.5 Z"/></g>
<g><path style="opacity:1" fill="#273772" d="M 732.5,415.5 C 733.873,415.343 735.207,415.51 736.5,416C 731.403,420.896 727.403,426.396 724.5,432.5C 723.5,432.5 722.5,432.5 721.5,432.5C 717.37,437.324 713.87,442.657 711,448.5C 704.216,455.275 698.216,462.608 693,470.5C 686.669,477.84 680.669,485.507 675,493.5C 663.028,506.788 652.528,521.121 643.5,536.5C 642.448,536.351 641.448,536.517 640.5,537C 637.665,539.786 634.665,542.453 631.5,545C 630.663,546.011 630.33,547.178 630.5,548.5C 627.911,548.461 625.911,549.461 624.5,551.5C 619.372,511.513 614.205,471.513 609,431.5C 606.278,428.276 603.112,425.609 599.5,423.5C 599.328,422.508 599.662,421.842 600.5,421.5C 603.312,423.076 605.978,424.91 608.5,427C 649.874,423.83 691.208,419.996 732.5,415.5 Z"/></g>
<g><path style="opacity:1" fill="#fdfdfc" d="M 263.5,465.5 C 284.211,491.699 305.044,517.699 326,543.5C 335.727,552.732 345.56,561.732 355.5,570.5C 347.113,572.552 338.779,575.052 330.5,578C 327.737,579.129 325.237,580.629 323,582.5C 279.158,556.992 243.824,522.659 217,479.5C 215.991,477.975 215.491,476.308 215.5,474.5C 221.888,474.154 228.222,473.321 234.5,472C 244.263,469.912 253.929,467.745 263.5,465.5 Z"/></g>
<g><path style="opacity:1" fill="#fdfdfc" d="M 729.5,466.5 C 740.219,469.551 751.219,471.385 762.5,472C 767.699,475.022 773.366,476.189 779.5,475.5C 779.66,477.199 779.494,478.866 779,480.5C 751.675,523.953 715.675,557.953 671,582.5C 661.278,578.117 651.445,574.117 641.5,570.5C 647.138,565.033 652.971,559.699 659,554.5C 682.776,525.22 706.276,495.887 729.5,466.5 Z"/></g>
<g><path style="opacity:1" fill="#273772" d="M 495.5,114.5 C 496.5,114.5 497.5,114.5 498.5,114.5C 498.125,185.172 497.458,255.839 496.5,326.5C 496.649,330.859 496.983,335.192 497.5,339.5C 498.791,339.737 499.791,339.404 500.5,338.5C 502.104,339.287 502.771,340.62 502.5,342.5C 503.791,342.263 504.791,342.596 505.5,343.5C 505.5,344.5 505.5,345.5 505.5,346.5C 506.833,346.5 508.167,346.5 509.5,346.5C 511.696,346.41 513.863,346.077 516,345.5C 517.376,345.684 518.209,346.351 518.5,347.5C 518.167,347.5 517.833,347.5 517.5,347.5C 514.059,347.301 510.726,347.801 507.5,349C 505.964,350.468 505.63,351.968 506.5,353.5C 506.5,353.833 506.5,354.167 506.5,354.5C 502.497,356.375 499.497,358.708 497.5,361.5C 496.167,399.833 496.167,438.167 497.5,476.5C 498.028,477.721 498.695,478.887 499.5,480C 519.152,495.987 538.485,512.321 557.5,529C 568.309,540.153 579.975,550.153 592.5,559C 595.343,561.677 598.01,564.51 600.5,567.5C 567.617,582.431 532.95,589.431 496.5,588.5C 462.895,587.944 430.395,581.944 399,570.5C 397.629,569.419 396.129,568.585 394.5,568C 393.748,567.329 393.414,566.496 393.5,565.5C 426.906,535.586 460.406,505.919 494,476.5C 494.461,437.735 494.628,399.068 494.5,360.5C 493.167,360.5 491.833,360.5 490.5,360.5C 489.833,360.5 489.167,360.5 488.5,360.5C 488.179,358.952 487.179,358.285 485.5,358.5C 484.662,358.158 484.328,357.492 484.5,356.5C 485.167,356.5 485.5,356.167 485.5,355.5C 486.534,354.313 487.867,353.48 489.5,353C 487.1,352.814 484.766,352.314 482.5,351.5C 483.641,350.575 483.641,349.741 482.5,349C 484.32,348.021 485.487,346.521 486,344.5C 486.167,345.167 486.333,345.833 486.5,346.5C 483.538,349.388 484.205,350.721 488.5,350.5C 488.756,348.208 488.423,346.041 487.5,344C 488.992,342.009 489.992,339.842 490.5,337.5C 490.5,338.167 490.833,338.5 491.5,338.5C 492.209,339.404 493.209,339.737 494.5,339.5C 494.5,317.167 494.5,294.833 494.5,272.5C 495.226,219.837 495.559,167.17 495.5,114.5 Z"/></g>
<g><path style="opacity:1" fill="#fefefc" d="M 183.5,481.5 C 186.325,481.081 188.491,482.081 190,484.5C 195.712,496.224 203.045,506.891 212,516.5C 212.471,518.246 213.138,519.913 214,521.5C 238.454,550.297 266.287,575.13 297.5,596C 291.662,600.173 285.829,604.34 280,608.5C 230.068,589.46 184.901,562.627 144.5,528C 135.939,519.028 127.272,510.194 118.5,501.5C 119.5,500.667 120.5,499.833 121.5,499C 142.119,492.324 162.786,486.491 183.5,481.5 Z"/></g>
<g><path style="opacity:1" fill="#fefefc" d="M 807.5,482.5 C 830.703,487.956 853.369,495.123 875.5,504C 876.641,504.741 876.641,505.575 875.5,506.5C 862.776,519.382 849.443,531.882 835.5,544C 798.048,571.623 757.381,593.623 713.5,610C 712.167,610.667 710.833,610.667 709.5,610C 706.081,605.37 701.914,601.537 697,598.5C 696.333,597.833 696.333,597.167 697,596.5C 742.624,566.825 779.458,528.825 807.5,482.5 Z"/></g>
<g><path style="opacity:1" fill="#454170" d="M 488.5,360.5 C 489.167,360.5 489.833,360.5 490.5,360.5C 454.406,427.025 418.073,493.359 381.5,559.5C 380.508,559.672 379.842,559.338 379.5,558.5C 415.023,491.997 451.356,425.997 488.5,360.5 Z"/></g>
<g><path style="opacity:1" fill="#c1ae56" d="M 373.5,506.5 C 373.665,510.182 373.499,513.848 373,517.5C 372.768,518.737 372.268,519.737 371.5,520.5C 371.69,515.63 372.356,510.964 373.5,506.5 Z"/></g>
<g><path style="opacity:1" fill="#66243f" d="M 379.5,558.5 C 379.842,559.338 380.508,559.672 381.5,559.5C 378.339,566.492 374.672,573.159 370.5,579.5C 369.692,579.192 369.025,578.692 368.5,578C 372.307,571.551 375.973,565.051 379.5,558.5 Z"/></g>
<g><path style="opacity:1" fill="#6b2b41" d="M 613.5,560.5 C 616.833,566.167 620.167,571.833 623.5,577.5C 624.833,580.167 624.167,580.833 621.5,579.5C 618.181,573.532 614.848,567.532 611.5,561.5C 612.492,561.672 613.158,561.338 613.5,560.5 Z"/></g>
<g><path style="opacity:1" fill="#801635" d="M 393.5,565.5 C 393.414,566.496 393.748,567.329 394.5,568C 396.129,568.585 397.629,569.419 399,570.5C 430.395,581.944 462.895,587.944 496.5,588.5C 532.95,589.431 567.617,582.431 600.5,567.5C 601.922,567.709 603.255,568.209 604.5,569C 609.195,573.985 614.195,578.485 619.5,582.5C 619.167,583.5 618.5,584.167 617.5,584.5C 606.889,590.476 595.889,595.476 584.5,599.5C 570,603.473 555.333,606.807 540.5,609.5C 512.525,610.466 484.525,610.8 456.5,610.5C 440.467,607.358 424.467,603.691 408.5,599.5C 398.896,594.99 389.229,590.323 379.5,585.5C 378.035,584.263 376.368,583.263 374.5,582.5C 374.369,581.761 374.536,581.094 375,580.5C 380.751,574.908 386.918,569.908 393.5,565.5 Z"/></g>
<g><path style="opacity:1" fill="#fdfcf7" d="M 379.5,585.5 C 389.229,590.323 398.896,594.99 408.5,599.5C 416.221,606.042 423.888,612.875 431.5,620C 433.844,620.837 435.844,622.171 437.5,624C 437,624.167 436.5,624.333 436,624.5C 425.052,622.378 414.218,619.878 403.5,617C 385.148,611.384 367.148,604.884 349.5,597.5C 349.5,596.167 349.5,594.833 349.5,593.5C 359.506,591.057 369.506,588.39 379.5,585.5 Z"/></g>
<g><path style="opacity:1" fill="#fdfcf9" d="M 617.5,584.5 C 617.414,585.496 617.748,586.329 618.5,587C 626.68,589.27 635.013,591.104 643.5,592.5C 643.812,595.888 642.479,598.388 639.5,600C 614.21,610.651 588.043,618.484 561,623.5C 560.5,623.167 560,622.833 559.5,622.5C 561.833,621 564.167,619.5 566.5,618C 572.478,611.69 578.812,605.69 585.5,600C 585.272,599.601 584.938,599.435 584.5,599.5C 595.889,595.476 606.889,590.476 617.5,584.5 Z"/></g>
<g><path style="opacity:1" fill="#fbfbf9" d="M 540.5,609.5 C 535.318,613.167 530.485,617.501 526,622.5C 524.331,624.169 523.498,626.169 523.5,628.5C 520.833,628.5 518.167,628.5 515.5,628.5C 503.162,628.667 490.829,628.5 478.5,628C 477.934,627.005 477.267,626.172 476.5,625.5C 468.762,621.961 462.096,616.961 456.5,610.5C 484.525,610.8 512.525,610.466 540.5,609.5 Z"/></g>
<g><path style="opacity:1" fill="#fdfcf2" d="M 671.5,610.5 C 677.651,610.575 682.318,613.242 685.5,618.5C 684.975,619.192 684.308,619.692 683.5,620C 657.304,628.216 630.637,634.216 603.5,638C 627.517,631.813 650.184,622.646 671.5,610.5 Z"/></g>
<g><path style="opacity:1" fill="#fcfbf2" d="M 314.5,608.5 C 316.527,608.338 318.527,608.505 320.5,609C 341.777,620.803 364.11,630.137 387.5,637C 361.354,633.096 335.687,627.096 310.5,619C 308.941,618.02 307.274,617.187 305.5,616.5C 308.545,613.782 311.545,611.116 314.5,608.5 Z"/></g>
<g><path style="opacity:1" fill="#f2f09e" d="M 476.5,625.5 C 477.267,626.172 477.934,627.005 478.5,628C 490.829,628.5 503.162,628.667 515.5,628.5C 503.007,629.66 490.34,629.827 477.5,629C 476.663,627.989 476.33,626.822 476.5,625.5 Z"/></g>
<g><path style="opacity:1" fill="#cabf3c" d="M 446.5,669.5 C 475.825,670.352 505.158,670.685 534.5,670.5C 505.422,671.382 476.255,671.715 447,671.5C 446.536,670.906 446.369,670.239 446.5,669.5 Z"/></g>
</svg>
