<?xml version="1.0" encoding="UTF-8"?>
<!DOCTYPE svg PUBLIC "-//W3C//DTD SVG 1.1//EN" "http://www.w3.org/Graphics/SVG/1.1/DTD/svg11.dtd">
<svg xmlns="http://www.w3.org/2000/svg" version="1.1" width="857px" height="681px" style="shape-rendering:geometricPrecision; text-rendering:geometricPrecision; image-rendering:optimizeQuality; fill-rule:evenodd; clip-rule:evenodd" xmlns:xlink="http://www.w3.org/1999/xlink">
<g><path style="opacity:1" fill="#c9c697" d="M 401.5,-0.5 C 420.167,-0.5 438.833,-0.5 457.5,-0.5C 457.5,0.166667 457.5,0.833333 457.5,1.5C 438.835,0.227158 420.168,0.227158 401.5,1.5C 401.5,0.833333 401.5,0.166667 401.5,-0.5 Z"/></g>
<g><path style="opacity:1" fill="#687605" d="M 457.5,1.5 C 524.473,4.63789 589.14,20.8046 651.5,50C 709.554,77.726 758.387,116.893 798,167.5C 828.919,209.505 848.085,256.171 855.5,307.5C 854.579,309.031 854.912,310.365 856.5,311.5C 856.5,330.5 856.5,349.5 856.5,368.5C 844.922,449.473 806.589,517.473 741.5,572.5C 673.57,627.324 597.403,660.657 513,672.5C 506.016,673.926 499.016,675.26 492,676.5C 491.667,676.167 491.333,675.833 491,675.5C 489.108,676.617 488.275,678.284 488.5,680.5C 487.5,680.5 486.5,680.5 485.5,680.5C 485.845,677.512 484.512,676.179 481.5,676.5C 472.763,677.123 464.096,678.123 455.5,679.5C 437.502,679.445 419.502,679.445 401.5,679.5C 392.184,678.354 382.85,677.354 373.5,676.5C 373.5,677.833 373.5,679.167 373.5,680.5C 372.167,680.5 370.833,680.5 369.5,680.5C 369.725,678.284 368.892,676.617 367,675.5C 366.667,675.833 366.333,676.167 366,676.5C 358.853,675.216 351.686,673.883 344.5,672.5C 343.707,672.931 342.873,673.265 342,673.5C 304.614,665.947 267.781,655.447 231.5,642C 170.108,616.402 117.275,578.902 73,529.5C 30.9164,479.384 6.7497,422.551 0.5,359C 1.88254,357.539 1.54921,356.706 -0.5,356.5C -0.5,345.833 -0.5,335.167 -0.5,324.5C 0.238911,324.631 0.905578,324.464 1.5,324C 4.97875,268.042 24.1454,216.209 59,168.5C 91.2845,126.792 130.118,92.6258 175.5,66C 199.212,53.3106 223.545,41.9772 248.5,32C 264.647,27.1333 280.647,21.9666 296.5,16.5C 297.716,17.0016 298.883,17.3349 300,17.5C 310.448,14.3391 320.614,11.3391 330.5,8.5C 335.067,9.46123 339.4,8.79456 343.5,6.5C 345.451,7.25606 347.284,7.58939 349,7.5C 353.333,6.5 357.667,5.5 362,4.5C 362.333,4.83333 362.667,5.16667 363,5.5C 371.897,3.9335 380.563,2.60017 389,1.5C 392.726,2.296 396.893,2.296 401.5,1.5C 420.168,0.227158 438.835,0.227158 457.5,1.5 Z"/></g>
<g><path style="opacity:1" fill="#f7d902" d="M 327.5,30.5 C 328.75,30.5774 329.583,31.244 330,32.5C 330.798,34.2588 330.631,35.9255 329.5,37.5C 319.698,42.4875 309.698,46.9875 299.5,51C 289.606,57.2003 279.44,63.0336 269,68.5C 263.986,64.7316 258.819,61.065 253.5,57.5C 252.534,55.604 252.201,53.604 252.5,51.5C 254.527,51.6621 256.527,51.4955 258.5,51C 281.046,42.3795 304.046,35.5462 327.5,30.5 Z"/></g>
<g><path style="opacity:1" fill="#f7d903" d="M 533.5,30.5 C 556.403,35.3947 579.07,41.5613 601.5,49C 603.963,52.3666 603.963,55.8666 601.5,59.5C 597.422,61.4136 593.755,63.9136 590.5,67C 588.305,68.373 585.971,68.7063 583.5,68C 576.905,64.3659 570.239,60.6992 563.5,57C 561.5,56.6667 559.5,56.3333 557.5,56C 556.833,54.6667 556.167,53.3333 555.5,52C 547.594,47.4222 539.261,43.9222 530.5,41.5C 530.5,38.8333 530.5,36.1667 530.5,33.5C 531.5,33.5 532.5,33.5 533.5,33.5C 533.5,32.5 533.5,31.5 533.5,30.5 Z"/></g>
<g><path style="opacity:1" fill="#f8d902" d="M 376.5,40.5 C 378.308,40.4914 379.975,40.9914 381.5,42C 380.62,43.3561 380.286,44.8561 380.5,46.5C 378.071,46.585 376.071,47.585 374.5,49.5C 368.833,55.8333 362.833,61.8333 356.5,67.5C 349.015,75.3029 342.349,83.6362 336.5,92.5C 332.52,93.3441 328.52,93.1775 324.5,92C 320.751,90.0591 316.751,88.7257 312.5,88C 311.833,87.3333 311.167,86.6667 310.5,86C 304.822,85.0248 299.322,83.5248 294,81.5C 293.08,78.6917 293.913,76.5251 296.5,75C 319.77,63.3685 343.77,53.3685 368.5,45C 371.39,43.5723 374.056,42.0723 376.5,40.5 Z"/></g>
<g><path style="opacity:1" fill="#f8da02" d="M 478.5,41.5 C 507.346,50.445 535.013,61.945 561.5,76C 562.406,77.6995 562.739,79.5328 562.5,81.5C 560.801,81.3398 559.134,81.5065 557.5,82C 546.017,87.5348 534.017,91.2014 521.5,93C 509.546,75.2262 495.213,59.7262 478.5,46.5C 476.46,44.3889 476.46,42.7222 478.5,41.5 Z"/></g>
<g><path style="opacity:1" fill="#f9da02" d="M 443.5,106.5 C 441.454,99.4073 439.121,92.4073 436.5,85.5C 436.75,84.0779 437.583,83.0779 439,82.5C 439.333,69.5 439.667,56.5 440,43.5C 440.561,42.9781 441.228,42.6448 442,42.5C 446.118,47.2376 450.951,51.0709 456.5,54C 459.903,58.8537 464.236,62.5203 469.5,65C 478.712,74.8754 487.878,84.7087 497,94.5C 497.72,96.1124 497.554,97.6124 496.5,99C 489.651,99.6259 482.984,100.793 476.5,102.5C 471.987,101.694 467.487,102.027 463,103.5C 457.719,102.056 452.552,102.389 447.5,104.5C 448.246,105.736 448.579,107.07 448.5,108.5C 446.446,108.635 444.779,107.968 443.5,106.5 Z"/></g>
<g><path style="opacity:1" fill="#fadb02" d="M 420.5,95.5 C 418.664,98.1826 417.664,101.183 417.5,104.5C 416.73,106.299 415.397,107.632 413.5,108.5C 412.378,106.956 412.711,105.623 414.5,104.5C 413.5,104.167 412.5,103.833 411.5,103.5C 399.502,102.714 387.502,101.881 375.5,101C 371.024,99.5199 366.357,98.6866 361.5,98.5C 361.343,97.1266 361.51,95.7932 362,94.5C 376.736,75.9318 393.903,59.9318 413.5,46.5C 415.585,43.7603 417.252,43.927 418.5,47C 417.191,61.479 417.191,75.979 418.5,90.5C 419.95,91.8498 420.617,93.5165 420.5,95.5 Z"/></g>
<g><path style="opacity:1" fill="#c4b900" d="M 421.5,93.5 C 421.672,94.4916 421.338,95.1583 420.5,95.5C 420.617,93.5165 419.95,91.8498 418.5,90.5C 417.191,75.979 417.191,61.479 418.5,47C 417.252,43.927 415.585,43.7603 413.5,46.5C 414.356,43.4869 416.189,42.8203 419,44.5C 418.918,52.8017 418.751,61.135 418.5,69.5C 418.833,76.1667 419.167,82.8333 419.5,89.5C 420.705,90.5769 421.372,91.9102 421.5,93.5 Z"/></g>
<g><path style="opacity:1" fill="#fada02" d="M 622.5,62.5 C 624.927,62.523 627.26,63.023 629.5,64C 655.687,76.739 680.687,91.239 704.5,107.5C 683.5,108.833 662.5,108.833 641.5,107.5C 641.023,106.069 640.357,104.736 639.5,103.5C 630.225,95.8564 620.558,88.6897 610.5,82C 608.393,80.7365 607.393,78.9032 607.5,76.5C 613.703,73.3027 618.703,68.6361 622.5,62.5 Z"/></g>
<g><path style="opacity:1" fill="#f9da02" d="M 153.5,109.5 C 152.5,109.5 151.5,109.5 150.5,109.5C 175.46,91.8519 201.793,76.5186 229.5,63.5C 232.078,63.6152 233.578,64.9486 234,67.5C 238.655,71.5639 243.155,75.7306 247.5,80C 246.004,81.3307 244.671,82.8307 243.5,84.5C 238.431,87.0415 234.098,90.5415 230.5,95C 224.268,97.8977 219.268,102.231 215.5,108C 194.663,108.168 173.996,108.668 153.5,109.5 Z"/></g>
<g><path style="opacity:1" fill="#483f24" d="M 435.5,85.5 C 435.167,85.5 434.833,85.5 434.5,85.5C 433.833,84.5 433.167,83.5 432.5,82.5C 430.736,81.2878 429.07,81.6212 427.5,83.5C 426.054,85.6179 425.387,87.9512 425.5,90.5C 423.206,97.7265 420.539,104.727 417.5,111.5C 416.662,111.158 416.328,110.492 416.5,109.5C 417.301,107.958 417.634,106.292 417.5,104.5C 417.664,101.183 418.664,98.1826 420.5,95.5C 421.338,95.1583 421.672,94.4916 421.5,93.5C 424.622,86.8857 426.956,79.8857 428.5,72.5C 429.5,72.5 430.5,72.5 431.5,72.5C 432.833,76.8333 434.167,81.1667 435.5,85.5 Z"/></g>
<g><path style="opacity:1" fill="#82754c" d="M 432.5,82.5 C 431.373,83.1217 430.373,83.955 429.5,85C 431.487,113.275 432.154,141.775 431.5,170.5C 431.831,200.671 431.498,230.671 430.5,260.5C 430.667,202.832 430.5,145.166 430,87.5C 429.831,100.007 429.331,112.34 428.5,124.5C 428.667,111.829 428.5,99.1623 428,86.5C 427.066,87.8584 426.232,89.1917 425.5,90.5C 425.387,87.9512 426.054,85.6179 427.5,83.5C 429.07,81.6212 430.736,81.2878 432.5,82.5 Z"/></g>
<g><path style="opacity:1" fill="#fcdb0f" d="M 428.5,124.5 C 428.5,155.5 428.5,186.5 428.5,217.5C 427.833,254.336 427.167,291.336 426.5,328.5C 425.817,328.137 425.15,327.804 424.5,327.5C 409.858,294.475 394.691,261.475 379,228.5C 378.51,227.207 378.343,225.873 378.5,224.5C 378.5,224.167 378.5,223.833 378.5,223.5C 379.117,223.389 379.617,223.056 380,222.5C 381.484,218.553 382.65,214.553 383.5,210.5C 383.259,208.102 383.926,206.102 385.5,204.5C 389.936,194.195 393.603,183.528 396.5,172.5C 398.074,170.898 398.741,168.898 398.5,166.5C 402.197,160.076 404.53,153.076 405.5,145.5C 408.19,142.453 409.524,138.787 409.5,134.5C 410.751,132.618 411.918,130.618 413,128.5C 414.403,122.793 415.903,117.126 417.5,111.5C 420.539,104.727 423.206,97.7265 425.5,90.5C 426.232,89.1917 427.066,87.8584 428,86.5C 428.5,99.1623 428.667,111.829 428.5,124.5 Z"/></g>
<g><path style="opacity:1" fill="#fddc0a" d="M 434.5,86.5 C 440.067,104.872 446.4,122.872 453.5,140.5C 453.655,145.831 455.321,150.498 458.5,154.5C 458.34,156.199 458.506,157.866 459,159.5C 462.026,167.331 465.193,174.998 468.5,182.5C 468.63,187.645 470.13,192.312 473,196.5C 476.53,207.961 480.363,219.295 484.5,230.5C 466.883,263.402 449.55,296.402 432.5,329.5C 430.539,322.913 429.872,315.913 430.5,308.5C 430.5,292.5 430.5,276.5 430.5,260.5C 431.498,230.671 431.831,200.671 431.5,170.5C 432.332,142.336 432.832,114.003 433,85.5C 433.383,86.056 433.883,86.3893 434.5,86.5 Z"/></g>
<g><path style="opacity:1" fill="#f8d903" d="M 303.5,109.5 C 284.833,109.5 266.167,109.5 247.5,109.5C 254.473,103.581 261.973,98.248 270,93.5C 271.434,93.9304 272.601,94.7638 273.5,96C 283.061,99.6124 292.728,102.946 302.5,106C 303.337,107.011 303.67,108.178 303.5,109.5 Z"/></g>
<g><path style="opacity:1" fill="#fada02" d="M 608.5,109.5 C 589.833,109.5 571.167,109.5 552.5,109.5C 552.33,108.178 552.663,107.011 553.5,106C 564.277,101.631 575.11,97.4643 586,93.5C 589.628,94.2276 593.128,95.3943 596.5,97C 600.073,100.248 603.907,103.081 608,105.5C 608.49,106.793 608.657,108.127 608.5,109.5 Z"/></g>
<g><path style="opacity:1" fill="#8d6233" d="M 434.5,85.5 C 434.833,85.5 435.167,85.5 435.5,85.5C 435.833,85.5 436.167,85.5 436.5,85.5C 439.121,92.4073 441.454,99.4073 443.5,106.5C 443.5,107.5 443.5,108.5 443.5,109.5C 479.833,109.5 516.167,109.5 552.5,109.5C 571.167,109.5 589.833,109.5 608.5,109.5C 649.337,109.168 690.003,109.501 730.5,110.5C 635.5,110.5 540.5,110.5 445.5,110.5C 447.5,117.833 449.5,125.167 451.5,132.5C 452.167,135.167 452.833,137.833 453.5,140.5C 446.4,122.872 440.067,104.872 434.5,86.5C 434.5,86.1667 434.5,85.8333 434.5,85.5 Z"/></g>
<g><path style="opacity:1" fill="#834c39" d="M 127.5,110.5 C 134.982,109.508 142.648,109.175 150.5,109.5C 151.5,109.5 152.5,109.5 153.5,109.5C 184.833,109.5 216.167,109.5 247.5,109.5C 266.167,109.5 284.833,109.5 303.5,109.5C 341.167,109.5 378.833,109.5 416.5,109.5C 416.328,110.492 416.662,111.158 417.5,111.5C 415.903,117.126 414.403,122.793 413,128.5C 411.918,130.618 410.751,132.618 409.5,134.5C 411.613,126.623 413.613,118.623 415.5,110.5C 319.5,110.5 223.5,110.5 127.5,110.5 Z"/></g>
<g><path style="opacity:1" fill="#050767" d="M 127.5,110.5 C 223.5,110.5 319.5,110.5 415.5,110.5C 413.613,118.623 411.613,126.623 409.5,134.5C 406.81,137.547 405.476,141.213 405.5,145.5C 403.645,150.541 401.479,155.541 399,160.5C 398.505,162.473 398.338,164.473 398.5,166.5C 396.926,168.102 396.259,170.102 396.5,172.5C 391.152,182.575 387.485,193.242 385.5,204.5C 383.926,206.102 383.259,208.102 383.5,210.5C 381.263,214.534 379.596,218.868 378.5,223.5C 378.5,223.833 378.5,224.167 378.5,224.5C 376.858,226.081 374.858,226.747 372.5,226.5C 368.206,224.184 363.54,222.85 358.5,222.5C 358.38,221.414 357.713,220.747 356.5,220.5C 350.81,218.993 345.31,216.993 340,214.5C 332.603,212.974 325.436,210.974 318.5,208.5C 318.389,207.883 318.056,207.383 317.5,207C 308.721,204.99 300.388,201.99 292.5,198C 288.595,196.641 284.595,195.808 280.5,195.5C 279.653,194.034 278.32,193.2 276.5,193C 268.421,191.079 260.421,188.912 252.5,186.5C 252.53,185.503 252.03,184.836 251,184.5C 245.992,182.473 240.825,181.139 235.5,180.5C 234.486,179.326 233.153,178.66 231.5,178.5C 228.248,176.412 224.582,175.079 220.5,174.5C 220.71,177.265 222.043,179.265 224.5,180.5C 226.846,183.871 229.179,187.204 231.5,190.5C 232.11,191.391 232.443,192.391 232.5,193.5C 233.08,195.749 234.413,197.415 236.5,198.5C 236.755,200.967 237.755,202.967 239.5,204.5C 239.833,204.5 240.167,204.5 240.5,204.5C 240.241,206.989 241.241,208.656 243.5,209.5C 243.833,210.167 244.167,210.833 244.5,211.5C 244.247,213.827 244.914,215.827 246.5,217.5C 246.291,218.086 245.957,218.586 245.5,219C 247.887,219.564 249.887,220.73 251.5,222.5C 252.6,223.605 253.267,224.938 253.5,226.5C 256.063,230.62 258.396,234.953 260.5,239.5C 260.957,240.298 261.624,240.631 262.5,240.5C 263.08,242.749 264.413,244.415 266.5,245.5C 266.241,247.989 267.241,249.656 269.5,250.5C 270.338,250.842 270.672,251.508 270.5,252.5C 270.845,255.198 272.178,257.198 274.5,258.5C 276.229,259.236 277.229,260.57 277.5,262.5C 277.149,265.812 278.482,268.145 281.5,269.5C 281.427,271.027 282.094,272.027 283.5,272.5C 285.432,275.366 287.099,278.366 288.5,281.5C 288.738,283.404 289.738,284.738 291.5,285.5C 292.674,286.514 293.34,287.847 293.5,289.5C 294.08,291.749 295.413,293.415 297.5,294.5C 296.916,297.285 297.916,298.952 300.5,299.5C 300.427,301.027 301.094,302.027 302.5,302.5C 303.338,302.842 303.672,303.508 303.5,304.5C 303.427,306.027 304.094,307.027 305.5,307.5C 306.686,309.874 306.686,312.208 305.5,314.5C 277.521,330.277 249.854,346.777 222.5,364C 221.552,364.483 220.552,364.649 219.5,364.5C 219.737,363.209 219.404,362.209 218.5,361.5C 215.252,358.041 212.252,354.374 209.5,350.5C 204.522,342.863 199.188,335.53 193.5,328.5C 178.41,306.649 163.076,284.983 147.5,263.5C 142.155,256.129 136.821,248.795 131.5,241.5C 130.949,238.733 129.616,236.4 127.5,234.5C 126.504,228.537 126.171,222.537 126.5,216.5C 126.5,208.833 126.5,201.167 126.5,193.5C 126.5,172.5 126.5,151.5 126.5,130.5C 126.176,123.646 126.509,116.979 127.5,110.5 Z"/></g>
<g><path style="opacity:1" fill="#050767" d="M 730.5,110.5 C 732.463,117.424 733.13,124.757 732.5,132.5C 732.5,151.833 732.5,171.167 732.5,190.5C 732.5,198.167 732.5,205.833 732.5,213.5C 732.666,219.842 732.5,226.175 732,232.5C 730.338,235.649 728.505,238.649 726.5,241.5C 720.596,249.633 714.929,257.966 709.5,266.5C 694.354,286.778 679.688,307.444 665.5,328.5C 660.084,334.997 655.418,341.997 651.5,349.5C 647.071,353.593 643.404,358.259 640.5,363.5C 638.932,364.473 637.265,364.64 635.5,364C 614.761,352.123 594.428,339.456 574.5,326C 568.144,322.49 561.811,318.99 555.5,315.5C 554.972,314.279 554.305,313.113 553.5,312C 554.38,310.644 554.714,309.144 554.5,307.5C 555.643,307.092 556.643,306.425 557.5,305.5C 561.796,297.906 565.796,290.239 569.5,282.5C 572.72,279.737 575.22,276.403 577,272.5C 579.728,267.272 582.228,261.939 584.5,256.5C 584.427,254.973 585.094,253.973 586.5,253.5C 587.458,253.047 588.292,252.381 589,251.5C 594.146,241.207 599.813,231.207 606,221.5C 608.807,216.224 611.307,210.891 613.5,205.5C 619.082,196.673 624.415,187.673 629.5,178.5C 629.5,178.167 629.5,177.833 629.5,177.5C 632.858,174.121 635.191,170.121 636.5,165.5C 631.914,166.46 627.914,168.46 624.5,171.5C 619.158,172.162 614.492,174.162 610.5,177.5C 572.015,192.744 534.015,209.077 496.5,226.5C 494.102,226.259 492.102,226.926 490.5,228.5C 488.833,228.5 487.167,228.5 485.5,228.5C 480.982,212.598 475.315,197.264 468.5,182.5C 467.452,174.521 465.285,166.854 462,159.5C 461.303,157.416 460.136,155.749 458.5,154.5C 458.721,150.168 457.721,146.168 455.5,142.5C 455.248,138.673 453.915,135.34 451.5,132.5C 449.5,125.167 447.5,117.833 445.5,110.5C 540.5,110.5 635.5,110.5 730.5,110.5 Z"/></g>
<g><path style="opacity:1" fill="#d0c265" d="M 432.5,82.5 C 433.167,83.5 433.833,84.5 434.5,85.5C 434.5,85.8333 434.5,86.1667 434.5,86.5C 433.883,86.3893 433.383,86.056 433,85.5C 432.832,114.003 432.332,142.336 431.5,170.5C 432.154,141.775 431.487,113.275 429.5,85C 430.373,83.955 431.373,83.1217 432.5,82.5 Z"/></g>
<g><path style="opacity:1" fill="#fada02" d="M 126.5,130.5 C 126.5,151.5 126.5,172.5 126.5,193.5C 125.183,193.821 123.849,194.154 122.5,194.5C 109.56,189.575 96.5601,184.741 83.5,180C 82.4844,179.481 81.8178,178.647 81.5,177.5C 84.4942,172.19 87.9942,167.19 92,162.5C 102.32,152.346 112.487,142.013 122.5,131.5C 123.689,130.571 125.022,130.238 126.5,130.5 Z"/></g>
<g><path style="opacity:1" fill="#f8d902" d="M 732.5,190.5 C 732.5,171.167 732.5,151.833 732.5,132.5C 733.779,131.032 735.446,130.365 737.5,130.5C 737.343,131.873 737.51,133.207 738,134.5C 750.027,145.109 761.194,156.776 771.5,169.5C 772.325,170.386 773.325,170.719 774.5,170.5C 774.5,172.5 774.5,174.5 774.5,176.5C 763.285,180.44 752.285,184.94 741.5,190C 738.427,191.065 735.427,191.232 732.5,190.5 Z"/></g>
<g><path style="opacity:1" fill="#662b36" d="M 451.5,132.5 C 453.915,135.34 455.248,138.673 455.5,142.5C 454.833,141.833 454.167,141.167 453.5,140.5C 452.833,137.833 452.167,135.167 451.5,132.5 Z"/></g>
<g><path style="opacity:1" fill="#8c664c" d="M 409.5,134.5 C 409.524,138.787 408.19,142.453 405.5,145.5C 405.476,141.213 406.81,137.547 409.5,134.5 Z"/></g>
<g><path style="opacity:1" fill="#8d7050" d="M 453.5,140.5 C 454.167,141.167 454.833,141.833 455.5,142.5C 457.721,146.168 458.721,150.168 458.5,154.5C 455.321,150.498 453.655,145.831 453.5,140.5 Z"/></g>
<g><path style="opacity:1" fill="#8f724e" d="M 405.5,145.5 C 404.53,153.076 402.197,160.076 398.5,166.5C 398.338,164.473 398.505,162.473 399,160.5C 401.479,155.541 403.645,150.541 405.5,145.5 Z"/></g>
<g><path style="opacity:1" fill="#876151" d="M 458.5,154.5 C 460.136,155.749 461.303,157.416 462,159.5C 465.285,166.854 467.452,174.521 468.5,182.5C 465.193,174.998 462.026,167.331 459,159.5C 458.506,157.866 458.34,156.199 458.5,154.5 Z"/></g>
<g><path style="opacity:1" fill="#38201e" d="M 629.5,177.5 C 629.539,176.417 629.873,175.417 630.5,174.5C 629.675,173.614 628.675,173.281 627.5,173.5C 626.778,172.449 625.778,171.782 624.5,171.5C 627.914,168.46 631.914,166.46 636.5,165.5C 635.191,170.121 632.858,174.121 629.5,177.5 Z"/></g>
<g><path style="opacity:1" fill="#987d5a" d="M 398.5,166.5 C 398.741,168.898 398.074,170.898 396.5,172.5C 396.259,170.102 396.926,168.102 398.5,166.5 Z"/></g>
<g><path style="opacity:1" fill="#2d171b" d="M 231.5,178.5 C 229.167,179.167 226.833,179.833 224.5,180.5C 222.043,179.265 220.71,177.265 220.5,174.5C 224.582,175.079 228.248,176.412 231.5,178.5 Z"/></g>
<g><path style="opacity:1" fill="#fcdc0f" d="M 490.5,229.5 C 490.5,229.167 490.5,228.833 490.5,228.5C 492.898,228.741 494.898,228.074 496.5,226.5C 501.296,225.513 505.963,224.013 510.5,222C 532.864,211.823 555.531,202.156 578.5,193C 589.523,188.455 600.189,183.288 610.5,177.5C 612.927,177.477 615.26,176.977 617.5,176C 619.811,173.836 622.478,172.836 625.5,173C 562.312,226.082 498.978,278.915 435.5,331.5C 452.269,298.303 469.436,264.969 487,231.5C 488.302,230.915 489.469,230.249 490.5,229.5 Z"/></g>
<g><path style="opacity:1" fill="#fcdc0b" d="M 627.5,173.5 C 628.675,173.281 629.675,173.614 630.5,174.5C 629.873,175.417 629.539,176.417 629.5,177.5C 629.5,177.833 629.5,178.167 629.5,178.5C 626.864,181.31 624.364,184.31 622,187.5C 618.346,193.139 615.513,199.139 613.5,205.5C 603.485,220.856 594.485,236.856 586.5,253.5C 585.094,253.973 584.427,254.973 584.5,256.5C 582.549,257.716 581.049,259.382 580,261.5C 576.214,268.358 572.714,275.358 569.5,282.5C 563.749,290.328 558.749,298.661 554.5,307.5C 553.164,309.307 551.497,310.807 549.5,312C 512.605,319.462 475.772,327.296 439,335.5C 438.235,335.43 437.735,335.097 437.5,334.5C 491.106,289.349 544.773,244.182 598.5,199C 606.119,193.716 613.452,188.049 620.5,182C 623.795,179.88 626.128,177.046 627.5,173.5 Z"/></g>
<g><path style="opacity:1" fill="#4e4428" d="M 430.5,260.5 C 430.5,276.5 430.5,292.5 430.5,308.5C 429.672,314.987 429.172,321.654 429,328.5C 428.5,291.502 428.333,254.502 428.5,217.5C 428.5,186.5 428.5,155.5 428.5,124.5C 429.331,112.34 429.831,100.007 430,87.5C 430.5,145.166 430.667,202.832 430.5,260.5 Z"/></g>
<g><path style="opacity:1" fill="#8c6053" d="M 235.5,180.5 C 240.825,181.139 245.992,182.473 251,184.5C 252.03,184.836 252.53,185.503 252.5,186.5C 247.173,185.115 241.84,183.615 236.5,182C 235.944,181.617 235.611,181.117 235.5,180.5 Z"/></g>
<g><path style="opacity:1" fill="#fcdc0c" d="M 235.5,180.5 C 235.611,181.117 235.944,181.617 236.5,182C 241.84,183.615 247.173,185.115 252.5,186.5C 261.355,190.719 270.688,193.719 280.5,195.5C 289.258,199.448 298.258,202.948 307.5,206C 311.112,207.15 314.778,207.983 318.5,208.5C 321.352,210.076 324.352,211.576 327.5,213C 337.928,216.021 348.261,219.188 358.5,222.5C 362.734,224.955 367.4,226.289 372.5,226.5C 374.475,227.646 375.975,229.313 377,231.5C 391.729,264.621 407.229,297.288 423.5,329.5C 424.765,332.563 423.765,333.23 420.5,331.5C 375.641,295.15 330.308,259.316 284.5,224C 267.389,210.037 250.222,196.204 233,182.5C 232.812,180.939 233.645,180.272 235.5,180.5 Z"/></g>
<g><path style="opacity:1" fill="#86654a" d="M 629.5,178.5 C 624.415,187.673 619.082,196.673 613.5,205.5C 615.513,199.139 618.346,193.139 622,187.5C 624.364,184.31 626.864,181.31 629.5,178.5 Z"/></g>
<g><path style="opacity:1" fill="#fcdc06" d="M 418.5,332.5 C 418.5,333.5 418.5,334.5 418.5,335.5C 382.185,327.314 345.851,319.314 309.5,311.5C 308.151,310.091 306.818,308.757 305.5,307.5C 305.573,305.973 304.906,304.973 303.5,304.5C 303.672,303.508 303.338,302.842 302.5,302.5C 302.573,300.973 301.906,299.973 300.5,299.5C 300.25,297.326 299.25,295.659 297.5,294.5C 296.92,292.251 295.587,290.585 293.5,289.5C 293.34,287.847 292.674,286.514 291.5,285.5C 291.262,283.596 290.262,282.262 288.5,281.5C 287.099,278.366 285.432,275.366 283.5,272.5C 283.573,270.973 282.906,269.973 281.5,269.5C 280.126,267.142 278.793,264.808 277.5,262.5C 277.229,260.57 276.229,259.236 274.5,258.5C 273.66,256.147 272.326,254.147 270.5,252.5C 270.672,251.508 270.338,250.842 269.5,250.5C 268.89,248.566 267.89,246.899 266.5,245.5C 265.92,243.251 264.587,241.585 262.5,240.5C 261.684,236.853 260.184,233.52 258,230.5C 256.629,228.959 255.129,227.625 253.5,226.5C 253.267,224.938 252.6,223.605 251.5,222.5C 249.413,218.656 247.08,214.989 244.5,211.5C 244.167,210.833 243.833,210.167 243.5,209.5C 242.89,207.566 241.89,205.899 240.5,204.5C 240.167,204.5 239.833,204.5 239.5,204.5C 239.245,202.033 238.245,200.033 236.5,198.5C 235.92,196.251 234.587,194.585 232.5,193.5C 232.443,192.391 232.11,191.391 231.5,190.5C 231.617,188.516 230.95,186.85 229.5,185.5C 229.833,185.167 230.167,184.833 230.5,184.5C 292.923,234.269 355.589,283.602 418.5,332.5 Z"/></g>
<g><path style="opacity:1" fill="#82594c" d="M 396.5,172.5 C 393.603,183.528 389.936,194.195 385.5,204.5C 387.485,193.242 391.152,182.575 396.5,172.5 Z"/></g>
<g><path style="opacity:1" fill="#8c6055" d="M 252.5,186.5 C 260.421,188.912 268.421,191.079 276.5,193C 278.32,193.2 279.653,194.034 280.5,195.5C 270.688,193.719 261.355,190.719 252.5,186.5 Z"/></g>
<g><path style="opacity:1" fill="#7d5447" d="M 468.5,182.5 C 475.315,197.264 480.982,212.598 485.5,228.5C 487.167,228.5 488.833,228.5 490.5,228.5C 490.5,228.833 490.5,229.167 490.5,229.5C 488.379,229.325 486.379,229.659 484.5,230.5C 480.363,219.295 476.53,207.961 473,196.5C 470.13,192.312 468.63,187.645 468.5,182.5 Z"/></g>
<g><path style="opacity:1" fill="#fcdb02" d="M 726.5,241.5 C 728.505,238.649 730.338,235.649 732,232.5C 732.5,226.175 732.666,219.842 732.5,213.5C 750.298,208.443 767.631,201.943 784.5,194C 787.025,193.104 789.192,193.604 791,195.5C 803.768,216.14 814.435,237.806 823,260.5C 827.622,276.656 831.456,292.989 834.5,309.5C 834.321,316.065 834.321,322.732 834.5,329.5C 803.832,329.667 773.165,329.5 742.5,329C 742,328.5 741.5,328 741,327.5C 740.716,319.649 740.216,311.816 739.5,304C 739.648,302.293 739.982,300.626 740.5,299C 737.168,290.233 735.334,281.066 735,271.5C 733.207,264.2 731.54,256.867 730,249.5C 729.018,246.706 727.851,244.039 726.5,241.5 Z"/></g>
<g><path style="opacity:1" fill="#622f45" d="M 232.5,193.5 C 234.587,194.585 235.92,196.251 236.5,198.5C 234.413,197.415 233.08,195.749 232.5,193.5 Z"/></g>
<g><path style="opacity:1" fill="#fcdc02" d="M 126.5,216.5 C 126.171,222.537 126.504,228.537 127.5,234.5C 129.616,236.4 130.949,238.733 131.5,241.5C 130.768,242.808 129.934,244.142 129,245.5C 123.423,261.939 120.09,278.939 119,296.5C 118.216,306.826 117.549,317.159 117,327.5C 116.5,328 116,328.5 115.5,329C 84.8351,329.5 54.1685,329.667 23.5,329.5C 24.2664,317.501 25.0998,305.501 26,293.5C 28.6067,284.979 30.9401,276.312 33,267.5C 36.2024,258.892 39.2024,250.226 42,241.5C 49.5867,226.657 57.4201,211.991 65.5,197.5C 66.723,196.386 68.0563,196.219 69.5,197C 85.2479,204.362 101.581,210.362 118.5,215C 120.769,215.758 122.936,215.591 125,214.5C 125.278,215.416 125.778,216.082 126.5,216.5 Z"/></g>
<g><path style="opacity:1" fill="#8b6751" d="M 280.5,195.5 C 284.595,195.808 288.595,196.641 292.5,198C 300.388,201.99 308.721,204.99 317.5,207C 318.056,207.383 318.389,207.883 318.5,208.5C 314.778,207.983 311.112,207.15 307.5,206C 298.258,202.948 289.258,199.448 280.5,195.5 Z"/></g>
<g><path style="opacity:1" fill="#5c3149" d="M 236.5,198.5 C 238.245,200.033 239.245,202.033 239.5,204.5C 237.755,202.967 236.755,200.967 236.5,198.5 Z"/></g>
<g><path style="opacity:1" fill="#8a5e4e" d="M 610.5,177.5 C 600.189,183.288 589.523,188.455 578.5,193C 555.531,202.156 532.864,211.823 510.5,222C 505.963,224.013 501.296,225.513 496.5,226.5C 534.015,209.077 572.015,192.744 610.5,177.5 Z"/></g>
<g><path style="opacity:1" fill="#794c48" d="M 240.5,204.5 C 241.89,205.899 242.89,207.566 243.5,209.5C 241.241,208.656 240.241,206.989 240.5,204.5 Z"/></g>
<g><path style="opacity:1" fill="#5c5335" d="M 624.5,171.5 C 625.778,171.782 626.778,172.449 627.5,173.5C 626.128,177.046 623.795,179.88 620.5,182C 613.452,188.049 606.119,193.716 598.5,199C 544.773,244.182 491.106,289.349 437.5,334.5C 435.952,334.821 435.285,335.821 435.5,337.5C 437.415,337.216 439.081,337.549 440.5,338.5C 439.402,339.397 439.402,340.23 440.5,341C 444.878,341.679 449.211,342.512 453.5,343.5C 455.761,345.255 458.428,346.422 461.5,347C 458.854,347.497 456.187,347.664 453.5,347.5C 448.384,346.7 443.384,345.367 438.5,343.5C 437.833,343.833 437.167,344.167 436.5,344.5C 467.157,367.833 497.491,391.499 527.5,415.5C 531.97,416.486 536.637,416.819 541.5,416.5C 538.023,417.323 534.356,417.823 530.5,418C 528.137,418.589 527.137,420.089 527.5,422.5C 526.833,421.5 526.167,420.5 525.5,419.5C 495.348,395.582 465.348,371.415 435.5,347C 434.517,346.409 433.85,346.743 433.5,348C 438.543,355.292 442.543,363.125 445.5,371.5C 446.218,373.137 446.384,374.803 446,376.5C 445.583,375.244 444.75,374.577 443.5,374.5C 439.826,366.465 436.159,358.465 432.5,350.5C 430.299,348.582 427.632,347.249 424.5,346.5C 424.179,344.952 423.179,344.285 421.5,344.5C 421.46,341.119 421.793,337.786 422.5,334.5C 423.5,334.5 424.5,334.5 425.5,334.5C 424.786,330.754 425.953,329.754 429,331.5C 430.699,331.613 431.866,330.947 432.5,329.5C 449.55,296.402 466.883,263.402 484.5,230.5C 486.379,229.659 488.379,229.325 490.5,229.5C 489.469,230.249 488.302,230.915 487,231.5C 469.436,264.969 452.269,298.303 435.5,331.5C 498.978,278.915 562.312,226.082 625.5,173C 622.478,172.836 619.811,173.836 617.5,176C 615.26,176.977 612.927,177.477 610.5,177.5C 614.492,174.162 619.158,172.162 624.5,171.5 Z"/></g>
<g><path style="opacity:1" fill="#906955" d="M 318.5,208.5 C 325.436,210.974 332.603,212.974 340,214.5C 345.31,216.993 350.81,218.993 356.5,220.5C 357.713,220.747 358.38,221.414 358.5,222.5C 348.261,219.188 337.928,216.021 327.5,213C 324.352,211.576 321.352,210.076 318.5,208.5 Z"/></g>
<g><path style="opacity:1" fill="#562850" d="M 244.5,211.5 C 247.08,214.989 249.413,218.656 251.5,222.5C 249.887,220.73 247.887,219.564 245.5,219C 245.957,218.586 246.291,218.086 246.5,217.5C 244.914,215.827 244.247,213.827 244.5,211.5 Z"/></g>
<g><path style="opacity:1" fill="#8d7454" d="M 383.5,210.5 C 382.65,214.553 381.484,218.553 380,222.5C 379.617,223.056 379.117,223.389 378.5,223.5C 379.596,218.868 381.263,214.534 383.5,210.5 Z"/></g>
<g><path style="opacity:1" fill="#885c50" d="M 358.5,222.5 C 363.54,222.85 368.206,224.184 372.5,226.5C 367.4,226.289 362.734,224.955 358.5,222.5 Z"/></g>
<g><path style="opacity:1" fill="#86604c" d="M 496.5,226.5 C 494.898,228.074 492.898,228.741 490.5,228.5C 492.102,226.926 494.102,226.259 496.5,226.5 Z"/></g>
<g><path style="opacity:1" fill="#7d5341" d="M 613.5,205.5 C 611.307,210.891 608.807,216.224 606,221.5C 599.813,231.207 594.146,241.207 589,251.5C 588.292,252.381 587.458,253.047 586.5,253.5C 594.485,236.856 603.485,220.856 613.5,205.5 Z"/></g>
<g><path style="opacity:1" fill="#683e44" d="M 253.5,226.5 C 255.129,227.625 256.629,228.959 258,230.5C 260.184,233.52 261.684,236.853 262.5,240.5C 261.624,240.631 260.957,240.298 260.5,239.5C 258.396,234.953 256.063,230.62 253.5,226.5 Z"/></g>
<g><path style="opacity:1" fill="#7c4d42" d="M 262.5,240.5 C 264.587,241.585 265.92,243.251 266.5,245.5C 264.413,244.415 263.08,242.749 262.5,240.5 Z"/></g>
<g><path style="opacity:1" fill="#7e4b43" d="M 266.5,245.5 C 267.89,246.899 268.89,248.566 269.5,250.5C 267.241,249.656 266.241,247.989 266.5,245.5 Z"/></g>
<g><path style="opacity:1" fill="#7f5d3c" d="M 270.5,252.5 C 272.326,254.147 273.66,256.147 274.5,258.5C 272.178,257.198 270.845,255.198 270.5,252.5 Z"/></g>
<g><path style="opacity:1" fill="#fada04" d="M 147.5,263.5 C 163.076,284.983 178.41,306.649 193.5,328.5C 175.431,329.831 157.264,329.831 139,328.5C 138.082,325.402 137.582,322.235 137.5,319C 140.465,300.677 142.799,282.177 144.5,263.5C 145.5,263.5 146.5,263.5 147.5,263.5 Z"/></g>
<g><path style="opacity:1" fill="#7e5541" d="M 584.5,256.5 C 582.228,261.939 579.728,267.272 577,272.5C 575.22,276.403 572.72,279.737 569.5,282.5C 572.714,275.358 576.214,268.358 580,261.5C 581.049,259.382 582.549,257.716 584.5,256.5 Z"/></g>
<g><path style="opacity:1" fill="#fad904" d="M 709.5,266.5 C 710.5,266.5 711.5,266.5 712.5,266.5C 716.139,284.944 718.472,303.61 719.5,322.5C 719.485,324.634 718.985,326.634 718,328.5C 701.376,329.18 684.709,329.847 668,330.5C 666.699,330.361 665.866,329.695 665.5,328.5C 679.688,307.444 694.354,286.778 709.5,266.5 Z"/></g>
<g><path style="opacity:1" fill="#6d3b3b" d="M 277.5,262.5 C 278.793,264.808 280.126,267.142 281.5,269.5C 278.482,268.145 277.149,265.812 277.5,262.5 Z"/></g>
<g><path style="opacity:1" fill="#5e5534" d="M 231.5,178.5 C 233.153,178.66 234.486,179.326 235.5,180.5C 233.645,180.272 232.812,180.939 233,182.5C 250.222,196.204 267.389,210.037 284.5,224C 330.308,259.316 375.641,295.15 420.5,331.5C 420.591,333.698 419.925,334.031 418.5,332.5C 355.589,283.602 292.923,234.269 230.5,184.5C 230.167,184.833 229.833,185.167 229.5,185.5C 230.95,186.85 231.617,188.516 231.5,190.5C 229.179,187.204 226.846,183.871 224.5,180.5C 226.833,179.833 229.167,179.167 231.5,178.5 Z"/></g>
<g><path style="opacity:1" fill="#7c643a" d="M 281.5,269.5 C 282.906,269.973 283.573,270.973 283.5,272.5C 282.094,272.027 281.427,271.027 281.5,269.5 Z"/></g>
<g><path style="opacity:1" fill="#72493d" d="M 288.5,281.5 C 290.262,282.262 291.262,283.596 291.5,285.5C 289.738,284.738 288.738,283.404 288.5,281.5 Z"/></g>
<g><path style="opacity:1" fill="#635938" d="M 378.5,224.5 C 378.343,225.873 378.51,227.207 379,228.5C 394.691,261.475 409.858,294.475 424.5,327.5C 424.672,328.492 424.338,329.158 423.5,329.5C 407.229,297.288 391.729,264.621 377,231.5C 375.975,229.313 374.475,227.646 372.5,226.5C 374.858,226.747 376.858,226.081 378.5,224.5 Z"/></g>
<g><path style="opacity:1" fill="#73443d" d="M 293.5,289.5 C 295.587,290.585 296.92,292.251 297.5,294.5C 295.413,293.415 294.08,291.749 293.5,289.5 Z"/></g>
<g><path style="opacity:1" fill="#775043" d="M 569.5,282.5 C 565.796,290.239 561.796,297.906 557.5,305.5C 556.643,306.425 555.643,307.092 554.5,307.5C 558.749,298.661 563.749,290.328 569.5,282.5 Z"/></g>
<g><path style="opacity:1" fill="#603747" d="M 297.5,294.5 C 299.25,295.659 300.25,297.326 300.5,299.5C 297.916,298.952 296.916,297.285 297.5,294.5 Z"/></g>
<g><path style="opacity:1" fill="#8c6549" d="M 300.5,299.5 C 301.906,299.973 302.573,300.973 302.5,302.5C 301.094,302.027 300.427,301.027 300.5,299.5 Z"/></g>
<g><path style="opacity:1" fill="#7d6443" d="M 303.5,304.5 C 304.906,304.973 305.573,305.973 305.5,307.5C 304.094,307.027 303.427,306.027 303.5,304.5 Z"/></g>
<g><path style="opacity:1" fill="#fcdc0c" d="M 312.5,315.5 C 348.255,323.237 383.921,331.404 419.5,340C 392.364,346.036 365.364,352.203 338.5,358.5C 285.947,369.765 233.614,381.765 181.5,394.5C 181.281,393.325 181.614,392.325 182.5,391.5C 185.059,390.392 187.392,389.059 189.5,387.5C 227.821,363.213 266.488,339.379 305.5,316C 307.81,315.503 310.143,315.337 312.5,315.5 Z"/></g>
<g><path style="opacity:1" fill="#fcdc0d" d="M 556.5,317.5 C 588.295,338.238 620.628,358.238 653.5,377.5C 655.764,379.314 658.097,381.147 660.5,383C 664.849,385.849 669.516,388.016 674.5,389.5C 676.078,391.318 675.578,392.318 673,392.5C 599.95,376.121 526.783,359.788 453.5,343.5C 449.211,342.512 444.878,341.679 440.5,341C 439.402,340.23 439.402,339.397 440.5,338.5C 477.186,331.051 513.853,323.385 550.5,315.5C 552.516,316.178 554.516,316.844 556.5,317.5 Z"/></g>
<g><path style="opacity:1" fill="#85664b" d="M 555.5,315.5 C 561.811,318.99 568.144,322.49 574.5,326C 594.428,339.456 614.761,352.123 635.5,364C 637.265,364.64 638.932,364.473 640.5,363.5C 640.33,364.822 640.663,365.989 641.5,367C 645.345,369.363 649.011,371.863 652.5,374.5C 653.11,375.391 653.443,376.391 653.5,377.5C 620.628,358.238 588.295,338.238 556.5,317.5C 556.167,316.833 555.833,316.167 555.5,315.5 Z"/></g>
<g><path style="opacity:1" fill="#746a48" d="M 554.5,307.5 C 554.714,309.144 554.38,310.644 553.5,312C 554.305,313.113 554.972,314.279 555.5,315.5C 555.833,316.167 556.167,316.833 556.5,317.5C 554.516,316.844 552.516,316.178 550.5,315.5C 513.853,323.385 477.186,331.051 440.5,338.5C 439.081,337.549 437.415,337.216 435.5,337.5C 435.285,335.821 435.952,334.821 437.5,334.5C 437.735,335.097 438.235,335.43 439,335.5C 475.772,327.296 512.605,319.462 549.5,312C 551.497,310.807 553.164,309.307 554.5,307.5 Z"/></g>
<g><path style="opacity:1" fill="#0c090c" d="M 425.5,334.5 C 427.927,333.939 430.427,334.272 433,335.5C 435.714,344.967 432.881,347.633 424.5,343.5C 423.738,342.372 423.071,341.205 422.5,340C 423.527,338.134 424.527,336.3 425.5,334.5 Z"/></g>
<g><path style="opacity:1" fill="#7d734b" d="M 428.5,217.5 C 428.333,254.502 428.5,291.502 429,328.5C 429.172,321.654 429.672,314.987 430.5,308.5C 429.872,315.913 430.539,322.913 432.5,329.5C 431.866,330.947 430.699,331.613 429,331.5C 425.953,329.754 424.786,330.754 425.5,334.5C 424.5,334.5 423.5,334.5 422.5,334.5C 421.793,337.786 421.46,341.119 421.5,344.5C 423.179,344.285 424.179,344.952 424.5,346.5C 422.326,346.75 420.659,347.75 419.5,349.5C 419.672,348.508 419.338,347.842 418.5,347.5C 419.141,346.518 419.807,345.518 420.5,344.5C 403.575,347.81 386.575,351.643 369.5,356C 359.55,358.151 349.55,359.985 339.5,361.5C 343.244,359.868 347.244,358.701 351.5,358C 350.737,357.056 349.737,356.556 348.5,356.5C 345.284,357.795 341.951,358.462 338.5,358.5C 365.364,352.203 392.364,346.036 419.5,340C 383.921,331.404 348.255,323.237 312.5,315.5C 310.393,314.532 308.059,314.198 305.5,314.5C 306.686,312.208 306.686,309.874 305.5,307.5C 306.818,308.757 308.151,310.091 309.5,311.5C 345.851,319.314 382.185,327.314 418.5,335.5C 418.5,334.5 418.5,333.5 418.5,332.5C 419.925,334.031 420.591,333.698 420.5,331.5C 423.765,333.23 424.765,332.563 423.5,329.5C 424.338,329.158 424.672,328.492 424.5,327.5C 425.15,327.804 425.817,328.137 426.5,328.5C 427.167,291.336 427.833,254.336 428.5,217.5 Z"/></g>
<g><path style="opacity:1" fill="#82674e" d="M 305.5,314.5 C 308.059,314.198 310.393,314.532 312.5,315.5C 310.143,315.337 307.81,315.503 305.5,316C 266.488,339.379 227.821,363.213 189.5,387.5C 188.957,387.44 188.624,387.107 188.5,386.5C 189.993,385.859 190.993,384.859 191.5,383.5C 199.928,377.442 208.595,371.609 217.5,366C 218.38,364.644 218.714,363.144 218.5,361.5C 219.404,362.209 219.737,363.209 219.5,364.5C 220.552,364.649 221.552,364.483 222.5,364C 249.854,346.777 277.521,330.277 305.5,314.5 Z"/></g>
<g><path style="opacity:1" fill="#fcdc0d" d="M 453.5,347.5 C 527.043,363.88 600.709,380.547 674.5,397.5C 671.495,398.818 668.495,399.818 665.5,400.5C 664.5,400.5 663.5,400.5 662.5,400.5C 640.628,402.609 618.961,405.276 597.5,408.5C 596.833,408.5 596.167,408.5 595.5,408.5C 572.794,410.704 550.128,413.037 527.5,415.5C 497.491,391.499 467.157,367.833 436.5,344.5C 437.167,344.167 437.833,343.833 438.5,343.5C 443.384,345.367 448.384,346.7 453.5,347.5 Z"/></g>
<g><path style="opacity:1" fill="#fcdc0d" d="M 418.5,347.5 C 417.448,347.351 416.448,347.517 415.5,348C 388.064,369.373 361.064,391.206 334.5,413.5C 332.844,414.146 331.177,414.813 329.5,415.5C 284.541,410.08 239.541,405.08 194.5,400.5C 192.735,399.539 190.735,399.205 188.5,399.5C 188.5,398.5 188.5,397.5 188.5,396.5C 189.791,396.737 190.791,396.404 191.5,395.5C 241.259,385.391 290.593,374.057 339.5,361.5C 349.55,359.985 359.55,358.151 369.5,356C 386.575,351.643 403.575,347.81 420.5,344.5C 419.807,345.518 419.141,346.518 418.5,347.5 Z"/></g>
<g><path style="opacity:1" fill="#fcdc0c" d="M 424.5,346.5 C 424.443,347.609 424.11,348.609 423.5,349.5C 421.777,351.253 420.277,353.253 419,355.5C 385.34,425.815 352.006,496.148 319,566.5C 317.989,567.337 316.822,567.67 315.5,567.5C 318.678,544.902 321.344,522.235 323.5,499.5C 324.436,495.265 324.769,490.931 324.5,486.5C 327.757,464.379 330.424,442.045 332.5,419.5C 342.602,411.24 352.602,402.74 362.5,394C 365.699,391.636 369.032,389.47 372.5,387.5C 387.648,374.106 403.315,361.439 419.5,349.5C 420.659,347.75 422.326,346.75 424.5,346.5 Z"/></g>
<g><path style="opacity:1" fill="#fcdc0b" d="M 525.5,419.5 C 530.984,468.019 536.65,516.519 542.5,565C 542.167,565.833 541.833,566.667 541.5,567.5C 541.167,567.333 540.833,567.167 540.5,567C 508.642,501.788 476.976,436.621 445.5,371.5C 442.543,363.125 438.543,355.292 433.5,348C 433.85,346.743 434.517,346.409 435.5,347C 465.348,371.415 495.348,395.582 525.5,419.5 Z"/></g>
<g><path style="opacity:1" fill="#fcdc02" d="M 22.5,350.5 C 53.5018,350.333 84.5018,350.5 115.5,351C 117.483,355.043 117.816,359.209 116.5,363.5C 118.109,374.794 119.609,386.128 121,397.5C 122.786,398.787 122.953,400.287 121.5,402C 123.283,409.407 124.783,416.907 126,424.5C 126.915,425.328 127.581,426.328 128,427.5C 130.18,437.778 132.846,447.778 136,457.5C 135.167,458.333 134.333,459.167 133.5,460C 111.529,465.589 90.1956,472.923 69.5,482C 68.1667,482.667 66.8333,482.667 65.5,482C 39.7373,442.195 25.404,398.361 22.5,350.5 Z"/></g>
<g><path style="opacity:1" fill="#fbdb02" d="M 209.5,350.5 C 212.252,354.374 215.252,358.041 218.5,361.5C 218.714,363.144 218.38,364.644 217.5,366C 208.595,371.609 199.928,377.442 191.5,383.5C 184.7,386.3 178.7,390.3 173.5,395.5C 170.703,395.967 169.369,397.633 169.5,400.5C 172.545,400.508 175.545,400.841 178.5,401.5C 179.263,402.268 180.263,402.768 181.5,403C 186.155,403.499 190.821,403.666 195.5,403.5C 199.634,404.485 203.968,404.818 208.5,404.5C 222.976,406.855 237.643,408.855 252.5,410.5C 252.5,411.167 252.833,411.5 253.5,411.5C 257.254,417.342 261.254,423.009 265.5,428.5C 265.405,433.095 263.071,435.595 258.5,436C 225.493,440.18 192.993,446.347 161,454.5C 160.127,454.265 159.293,453.931 158.5,453.5C 156.214,449.352 154.381,445.019 153,440.5C 149.822,432.934 147.822,424.934 147,416.5C 146.581,415.328 145.915,414.328 145,413.5C 142.808,397.038 140.475,380.705 138,364.5C 137.371,360.129 137.537,355.796 138.5,351.5C 162.189,351.782 185.855,351.449 209.5,350.5 Z"/></g>
<g><path style="opacity:1" fill="#fbdb02" d="M 651.5,349.5 C 652.609,350.29 653.942,350.79 655.5,351C 676.497,351.5 697.497,351.667 718.5,351.5C 718.723,353.342 719.057,355.175 719.5,357C 718.712,372.231 717.212,387.398 715,402.5C 711.643,416.593 707.977,430.593 704,444.5C 701.981,447.376 700.481,450.543 699.5,454C 689.551,453.896 679.885,452.063 670.5,448.5C 669.707,448.931 668.873,449.265 668,449.5C 644.473,443.55 620.64,439.05 596.5,436C 594.859,434.871 593.859,433.371 593.5,431.5C 597.859,424.816 602.193,418.149 606.5,411.5C 606.833,411.5 607.167,411.5 607.5,411.5C 608.167,410.833 608.833,410.167 609.5,409.5C 622.342,408.194 635.009,406.527 647.5,404.5C 661.509,404.205 675.176,402.538 688.5,399.5C 689.833,398.5 689.833,397.5 688.5,396.5C 684.081,391.939 678.747,388.772 672.5,387C 666.282,382.061 659.615,377.894 652.5,374.5C 649.011,371.863 645.345,369.363 641.5,367C 640.663,365.989 640.33,364.822 640.5,363.5C 643.404,358.259 647.071,353.593 651.5,349.5 Z"/></g>
<g><path style="opacity:1" fill="#fcdc02" d="M 741.5,350.5 C 772.5,350.5 803.5,350.5 834.5,350.5C 834.225,357.563 834.225,364.563 834.5,371.5C 833.256,375.471 831.923,379.471 830.5,383.5C 830.608,384.442 830.941,385.275 831.5,386C 828.942,397.594 826.108,409.094 823,420.5C 822,421.833 821,423.167 820,424.5C 817.537,433.592 814.37,442.425 810.5,451C 803.794,462.691 797.127,474.358 790.5,486C 789.167,486.667 787.833,486.667 786.5,486C 765.409,476.15 743.743,467.984 721.5,461.5C 722.755,452.479 725.255,443.812 729,435.5C 731.358,425.469 733.691,415.469 736,405.5C 738.988,387.324 740.821,368.991 741.5,350.5 Z"/></g>
<g><path style="opacity:1" fill="#fbdb10" d="M 427.5,349.5 C 427.667,388.168 427.5,426.835 427,465.5C 425.961,466.244 425.461,467.244 425.5,468.5C 423.231,470.582 420.731,472.582 418,474.5C 417.209,475.745 416.709,477.078 416.5,478.5C 412.88,480.453 409.88,483.119 407.5,486.5C 403.879,489.783 400.213,493.116 396.5,496.5C 394.738,497.262 393.738,498.596 393.5,500.5C 391.736,501.326 390.402,502.659 389.5,504.5C 386.167,507.167 383.167,510.167 380.5,513.5C 378.142,515.529 375.808,517.529 373.5,519.5C 371.738,520.262 370.738,521.596 370.5,523.5C 368.833,524.5 367.5,525.833 366.5,527.5C 360.194,533.14 354.194,539.14 348.5,545.5C 339.221,554.113 330.221,563.113 321.5,572.5C 320.402,571.399 320.235,570.066 321,568.5C 355.871,495.768 390.371,423.101 424.5,350.5C 425.391,349.89 426.391,349.557 427.5,349.5 Z"/></g>
<g><path style="opacity:1" fill="#fcdc0d" d="M 432.5,350.5 C 436.159,358.465 439.826,366.465 443.5,374.5C 474.811,437.932 505.644,501.599 536,565.5C 536.49,566.793 536.657,568.127 536.5,569.5C 536.167,569.5 535.833,569.5 535.5,569.5C 527.447,561.443 519.113,553.777 510.5,546.5C 509.833,545.167 508.833,544.167 507.5,543.5C 506.581,540.911 504.914,538.911 502.5,537.5C 500.57,537.229 499.236,536.229 498.5,534.5C 498.167,532.167 496.833,530.833 494.5,530.5C 493.5,528.833 492.167,527.5 490.5,526.5C 489.581,523.911 487.914,521.911 485.5,520.5C 484.738,518.738 483.404,517.738 481.5,517.5C 477.14,512.473 472.473,507.806 467.5,503.5C 467.106,501.29 465.773,499.957 463.5,499.5C 462.5,497.833 461.167,496.5 459.5,495.5C 458.243,492.573 456.243,490.239 453.5,488.5C 453.027,487.094 452.027,486.427 450.5,486.5C 450.167,485.5 449.5,484.833 448.5,484.5C 445.5,480.833 442.167,477.5 438.5,474.5C 435.974,472.582 433.974,470.249 432.5,467.5C 432.217,466.711 431.717,466.044 431,465.5C 430.833,446.333 430.667,427.167 430.5,408C 430.5,388.488 431.167,369.322 432.5,350.5 Z"/></g>
<g><path style="opacity:1" fill="#635a3b" d="M 427.5,349.5 C 429.494,388.486 430.161,427.819 429.5,467.5C 428.041,467.433 426.708,467.766 425.5,468.5C 425.461,467.244 425.961,466.244 427,465.5C 427.5,426.835 427.667,388.168 427.5,349.5 Z"/></g>
<g><path style="opacity:1" fill="#8d8666" d="M 424.5,346.5 C 427.632,347.249 430.299,348.582 432.5,350.5C 431.167,369.322 430.5,388.488 430.5,408C 430.667,427.167 430.833,446.333 431,465.5C 431.717,466.044 432.217,466.711 432.5,467.5C 431.5,467.5 430.5,467.5 429.5,467.5C 430.161,427.819 429.494,388.486 427.5,349.5C 426.391,349.557 425.391,349.89 424.5,350.5C 424.5,349.833 424.167,349.5 423.5,349.5C 424.11,348.609 424.443,347.609 424.5,346.5 Z"/></g>
<g><path style="opacity:1" fill="#6c6344" d="M 339.5,361.5 C 290.593,374.057 241.259,385.391 191.5,395.5C 187.958,395.813 184.625,395.479 181.5,394.5C 233.614,381.765 285.947,369.765 338.5,358.5C 341.951,358.462 345.284,357.795 348.5,356.5C 349.737,356.556 350.737,357.056 351.5,358C 347.244,358.701 343.244,359.868 339.5,361.5 Z"/></g>
<g><path style="opacity:1" fill="#6a5f41" d="M 445.5,371.5 C 476.976,436.621 508.642,501.788 540.5,567C 540.833,567.167 541.167,567.333 541.5,567.5C 541.833,566.667 542.167,565.833 542.5,565C 536.65,516.519 530.984,468.019 525.5,419.5C 526.167,420.5 526.833,421.5 527.5,422.5C 530.495,449.947 533.828,477.447 537.5,505C 537.836,506.03 538.503,506.53 539.5,506.5C 539.185,510.371 539.518,514.038 540.5,517.5C 541.333,530.699 542.333,544.366 543.5,558.5C 543.167,562.167 542.833,565.833 542.5,569.5C 540.518,570.623 538.518,570.623 536.5,569.5C 536.657,568.127 536.49,566.793 536,565.5C 505.644,501.599 474.811,437.932 443.5,374.5C 444.75,374.577 445.583,375.244 446,376.5C 446.384,374.803 446.218,373.137 445.5,371.5 Z"/></g>
<g><path style="opacity:1" fill="#6e6230" d="M 652.5,374.5 C 659.615,377.894 666.282,382.061 672.5,387C 678.747,388.772 684.081,391.939 688.5,396.5C 687.07,396.579 685.736,396.246 684.5,395.5C 683.571,396.689 683.238,398.022 683.5,399.5C 685.167,399.5 686.833,399.5 688.5,399.5C 675.176,402.538 661.509,404.205 647.5,404.5C 652.44,402.912 657.44,401.579 662.5,400.5C 663.5,400.5 664.5,400.5 665.5,400.5C 668.909,400.751 672.242,400.417 675.5,399.5C 676.357,398.264 677.023,396.931 677.5,395.5C 677.229,392.953 676.229,390.953 674.5,389.5C 669.516,388.016 664.849,385.849 660.5,383C 658.097,381.147 655.764,379.314 653.5,377.5C 653.443,376.391 653.11,375.391 652.5,374.5 Z"/></g>
<g><path style="opacity:1" fill="#7c724b" d="M 453.5,343.5 C 526.783,359.788 599.95,376.121 673,392.5C 675.578,392.318 676.078,391.318 674.5,389.5C 676.229,390.953 677.229,392.953 677.5,395.5C 677.023,396.931 676.357,398.264 675.5,399.5C 672.242,400.417 668.909,400.751 665.5,400.5C 668.495,399.818 671.495,398.818 674.5,397.5C 600.709,380.547 527.043,363.88 453.5,347.5C 456.187,347.664 458.854,347.497 461.5,347C 458.428,346.422 455.761,345.255 453.5,343.5 Z"/></g>
<g><path style="opacity:1" fill="#5b5135" d="M 418.5,347.5 C 419.338,347.842 419.672,348.508 419.5,349.5C 403.315,361.439 387.648,374.106 372.5,387.5C 369.032,389.47 365.699,391.636 362.5,394C 352.602,402.74 342.602,411.24 332.5,419.5C 332.167,418.167 331.833,418.167 331.5,419.5C 329.268,418.131 326.934,417.131 324.5,416.5C 327.187,416.664 329.854,416.497 332.5,416C 333.381,415.292 334.047,414.458 334.5,413.5C 361.064,391.206 388.064,369.373 415.5,348C 416.448,347.517 417.448,347.351 418.5,347.5 Z"/></g>
<g><path style="opacity:1" fill="#1a1510" d="M 688.5,396.5 C 689.833,397.5 689.833,398.5 688.5,399.5C 686.833,399.5 685.167,399.5 683.5,399.5C 683.238,398.022 683.571,396.689 684.5,395.5C 685.736,396.246 687.07,396.579 688.5,396.5 Z"/></g>
<g><path style="opacity:1" fill="#6f6227" d="M 191.5,383.5 C 190.993,384.859 189.993,385.859 188.5,386.5C 188.624,387.107 188.957,387.44 189.5,387.5C 187.392,389.059 185.059,390.392 182.5,391.5C 181.614,392.325 181.281,393.325 181.5,394.5C 184.625,395.479 187.958,395.813 191.5,395.5C 190.791,396.404 189.791,396.737 188.5,396.5C 185.727,396.812 183.393,397.978 181.5,400C 181.833,400.333 182.167,400.667 182.5,401C 181.207,401.49 179.873,401.657 178.5,401.5C 175.545,400.841 172.545,400.508 169.5,400.5C 169.369,397.633 170.703,395.967 173.5,395.5C 178.7,390.3 184.7,386.3 191.5,383.5 Z"/></g>
<g><path style="opacity:1" fill="#0f0b0e" d="M 173.5,395.5 C 178.796,399.293 177.796,400.459 170.5,399C 171.71,397.961 172.71,396.794 173.5,395.5 Z"/></g>
<g><path style="opacity:1" fill="#b19f2f" d="M 188.5,396.5 C 188.5,397.5 188.5,398.5 188.5,399.5C 190.735,399.205 192.735,399.539 194.5,400.5C 190.774,400.177 187.107,400.511 183.5,401.5C 187.647,402.167 191.647,402.834 195.5,403.5C 190.821,403.666 186.155,403.499 181.5,403C 180.263,402.768 179.263,402.268 178.5,401.5C 179.873,401.657 181.207,401.49 182.5,401C 182.167,400.667 181.833,400.333 181.5,400C 183.393,397.978 185.727,396.812 188.5,396.5 Z"/></g>
<g><path style="opacity:1" fill="#8b8368" d="M 662.5,400.5 C 657.44,401.579 652.44,402.912 647.5,404.5C 642.489,404.334 637.489,404.501 632.5,405C 625.26,406.653 617.927,407.653 610.5,408C 609.944,408.383 609.611,408.883 609.5,409.5C 608.833,410.167 608.167,410.833 607.5,411.5C 607.5,410.5 607.5,409.5 607.5,408.5C 604.167,408.5 600.833,408.5 597.5,408.5C 618.961,405.276 640.628,402.609 662.5,400.5 Z"/></g>
<g><path style="opacity:1" fill="#786a21" d="M 208.5,404.5 C 223.307,405.531 237.974,406.531 252.5,407.5C 252.5,408.5 252.5,409.5 252.5,410.5C 237.643,408.855 222.976,406.855 208.5,404.5 Z"/></g>
<g><path style="opacity:1" fill="#766825" d="M 647.5,404.5 C 635.009,406.527 622.342,408.194 609.5,409.5C 609.611,408.883 609.944,408.383 610.5,408C 617.927,407.653 625.26,406.653 632.5,405C 637.489,404.501 642.489,404.334 647.5,404.5 Z"/></g>
<g><path style="opacity:1" fill="#080766" d="M 298.5,413.5 C 306.936,415.263 315.603,416.263 324.5,416.5C 326.934,417.131 329.268,418.131 331.5,419.5C 331.795,421.735 331.461,423.735 330.5,425.5C 329.19,431.288 328.523,437.288 328.5,443.5C 327.761,455.892 326.427,468.225 324.5,480.5C 322.906,486.594 322.239,492.928 322.5,499.5C 321.952,501.532 320.619,502.532 318.5,502.5C 312.916,494.241 306.916,486.241 300.5,478.5C 288.801,461.81 277.134,445.143 265.5,428.5C 261.254,423.009 257.254,417.342 253.5,411.5C 253.97,410.307 254.97,409.64 256.5,409.5C 270.52,410.988 284.52,412.321 298.5,413.5 Z"/></g>
<g><path style="opacity:1" fill="#9d8c6c" d="M 595.5,408.5 C 588.849,409.893 582.182,411.226 575.5,412.5C 570.167,413.167 564.833,413.833 559.5,414.5C 553.261,414.276 547.261,414.943 541.5,416.5C 536.637,416.819 531.97,416.486 527.5,415.5C 550.128,413.037 572.794,410.704 595.5,408.5 Z"/></g>
<g><path style="opacity:1" fill="#824a40" d="M 595.5,408.5 C 596.167,408.5 596.833,408.5 597.5,408.5C 600.833,408.5 604.167,408.5 607.5,408.5C 607.5,409.5 607.5,410.5 607.5,411.5C 607.167,411.5 606.833,411.5 606.5,411.5C 606.209,410.351 605.376,409.684 604,409.5C 594.54,410.913 585.04,411.913 575.5,412.5C 582.182,411.226 588.849,409.893 595.5,408.5 Z"/></g>
<g><path style="opacity:1" fill="#090766" d="M 606.5,411.5 C 602.193,418.149 597.859,424.816 593.5,431.5C 579.396,449.941 566.062,468.941 553.5,488.5C 548.451,494.214 543.785,500.214 539.5,506.5C 538.503,506.53 537.836,506.03 537.5,505C 533.828,477.447 530.495,449.947 527.5,422.5C 527.137,420.089 528.137,418.589 530.5,418C 534.356,417.823 538.023,417.323 541.5,416.5C 547.712,416.477 553.712,415.81 559.5,414.5C 564.833,413.833 570.167,413.167 575.5,412.5C 585.04,411.913 594.54,410.913 604,409.5C 605.376,409.684 606.209,410.351 606.5,411.5 Z"/></g>
<g><path style="opacity:1" fill="#8e775c" d="M 194.5,400.5 C 239.541,405.08 284.541,410.08 329.5,415.5C 331.177,414.813 332.844,414.146 334.5,413.5C 334.047,414.458 333.381,415.292 332.5,416C 329.854,416.497 327.187,416.664 324.5,416.5C 316.05,414.847 307.383,413.847 298.5,413.5C 284.52,412.321 270.52,410.988 256.5,409.5C 254.97,409.64 253.97,410.307 253.5,411.5C 252.833,411.5 252.5,411.167 252.5,410.5C 252.5,409.5 252.5,408.5 252.5,407.5C 237.974,406.531 223.307,405.531 208.5,404.5C 203.968,404.818 199.634,404.485 195.5,403.5C 191.647,402.834 187.647,402.167 183.5,401.5C 187.107,400.511 190.774,400.177 194.5,400.5 Z"/></g>
<g><path style="opacity:1" fill="#592243" d="M 298.5,413.5 C 307.383,413.847 316.05,414.847 324.5,416.5C 315.603,416.263 306.936,415.263 298.5,413.5 Z"/></g>
<g><path style="opacity:1" fill="#652d43" d="M 559.5,414.5 C 553.712,415.81 547.712,416.477 541.5,416.5C 547.261,414.943 553.261,414.276 559.5,414.5 Z"/></g>
<g><path style="opacity:1" fill="#62593a" d="M 423.5,349.5 C 424.167,349.5 424.5,349.833 424.5,350.5C 390.371,423.101 355.871,495.768 321,568.5C 320.235,570.066 320.402,571.399 321.5,572.5C 320.573,574.476 319.24,574.809 317.5,573.5C 317.709,572.914 318.043,572.414 318.5,572C 316.803,571.616 315.137,571.782 313.5,572.5C 313.5,570.833 313.5,569.167 313.5,567.5C 315.382,561.822 315.715,555.989 314.5,550C 316.326,539.876 317.993,529.709 319.5,519.5C 319.786,513.741 319.452,508.075 318.5,502.5C 320.619,502.532 321.952,501.532 322.5,499.5C 322.833,499.5 323.167,499.5 323.5,499.5C 321.344,522.235 318.678,544.902 315.5,567.5C 316.822,567.67 317.989,567.337 319,566.5C 352.006,496.148 385.34,425.815 419,355.5C 420.277,353.253 421.777,351.253 423.5,349.5 Z"/></g>
<g><path style="opacity:1" fill="#4e143a" d="M 330.5,425.5 C 330.612,431.726 329.946,437.726 328.5,443.5C 328.523,437.288 329.19,431.288 330.5,425.5 Z"/></g>
<g><path style="opacity:1" fill="#fcdc02" d="M 313.5,567.5 C 312.691,568.469 311.691,569.302 310.5,570C 304.932,571.947 299.266,573.614 293.5,575C 286.016,579.492 278.183,583.325 270,586.5C 228.416,560.084 195.583,525.417 171.5,482.5C 170.598,479.96 169.598,477.46 168.5,475C 168.905,474.055 169.572,473.388 170.5,473C 201.764,465.859 233.598,460.359 266,456.5C 267.225,456.862 268.391,457.362 269.5,458C 278.285,492.065 292.118,523.898 311,553.5C 311.333,553.167 311.667,552.833 312,552.5C 312.748,557.481 313.248,562.481 313.5,567.5 Z"/></g>
<g><path style="opacity:1" fill="#fcdc02" d="M 590.5,456.5 C 622.736,460.453 654.403,466.287 685.5,474C 687.41,474.408 688.41,475.575 688.5,477.5C 676.043,501.794 660.21,523.461 641,542.5C 640.333,543.833 639.667,545.167 639,546.5C 629.867,553.964 621.034,561.798 612.5,570C 606.329,573.596 600.662,577.929 595.5,583C 592.827,584.704 589.993,585.871 587,586.5C 575.8,581.096 564.3,576.262 552.5,572C 550.888,571.28 549.388,571.446 548,572.5C 547.085,571.672 546.419,570.672 546,569.5C 545.593,566.318 545.093,563.151 544.5,560C 545.883,556.633 546.717,553.133 547,549.5C 548.566,550.061 549.899,549.394 551,547.5C 566.461,521.127 578.127,493.127 586,463.5C 587.76,461.279 589.26,458.945 590.5,456.5 Z"/></g>
<g><path style="opacity:1" fill="#927a5f" d="M 332.5,419.5 C 330.424,442.045 327.757,464.379 324.5,486.5C 324.5,484.5 324.5,482.5 324.5,480.5C 326.427,468.225 327.761,455.892 328.5,443.5C 329.946,437.726 330.612,431.726 330.5,425.5C 331.461,423.735 331.795,421.735 331.5,419.5C 331.833,418.167 332.167,418.167 332.5,419.5 Z"/></g>
<g><path style="opacity:1" fill="#060767" d="M 429.5,467.5 C 430.5,467.5 431.5,467.5 432.5,467.5C 433.974,470.249 435.974,472.582 438.5,474.5C 440.833,478.833 444.167,482.167 448.5,484.5C 449.5,484.833 450.167,485.5 450.5,486.5C 450.973,487.906 451.973,488.573 453.5,488.5C 454.757,491.427 456.757,493.761 459.5,495.5C 461.167,496.5 462.5,497.833 463.5,499.5C 463.833,501.833 465.167,503.167 467.5,503.5C 472.473,507.806 477.14,512.473 481.5,517.5C 482.262,519.262 483.596,520.262 485.5,520.5C 486.226,523.288 487.893,525.288 490.5,526.5C 492.167,527.5 493.5,528.833 494.5,530.5C 494.894,532.71 496.227,534.043 498.5,534.5C 499.236,536.229 500.57,537.229 502.5,537.5C 503.473,540.135 505.14,542.135 507.5,543.5C 508.833,544.167 509.833,545.167 510.5,546.5C 510.5,547.5 510.5,548.5 510.5,549.5C 508.046,551.285 506.379,553.618 505.5,556.5C 499.842,564.472 494.176,572.472 488.5,580.5C 479.779,591.888 471.445,603.555 463.5,615.5C 453.444,628.733 443.944,642.399 435,656.5C 433.54,659.21 431.54,659.876 429,658.5C 423,649.833 417,641.167 411,632.5C 409.296,630.627 407.463,628.96 405.5,627.5C 405.509,625.692 405.009,624.025 404,622.5C 393.303,607.651 382.47,592.984 371.5,578.5C 366.982,570.783 361.982,563.449 356.5,556.5C 354.853,553.527 352.853,550.86 350.5,548.5C 350.5,548.167 350.5,547.833 350.5,547.5C 350.351,546.448 350.517,545.448 351,544.5C 356.764,539.242 361.931,533.576 366.5,527.5C 367.5,525.833 368.833,524.5 370.5,523.5C 372.262,522.738 373.262,521.404 373.5,519.5C 375.808,517.529 378.142,515.529 380.5,513.5C 384.5,511.5 387.5,508.5 389.5,504.5C 390.402,502.659 391.736,501.326 393.5,500.5C 395.262,499.738 396.262,498.404 396.5,496.5C 399.616,495.107 402.616,493.441 405.5,491.5C 405.291,490.914 404.957,490.414 404.5,490C 405.71,488.961 406.71,487.794 407.5,486.5C 409.88,483.119 412.88,480.453 416.5,478.5C 420.922,476.413 423.922,473.08 425.5,468.5C 426.708,467.766 428.041,467.433 429.5,467.5 Z"/></g>
<g><path style="opacity:1" fill="#4d2855" d="M 425.5,468.5 C 423.922,473.08 420.922,476.413 416.5,478.5C 416.709,477.078 417.209,475.745 418,474.5C 420.731,472.582 423.231,470.582 425.5,468.5 Z"/></g>
<g><path style="opacity:1" fill="#674051" d="M 438.5,474.5 C 442.167,477.5 445.5,480.833 448.5,484.5C 444.167,482.167 440.833,478.833 438.5,474.5 Z"/></g>
<g><path style="opacity:1" fill="#fbdb02" d="M 142.5,479.5 C 144.167,479.5 145.833,479.5 147.5,479.5C 151.277,487.729 155.11,496.062 159,504.5C 182.415,541.087 211.915,572.087 247.5,597.5C 248.452,599.045 248.785,600.712 248.5,602.5C 247.127,602.343 245.793,602.51 244.5,603C 239.469,608.024 234.302,612.524 229,616.5C 170.769,591.256 121.435,554.256 81,505.5C 80.1041,502.975 80.6041,500.808 82.5,499C 94.3364,494.5 106.17,490 118,485.5C 125.861,484.164 133.695,482.664 141.5,481C 142.056,480.617 142.389,480.117 142.5,479.5 Z"/></g>
<g><path style="opacity:1" fill="#fbdb02" d="M 710.5,481.5 C 724.593,483.796 737.926,487.963 750.5,494C 754.344,495.586 758.344,496.586 762.5,497C 766.52,499.724 770.854,501.558 775.5,502.5C 775.66,504.199 775.494,505.866 775,507.5C 755.48,530.65 733.647,551.483 709.5,570C 708.552,570.483 707.552,570.649 706.5,570.5C 706.719,571.675 706.386,572.675 705.5,573.5C 680.953,589.858 655.286,604.358 628.5,617C 626.5,617.667 624.5,617.667 622.5,617C 617.725,611.649 613.059,606.315 608.5,601C 608.585,599.893 608.919,598.893 609.5,598C 653.134,567.552 686.801,528.718 710.5,481.5 Z"/></g>
<g><path style="opacity:1" fill="#714452" d="M 324.5,480.5 C 324.5,482.5 324.5,484.5 324.5,486.5C 324.769,490.931 324.436,495.265 323.5,499.5C 323.167,499.5 322.833,499.5 322.5,499.5C 322.239,492.928 322.906,486.594 324.5,480.5 Z"/></g>
<g><path style="opacity:1" fill="#e5ec08" d="M 300.5,478.5 C 306.916,486.241 312.916,494.241 318.5,502.5C 319.452,508.075 319.786,513.741 319.5,519.5C 317.857,519.48 316.524,520.147 315.5,521.5C 314.748,517.808 313.914,514.142 313,510.5C 308.985,500.135 304.151,490.135 298.5,480.5C 298.855,479.478 299.522,478.811 300.5,478.5 Z"/></g>
<g><path style="opacity:1" fill="#816459" d="M 450.5,486.5 C 452.027,486.427 453.027,487.094 453.5,488.5C 451.973,488.573 450.973,487.906 450.5,486.5 Z"/></g>
<g><path style="opacity:1" fill="#532d57" d="M 407.5,486.5 C 406.71,487.794 405.71,488.961 404.5,490C 404.957,490.414 405.291,490.914 405.5,491.5C 402.616,493.441 399.616,495.107 396.5,496.5C 400.213,493.116 403.879,489.783 407.5,486.5 Z"/></g>
<g><path style="opacity:1" fill="#836352" d="M 453.5,488.5 C 456.243,490.239 458.243,492.573 459.5,495.5C 456.757,493.761 454.757,491.427 453.5,488.5 Z"/></g>
<g><path style="opacity:1" fill="#e5eb0e" d="M 540.5,517.5 C 539.518,514.038 539.185,510.371 539.5,506.5C 543.785,500.214 548.451,494.214 553.5,488.5C 554.117,488.389 554.617,488.056 555,487.5C 555.808,489.579 555.641,491.579 554.5,493.5C 550.235,499.58 546.902,506.246 544.5,513.5C 543.676,515.421 542.343,516.754 540.5,517.5 Z"/></g>
<g><path style="opacity:1" fill="#7d6949" d="M 396.5,496.5 C 396.262,498.404 395.262,499.738 393.5,500.5C 393.738,498.596 394.738,497.262 396.5,496.5 Z"/></g>
<g><path style="opacity:1" fill="#704954" d="M 463.5,499.5 C 465.773,499.957 467.106,501.29 467.5,503.5C 465.167,503.167 463.833,501.833 463.5,499.5 Z"/></g>
<g><path style="opacity:1" fill="#603546" d="M 389.5,504.5 C 387.5,508.5 384.5,511.5 380.5,513.5C 383.167,510.167 386.167,507.167 389.5,504.5 Z"/></g>
<g><path style="opacity:1" fill="#896b57" d="M 481.5,517.5 C 483.404,517.738 484.738,518.738 485.5,520.5C 483.596,520.262 482.262,519.262 481.5,517.5 Z"/></g>
<g><path style="opacity:1" fill="#826c4d" d="M 373.5,519.5 C 373.262,521.404 372.262,522.738 370.5,523.5C 370.738,521.596 371.738,520.262 373.5,519.5 Z"/></g>
<g><path style="opacity:1" fill="#714e4e" d="M 485.5,520.5 C 487.914,521.911 489.581,523.911 490.5,526.5C 487.893,525.288 486.226,523.288 485.5,520.5 Z"/></g>
<g><path style="opacity:1" fill="#806a54" d="M 494.5,530.5 C 496.833,530.833 498.167,532.167 498.5,534.5C 496.227,534.043 494.894,532.71 494.5,530.5 Z"/></g>
<g><path style="opacity:1" fill="#5e374a" d="M 366.5,527.5 C 361.931,533.576 356.764,539.242 351,544.5C 350.517,545.448 350.351,546.448 350.5,547.5C 349.167,547.5 348.5,546.833 348.5,545.5C 354.194,539.14 360.194,533.14 366.5,527.5 Z"/></g>
<g><path style="opacity:1" fill="#7e7052" d="M 502.5,537.5 C 504.914,538.911 506.581,540.911 507.5,543.5C 505.14,542.135 503.473,540.135 502.5,537.5 Z"/></g>
<g><path style="opacity:1" fill="#e9f404" d="M 350.5,548.5 C 352.853,550.86 354.853,553.527 356.5,556.5C 355.929,560.08 354.596,560.413 352.5,557.5C 348.527,558.384 344.527,559.051 340.5,559.5C 340.5,558.5 340.5,557.5 340.5,556.5C 342.937,552.731 346.271,550.064 350.5,548.5 Z"/></g>
<g><path style="opacity:1" fill="#efd00a" d="M 510.5,549.5 C 513.387,550.71 515.72,552.71 517.5,555.5C 517.5,556.833 517.5,558.167 517.5,559.5C 514.65,559.364 511.817,559.031 509,558.5C 507.319,558.392 506.152,557.725 505.5,556.5C 506.379,553.618 508.046,551.285 510.5,549.5 Z"/></g>
<g><path style="opacity:1" fill="#453e31" d="M 510.5,546.5 C 519.113,553.777 527.447,561.443 535.5,569.5C 537.164,575.081 539.997,575.747 544,571.5C 545.544,574.791 545.711,578.124 544.5,581.5C 544.167,581.333 543.833,581.167 543.5,581C 534.687,572.687 526.02,564.187 517.5,555.5C 515.72,552.71 513.387,550.71 510.5,549.5C 510.5,548.5 510.5,547.5 510.5,546.5 Z"/></g>
<g><path style="opacity:1" fill="#453c25" d="M 348.5,545.5 C 348.5,546.833 349.167,547.5 350.5,547.5C 350.5,547.833 350.5,548.167 350.5,548.5C 346.271,550.064 342.937,552.731 340.5,556.5C 332.338,563.829 324.672,571.662 317.5,580C 316.1,581.438 314.433,582.271 312.5,582.5C 312.253,579.061 312.586,575.728 313.5,572.5C 315.137,571.782 316.803,571.616 318.5,572C 318.043,572.414 317.709,572.914 317.5,573.5C 319.24,574.809 320.573,574.476 321.5,572.5C 330.221,563.113 339.221,554.113 348.5,545.5 Z"/></g>
<g><path style="opacity:1" fill="#f5d706" d="M 371.5,578.5 C 382.47,592.984 393.303,607.651 404,622.5C 405.009,624.025 405.509,625.692 405.5,627.5C 404.292,628.782 402.958,628.782 401.5,627.5C 386.51,614.677 372.677,600.677 360,585.5C 359.505,583.527 359.338,581.527 359.5,579.5C 363.548,579.605 367.548,579.272 371.5,578.5 Z"/></g>
<g><path style="opacity:1" fill="#f3d508" d="M 463.5,615.5 C 471.445,603.555 479.779,591.888 488.5,580.5C 491.393,579.924 494.393,579.924 497.5,580.5C 497.856,583.564 497.023,586.231 495,588.5C 486.016,598.817 476.35,608.484 466,617.5C 464.624,617.316 463.791,616.649 463.5,615.5 Z"/></g>
<g><path style="opacity:1" fill="#f8d902" d="M 330.5,585.5 C 333.195,585.933 335.362,587.266 337,589.5C 349.502,606.342 363.835,621.676 380,635.5C 380.49,636.793 380.657,638.127 380.5,639.5C 351.7,630.223 324.033,618.389 297.5,604C 296.207,603.51 294.873,603.343 293.5,603.5C 293.215,601.712 293.548,600.045 294.5,598.5C 306.254,593.419 318.254,589.086 330.5,585.5 Z"/></g>
<g><path style="opacity:1" fill="#f8da02" d="M 523.5,585.5 C 536.512,589.5 549.512,593.5 562.5,597.5C 562.65,600.459 561.65,602.959 559.5,605C 553.544,608.314 547.544,611.647 541.5,615C 526.662,620.703 511.996,626.703 497.5,633C 491.509,635.103 485.509,637.269 479.5,639.5C 476.16,638.903 475.66,637.236 478,634.5C 486.796,627.28 495.129,619.614 503,611.5C 510.452,603.227 517.286,594.56 523.5,585.5 Z"/></g>
<g><path style="opacity:1" fill="#f5d803" d="M 266.5,613.5 C 269.528,613.339 272.361,614.006 275,615.5C 296.257,627.745 318.091,638.745 340.5,648.5C 338.437,648.392 336.27,648.725 334,649.5C 315.943,646.223 298.276,641.557 281,635.5C 278.576,637.161 276.742,636.661 275.5,634C 268.208,632.094 261.208,629.427 254.5,626C 253.978,625.439 253.645,624.772 253.5,624C 257.541,620 261.875,616.5 266.5,613.5 Z"/></g>
<g><path style="opacity:1" fill="#f4d702" d="M 585.5,613.5 C 592.098,615.918 597.431,620.084 601.5,626C 601.355,626.772 601.022,627.439 600.5,628C 574.673,636.457 548.673,643.957 522.5,650.5C 522.5,648.5 522.5,646.5 522.5,644.5C 528.332,643.255 533.998,641.422 539.5,639C 555.637,631.769 570.97,623.269 585.5,613.5 Z"/></g>
<g><path style="opacity:1" fill="#eae9d5" d="M 401.5,679.5 C 402.791,679.263 403.791,679.596 404.5,680.5C 394.167,680.5 383.833,680.5 373.5,680.5C 373.5,679.167 373.5,677.833 373.5,676.5C 382.85,677.354 392.184,678.354 401.5,679.5 Z"/></g>
<g><path style="opacity:1" fill="#eceada" d="M 485.5,680.5 C 474.833,680.5 464.167,680.5 453.5,680.5C 453.842,679.662 454.508,679.328 455.5,679.5C 464.096,678.123 472.763,677.123 481.5,676.5C 484.512,676.179 485.845,677.512 485.5,680.5 Z"/></g>
<g><path style="opacity:1" fill="#c6bd73" d="M 401.5,679.5 C 419.502,679.445 437.502,679.445 455.5,679.5C 454.508,679.328 453.842,679.662 453.5,680.5C 437.167,680.5 420.833,680.5 404.5,680.5C 403.791,679.596 402.791,679.263 401.5,679.5 Z"/></g>
</svg>
