<?xml version="1.0" encoding="UTF-8"?>
<!DOCTYPE svg PUBLIC "-//W3C//DTD SVG 1.1//EN" "http://www.w3.org/Graphics/SVG/1.1/DTD/svg11.dtd">
<svg xmlns="http://www.w3.org/2000/svg" version="1.1" width="254px" height="254px" style="shape-rendering:geometricPrecision; text-rendering:geometricPrecision; image-rendering:optimizeQuality; fill-rule:evenodd; clip-rule:evenodd" xmlns:xlink="http://www.w3.org/1999/xlink">
<g><path style="opacity:0.016" fill="#364c9c" d="M 76.5,5.5 C 109.331,4.33587 142.331,4.1692 175.5,5C 142.502,5.49998 109.502,5.66665 76.5,5.5 Z"/></g>
<g><path style="opacity:0.008" fill="#80fffe" d="M 73.5,6.5 C 74.8333,7.16667 74.8333,7.16667 73.5,6.5 Z"/></g>
<g><path style="opacity:0.008" fill="#80fffe" d="M 73.5,7.5 C 72.8333,8.16667 72.8333,8.16667 73.5,7.5 Z"/></g>
<g><path style="opacity:0.008" fill="#8080ff" d="M 72.5,8.5 C 71.8333,9.16667 71.8333,9.16667 72.5,8.5 Z"/></g>
<g><path style="opacity:0.008" fill="#7f807f" d="M 71.5,9.5 C 70.8333,10.1667 70.8333,10.1667 71.5,9.5 Z"/></g>
<g><path style="opacity:0.773" fill="#a0aed6" d="M 180.5,11.5 C 184.898,14.8947 188.564,18.8947 191.5,23.5C 187.102,20.1053 183.436,16.1053 180.5,11.5 Z"/></g>
<g><path style="opacity:0.008" fill="#8080ff" d="M 58.5,21.5 C 59.8333,22.1667 59.8333,22.1667 58.5,21.5 Z"/></g>
<g><path style="opacity:0.008" fill="#a9aaa9" d="M 58.5,22.5 C 57.8333,23.1667 57.8333,23.1667 58.5,22.5 Z"/></g>
<g><path style="opacity:0.008" fill="#fefffe" d="M 57.5,23.5 C 56.8333,24.1667 56.8333,24.1667 57.5,23.5 Z"/></g>
<g><path style="opacity:0.008" fill="#fefffe" d="M 56.5,24.5 C 55.8333,25.1667 55.8333,25.1667 56.5,24.5 Z"/></g>
<g><path style="opacity:0.008" fill="#80fffe" d="M 55.5,25.5 C 54.8333,26.1667 54.8333,26.1667 55.5,25.5 Z"/></g>
<g><path style="opacity:0.008" fill="#8080ff" d="M 54.5,26.5 C 53.8333,27.1667 53.8333,27.1667 54.5,26.5 Z"/></g>
<g><path style="opacity:0.008" fill="#8080ff" d="M 53.5,27.5 C 52.8333,28.1667 52.8333,28.1667 53.5,27.5 Z"/></g>
<g><path style="opacity:0.008" fill="#8080ff" d="M 52.5,28.5 C 51.8333,29.1667 51.8333,29.1667 52.5,28.5 Z"/></g>
<g><path style="opacity:0.008" fill="#7f807f" d="M 51.5,29.5 C 50.8333,30.1667 50.8333,30.1667 51.5,29.5 Z"/></g>
<g><path style="opacity:0.718" fill="#adb4d7" d="M 197.5,28.5 C 201.234,31.2311 204.234,34.5644 206.5,38.5C 202.766,35.7689 199.766,32.4356 197.5,28.5 Z"/></g>
<g><path style="opacity:0.008" fill="#000000" d="M 50.5,32.5 C 49.8333,31.1667 49.8333,31.1667 50.5,32.5 Z"/></g>
<g><path style="opacity:1" fill="#0d3198" d="M 186.5,32.5 C 202.5,48.1667 218.5,63.8333 234.5,79.5C 235.658,110.428 235.825,141.428 235,172.5C 230.963,176.369 227.13,180.369 223.5,184.5C 205.731,200.767 188.398,217.601 171.5,235C 141.168,235.5 110.835,235.667 80.5,235.5C 80.6107,234.883 80.944,234.383 81.5,234C 77.6295,230.298 73.9629,226.464 70.5,222.5C 73.925,222.633 74.2583,221.967 71.5,220.5C 72.4916,220.672 73.1583,220.338 73.5,219.5C 74.7017,217.608 76.035,215.774 77.5,214C 80.4368,214.623 83.4368,214.957 86.5,215C 84.8333,212.667 83.1667,210.333 81.5,208C 83.0456,205.743 84.7123,203.576 86.5,201.5C 84.0081,200.804 81.5081,201.137 79,202.5C 77.699,202.361 76.8656,201.695 76.5,200.5C 76.9193,197.675 75.9193,195.509 73.5,194C 74.4158,193.722 75.0825,193.222 75.5,192.5C 116.292,206.72 155.625,203.553 193.5,183C 215.652,169.694 227.652,150.194 229.5,124.5C 228.631,111.102 224.131,99.1023 216,88.5C 201.404,71.9587 183.571,60.6254 162.5,54.5C 161.737,53.7321 160.737,53.2321 159.5,53C 161.377,52.4242 163.211,52.5909 165,53.5C 168.351,51.9542 171.851,50.9542 175.5,50.5C 177.223,52.2528 178.723,54.2528 180,56.5C 180.333,53.5 180.667,50.5 181,47.5C 183.124,46.7728 185.291,46.1062 187.5,45.5C 188.298,45.0431 188.631,44.3764 188.5,43.5C 187.842,42.0234 186.175,41.0234 183.5,40.5C 182.167,37.8333 182.167,35.1667 183.5,32.5C 184.527,33.7914 185.527,33.7914 186.5,32.5 Z"/></g>
<g><path style="opacity:1" fill="#0d3298" d="M 65.5,32.5 C 67.045,33.2297 67.8784,34.563 68,36.5C 68.2321,35.2625 68.7321,34.2625 69.5,33.5C 69.8174,36.5719 69.4841,39.5719 68.5,42.5C 59.4457,45.0023 59.4457,46.8356 68.5,48C 69.756,48.4169 70.4226,49.2502 70.5,50.5C 69.9898,53.3878 70.6565,55.7211 72.5,57.5C 71.7659,58.7079 71.4326,60.0413 71.5,61.5C 51.6335,70.5317 36.8002,84.865 27,104.5C 18.2568,135.19 26.7568,160.024 52.5,179C 59.9009,184.031 67.5676,188.531 75.5,192.5C 75.0825,193.222 74.4158,193.722 73.5,194C 75.9193,195.509 76.9193,197.675 76.5,200.5C 75.5714,199.064 74.4048,197.731 73,196.5C 72.502,199.482 72.3354,202.482 72.5,205.5C 61.3682,206.57 61.0349,208.237 71.5,210.5C 71.5,213.833 71.5,217.167 71.5,220.5C 74.2583,221.967 73.925,222.633 70.5,222.5C 53.2014,205.702 36.0348,188.702 19,171.5C 18.3333,141.167 18.3333,110.833 19,80.5C 20.1934,78.3949 21.8601,76.7282 24,75.5C 24.4828,74.552 24.6495,73.552 24.5,72.5C 25.5,70.8333 26.8333,69.5 28.5,68.5C 40.8333,56.5 53.1667,44.5 65.5,32.5 Z"/></g>
<g><path style="opacity:0.008" fill="#80fffe" d="M 41.5,38.5 C 42.8333,39.1667 42.8333,39.1667 41.5,38.5 Z"/></g>
<g><path style="opacity:0.008" fill="#a9aaa9" d="M 41.5,39.5 C 40.8333,40.1667 40.8333,40.1667 41.5,39.5 Z"/></g>
<g><path style="opacity:0.008" fill="#fefffe" d="M 40.5,40.5 C 39.8333,41.1667 39.8333,41.1667 40.5,40.5 Z"/></g>
<g><path style="opacity:0.008" fill="#fefffe" d="M 39.5,41.5 C 38.8333,42.1667 38.8333,42.1667 39.5,41.5 Z"/></g>
<g><path style="opacity:0.008" fill="#fefffe" d="M 38.5,42.5 C 37.8333,43.1667 37.8333,43.1667 38.5,42.5 Z"/></g>
<g><path style="opacity:0.008" fill="#80fffe" d="M 37.5,43.5 C 36.8333,44.1667 36.8333,44.1667 37.5,43.5 Z"/></g>
<g><path style="opacity:0.008" fill="#8080ff" d="M 36.5,44.5 C 35.8333,45.1667 35.8333,45.1667 36.5,44.5 Z"/></g>
<g><path style="opacity:0.008" fill="#8080ff" d="M 35.5,45.5 C 34.8333,46.1667 34.8333,46.1667 35.5,45.5 Z"/></g>
<g><path style="opacity:0.008" fill="#7f807f" d="M 34.5,46.5 C 33.8333,47.1667 33.8333,47.1667 34.5,46.5 Z"/></g>
<g><path style="opacity:0.008" fill="#7f807f" d="M 33.5,47.5 C 32.8333,48.1667 32.8333,48.1667 33.5,47.5 Z"/></g>
<g><path style="opacity:0.741" fill="#adb6d8" d="M 215.5,46.5 C 219.898,49.8947 223.564,53.8947 226.5,58.5C 222.102,55.1053 218.436,51.1053 215.5,46.5 Z"/></g>
<g><path style="opacity:0.008" fill="#435a5a" d="M 13.5,69.5 C 12.8333,69.5 12.1667,69.5 11.5,69.5C 12.5477,67.0673 13.2144,67.0673 13.5,69.5 Z"/></g>
<g><path style="opacity:0.008" fill="#a9aaa9" d="M 11.5,69.5 C 10.8333,70.1667 10.8333,70.1667 11.5,69.5 Z"/></g>
<g><path style="opacity:0.008" fill="#a9aaff" d="M 10.5,70.5 C 9.83333,71.1667 9.83333,71.1667 10.5,70.5 Z"/></g>
<g><path style="opacity:1" fill="#eaf428" d="M 162.5,54.5 C 183.571,60.6254 201.404,71.9587 216,88.5C 224.131,99.1023 228.631,111.102 229.5,124.5C 227.652,150.194 215.652,169.694 193.5,183C 155.625,203.553 116.292,206.72 75.5,192.5C 67.5676,188.531 59.9009,184.031 52.5,179C 26.7568,160.024 18.2568,135.19 27,104.5C 36.8002,84.865 51.6335,70.5317 71.5,61.5C 101.042,49.6309 131.376,47.2976 162.5,54.5 Z"/></g>
<g><path style="opacity:0.008" fill="#a9aaff" d="M 9.5,71.5 C 8.83333,72.1667 8.83333,72.1667 9.5,71.5 Z"/></g>
<g><path style="opacity:0.008" fill="#a9aaff" d="M 8.5,72.5 C 7.83333,73.1667 7.83333,73.1667 8.5,72.5 Z"/></g>
<g><path style="opacity:0.008" fill="#a9aaa9" d="M 7.5,73.5 C 6.83333,74.1667 6.83333,74.1667 7.5,73.5 Z"/></g>
<g><path style="opacity:0.008" fill="#8080ff" d="M 6.5,74.5 C 5.83333,75.1667 5.83333,75.1667 6.5,74.5 Z"/></g>
<g><path style="opacity:0.008" fill="#8080ff" d="M 245.5,74.5 C 246.833,75.1667 246.833,75.1667 245.5,74.5 Z"/></g>
<g><path style="opacity:0.008" fill="#000000" d="M 246.5,76.5 C 247.613,77.9464 247.78,79.6131 247,81.5C 246.506,79.8659 246.34,78.1992 246.5,76.5 Z"/></g>
<g><path style="opacity:0.991" fill="#39449d" d="M 180.5,11.5 C 183.436,16.1053 187.102,20.1053 191.5,23.5C 193.54,25.177 195.54,26.8437 197.5,28.5C 199.766,32.4356 202.766,35.7689 206.5,38.5C 209.656,40.9243 212.656,43.591 215.5,46.5C 218.436,51.1053 222.102,55.1053 226.5,58.5C 229.526,61.1954 232.526,63.8621 235.5,66.5C 237.725,70.2347 240.558,73.568 244,76.5C 244.172,83.346 244.672,90.0126 245.5,96.5C 245.5,123.167 245.5,149.833 245.5,176.5C 244.833,176.5 244.5,176.833 244.5,177.5C 243.833,177.5 243.5,177.833 243.5,178.5C 242.833,178.5 242.5,178.833 242.5,179.5C 241.833,179.5 241.5,179.833 241.5,180.5C 240.833,180.5 240.5,180.833 240.5,181.5C 239.833,181.5 239.5,181.833 239.5,182.5C 238.833,182.5 238.5,182.833 238.5,183.5C 237.833,183.5 237.5,183.833 237.5,184.5C 236.833,184.5 236.5,184.833 236.5,185.5C 235.833,185.5 235.5,185.833 235.5,186.5C 234.833,186.5 234.5,186.833 234.5,187.5C 233.833,187.5 233.5,187.833 233.5,188.5C 232.833,188.5 232.5,188.833 232.5,189.5C 231.833,189.5 231.5,189.833 231.5,190.5C 230.833,190.5 230.5,190.833 230.5,191.5C 229.833,191.5 229.5,191.833 229.5,192.5C 228.833,192.5 228.5,192.833 228.5,193.5C 227.833,193.5 227.5,193.833 227.5,194.5C 226.833,194.5 226.5,194.833 226.5,195.5C 225.833,195.5 225.5,195.833 225.5,196.5C 224.833,196.5 224.5,196.833 224.5,197.5C 223.833,197.5 223.5,197.833 223.5,198.5C 222.833,198.5 222.5,198.833 222.5,199.5C 221.833,199.5 221.5,199.833 221.5,200.5C 220.833,200.5 220.5,200.833 220.5,201.5C 219.833,201.5 219.5,201.833 219.5,202.5C 218.833,202.5 218.5,202.833 218.5,203.5C 217.833,203.5 217.5,203.833 217.5,204.5C 216.833,204.5 216.5,204.833 216.5,205.5C 215.833,205.5 215.5,205.833 215.5,206.5C 214.833,206.5 214.5,206.833 214.5,207.5C 213.833,207.5 213.5,207.833 213.5,208.5C 212.833,208.5 212.5,208.833 212.5,209.5C 211.833,209.5 211.5,209.833 211.5,210.5C 210.833,210.5 210.5,210.833 210.5,211.5C 209.833,211.5 209.5,211.833 209.5,212.5C 208.833,212.5 208.5,212.833 208.5,213.5C 207.833,213.5 207.5,213.833 207.5,214.5C 206.833,214.5 206.5,214.833 206.5,215.5C 205.833,215.5 205.5,215.833 205.5,216.5C 204.833,216.5 204.5,216.833 204.5,217.5C 203.833,217.5 203.5,217.833 203.5,218.5C 202.833,218.5 202.5,218.833 202.5,219.5C 201.833,219.5 201.5,219.833 201.5,220.5C 200.833,220.5 200.5,220.833 200.5,221.5C 199.833,221.5 199.5,221.833 199.5,222.5C 198.833,222.5 198.5,222.833 198.5,223.5C 197.833,223.5 197.5,223.833 197.5,224.5C 196.833,224.5 196.5,224.833 196.5,225.5C 195.833,225.5 195.5,225.833 195.5,226.5C 194.833,226.5 194.5,226.833 194.5,227.5C 193.833,227.5 193.5,227.833 193.5,228.5C 192.833,228.5 192.5,228.833 192.5,229.5C 191.833,229.5 191.5,229.833 191.5,230.5C 190.833,230.5 190.5,230.833 190.5,231.5C 189.833,231.5 189.5,231.833 189.5,232.5C 188.833,232.5 188.5,232.833 188.5,233.5C 187.833,233.5 187.5,233.833 187.5,234.5C 186.833,234.5 186.5,234.833 186.5,235.5C 185.833,235.5 185.5,235.833 185.5,236.5C 184.833,236.5 184.5,236.833 184.5,237.5C 183.833,237.5 183.5,237.833 183.5,238.5C 182.833,238.5 182.5,238.833 182.5,239.5C 181.833,239.5 181.5,239.833 181.5,240.5C 180.833,240.5 180.5,240.833 180.5,241.5C 179.833,241.5 179.5,241.833 179.5,242.5C 178.833,242.5 178.5,242.833 178.5,243.5C 177.833,243.5 177.5,243.833 177.5,244.5C 176.833,244.5 176.5,244.833 176.5,245.5C 142.833,245.5 109.167,245.5 75.5,245.5C 75.5,245.167 75.5,244.833 75.5,244.5C 75.5,244.167 75.5,243.833 75.5,243.5C 104.169,243.667 132.835,243.5 161.5,243C 133.833,242.667 106.167,242.333 78.5,242C 110.167,241.667 141.833,241.333 173.5,241C 141.664,240.832 109.997,240.332 78.5,239.5C 109.833,239.5 141.167,239.5 172.5,239.5C 195.116,218.551 217.116,196.884 238.5,174.5C 239.664,142.669 239.831,110.669 239,78.5C 217.167,56.6667 195.333,34.8333 173.5,13C 141.833,12.3333 110.167,12.3333 78.5,13C 73.9633,17.3688 69.6299,21.8688 65.5,26.5C 64.7611,26.369 64.0944,26.5357 63.5,27C 48.2982,42.0348 33.2982,57.2015 18.5,72.5C 16.5372,73.9599 14.7038,75.6266 13,77.5C 12.1693,110.003 12.3359,142.336 13.5,174.5C 14.1667,175.5 14.8333,176.5 15.5,177.5C 14.475,177.897 14.3083,178.563 15,179.5C 17.6667,182.167 20.3333,184.833 23,187.5C 23.49,188.793 23.6567,190.127 23.5,191.5C 21.1667,190.5 19.5,188.833 18.5,186.5C 16.7607,183.757 14.4274,181.757 11.5,180.5C 10.2073,178.704 8.70733,177.037 7,175.5C 6.33333,142.5 6.33333,109.5 7,76.5C 9.37219,74.2968 11.5389,71.9635 13.5,69.5C 26.1667,57.5 38.5,45.1667 50.5,32.5C 59.2983,24.2023 67.965,15.7023 76.5,7C 109.833,6.33333 143.167,6.33333 176.5,7C 178.041,8.37121 179.375,9.87121 180.5,11.5 Z"/></g>
<g><path style="opacity:1" fill="#1dc9c6" d="M 101.5,73.5 C 103.527,73.3379 105.527,73.5045 107.5,74C 102.345,80.4719 98.3452,87.6386 95.5,95.5C 89.5,96.8333 83.5,96.8333 77.5,95.5C 79.0343,92.407 81.0343,89.7403 83.5,87.5C 83.7496,88.9221 84.583,89.9221 86,90.5C 87.4086,87.4182 89.2419,84.5849 91.5,82C 94.9985,78.7939 98.9985,76.4606 103.5,75C 102.584,74.7216 101.918,74.2216 101.5,73.5 Z"/></g>
<g><path style="opacity:1" fill="#119832" d="M 173.5,72.5 C 183.649,77.6414 191.982,84.9748 198.5,94.5C 192.863,95.6632 187.196,95.8299 181.5,95C 178.862,90.2133 175.862,85.7133 172.5,81.5C 173.606,80.8506 174.606,80.5173 175.5,80.5C 173.877,78.8867 172.71,77.22 172,75.5C 173.566,74.9394 174.899,75.6061 176,77.5C 176.167,77.1667 176.333,76.8333 176.5,76.5C 175.476,75.1482 174.476,73.8149 173.5,72.5 Z"/></g>
<g><path style="opacity:1" fill="#139333" d="M 134.5,73.5 C 135.924,75.5145 136.59,77.8478 136.5,80.5C 136.315,82.1958 135.481,83.5291 134,84.5C 134.745,88.186 133.745,91.5194 131,94.5C 130.647,93.3284 130.813,92.1618 131.5,91C 131.164,89.9701 130.497,89.4701 129.5,89.5C 129.5,86.1667 129.5,82.8333 129.5,79.5C 131.89,78.1092 133.557,76.1092 134.5,73.5 Z"/></g>
<g><path style="opacity:1" fill="#26a997" d="M 59.5,85.5 C 56.1109,86.2035 52.7776,86.2035 49.5,85.5C 47.8957,85.9391 46.3957,86.6057 45,87.5C 44.2352,87.4301 43.7352,87.0967 43.5,86.5C 47.3851,82.2139 51.7185,78.3805 56.5,75C 62.0527,73.4301 67.7194,73.0968 73.5,74C 68.9596,78.0455 64.2929,81.8788 59.5,85.5 Z"/></g>
<g><path style="opacity:1" fill="#259968" d="M 173.5,72.5 C 174.476,73.8149 175.476,75.1482 176.5,76.5C 176.333,76.8333 176.167,77.1667 176,77.5C 174.899,75.6061 173.566,74.9394 172,75.5C 172.71,77.22 173.877,78.8867 175.5,80.5C 174.606,80.5173 173.606,80.8506 172.5,81.5C 170.215,78.5482 167.548,75.8815 164.5,73.5C 167.428,72.5159 170.428,72.1826 173.5,72.5 Z"/></g>
<g><path style="opacity:1" fill="#2dc3bb" d="M 163.5,76.5 C 163.631,77.2389 163.464,77.9056 163,78.5C 158.949,78.2154 155.449,78.2154 152.5,78.5C 150.946,77.0858 149.612,75.4192 148.5,73.5C 152.459,72.3401 156.459,72.1735 160.5,73C 161.71,74.0391 162.71,75.2058 163.5,76.5 Z"/></g>
<g><path style="opacity:1" fill="#20acaa" d="M 134.5,73.5 C 133.557,76.1092 131.89,78.1092 129.5,79.5C 129.5,77.5 129.5,75.5 129.5,73.5C 131.167,73.5 132.833,73.5 134.5,73.5 Z"/></g>
<g><path style="opacity:1" fill="#33c5b8" d="M 120.5,72.5 C 122.5,72.5 124.5,72.5 126.5,72.5C 126.5,80.5 126.5,88.5 126.5,96.5C 122.5,96.5 118.5,96.5 114.5,96.5C 115.56,88.2596 117.56,80.2596 120.5,72.5 Z"/></g>
<g><path style="opacity:1" fill="#29cbc6" d="M 111.5,72.5 C 113.604,72.2011 115.604,72.5344 117.5,73.5C 114.886,80.6734 112.886,88.0068 111.5,95.5C 107.217,96.4922 102.884,96.8256 98.5,96.5C 99.458,90.2267 102.625,85.56 108,82.5C 108.456,81.2559 107.956,80.4226 106.5,80C 108.301,77.5574 109.968,75.0574 111.5,72.5 Z"/></g>
<g><path style="opacity:1" fill="#24bfb8" d="M 84.5,73.5 C 84.9817,74.4163 85.315,75.4163 85.5,76.5C 84.4814,78.5107 83.4814,80.5107 82.5,82.5C 79.4969,87.1748 76.4969,91.8415 73.5,96.5C 74.0547,92.4159 73.0547,91.7492 70.5,94.5C 69.9955,91.6582 68.3289,90.3249 65.5,90.5C 65.0651,92.7033 65.0651,94.7033 65.5,96.5C 62.4281,96.8174 59.4281,96.4841 56.5,95.5C 59.8052,89.1959 64.4719,84.1959 70.5,80.5C 71.5735,81.2506 71.7401,82.2506 71,83.5C 66.3966,86.6308 66.8966,88.4641 72.5,89C 73.7468,87.5421 73.7468,86.0421 72.5,84.5C 73.989,84.4669 75.3224,83.9669 76.5,83C 74.8446,81.5557 74.178,79.7224 74.5,77.5C 76.8913,74.083 80.2246,72.7497 84.5,73.5 Z"/></g>
<g><path style="opacity:1" fill="#359a2d" d="M 84.5,73.5 C 86.8568,73.3367 89.1902,73.5034 91.5,74C 88.6306,77.0379 85.6306,79.8712 82.5,82.5C 83.4814,80.5107 84.4814,78.5107 85.5,76.5C 85.315,75.4163 84.9817,74.4163 84.5,73.5 Z"/></g>
<g><path style="opacity:1" fill="#24bbb3" d="M 187.5,72.5 C 195.632,73.9054 202.298,77.9054 207.5,84.5C 205.264,83.6109 203.264,82.2776 201.5,80.5C 198.536,82.1209 196.536,81.2876 195.5,78C 193.616,77.7837 191.949,77.117 190.5,76C 188.735,75.3603 187.068,75.5269 185.5,76.5C 185.733,74.9382 186.4,73.6049 187.5,72.5 Z"/></g>
<g><path style="opacity:1" fill="#249b33" d="M 187.5,72.5 C 186.4,73.6049 185.733,74.9382 185.5,76.5C 178.706,73.006 179.373,71.6727 187.5,72.5 Z"/></g>
<g><path style="opacity:1" fill="#e0e23f" d="M 234.5,79.5 C 218.5,63.8333 202.5,48.1667 186.5,32.5C 181.703,27.202 176.703,22.0354 171.5,17C 141.168,16.5 110.835,16.3334 80.5,16.5C 111.236,15.8297 142.069,15.1631 173,14.5C 192.971,35.4718 213.305,56.1385 234,76.5C 234.483,77.448 234.649,78.448 234.5,79.5 Z"/></g>
<g><path style="opacity:1" fill="#25bcb6" d="M 84.5,61.5 C 84.9382,61.4346 85.2716,61.6012 85.5,62C 83.4679,63.675 81.4679,65.3417 79.5,67C 79.7432,67.9021 80.0766,68.7354 80.5,69.5C 78.283,70.3686 75.9496,70.702 73.5,70.5C 75.5798,68.4268 77.2464,66.0934 78.5,63.5C 80.2143,62.2616 82.2143,61.595 84.5,61.5 Z"/></g>
<g><path style="opacity:1" fill="#59d3b8" d="M 125.5,60.5 C 126.479,63.6248 126.813,66.9581 126.5,70.5C 124.712,70.7852 123.045,70.4519 121.5,69.5C 123.122,66.5918 124.456,63.5918 125.5,60.5 Z"/></g>
<g><path style="opacity:1" fill="#299b35" d="M 109.5,57.5 C 110.873,57.3433 112.207,57.51 113.5,58C 106.956,61.2155 100.956,65.2155 95.5,70C 91.8333,70.6667 88.1667,70.6667 84.5,70C 92.3854,64.7714 100.719,60.6047 109.5,57.5 Z"/></g>
<g><path style="opacity:1" fill="#57cfbe" d="M 132.5,60.5 C 136.441,62.7722 139.775,65.7722 142.5,69.5C 140.5,70.8333 138.5,70.8333 136.5,69.5C 135.153,66.4413 133.82,63.4413 132.5,60.5 Z"/></g>
<g><path style="opacity:1" fill="#ade483" d="M 130.5,61.5 C 129.527,63.9479 129.194,66.6146 129.5,69.5C 130.791,69.7373 131.791,69.404 132.5,68.5C 133.043,68.56 133.376,68.8933 133.5,69.5C 131.955,70.4519 130.288,70.7852 128.5,70.5C 128.18,67.1016 128.513,63.7683 129.5,60.5C 130.107,60.6236 130.44,60.9569 130.5,61.5 Z"/></g>
<g><path style="opacity:1" fill="#328f39" d="M 107.5,64.5 C 107.025,66.7837 106.025,68.7837 104.5,70.5C 103.127,70.6567 101.793,70.49 100.5,70C 102.501,67.6755 104.834,65.8421 107.5,64.5 Z"/></g>
<g><path style="opacity:1" fill="#318d59" d="M 78.5,63.5 C 77.2464,66.0934 75.5798,68.4268 73.5,70.5C 70.4816,70.6646 67.4816,70.498 64.5,70C 68.9443,67.352 73.6109,65.1854 78.5,63.5 Z"/></g>
<g><path style="opacity:1" fill="#39c4bb" d="M 151.5,57.5 C 163.971,58.9307 175.971,62.764 187.5,69C 183.167,68.3333 178.833,68.3333 174.5,69C 167.618,63.6232 159.951,59.7899 151.5,57.5 Z"/></g>
<g><path style="opacity:1" fill="#48cec3" d="M 134.5,58.5 C 142.181,60.1796 149.181,63.8463 155.5,69.5C 152.167,70.8333 148.833,70.8333 145.5,69.5C 142.146,65.479 138.479,61.8123 134.5,58.5 Z"/></g>
<g><path style="opacity:1" fill="#2ac7cb" d="M 130.5,61.5 C 131.455,63.7457 132.122,66.079 132.5,68.5C 131.791,69.404 130.791,69.7373 129.5,69.5C 129.194,66.6146 129.527,63.9479 130.5,61.5 Z"/></g>
<g><path style="opacity:1" fill="#4acfc3" d="M 121.5,61.5 C 122.043,61.56 122.376,61.8933 122.5,62.5C 120.713,64.8584 119.713,67.525 119.5,70.5C 117.712,70.7852 116.045,70.4519 114.5,69.5C 116.856,66.8136 119.189,64.147 121.5,61.5 Z"/></g>
<g><path style="opacity:1" fill="#2c9833" d="M 80.5,69.5 C 80.0766,68.7354 79.7432,67.9021 79.5,67C 81.4679,65.3417 83.4679,63.675 85.5,62C 85.2716,61.6012 84.9382,61.4346 84.5,61.5C 90.7374,58.4424 97.4041,56.9424 104.5,57C 95.7488,59.8743 87.7488,64.041 80.5,69.5 Z"/></g>
<g><path style="opacity:1" fill="#38c7bd" d="M 142.5,58.5 C 142.917,57.8761 143.584,57.5427 144.5,57.5C 153.447,60.0891 161.78,63.9224 169.5,69C 166.167,69.6667 162.833,69.6667 159.5,69C 154.447,64.4752 148.781,60.9752 142.5,58.5 Z"/></g>
<g><path style="opacity:1" fill="#35cac4" d="M 104.5,70.5 C 106.025,68.7837 107.025,66.7837 107.5,64.5C 111.686,61.1104 116.352,58.9437 121.5,58C 117.465,61.7002 113.798,65.7002 110.5,70C 108.527,70.4955 106.527,70.6621 104.5,70.5 Z"/></g>
<g><path style="opacity:1" fill="#8b9577" d="M 70.5,50.5 C 71.1667,52.5 71.8333,54.5 72.5,56.5C 72.5,56.8333 72.5,57.1667 72.5,57.5C 70.6565,55.7211 69.9898,53.3878 70.5,50.5 Z"/></g>
<g><path style="opacity:1" fill="#ecee2f" d="M 69.5,33.5 C 71.8394,35.1728 73.8394,37.1728 75.5,39.5C 84.1939,34.6925 85.5272,36.1925 79.5,44C 81.1255,46.6277 83.1255,48.961 85.5,51C 82.5274,51.383 79.694,50.883 77,49.5C 74.9906,51.522 73.4906,53.8554 72.5,56.5C 71.8333,54.5 71.1667,52.5 70.5,50.5C 70.4226,49.2502 69.756,48.4169 68.5,48C 59.4457,46.8356 59.4457,45.0023 68.5,42.5C 69.4841,39.5719 69.8174,36.5719 69.5,33.5 Z"/></g>
<g><path style="opacity:1" fill="#ecee2f" d="M 188.5,43.5 C 188.631,44.3764 188.298,45.0431 187.5,45.5C 185.291,46.1062 183.124,46.7728 181,47.5C 180.667,50.5 180.333,53.5 180,56.5C 178.723,54.2528 177.223,52.2528 175.5,50.5C 175.083,49.8761 174.416,49.5427 173.5,49.5C 170.807,50.3453 168.141,50.8453 165.5,51C 167.62,48.5913 169.62,46.0913 171.5,43.5C 170.243,41.3211 168.743,39.3211 167,37.5C 166.312,36.6683 166.479,36.0016 167.5,35.5C 169.722,36.7783 172.056,37.7783 174.5,38.5C 176.806,36.8606 178.806,34.8606 180.5,32.5C 181.167,35.5 181.833,38.5 182.5,41.5C 184.323,42.7472 186.323,43.4139 188.5,43.5 Z"/></g>
<g><path style="opacity:1" fill="#e0e141" d="M 65.5,26.5 C 66.8736,26.7921 68.2069,27.1254 69.5,27.5C 68.1667,29.1667 66.8333,30.8333 65.5,32.5C 53.1667,44.5 40.8333,56.5 28.5,68.5C 28.6309,67.6236 28.2975,66.9569 27.5,66.5C 24.9367,69.2729 21.9367,71.2729 18.5,72.5C 33.2982,57.2015 48.2982,42.0348 63.5,27C 64.0944,26.5357 64.7611,26.369 65.5,26.5 Z"/></g>
<g><path style="opacity:1" fill="#f7f817" d="M 238.5,174.5 C 238.631,173.761 238.464,173.094 238,172.5C 233.721,176.779 229.387,181.113 225,185.5C 224.617,184.944 224.117,184.611 223.5,184.5C 227.13,180.369 230.963,176.369 235,172.5C 235.825,141.428 235.658,110.428 234.5,79.5C 234.649,78.448 234.483,77.448 234,76.5C 213.305,56.1385 192.971,35.4718 173,14.5C 142.069,15.1631 111.236,15.8297 80.5,16.5C 77.1667,20.5 73.5,24.1667 69.5,27.5C 68.2069,27.1254 66.8736,26.7921 65.5,26.5C 69.6299,21.8688 73.9633,17.3688 78.5,13C 110.167,12.3333 141.833,12.3333 173.5,13C 195.333,34.8333 217.167,56.6667 239,78.5C 239.831,110.669 239.664,142.669 238.5,174.5 Z"/></g>
<g><path style="opacity:1" fill="#0a3198" d="M 80.5,16.5 C 110.835,16.3334 141.168,16.5 171.5,17C 176.703,22.0354 181.703,27.202 186.5,32.5C 185.527,33.7914 184.527,33.7914 183.5,32.5C 182.167,35.1667 182.167,37.8333 183.5,40.5C 186.175,41.0234 187.842,42.0234 188.5,43.5C 186.323,43.4139 184.323,42.7472 182.5,41.5C 181.833,38.5 181.167,35.5 180.5,32.5C 178.806,34.8606 176.806,36.8606 174.5,38.5C 172.056,37.7783 169.722,36.7783 167.5,35.5C 166.479,36.0016 166.312,36.6683 167,37.5C 168.743,39.3211 170.243,41.3211 171.5,43.5C 169.62,46.0913 167.62,48.5913 165.5,51C 168.141,50.8453 170.807,50.3453 173.5,49.5C 174.416,49.5427 175.083,49.8761 175.5,50.5C 171.851,50.9542 168.351,51.9542 165,53.5C 163.211,52.5909 161.377,52.4242 159.5,53C 160.737,53.2321 161.737,53.7321 162.5,54.5C 131.376,47.2976 101.042,49.6309 71.5,61.5C 71.4326,60.0413 71.7659,58.7079 72.5,57.5C 72.5,57.1667 72.5,56.8333 72.5,56.5C 73.4906,53.8554 74.9906,51.522 77,49.5C 79.694,50.883 82.5274,51.383 85.5,51C 83.1255,48.961 81.1255,46.6277 79.5,44C 85.5272,36.1925 84.1939,34.6925 75.5,39.5C 73.8394,37.1728 71.8394,35.1728 69.5,33.5C 68.7321,34.2625 68.2321,35.2625 68,36.5C 67.8784,34.563 67.045,33.2297 65.5,32.5C 66.8333,30.8333 68.1667,29.1667 69.5,27.5C 73.5,24.1667 77.1667,20.5 80.5,16.5 Z"/></g>
<g><path style="opacity:1" fill="#6e7a85" d="M 129.5,27.5 C 132.898,27.1796 136.232,27.513 139.5,28.5C 139.376,29.1067 139.043,29.44 138.5,29.5C 135.5,28.8333 132.5,28.1667 129.5,27.5 Z"/></g>
<g><path style="opacity:1" fill="#eff02c" d="M 129.5,27.5 C 132.5,28.1667 135.5,28.8333 138.5,29.5C 132.298,31.604 130.965,35.4373 134.5,41C 134.167,41.5 133.833,42 133.5,42.5C 131.424,40.7123 129.257,39.0456 127,37.5C 124.667,39.1667 122.333,40.8333 120,42.5C 119.54,39.6956 120.04,37.0289 121.5,34.5C 120.089,32.086 118.089,30.4194 115.5,29.5C 118.5,28.8333 121.5,28.1667 124.5,27.5C 126.239,16.9091 127.906,16.9091 129.5,27.5 Z"/></g>
<g><path style="opacity:1" fill="#889279" d="M 124.5,27.5 C 121.5,28.1667 118.5,28.8333 115.5,29.5C 114.957,29.44 114.624,29.1067 114.5,28.5C 117.768,27.513 121.102,27.1796 124.5,27.5 Z"/></g>
<g><path style="opacity:1" fill="#129833" d="M 163.5,76.5 C 169.258,81.5985 173.925,87.5985 177.5,94.5C 171.833,95.8333 166.167,95.8333 160.5,94.5C 158.334,88.8346 155.667,83.5012 152.5,78.5C 155.449,78.2154 158.949,78.2154 163,78.5C 163.464,77.9056 163.631,77.2389 163.5,76.5 Z"/></g>
<g><path style="opacity:1" fill="#179933" d="M 207.5,84.5 C 211.074,87.4627 214.074,90.9627 216.5,95C 211.833,95.6667 207.167,95.6667 202.5,95C 197.676,88.011 192.009,81.8443 185.5,76.5C 187.068,75.5269 188.735,75.3603 190.5,76C 191.949,77.117 193.616,77.7837 195.5,78C 196.536,81.2876 198.536,82.1209 201.5,80.5C 203.264,82.2776 205.264,83.6109 207.5,84.5 Z"/></g>
<g><path style="opacity:1" fill="#f2f329" d="M 28.5,68.5 C 26.8333,69.5 25.5,70.8333 24.5,72.5C 21.8697,74.6281 19.3697,76.9614 17,79.5C 16.5,110.165 16.3334,140.832 16.5,171.5C 15.9002,172.9 14.9002,173.9 13.5,174.5C 12.3359,142.336 12.1693,110.003 13,77.5C 14.7038,75.6266 16.5372,73.9599 18.5,72.5C 21.9367,71.2729 24.9367,69.2729 27.5,66.5C 28.2975,66.9569 28.6309,67.6236 28.5,68.5 Z"/></g>
<g><path style="opacity:1" fill="#159433" d="M 74.5,77.5 C 74.178,79.7224 74.8446,81.5557 76.5,83C 75.3224,83.9669 73.989,84.4669 72.5,84.5C 73.7468,86.0421 73.7468,87.5421 72.5,89C 66.8966,88.4641 66.3966,86.6308 71,83.5C 71.7401,82.2506 71.5735,81.2506 70.5,80.5C 71.4363,79.0256 72.7697,78.0256 74.5,77.5 Z"/></g>
<g><path style="opacity:1" fill="#109031" d="M 53.5,78.5 C 55.0861,79.4132 56.5861,79.4132 58,78.5C 59.1647,81.8139 57.9981,83.8139 54.5,84.5C 54.7615,82.8678 53.7615,81.7012 51.5,81C 52.3805,80.2917 53.0472,79.4584 53.5,78.5 Z"/></g>
<g><path style="opacity:1" fill="#149531" d="M 101.5,73.5 C 101.918,74.2216 102.584,74.7216 103.5,75C 98.9985,76.4606 94.9985,78.7939 91.5,82C 89.2419,84.5849 87.4086,87.4182 86,90.5C 84.583,89.9221 83.7496,88.9221 83.5,87.5C 86.8983,82.5937 90.8983,78.0937 95.5,74C 97.4727,73.5045 99.4727,73.3379 101.5,73.5 Z"/></g>
<g><path style="opacity:1" fill="#1d9841" d="M 137.5,72.5 C 140.685,72.0196 143.519,72.6863 146,74.5C 150.734,80.7991 154.568,87.6325 157.5,95C 152.845,95.4992 148.179,95.6658 143.5,95.5C 142.516,87.5832 140.516,79.9165 137.5,72.5 Z"/></g>
<g><path style="opacity:1" fill="#159636" d="M 59.5,85.5 C 57.0631,88.8568 54.7297,92.3568 52.5,96C 46.8333,96.6667 41.1667,96.6667 35.5,96C 38.0312,92.6425 40.6979,89.4758 43.5,86.5C 43.7352,87.0967 44.2352,87.4301 45,87.5C 46.3957,86.6057 47.8957,85.9391 49.5,85.5C 52.7776,86.2035 56.1109,86.2035 59.5,85.5 Z"/></g>
<g><path style="opacity:1" fill="#34b091" d="M 136.5,80.5 C 137.117,80.6107 137.617,80.944 138,81.5C 139.158,86.1176 139.992,90.7842 140.5,95.5C 136.865,96.1143 133.198,96.4476 129.5,96.5C 129.5,94.1667 129.5,91.8333 129.5,89.5C 130.497,89.4701 131.164,89.9701 131.5,91C 130.813,92.1618 130.647,93.3284 131,94.5C 133.745,91.5194 134.745,88.186 134,84.5C 135.481,83.5291 136.315,82.1958 136.5,80.5 Z"/></g>
<g><path style="opacity:1" fill="#0f942e" d="M 73.5,96.5 C 70.8333,96.5 68.1667,96.5 65.5,96.5C 65.0651,94.7033 65.0651,92.7033 65.5,90.5C 68.3289,90.3249 69.9955,91.6582 70.5,94.5C 73.0547,91.7492 74.0547,92.4159 73.5,96.5 Z"/></g>
<g><path style="opacity:0.788" fill="#8390c2" d="M 235.5,66.5 C 238.833,69.5 242.167,72.5 245.5,75.5C 245.5,82.5 245.5,89.5 245.5,96.5C 244.672,90.0126 244.172,83.346 244,76.5C 240.558,73.568 237.725,70.2347 235.5,66.5 Z"/></g>
<g><path style="opacity:1" fill="#aae58b" d="M 97.5,99.5 C 102.015,98.1876 106.682,98.1876 111.5,99.5C 111.376,100.107 111.043,100.44 110.5,100.5C 106.366,99.5151 102.032,99.1818 97.5,99.5 Z"/></g>
<g><path style="opacity:1" fill="#25c9c5" d="M 75.5,99.5 C 81.5,99.5 87.5,99.5 93.5,99.5C 90.7627,107.591 89.4294,115.924 89.5,124.5C 82.8333,124.5 76.1667,124.5 69.5,124.5C 69.8779,115.716 71.8779,107.382 75.5,99.5 Z"/></g>
<g><path style="opacity:1" fill="#17cbcb" d="M 97.5,99.5 C 102.032,99.1818 106.366,99.5151 110.5,100.5C 109.949,103.807 109.616,107.14 109.5,110.5C 108.515,114.634 108.182,118.968 108.5,123.5C 103.167,123.5 97.8333,123.5 92.5,123.5C 92.5,121.167 92.5,118.833 92.5,116.5C 92.7889,110.328 94.4556,104.662 97.5,99.5 Z"/></g>
<g><path style="opacity:1" fill="#229835" d="M 149.5,123.5 C 150.519,121.46 150.519,119.46 149.5,117.5C 147.717,119.023 147.051,121.023 147.5,123.5C 146.518,120.038 146.185,116.371 146.5,112.5C 149.167,112.833 151.833,113.167 154.5,113.5C 153.199,111.328 152.199,108.995 151.5,106.5C 149.876,106.36 148.71,107.027 148,108.5C 146.913,106.068 146.413,106.402 146.5,109.5C 145.764,106.305 145.097,102.971 144.5,99.5C 149.131,98.3384 153.798,98.1717 158.5,99C 162.146,106.73 163.813,114.897 163.5,123.5C 158.833,123.5 154.167,123.5 149.5,123.5 Z"/></g>
<g><path style="opacity:1" fill="#1ec6c3" d="M 41.5,99.5 C 42.0651,105.043 42.0651,110.543 41.5,116C 42.2755,118.822 42.9421,121.656 43.5,124.5C 37.8333,124.5 32.1667,124.5 26.5,124.5C 26.5173,115.944 28.684,107.944 33,100.5C 35.7191,99.5562 38.5525,99.2229 41.5,99.5 Z"/></g>
<g><path style="opacity:1" fill="#209437" d="M 207.5,98.5 C 207.365,101.507 208.365,104.007 210.5,106C 210.352,107.256 210.018,108.423 209.5,109.5C 207.879,106.259 206.213,102.925 204.5,99.5C 205.325,98.6143 206.325,98.281 207.5,98.5 Z"/></g>
<g><path style="opacity:0.008" fill="#32479c" d="M 4.5,76.5 C 5.66413,109.331 5.8308,142.331 5,175.5C 4.50002,142.502 4.33335,109.502 4.5,76.5 Z"/></g>
<g><path style="opacity:1" fill="#20c2bd" d="M 116.5,99.5 C 117.335,100.943 118.668,101.943 120.5,102.5C 119.335,103.584 118.002,104.417 116.5,105C 118.155,106.444 118.822,108.278 118.5,110.5C 116.5,110.5 114.5,110.5 112.5,110.5C 112.423,106.785 112.756,103.119 113.5,99.5C 114.5,99.5 115.5,99.5 116.5,99.5 Z"/></g>
<g><path style="opacity:1" fill="#33c7bf" d="M 207.5,98.5 C 211.555,98.1758 215.555,98.5091 219.5,99.5C 223.861,106.917 226.195,114.917 226.5,123.5C 221.489,123.666 216.489,123.499 211.5,123C 210.469,118.591 209.802,114.091 209.5,109.5C 210.018,108.423 210.352,107.256 210.5,106C 208.365,104.007 207.365,101.507 207.5,98.5 Z"/></g>
<g><path style="opacity:1" fill="#1d8f33" d="M 143.5,110.5 C 142.596,111.209 142.263,112.209 142.5,113.5C 141.022,113.238 139.689,113.571 138.5,114.5C 139.59,115.609 139.59,116.609 138.5,117.5C 137.106,112.654 134.106,109.321 129.5,107.5C 129.5,104.5 129.5,101.5 129.5,98.5C 133.833,98.5 138.167,98.5 142.5,98.5C 143.021,102.481 143.354,106.481 143.5,110.5 Z"/></g>
<g><path style="opacity:1" fill="#229935" d="M 183.5,98.5 C 189.176,98.3339 194.843,98.5006 200.5,99C 205.668,106.338 208.335,114.505 208.5,123.5C 201.833,123.5 195.167,123.5 188.5,123.5C 188.443,114.818 186.776,106.484 183.5,98.5 Z"/></g>
<g><path style="opacity:1" fill="#169838" d="M 68.5,110.5 C 66.5491,111.716 65.0491,113.382 64,115.5C 63.2372,118.941 61.7372,121.941 59.5,124.5C 55.5,124.5 51.5,124.5 47.5,124.5C 47.6142,116.043 49.6142,108.043 53.5,100.5C 59.7985,99.5037 66.1318,99.1703 72.5,99.5C 71.9459,103.5 70.6125,107.166 68.5,110.5 Z"/></g>
<g><path style="opacity:1" fill="#0dbeba" d="M 146.5,112.5 C 146.5,111.5 146.5,110.5 146.5,109.5C 146.413,106.402 146.913,106.068 148,108.5C 148.71,107.027 149.876,106.36 151.5,106.5C 152.199,108.995 153.199,111.328 154.5,113.5C 151.833,113.167 149.167,112.833 146.5,112.5 Z"/></g>
<g><path style="opacity:1" fill="#0e9334" d="M 116.5,99.5 C 119.833,99.5 123.167,99.5 126.5,99.5C 126.5,102.833 126.5,106.167 126.5,109.5C 122.089,110.742 119.089,113.576 117.5,118C 115.803,118.384 114.137,118.218 112.5,117.5C 112.5,115.167 112.5,112.833 112.5,110.5C 114.5,110.5 116.5,110.5 118.5,110.5C 118.822,108.278 118.155,106.444 116.5,105C 118.002,104.417 119.335,103.584 120.5,102.5C 118.668,101.943 117.335,100.943 116.5,99.5 Z"/></g>
<g><path style="opacity:0.008" fill="#160e37" d="M 246.5,95.5 C 247.657,103.99 247.824,112.657 247,121.5C 246.5,112.84 246.334,104.173 246.5,95.5 Z"/></g>
<g><path style="opacity:1" fill="#159633" d="M 41.5,99.5 C 44.5719,99.1826 47.5719,99.5159 50.5,100.5C 46.5853,108.18 44.2519,116.18 43.5,124.5C 42.9421,121.656 42.2755,118.822 41.5,116C 42.0651,110.543 42.0651,105.043 41.5,99.5 Z"/></g>
<g><path style="opacity:1" fill="#343697" d="M 24.5,72.5 C 24.6495,73.552 24.4828,74.552 24,75.5C 21.8601,76.7282 20.1934,78.3949 19,80.5C 18.3333,110.833 18.3333,141.167 19,171.5C 36.0348,188.702 53.2014,205.702 70.5,222.5C 73.9629,226.464 77.6295,230.298 81.5,234C 80.944,234.383 80.6107,234.883 80.5,235.5C 59.8333,215.167 39.1667,194.833 18.5,174.5C 18.0679,173.29 17.4013,172.29 16.5,171.5C 16.3334,140.832 16.5,110.165 17,79.5C 19.3697,76.9614 21.8697,74.6281 24.5,72.5 Z"/></g>
<g><path style="opacity:1" fill="#37c9c1" d="M 68.5,110.5 C 67.6864,115.119 67.3531,119.786 67.5,124.5C 64.8333,124.5 62.1667,124.5 59.5,124.5C 61.7372,121.941 63.2372,118.941 64,115.5C 65.0491,113.382 66.5491,111.716 68.5,110.5 Z"/></g>
<g><path style="opacity:1" fill="#10beb9" d="M 126.5,109.5 C 126.5,112.5 126.5,115.5 126.5,118.5C 121.647,118.239 117.147,119.239 113,121.5C 112.51,120.207 112.343,118.873 112.5,117.5C 114.137,118.218 115.803,118.384 117.5,118C 119.089,113.576 122.089,110.742 126.5,109.5 Z"/></g>
<g><path style="opacity:1" fill="#1cbdb4" d="M 129.5,107.5 C 134.106,109.321 137.106,112.654 138.5,117.5C 139.59,116.609 139.59,115.609 138.5,114.5C 139.689,113.571 141.022,113.238 142.5,113.5C 142.263,112.209 142.596,111.209 143.5,110.5C 143.643,112.262 143.309,113.929 142.5,115.5C 144.229,117.851 144.896,120.518 144.5,123.5C 139.5,123.5 134.5,123.5 129.5,123.5C 129.5,118.167 129.5,112.833 129.5,107.5 Z"/></g>
<g><path style="opacity:1" fill="#16b6b0" d="M 203.5,114.5 C 205.873,116.579 207.206,119.246 207.5,122.5C 206.167,122.5 204.833,122.5 203.5,122.5C 202.768,119.734 202.768,117.068 203.5,114.5 Z"/></g>
<g><path style="opacity:1" fill="#20aea8" d="M 149.5,123.5 C 148.833,123.5 148.167,123.5 147.5,123.5C 147.051,121.023 147.717,119.023 149.5,117.5C 150.519,119.46 150.519,121.46 149.5,123.5 Z"/></g>
<g><path style="opacity:1" fill="#1d9434" d="M 162.5,98.5 C 168.425,98.1918 174.259,98.5251 180,99.5C 183.725,107.067 185.558,115.067 185.5,123.5C 179.167,123.5 172.833,123.5 166.5,123.5C 166.457,114.952 165.123,106.618 162.5,98.5 Z"/></g>
<g><path style="opacity:1" fill="#169631" d="M 112.5,117.5 C 112.343,118.873 112.51,120.207 113,121.5C 117.147,119.239 121.647,118.239 126.5,118.5C 126.5,120.167 126.5,121.833 126.5,123.5C 121.821,123.666 117.155,123.499 112.5,123C 111.193,121.057 111.193,119.223 112.5,117.5 Z"/></g>
<g><path style="opacity:1" fill="#a9e58b" d="M 109.5,110.5 C 109.5,115.167 109.5,119.833 109.5,124.5C 103.5,124.5 97.5,124.5 91.5,124.5C 91.1936,121.615 91.5269,118.948 92.5,116.5C 92.5,118.833 92.5,121.167 92.5,123.5C 97.8333,123.5 103.167,123.5 108.5,123.5C 108.182,118.968 108.515,114.634 109.5,110.5 Z"/></g>
<g><path style="opacity:1" fill="#0e8f33" d="M 203.5,126.5 C 202.219,129.234 200.053,130.9 197,131.5C 196.605,133.179 196.772,134.845 197.5,136.5C 197.444,137.737 196.944,138.737 196,139.5C 192.531,137.199 190.031,134.199 188.5,130.5C 188.5,129.167 188.5,127.833 188.5,126.5C 193.5,126.5 198.5,126.5 203.5,126.5 Z"/></g>
<g><path style="opacity:1" fill="#0e9635" d="M 149.5,126.5 C 154.167,126.5 158.833,126.5 163.5,126.5C 163.5,130.167 163.5,133.833 163.5,137.5C 160.833,138.5 158.167,139.5 155.5,140.5C 154.09,135.612 152.09,130.945 149.5,126.5 Z"/></g>
<g><path style="opacity:1" fill="#159631" d="M 184.5,136.5 C 184.225,134.158 183.392,134.158 182,136.5C 181.529,138.246 180.862,139.913 180,141.5C 178.938,136.727 176.772,132.56 173.5,129C 171.19,128.503 168.857,128.337 166.5,128.5C 172.412,126.544 178.745,125.877 185.5,126.5C 185.813,130.042 185.479,133.375 184.5,136.5 Z"/></g>
<g><path style="opacity:1" fill="#28c9c4" d="M 210.5,125.5 C 215.833,125.5 221.167,125.5 226.5,125.5C 226.544,133.242 224.877,140.576 221.5,147.5C 216.5,148.833 211.5,148.833 206.5,147.5C 209.719,140.51 211.052,133.176 210.5,125.5 Z"/></g>
<g><path style="opacity:1" fill="#21ccc9" d="M 26.5,127.5 C 32.5,127.5 38.5,127.5 44.5,127.5C 44.8583,131.509 45.3583,135.509 46,139.5C 47.6738,143.021 48.8404,146.687 49.5,150.5C 43.4632,150.829 37.4632,150.496 31.5,149.5C 28.2556,142.523 26.589,135.189 26.5,127.5 Z"/></g>
<g><path style="opacity:1" fill="#27ccc8" d="M 81.5,149.5 C 81.0919,148.357 80.4252,147.357 79.5,146.5C 76.692,145.906 74.3587,144.573 72.5,142.5C 70.5528,137.371 69.5528,132.038 69.5,126.5C 76.1667,126.5 82.8333,126.5 89.5,126.5C 89.4904,134.274 90.8237,141.774 93.5,149C 89.5138,149.499 85.5138,149.666 81.5,149.5 Z"/></g>
<g><path style="opacity:1" fill="#16c9c8" d="M 108.5,126.5 C 107.788,128.928 106.788,131.261 105.5,133.5C 106.833,135.5 106.833,137.5 105.5,139.5C 106.133,141.786 107.466,143.452 109.5,144.5C 110.301,146.042 110.634,147.708 110.5,149.5C 105.5,149.5 100.5,149.5 95.5,149.5C 93.3733,141.989 92.3733,134.323 92.5,126.5C 97.8333,126.5 103.167,126.5 108.5,126.5 Z"/></g>
<g><path style="opacity:1" fill="#21c8c4" d="M 166.5,128.5 C 168.857,128.337 171.19,128.503 173.5,129C 176.772,132.56 178.938,136.727 180,141.5C 180.862,139.913 181.529,138.246 182,136.5C 183.392,134.158 184.225,134.158 184.5,136.5C 183.656,140.874 182.656,145.207 181.5,149.5C 175.5,149.5 169.5,149.5 163.5,149.5C 164.631,143.613 165.964,137.779 167.5,132C 167.011,130.862 166.678,129.695 166.5,128.5 Z"/></g>
<g><path style="opacity:1" fill="#169238" d="M 51.5,127.5 C 50.9066,130.596 51.9066,132.929 54.5,134.5C 55.1667,133.833 55.8333,133.167 56.5,132.5C 57.1872,134.555 58.3539,136.221 60,137.5C 60.6667,138.833 60.6667,140.167 60,141.5C 58.1251,138.813 55.6251,136.979 52.5,136C 50.4497,134.035 48.783,131.868 47.5,129.5C 48.1834,127.824 49.5168,127.157 51.5,127.5 Z"/></g>
<g><path style="opacity:1" fill="#1a9434" d="M 129.5,126.5 C 134.5,126.5 139.5,126.5 144.5,126.5C 144.32,134.175 143.986,141.842 143.5,149.5C 138.833,149.5 134.167,149.5 129.5,149.5C 129.5,141.833 129.5,134.167 129.5,126.5 Z"/></g>
<g><path style="opacity:1" fill="#2b9330" d="M 108.5,126.5 C 109.49,132.31 109.823,138.31 109.5,144.5C 107.466,143.452 106.133,141.786 105.5,139.5C 106.833,137.5 106.833,135.5 105.5,133.5C 106.788,131.261 107.788,128.928 108.5,126.5 Z"/></g>
<g><path style="opacity:1" fill="#109234" d="M 126.5,147.5 C 123.843,147.253 121.51,146.253 119.5,144.5C 118.494,144.938 118.494,145.604 119.5,146.5C 117.025,146.964 115.025,147.964 113.5,149.5C 112.508,142.018 112.175,134.352 112.5,126.5C 117.167,126.5 121.833,126.5 126.5,126.5C 126.5,133.5 126.5,140.5 126.5,147.5 Z"/></g>
<g><path style="opacity:1" fill="#11b9b3" d="M 149.5,126.5 C 152.09,130.945 154.09,135.612 155.5,140.5C 151.924,137.104 149.257,133.104 147.5,128.5C 147.5,127.167 148.167,126.5 149.5,126.5 Z"/></g>
<g><path style="opacity:1" fill="#2ac7c2" d="M 68.5,140.5 C 66.3193,140.284 64.6526,141.117 63.5,143C 64.6053,145.12 64.6053,147.287 63.5,149.5C 60.0381,150.482 56.3714,150.815 52.5,150.5C 51.111,145.832 49.611,141.165 48,136.5C 47.5034,134.19 47.3367,131.857 47.5,129.5C 48.783,131.868 50.4497,134.035 52.5,136C 55.6251,136.979 58.1251,138.813 60,141.5C 60.6667,140.167 60.6667,138.833 60,137.5C 58.3539,136.221 57.1872,134.555 56.5,132.5C 55.8333,133.167 55.1667,133.833 54.5,134.5C 51.9066,132.929 50.9066,130.596 51.5,127.5C 56.8765,127.25 62.2098,126.917 67.5,126.5C 67.5401,131.193 67.8734,135.859 68.5,140.5 Z"/></g>
<g><path style="opacity:1" fill="#2cbbb0" d="M 188.5,130.5 C 190.031,134.199 192.531,137.199 196,139.5C 196.944,138.737 197.444,137.737 197.5,136.5C 196.772,134.845 196.605,133.179 197,131.5C 200.053,130.9 202.219,129.234 203.5,126.5C 204.919,125.549 206.585,125.216 208.5,125.5C 208.683,133.916 206.683,141.749 202.5,149C 196.141,149.831 189.807,149.664 183.5,148.5C 186.403,142.799 188.069,136.799 188.5,130.5 Z"/></g>
<g><path style="opacity:1" fill="#199332" d="M 147.5,128.5 C 149.257,133.104 151.924,137.104 155.5,140.5C 155.47,141.497 155.97,142.164 157,142.5C 158.465,141.67 159.965,141.504 161.5,142C 160.195,144.787 158.528,147.287 156.5,149.5C 153.167,149.5 149.833,149.5 146.5,149.5C 147.232,142.524 147.565,135.524 147.5,128.5 Z"/></g>
<g><path style="opacity:1" fill="#2ec2bb" d="M 163.5,137.5 C 162.659,141.198 161.659,144.864 160.5,148.5C 159.311,149.429 157.978,149.762 156.5,149.5C 158.528,147.287 160.195,144.787 161.5,142C 159.965,141.504 158.465,141.67 157,142.5C 155.97,142.164 155.47,141.497 155.5,140.5C 158.167,139.5 160.833,138.5 163.5,137.5 Z"/></g>
<g><path style="opacity:1" fill="#169132" d="M 68.5,140.5 C 69.4866,143.146 70.4866,145.812 71.5,148.5C 68.9135,149.48 66.2469,149.813 63.5,149.5C 64.6053,147.287 64.6053,145.12 63.5,143C 64.6526,141.117 66.3193,140.284 68.5,140.5 Z"/></g>
<g><path style="opacity:1" fill="#188b31" d="M 72.5,142.5 C 74.3587,144.573 76.692,145.906 79.5,146.5C 80.4252,147.357 81.0919,148.357 81.5,149.5C 79.1667,149.5 76.8333,149.5 74.5,149.5C 74.1218,147.079 73.4552,144.746 72.5,142.5 Z"/></g>
<g><path style="opacity:1" fill="#0cbebd" d="M 126.5,147.5 C 122.627,149.43 118.294,150.097 113.5,149.5C 115.025,147.964 117.025,146.964 119.5,146.5C 118.494,145.604 118.494,144.938 119.5,144.5C 121.51,146.253 123.843,147.253 126.5,147.5 Z"/></g>
<g><path style="opacity:0.008" fill="#160f39" d="M 246.5,128.5 C 247.659,138.658 247.825,148.992 247,159.5C 246.5,149.172 246.334,138.839 246.5,128.5 Z"/></g>
<g><path style="opacity:1" fill="#2ccdc8" d="M 162.5,151.5 C 168.206,151.171 173.872,151.505 179.5,152.5C 175.576,161.591 169.909,169.425 162.5,176C 158.5,176.667 154.5,176.667 150.5,176C 155.97,168.56 159.97,160.393 162.5,151.5 Z"/></g>
<g><path style="opacity:1" fill="#29ccc7" d="M 182.5,151.5 C 188.842,151.334 195.175,151.5 201.5,152C 199.667,155.167 197.167,157.667 194,159.5C 193.55,161.519 192.717,163.352 191.5,165C 186.5,168.667 181.5,172.333 176.5,176C 173.167,176.667 169.833,176.667 166.5,176C 173.72,169.057 179.054,160.891 182.5,151.5 Z"/></g>
<g><path style="opacity:1" fill="#1b9837" d="M 207.5,151.5 C 207.996,157.175 205.829,161.509 201,164.5C 200.29,163.027 199.124,162.36 197.5,162.5C 199.905,159.366 202.072,156.032 204,152.5C 205.011,151.663 206.178,151.33 207.5,151.5 Z"/></g>
<g><path style="opacity:1" fill="#2fcdc8" d="M 33.5,152.5 C 39.5092,152.334 45.5092,152.501 51.5,153C 56.7814,163.281 64.448,171.281 74.5,177C 67.8333,177.667 61.1667,177.667 54.5,177C 45.4531,170.463 38.4531,162.297 33.5,152.5 Z"/></g>
<g><path style="opacity:1" fill="#2bc9c3" d="M 65.5,152.5 C 67.0644,156.235 69.5644,159.235 73,161.5C 74.2015,166.321 75.7015,170.988 77.5,175.5C 67.9035,170.238 60.2368,162.905 54.5,153.5C 58.1073,152.511 61.774,152.177 65.5,152.5 Z"/></g>
<g><path style="opacity:1" fill="#159833" d="M 89.5,152.5 C 90.7142,153.626 91.7142,154.959 92.5,156.5C 91.8924,159.145 91.3924,161.812 91,164.5C 89.9326,165.191 88.7659,165.691 87.5,166C 86.7476,166.671 86.4142,167.504 86.5,168.5C 82.4415,164.085 79.1082,159.085 76.5,153.5C 80.7828,152.508 85.1161,152.174 89.5,152.5 Z"/></g>
<g><path style="opacity:1" fill="#2dcdc8" d="M 97.5,152.5 C 102.167,152.5 106.833,152.5 111.5,152.5C 112.536,160.643 114.203,168.643 116.5,176.5C 114.208,176.756 112.041,176.423 110,175.5C 104.739,168.411 100.572,160.745 97.5,152.5 Z"/></g>
<g><path style="opacity:1" fill="#27ccc8" d="M 113.5,152.5 C 118.167,152.5 122.833,152.5 127.5,152.5C 127.5,160.5 127.5,168.5 127.5,176.5C 124.833,176.5 122.167,176.5 119.5,176.5C 117.185,168.573 115.185,160.573 113.5,152.5 Z"/></g>
<g><path style="opacity:1" fill="#1ecac8" d="M 89.5,152.5 C 91.4672,152.261 93.3005,152.594 95,153.5C 97.9969,161.661 102.164,169.161 107.5,176C 98.4067,178.729 91.4067,176.229 86.5,168.5C 86.4142,167.504 86.7476,166.671 87.5,166C 88.7659,165.691 89.9326,165.191 91,164.5C 91.3924,161.812 91.8924,159.145 92.5,156.5C 91.7142,154.959 90.7142,153.626 89.5,152.5 Z"/></g>
<g><path style="opacity:1" fill="#1f9235" d="M 151.5,152.5 C 151.665,155.518 151.498,158.518 151,161.5C 147.912,164.368 145.079,167.368 142.5,170.5C 144.147,164.621 145.147,158.621 145.5,152.5C 147.5,152.5 149.5,152.5 151.5,152.5 Z"/></g>
<g><path style="opacity:1" fill="#23c8c3" d="M 151.5,152.5 C 154.187,152.336 156.854,152.503 159.5,153C 156.048,160.684 152.215,168.184 148,175.5C 145.619,176.435 143.119,176.768 140.5,176.5C 140.604,174.297 141.27,172.297 142.5,170.5C 145.079,167.368 147.912,164.368 151,161.5C 151.498,158.518 151.665,155.518 151.5,152.5 Z"/></g>
<g><path style="opacity:1" fill="#2e9a3b" d="M 65.5,152.5 C 68.2469,152.187 70.9135,152.52 73.5,153.5C 76.4,160.045 80.0667,166.045 84.5,171.5C 82.7215,172.67 81.7215,174.336 81.5,176.5C 84.3854,176.806 87.0521,176.473 89.5,175.5C 90.0431,175.56 90.3764,175.893 90.5,176.5C 85.9031,177.938 81.5698,177.605 77.5,175.5C 75.7015,170.988 74.2015,166.321 73,161.5C 69.5644,159.235 67.0644,156.235 65.5,152.5 Z"/></g>
<g><path style="opacity:1" fill="#1f9739" d="M 137.5,175.5 C 134.385,172.866 132.218,169.532 131,165.5C 130.501,169.152 130.335,172.818 130.5,176.5C 129.285,168.648 129.285,160.648 130.5,152.5C 134.5,152.5 138.5,152.5 142.5,152.5C 141.825,160.49 140.158,168.156 137.5,175.5 Z"/></g>
<g><path style="opacity:1" fill="#31cbc5" d="M 207.5,151.5 C 211.555,151.176 215.555,151.509 219.5,152.5C 214.112,161.725 207.112,169.558 198.5,176C 192.833,176.667 187.167,176.667 181.5,176C 187.292,172.041 192.626,167.541 197.5,162.5C 199.124,162.36 200.29,163.027 201,164.5C 205.829,161.509 207.996,157.175 207.5,151.5 Z"/></g>
<g><path style="opacity:0.016" fill="#222a8c" d="M 246.5,176.5 C 246.335,172.818 246.501,169.152 247,165.5C 247.81,169.358 247.643,173.024 246.5,176.5 Z"/></g>
<g><path style="opacity:1" fill="#23c6c4" d="M 84.5,171.5 C 86.1667,172.833 87.8333,174.167 89.5,175.5C 87.0521,176.473 84.3854,176.806 81.5,176.5C 81.7215,174.336 82.7215,172.67 84.5,171.5 Z"/></g>
<g><path style="opacity:1" fill="#0fc6c3" d="M 137.5,175.5 C 135.393,176.468 133.059,176.802 130.5,176.5C 130.335,172.818 130.501,169.152 131,165.5C 132.218,169.532 134.385,172.866 137.5,175.5 Z"/></g>
<g><path style="opacity:0.008" fill="#7f807f" d="M 6.5,177.5 C 5.83333,176.167 5.83333,176.167 6.5,177.5 Z"/></g>
<g><path style="opacity:0.008" fill="#5555aa" d="M 245.5,176.5 C 245.833,176.5 246.167,176.5 246.5,176.5C 246.315,177.17 245.981,177.17 245.5,176.5 Z"/></g>
<g><path style="opacity:0.008" fill="#8080ff" d="M 6.5,177.5 C 7.16667,177.5 7.5,177.833 7.5,178.5C 7.16667,178.167 6.83333,177.833 6.5,177.5 Z"/></g>
<g><path style="opacity:0.016" fill="#333399" d="M 244.5,177.5 C 244.833,177.5 245.167,177.5 245.5,177.5C 245.315,178.17 244.981,178.17 244.5,177.5 Z"/></g>
<g><path style="opacity:0.008" fill="#5555aa" d="M 7.5,178.5 C 8.16667,178.5 8.5,178.833 8.5,179.5C 8.16667,179.167 7.83333,178.833 7.5,178.5 Z"/></g>
<g><path style="opacity:0.016" fill="#003299" d="M 243.5,178.5 C 243.833,178.5 244.167,178.5 244.5,178.5C 244.315,179.17 243.981,179.17 243.5,178.5 Z"/></g>
<g><path style="opacity:0.008" fill="#8080ff" d="M 8.5,179.5 C 9.16667,179.5 9.5,179.833 9.5,180.5C 9.16667,180.167 8.83333,179.833 8.5,179.5 Z"/></g>
<g><path style="opacity:1" fill="#2ccbca" d="M 130.5,179.5 C 132.527,179.338 134.527,179.505 136.5,180C 134.345,183.634 132.679,187.467 131.5,191.5C 130.517,187.702 130.183,183.702 130.5,179.5 Z"/></g>
<g><path style="opacity:0.016" fill="#003299" d="M 242.5,179.5 C 242.833,179.5 243.167,179.5 243.5,179.5C 243.315,180.17 242.981,180.17 242.5,179.5 Z"/></g>
<g><path style="opacity:0.008" fill="#a9aaff" d="M 9.5,180.5 C 10.8333,181.167 10.8333,181.167 9.5,180.5 Z"/></g>
<g><path style="opacity:0.757" fill="#b6bddb" d="M 11.5,180.5 C 14.4274,181.757 16.7607,183.757 18.5,186.5C 15.5726,185.243 13.2393,183.243 11.5,180.5 Z"/></g>
<g><path style="opacity:1" fill="#35cec5" d="M 121.5,179.5 C 123.5,179.5 125.5,179.5 127.5,179.5C 128.1,194.855 126.1,194.855 121.5,179.5 Z"/></g>
<g><path style="opacity:0.016" fill="#336699" d="M 241.5,180.5 C 241.833,180.5 242.167,180.5 242.5,180.5C 242.315,181.17 241.981,181.17 241.5,180.5 Z"/></g>
<g><path style="opacity:1" fill="#42cdc3" d="M 84.5,180.5 C 87.3035,179.362 90.3035,179.195 93.5,180C 98.6559,184.414 104.323,188.081 110.5,191C 101.489,188.601 92.8224,185.101 84.5,180.5 Z"/></g>
<g><path style="opacity:1" fill="#4ccfc1" d="M 138.5,179.5 C 140.527,179.338 142.527,179.505 144.5,180C 141.703,183.799 138.536,187.299 135,190.5C 136.105,186.921 137.272,183.254 138.5,179.5 Z"/></g>
<g><path style="opacity:1" fill="#3dcdc6" d="M 147.5,179.5 C 151.182,179.335 154.848,179.501 158.5,180C 151.722,185.138 144.555,189.638 137,193.5C 140.139,188.82 143.639,184.153 147.5,179.5 Z"/></g>
<g><path style="opacity:1" fill="#36cdc7" d="M 176.5,178.5 C 182.176,178.334 187.843,178.501 193.5,179C 177.075,189.808 159.075,195.808 139.5,197C 152.794,192.353 165.127,186.187 176.5,178.5 Z"/></g>
<g><path style="opacity:0.016" fill="#000080" d="M 240.5,181.5 C 240.833,181.5 241.167,181.5 241.5,181.5C 241.315,182.17 240.981,182.17 240.5,181.5 Z"/></g>
<g><path style="opacity:1" fill="#36cdc6" d="M 59.5,180.5 C 65.987,179.346 72.6536,179.179 79.5,180C 92.3095,187.904 105.976,193.904 120.5,198C 98.5394,197.734 78.2061,191.901 59.5,180.5 Z"/></g>
<g><path style="opacity:1" fill="#37cdc6" d="M 98.5,180.5 C 102.311,179.355 106.311,179.188 110.5,180C 114.167,184.333 117.833,188.667 121.5,193C 113.347,189.92 105.68,185.753 98.5,180.5 Z"/></g>
<g><path style="opacity:1" fill="#ace689" d="M 130.5,179.5 C 130.183,183.702 130.517,187.702 131.5,191.5C 131.44,192.043 131.107,192.376 130.5,192.5C 129.189,188.016 129.189,183.683 130.5,179.5 Z"/></g>
<g><path style="opacity:0.016" fill="#6666cc" d="M 239.5,182.5 C 239.833,182.5 240.167,182.5 240.5,182.5C 240.315,183.17 239.981,183.17 239.5,182.5 Z"/></g>
<g><path style="opacity:1" fill="#55d0be" d="M 113.5,180.5 C 115.035,179.212 116.701,179.212 118.5,180.5C 120.29,183.388 121.457,186.388 122,189.5C 118.934,186.604 116.101,183.604 113.5,180.5 Z"/></g>
<g><path style="opacity:0.016" fill="#0000bf" d="M 238.5,183.5 C 238.833,183.5 239.167,183.5 239.5,183.5C 239.315,184.17 238.981,184.17 238.5,183.5 Z"/></g>
<g><path style="opacity:1" fill="#51cfc1" d="M 162.5,179.5 C 165.187,179.336 167.854,179.503 170.5,180C 162.829,184.655 154.829,188.322 146.5,191C 152.43,187.88 157.763,184.047 162.5,179.5 Z"/></g>
<g><path style="opacity:0.008" fill="#000055" d="M 237.5,184.5 C 237.833,184.5 238.167,184.5 238.5,184.5C 238.315,185.17 237.981,185.17 237.5,184.5 Z"/></g>
<g><path style="opacity:1" fill="#e2e33e" d="M 238.5,174.5 C 217.116,196.884 195.116,218.551 172.5,239.5C 141.85,237.672 110.85,236.839 79.5,237C 80.056,236.617 80.3893,236.117 80.5,235.5C 110.835,235.667 141.168,235.5 171.5,235C 188.398,217.601 205.731,200.767 223.5,184.5C 224.117,184.611 224.617,184.944 225,185.5C 229.387,181.113 233.721,176.779 238,172.5C 238.464,173.094 238.631,173.761 238.5,174.5 Z"/></g>
<g><path style="opacity:0.024" fill="#5580aa" d="M 236.5,185.5 C 236.833,185.5 237.167,185.5 237.5,185.5C 237.315,186.17 236.981,186.17 236.5,185.5 Z"/></g>
<g><path style="opacity:0.016" fill="#336699" d="M 235.5,186.5 C 235.833,186.5 236.167,186.5 236.5,186.5C 236.315,187.17 235.981,187.17 235.5,186.5 Z"/></g>
<g><path style="opacity:0.016" fill="#336699" d="M 234.5,187.5 C 234.833,187.5 235.167,187.5 235.5,187.5C 235.315,188.17 234.981,188.17 234.5,187.5 Z"/></g>
<g><path style="opacity:0.016" fill="#336699" d="M 233.5,188.5 C 233.833,188.5 234.167,188.5 234.5,188.5C 234.315,189.17 233.981,189.17 233.5,188.5 Z"/></g>
<g><path style="opacity:0.016" fill="#336699" d="M 232.5,189.5 C 232.833,189.5 233.167,189.5 233.5,189.5C 233.315,190.17 232.981,190.17 232.5,189.5 Z"/></g>
<g><path style="opacity:0.016" fill="#656699" d="M 231.5,190.5 C 231.833,190.5 232.167,190.5 232.5,190.5C 232.315,191.17 231.981,191.17 231.5,190.5 Z"/></g>
<g><path style="opacity:0.016" fill="#656699" d="M 230.5,191.5 C 230.833,191.5 231.167,191.5 231.5,191.5C 231.315,192.17 230.981,192.17 230.5,191.5 Z"/></g>
<g><path style="opacity:0.016" fill="#336699" d="M 229.5,192.5 C 229.833,192.5 230.167,192.5 230.5,192.5C 230.315,193.17 229.981,193.17 229.5,192.5 Z"/></g>
<g><path style="opacity:0.016" fill="#336699" d="M 228.5,193.5 C 228.833,193.5 229.167,193.5 229.5,193.5C 229.315,194.17 228.981,194.17 228.5,193.5 Z"/></g>
<g><path style="opacity:0.016" fill="#656699" d="M 227.5,194.5 C 227.833,194.5 228.167,194.5 228.5,194.5C 228.315,195.17 227.981,195.17 227.5,194.5 Z"/></g>
<g><path style="opacity:1" fill="#eef02b" d="M 179.5,192.5 C 181.265,195.123 181.932,198.123 181.5,201.5C 184.568,201.547 187.568,202.047 190.5,203C 187.671,204.247 185.005,205.747 182.5,207.5C 183.562,210.103 183.728,212.77 183,215.5C 181.235,213.226 179.068,211.559 176.5,210.5C 173.831,211.687 171.165,212.52 168.5,213C 169.961,210.579 171.294,208.079 172.5,205.5C 170.684,203.183 168.684,201.016 166.5,199C 169.514,198.872 172.514,198.872 175.5,199C 177.221,197.056 178.554,194.89 179.5,192.5 Z"/></g>
<g><path style="opacity:0.016" fill="#6666cc" d="M 226.5,195.5 C 226.833,195.5 227.167,195.5 227.5,195.5C 227.315,196.17 226.981,196.17 226.5,195.5 Z"/></g>
<g><path style="opacity:0.016" fill="#6666cc" d="M 225.5,196.5 C 225.833,196.5 226.167,196.5 226.5,196.5C 226.315,197.17 225.981,197.17 225.5,196.5 Z"/></g>
<g><path style="opacity:0.016" fill="#0000bf" d="M 224.5,197.5 C 224.833,197.5 225.167,197.5 225.5,197.5C 225.315,198.17 224.981,198.17 224.5,197.5 Z"/></g>
<g><path style="opacity:0.016" fill="#4080bf" d="M 223.5,198.5 C 223.833,198.5 224.167,198.5 224.5,198.5C 224.315,199.17 223.981,199.17 223.5,198.5 Z"/></g>
<g><path style="opacity:0.016" fill="#9899cc" d="M 222.5,199.5 C 222.833,199.5 223.167,199.5 223.5,199.5C 223.315,200.17 222.981,200.17 222.5,199.5 Z"/></g>
<g><path style="opacity:0.016" fill="#4080bf" d="M 221.5,200.5 C 221.833,200.5 222.167,200.5 222.5,200.5C 222.315,201.17 221.981,201.17 221.5,200.5 Z"/></g>
<g><path style="opacity:0.749" fill="#b6bdda" d="M 32.5,201.5 C 34.7488,202.08 36.4154,203.413 37.5,205.5C 35.2512,204.92 33.5846,203.587 32.5,201.5 Z"/></g>
<g><path style="opacity:1" fill="#f0f128" d="M 76.5,200.5 C 76.8656,201.695 77.699,202.361 79,202.5C 81.5081,201.137 84.0081,200.804 86.5,201.5C 84.7123,203.576 83.0456,205.743 81.5,208C 83.1667,210.333 84.8333,212.667 86.5,215C 83.4368,214.957 80.4368,214.623 77.5,214C 76.035,215.774 74.7017,217.608 73.5,219.5C 72.8333,216.5 72.1667,213.5 71.5,210.5C 61.0349,208.237 61.3682,206.57 72.5,205.5C 72.3354,202.482 72.502,199.482 73,196.5C 74.4048,197.731 75.5714,199.064 76.5,200.5 Z"/></g>
<g><path style="opacity:0.016" fill="#336699" d="M 220.5,201.5 C 220.833,201.5 221.167,201.5 221.5,201.5C 221.315,202.17 220.981,202.17 220.5,201.5 Z"/></g>
<g><path style="opacity:0.016" fill="#4080bf" d="M 219.5,202.5 C 219.833,202.5 220.167,202.5 220.5,202.5C 220.315,203.17 219.981,203.17 219.5,202.5 Z"/></g>
<g><path style="opacity:0.016" fill="#336699" d="M 218.5,203.5 C 218.833,203.5 219.167,203.5 219.5,203.5C 219.315,204.17 218.981,204.17 218.5,203.5 Z"/></g>
<g><path style="opacity:0.016" fill="#656699" d="M 217.5,204.5 C 217.833,204.5 218.167,204.5 218.5,204.5C 218.315,205.17 217.981,205.17 217.5,204.5 Z"/></g>
<g><path style="opacity:0.016" fill="#656699" d="M 216.5,205.5 C 216.833,205.5 217.167,205.5 217.5,205.5C 217.315,206.17 216.981,206.17 216.5,205.5 Z"/></g>
<g><path style="opacity:0.016" fill="#656699" d="M 215.5,206.5 C 215.833,206.5 216.167,206.5 216.5,206.5C 216.315,207.17 215.981,207.17 215.5,206.5 Z"/></g>
<g><path style="opacity:0.016" fill="#656699" d="M 214.5,207.5 C 214.833,207.5 215.167,207.5 215.5,207.5C 215.315,208.17 214.981,208.17 214.5,207.5 Z"/></g>
<g><path style="opacity:1" fill="#e3e43f" d="M 16.5,171.5 C 17.4013,172.29 18.0679,173.29 18.5,174.5C 17.475,174.897 17.3083,175.563 18,176.5C 38.1667,196.667 58.3333,216.833 78.5,237C 77.944,237.383 77.6107,237.883 77.5,238.5C 56.8333,218.167 36.1667,197.833 15.5,177.5C 14.8333,176.5 14.1667,175.5 13.5,174.5C 14.9002,173.9 15.9002,172.9 16.5,171.5 Z"/></g>
<g><path style="opacity:0.016" fill="#656699" d="M 213.5,208.5 C 213.833,208.5 214.167,208.5 214.5,208.5C 214.315,209.17 213.981,209.17 213.5,208.5 Z"/></g>
<g><path style="opacity:0.016" fill="#6666cc" d="M 212.5,209.5 C 212.833,209.5 213.167,209.5 213.5,209.5C 213.315,210.17 212.981,210.17 212.5,209.5 Z"/></g>
<g><path style="opacity:0.016" fill="#6699cc" d="M 211.5,210.5 C 211.833,210.5 212.167,210.5 212.5,210.5C 212.315,211.17 211.981,211.17 211.5,210.5 Z"/></g>
<g><path style="opacity:1" fill="#e9ea35" d="M 126.5,206.5 C 129.135,208.339 130.468,211.006 130.5,214.5C 133.572,214.183 136.572,214.516 139.5,215.5C 137.31,217.524 134.977,219.357 132.5,221C 134.176,223.802 134.842,226.636 134.5,229.5C 132.445,227.445 130.112,225.779 127.5,224.5C 125.321,225.757 123.321,227.257 121.5,229C 120.668,229.688 120.002,229.521 119.5,228.5C 120.305,226.085 121.305,223.751 122.5,221.5C 120.589,218.878 118.255,216.711 115.5,215C 118.5,214.667 121.5,214.333 124.5,214C 125.554,211.618 126.221,209.118 126.5,206.5 Z"/></g>
<g><path style="opacity:0.016" fill="#6666cc" d="M 210.5,211.5 C 210.833,211.5 211.167,211.5 211.5,211.5C 211.315,212.17 210.981,212.17 210.5,211.5 Z"/></g>
<g><path style="opacity:0.016" fill="#6666cc" d="M 209.5,212.5 C 209.833,212.5 210.167,212.5 210.5,212.5C 210.315,213.17 209.981,213.17 209.5,212.5 Z"/></g>
<g><path style="opacity:0.016" fill="#336699" d="M 208.5,213.5 C 208.833,213.5 209.167,213.5 209.5,213.5C 209.315,214.17 208.981,214.17 208.5,213.5 Z"/></g>
<g><path style="opacity:0.016" fill="#656699" d="M 207.5,214.5 C 207.833,214.5 208.167,214.5 208.5,214.5C 208.315,215.17 207.981,215.17 207.5,214.5 Z"/></g>
<g><path style="opacity:0.016" fill="#003fbf" d="M 206.5,215.5 C 206.833,215.5 207.167,215.5 207.5,215.5C 207.315,216.17 206.981,216.17 206.5,215.5 Z"/></g>
<g><path style="opacity:1" fill="#798580" d="M 71.5,210.5 C 72.1667,213.5 72.8333,216.5 73.5,219.5C 73.1583,220.338 72.4916,220.672 71.5,220.5C 71.5,217.167 71.5,213.833 71.5,210.5 Z"/></g>
<g><path style="opacity:0.016" fill="#656699" d="M 205.5,216.5 C 205.833,216.5 206.167,216.5 206.5,216.5C 206.315,217.17 205.981,217.17 205.5,216.5 Z"/></g>
<g><path style="opacity:0.016" fill="#656699" d="M 204.5,217.5 C 204.833,217.5 205.167,217.5 205.5,217.5C 205.315,218.17 204.981,218.17 204.5,217.5 Z"/></g>
<g><path style="opacity:0.016" fill="#4080bf" d="M 203.5,218.5 C 203.833,218.5 204.167,218.5 204.5,218.5C 204.315,219.17 203.981,219.17 203.5,218.5 Z"/></g>
<g><path style="opacity:0.016" fill="#4080bf" d="M 202.5,219.5 C 202.833,219.5 203.167,219.5 203.5,219.5C 203.315,220.17 202.981,220.17 202.5,219.5 Z"/></g>
<g><path style="opacity:0.016" fill="#336699" d="M 201.5,220.5 C 201.833,220.5 202.167,220.5 202.5,220.5C 202.315,221.17 201.981,221.17 201.5,220.5 Z"/></g>
<g><path style="opacity:0.016" fill="#4080bf" d="M 200.5,221.5 C 200.833,221.5 201.167,221.5 201.5,221.5C 201.315,222.17 200.981,222.17 200.5,221.5 Z"/></g>
<g><path style="opacity:0.016" fill="#336699" d="M 199.5,222.5 C 199.833,222.5 200.167,222.5 200.5,222.5C 200.315,223.17 199.981,223.17 199.5,222.5 Z"/></g>
<g><path style="opacity:0.016" fill="#336699" d="M 198.5,223.5 C 198.833,223.5 199.167,223.5 199.5,223.5C 199.315,224.17 198.981,224.17 198.5,223.5 Z"/></g>
<g><path style="opacity:0.016" fill="#656699" d="M 197.5,224.5 C 197.833,224.5 198.167,224.5 198.5,224.5C 198.315,225.17 197.981,225.17 197.5,224.5 Z"/></g>
<g><path style="opacity:0.016" fill="#656699" d="M 196.5,225.5 C 196.833,225.5 197.167,225.5 197.5,225.5C 197.315,226.17 196.981,226.17 196.5,225.5 Z"/></g>
<g><path style="opacity:0.016" fill="#656699" d="M 195.5,226.5 C 195.833,226.5 196.167,226.5 196.5,226.5C 196.315,227.17 195.981,227.17 195.5,226.5 Z"/></g>
<g><path style="opacity:0.016" fill="#656699" d="M 194.5,227.5 C 194.833,227.5 195.167,227.5 195.5,227.5C 195.315,228.17 194.981,228.17 194.5,227.5 Z"/></g>
<g><path style="opacity:0.016" fill="#656699" d="M 193.5,228.5 C 193.833,228.5 194.167,228.5 194.5,228.5C 194.315,229.17 193.981,229.17 193.5,228.5 Z"/></g>
<g><path style="opacity:0.016" fill="#6666cc" d="M 192.5,229.5 C 192.833,229.5 193.167,229.5 193.5,229.5C 193.315,230.17 192.981,230.17 192.5,229.5 Z"/></g>
<g><path style="opacity:0.016" fill="#6666cc" d="M 191.5,230.5 C 191.833,230.5 192.167,230.5 192.5,230.5C 192.315,231.17 191.981,231.17 191.5,230.5 Z"/></g>
<g><path style="opacity:0.016" fill="#6666cc" d="M 190.5,231.5 C 190.833,231.5 191.167,231.5 191.5,231.5C 191.315,232.17 190.981,232.17 190.5,231.5 Z"/></g>
<g><path style="opacity:0.016" fill="#336699" d="M 189.5,232.5 C 189.833,232.5 190.167,232.5 190.5,232.5C 190.315,233.17 189.981,233.17 189.5,232.5 Z"/></g>
<g><path style="opacity:0.016" fill="#4080bf" d="M 188.5,233.5 C 188.833,233.5 189.167,233.5 189.5,233.5C 189.315,234.17 188.981,234.17 188.5,233.5 Z"/></g>
<g><path style="opacity:0.016" fill="#6666cc" d="M 187.5,234.5 C 187.833,234.5 188.167,234.5 188.5,234.5C 188.315,235.17 187.981,235.17 187.5,234.5 Z"/></g>
<g><path style="opacity:0.016" fill="#4080bf" d="M 186.5,235.5 C 186.833,235.5 187.167,235.5 187.5,235.5C 187.315,236.17 186.981,236.17 186.5,235.5 Z"/></g>
<g><path style="opacity:0.773" fill="#b4bbda" d="M 67.5,236.5 C 70.7642,238.094 73.4309,240.427 75.5,243.5C 75.5,243.833 75.5,244.167 75.5,244.5C 72.5,242.167 69.8333,239.5 67.5,236.5 Z"/></g>
<g><path style="opacity:0.016" fill="#4080bf" d="M 185.5,236.5 C 185.833,236.5 186.167,236.5 186.5,236.5C 186.315,237.17 185.981,237.17 185.5,236.5 Z"/></g>
<g><path style="opacity:1" fill="#fbfc0d" d="M 18.5,174.5 C 39.1667,194.833 59.8333,215.167 80.5,235.5C 80.3893,236.117 80.056,236.617 79.5,237C 110.85,236.839 141.85,237.672 172.5,239.5C 141.167,239.5 109.833,239.5 78.5,239.5C 77.8333,239.5 77.5,239.167 77.5,238.5C 77.6107,237.883 77.944,237.383 78.5,237C 58.3333,216.833 38.1667,196.667 18,176.5C 17.3083,175.563 17.475,174.897 18.5,174.5 Z"/></g>
<g><path style="opacity:0.016" fill="#4080bf" d="M 184.5,237.5 C 184.833,237.5 185.167,237.5 185.5,237.5C 185.315,238.17 184.981,238.17 184.5,237.5 Z"/></g>
<g><path style="opacity:0.016" fill="#4080bf" d="M 183.5,238.5 C 183.833,238.5 184.167,238.5 184.5,238.5C 184.315,239.17 183.981,239.17 183.5,238.5 Z"/></g>
<g><path style="opacity:0.016" fill="#656699" d="M 182.5,239.5 C 182.833,239.5 183.167,239.5 183.5,239.5C 183.315,240.17 182.981,240.17 182.5,239.5 Z"/></g>
<g><path style="opacity:0.016" fill="#656699" d="M 181.5,240.5 C 181.833,240.5 182.167,240.5 182.5,240.5C 182.315,241.17 181.981,241.17 181.5,240.5 Z"/></g>
<g><path style="opacity:0.016" fill="#656699" d="M 180.5,241.5 C 180.833,241.5 181.167,241.5 181.5,241.5C 181.315,242.17 180.981,242.17 180.5,241.5 Z"/></g>
<g><path style="opacity:0.984" fill="#142e9b" d="M 15.5,177.5 C 36.1667,197.833 56.8333,218.167 77.5,238.5C 77.5,239.167 77.8333,239.5 78.5,239.5C 109.997,240.332 141.664,240.832 173.5,241C 141.833,241.333 110.167,241.667 78.5,242C 106.167,242.333 133.833,242.667 161.5,243C 132.835,243.5 104.169,243.667 75.5,243.5C 73.4309,240.427 70.7642,238.094 67.5,236.5C 56.8555,226.854 46.8555,216.521 37.5,205.5C 36.4154,203.413 34.7488,202.08 32.5,201.5C 29.5,198.167 26.5,194.833 23.5,191.5C 23.6567,190.127 23.49,188.793 23,187.5C 20.3333,184.833 17.6667,182.167 15,179.5C 14.3083,178.563 14.475,177.897 15.5,177.5 Z"/></g>
<g><path style="opacity:0.016" fill="#7f80bf" d="M 179.5,242.5 C 179.833,242.5 180.167,242.5 180.5,242.5C 180.315,243.17 179.981,243.17 179.5,242.5 Z"/></g>
<g><path style="opacity:0.016" fill="#656699" d="M 178.5,243.5 C 178.833,243.5 179.167,243.5 179.5,243.5C 179.315,244.17 178.981,244.17 178.5,243.5 Z"/></g>
<g><path style="opacity:0.016" fill="#6699cc" d="M 177.5,244.5 C 177.833,244.5 178.167,244.5 178.5,244.5C 178.315,245.17 177.981,245.17 177.5,244.5 Z"/></g>
<g><path style="opacity:0.008" fill="#8080ff" d="M 75.5,245.5 C 74.8333,246.167 74.8333,246.167 75.5,245.5 Z"/></g>
<g><path style="opacity:0.008" fill="#5555aa" d="M 176.5,245.5 C 176.833,245.5 177.167,245.5 177.5,245.5C 177.315,246.17 176.981,246.17 176.5,245.5 Z"/></g>
<g><path style="opacity:0.016" fill="#1a2372" d="M 76.5,247.5 C 106.331,246.336 136.331,246.169 166.5,247C 136.502,247.5 106.502,247.667 76.5,247.5 Z"/></g>
<g><path style="opacity:0.008" fill="#181624" d="M 176.5,246.5 C 174.712,247.622 172.712,247.789 170.5,247C 172.473,246.505 174.473,246.338 176.5,246.5 Z"/></g>
</svg>
