<svg id="Capa_1" enable-background="new 0 0 512 512" height="512" viewBox="0 0 512 512" width="512" xmlns="http://www.w3.org/2000/svg"><g><g clip-rule="evenodd" fill-rule="evenodd"><path d="m504.517 127.334v-69.11c0-3.769-1.984-5.81-5.839-5.81h-381.86l-8.476 68.345 8.476 60.321 21.288 5.557 15.364-11.509 21.261 5.556 15.392-11.509 21.261 5.556 15.363-11.508 21.289 5.556 15.363-11.509 21.261 5.556 15.364-11.509 21.288 5.557 15.364-11.511 21.26 5.558 15.364-11.51 21.288 5.556 15.364-11.508 21.288 5.555 15.364-11.508 21.261 5.556 15.363-11.509z" fill="#e4f6ff"/><path d="m504.517 127.334v-69.11c0-3.769-1.984-5.81-5.839-5.81h-29.112c3.855 0 5.812 2.466 5.812 6.973v68.033l7.851-5.868z" fill="#d3effb"/><path d="m122.656 108.37c-4.62 0-5.839 2.098-5.839 5.811v66.898c0 17.264-14.116 31.38-31.38 31.38-25.966 0-36.256 0-62.25 0-8.617 0-15.676-7.059-15.676-15.676v-128.694c0-8.617 7.059-15.676 15.676-15.676h113.246c15.392 0 27.979 12.586 27.979 27.979s-12.587 27.979-27.979 27.979h-13.777zm-78.264-6.01v60.152c0 9.779 7.993 17.773 17.773 17.773 9.779 0 17.772-7.994 17.772-17.773v-60.152c0-9.779-7.993-17.773-17.772-17.773-9.78 0-17.773 7.994-17.773 17.773z" fill="#e28086"/><path d="m122.656 108.37c-4.62 0-5.839 2.098-5.839 5.811v66.898c0 17.264-14.116 31.38-31.38 31.38h-29.112c17.263 0 31.38-14.116 31.38-31.38v-66.898c0-3.713 1.219-5.811 5.812-5.811h13.805c15.392 0 27.979-12.586 27.979-27.979s-12.587-27.979-27.979-27.979h29.112c15.392 0 27.979 12.586 27.979 27.979s-12.587 27.979-27.979 27.979z" fill="#dd636e"/><path d="m69.138 336.335h161.294v123.281h-161.294z" fill="#87582f"/><path d="m69.138 459.616c33.932 0 61.626-27.696 61.626-61.627 0-33.96-27.694-61.654-61.626-61.654-33.959 0-61.626 27.694-61.626 61.654 0 33.931 27.667 61.627 61.626 61.627z" fill="#ffde82"/><path d="m149.756 231.934h212.432c34.045 0 61.654 27.609 61.654 61.626 0 34.045-27.609 61.654-61.654 61.654h-212.432z" fill="#bf8e5e"/><path d="m333.075 231.934h29.112c34.045 0 61.654 27.609 61.654 61.626 0 34.045-27.609 61.654-61.654 61.654h-29.112c34.046 0 61.626-27.609 61.626-61.654 0-34.017-27.58-61.626-61.626-61.626z" fill="#a87547"/><path d="m230.432 336.335h212.46c34.016 0 61.625 27.61 61.625 61.654 0 34.016-27.609 61.627-61.625 61.627h-212.46z" fill="#a87547"/><path d="m413.75 336.335h29.142c34.016 0 61.625 27.61 61.625 61.654 0 34.016-27.609 61.627-61.625 61.627h-29.142c34.046 0 61.627-27.611 61.627-61.627 0-34.044-27.581-61.654-61.627-61.654z" fill="#946338"/><g fill="#ffde82"><path d="m230.432 459.616c33.959 0 61.654-27.696 61.654-61.627 0-33.96-27.695-61.654-61.654-61.654-33.932 0-61.626 27.694-61.626 61.654 0 33.931 27.694 61.627 61.626 61.627z"/><path d="m149.756 355.214c33.96 0 61.627-27.694 61.627-61.654 0-33.931-27.667-61.626-61.627-61.626-33.931 0-61.626 27.695-61.626 61.626 0 33.96 27.695 61.654 61.626 61.654z"/></g></g><path d="m124.329 175.325 12.189 3.175 12.473-9.355c1.842-1.389 4.195-1.814 6.406-1.247l17.745 4.648 12.473-9.355c2.041-1.53 4.337-1.785 6.718-1.162l17.462 4.564 12.473-9.354c2.069-1.56 4.337-1.786 6.774-1.162l17.377 4.564 12.501-9.355c1.956-1.474 4.252-1.813 6.576-1.19l17.575 4.592 12.474-9.355c2.041-1.531 4.337-1.786 6.718-1.162l17.462 4.564 12.472-9.355c2.07-1.559 4.338-1.786 6.747-1.162l17.404 4.563 12.474-9.354c2.013-1.502 4.28-1.785 6.661-1.19l17.519 4.593 12.473-9.354c2.126-1.588 4.365-1.786 6.831-1.134l17.32 4.535 12.501-9.354c2.069-1.56 4.337-1.786 6.775-1.134l17.376 4.535 12.473-9.354c2.069-1.531 4.478-1.786 6.859-1.135l11.396 3.09v-57.629h-172.265c-4.139 0-7.483-3.345-7.483-7.483s3.345-7.512 7.483-7.512h173.936c7.908 0 13.322 5.414 13.322 13.322v69.11c0 4.875-4.677 8.532-9.468 7.229l-17.773-4.819-12.188 9.128c-1.786 1.445-4.195 2.041-6.576 1.417l-17.802-4.649-12.274 9.184c-1.786 1.447-4.195 2.042-6.577 1.418l-17.802-4.649-12.245 9.186c-1.786 1.445-4.195 2.041-6.576 1.417l-17.802-4.648-12.275 9.184c-1.786 1.446-4.195 2.041-6.576 1.418l-17.802-4.65-12.273 9.185c-1.758 1.445-4.167 2.041-6.549 1.417l-17.829-4.648-12.247 9.184c-1.786 1.445-4.195 2.041-6.576 1.417l-17.802-4.649-12.274 9.185c-1.785 1.446-4.195 2.041-6.576 1.417l-17.802-4.648-12.246 9.185c-1.786 1.445-4.195 2.041-6.576 1.417l-17.802-4.648-12.275 9.184c-1.786 1.446-4.195 2.041-6.576 1.418l-17.803-4.648-12.273 9.184c-1.758 1.445-4.167 2.041-6.548 1.418l-13.068-3.402c-1.729 6.945-5.329 13.182-10.262 18.085-7.029 7.03-16.753 11.425-27.468 11.425h-62.25c-6.378 0-12.189-2.609-16.385-6.804-4.196-4.229-6.803-10.012-6.803-16.39v-128.694c0-6.379 2.607-12.189 6.803-16.385s10.007-6.803 16.385-6.803h93.63 19.616 154.348c4.139 0 7.485 3.373 7.485 7.512s-3.347 7.483-7.485 7.483h-125.406c4.11 5.812 6.548 12.87 6.548 20.495 0 9.751-3.997 18.624-10.433 25.059-6.406 6.435-15.278 10.432-25.058 10.432h-12.104zm321.539-86.288c-4.167 0-7.513-3.373-7.513-7.512s3.346-7.512 7.513-7.512h23.697c4.139 0 7.512 3.373 7.512 7.512s-3.373 7.512-7.512 7.512zm-194.828 179.521c-4.139 0-7.512-3.345-7.512-7.483 0-4.167 3.373-7.512 7.512-7.512h62.901c4.139 0 7.512 3.345 7.512 7.512 0 4.139-3.373 7.483-7.512 7.483zm134.846 133.683c-4.167 0-7.512-3.373-7.512-7.512s3.345-7.512 7.512-7.512h86.486c4.139 0 7.483 3.373 7.483 7.512s-3.345 7.512-7.483 7.512zm-45.724 34.442c-4.139 0-7.512-3.345-7.512-7.483s3.373-7.512 7.512-7.512h41.33c4.167 0 7.512 3.373 7.512 7.512s-3.345 7.483-7.512 7.483zm-57.091-133.173c-4.139 0-7.483-3.345-7.483-7.512 0-4.139 3.345-7.484 7.483-7.484h106.018c4.139 0 7.483 3.346 7.483 7.484 0 4.167-3.345 7.512-7.483 7.512zm-112.083 59.187h-21.232c-8.391 0-16.441-1.503-23.897-4.224 7.824 11.198 12.417 24.804 12.417 39.516 0 19.077-7.739 36.368-20.269 48.87-1.843 1.871-3.827 3.601-5.868 5.244h75.29c-2.041-1.643-4.025-3.373-5.868-5.244-12.501-12.502-20.24-29.793-20.24-48.87 0-12.897 3.516-24.944 9.667-35.292zm-21.176-138.247h212.375c8.392 0 16.441 1.503 23.925 4.252 7.739 2.863 14.825 7.059 20.977 12.331 3.147 2.693 3.515 7.398.822 10.545-2.665 3.146-7.398 3.515-10.545.822-4.79-4.11-10.347-7.398-16.413-9.639-5.81-2.154-12.132-3.316-18.766-3.316h-169.428c2.069 1.645 4.024 3.374 5.895 5.244 12.501 12.501 20.24 29.793 20.24 48.87 0 14.713-4.593 28.347-12.416 39.572 7.88-2.92 15.591-4.195 23.953-4.28h172.859c3.826-4.45 6.916-9.525 9.155-15.023 2.495-6.236 3.884-13.067 3.884-20.268 0-2.976-.227-5.783-.624-8.391-.425-2.778-1.077-5.499-1.927-8.164-1.276-3.912.906-8.136 4.818-9.383 3.94-1.275 8.164.879 9.411 4.819 1.077 3.345 1.899 6.831 2.466 10.432.567 3.6.851 7.171.851 10.687 0 9.1-1.786 17.83-5.018 25.824-1.304 3.288-2.891 6.463-4.677 9.468h21.261c5.442 0 10.771.624 15.902 1.843 5.272 1.247 10.347 3.117 15.08 5.499 3.714 1.87 5.188 6.378 3.316 10.062-1.842 3.686-6.35 5.159-10.034 3.317-3.685-1.871-7.625-3.317-11.764-4.281-3.997-.936-8.192-1.445-12.501-1.445h-169.455c2.069 1.645 4.025 3.401 5.897 5.244 12.5 12.501 20.24 29.793 20.24 48.898 0 19.077-7.74 36.368-20.24 48.87-1.871 1.871-3.827 3.601-5.897 5.244h169.458c14.939 0 28.46-6.065 38.268-15.847 9.779-9.808 15.846-23.329 15.846-38.268 0-5.188-.709-10.147-2.041-14.825-1.36-4.875-3.401-9.439-5.98-13.635-2.184-3.486-1.078-8.107 2.438-10.263 3.486-2.182 8.107-1.076 10.262 2.41 3.345 5.387 5.952 11.255 7.71 17.435 1.701 6.037 2.607 12.358 2.607 18.878 0 19.077-7.738 36.368-20.239 48.87-12.501 12.501-29.792 20.239-48.869 20.239h-373.756c-19.106 0-36.368-7.738-48.898-20.239-12.502-12.501-20.24-29.792-20.24-48.869 0-19.105 7.738-36.397 20.24-48.898 12.529-12.501 29.792-20.239 48.898-20.239h21.146c-6.123-10.318-9.666-22.394-9.666-35.292 0-19.077 7.738-36.369 20.269-48.87 12.869-12.898 30.642-20.353 48.925-20.24zm-113.216 193.071c-2.126-3.544-.964-8.136 2.58-10.262 3.543-2.126 8.135-.964 10.261 2.579 3.26 5.414 8.42 9.015 14.117 10.432 5.726 1.445 11.99.681 17.433-2.579s9.015-8.419 10.461-14.116c1.417-5.727.652-11.991-2.608-17.462-3.26-5.414-8.419-9.015-14.116-10.432-5.727-1.417-11.991-.681-17.434 2.608-3.544 2.098-8.136.963-10.262-2.58s-.964-8.135 2.579-10.262c8.986-5.386 19.276-6.634 28.688-4.31 9.439 2.354 17.972 8.307 23.387 17.321 5.386 8.957 6.633 19.275 4.28 28.686-2.354 9.411-8.306 17.972-17.292 23.357-8.986 5.414-19.276 6.661-28.687 4.309-9.441-2.351-17.973-8.304-23.387-17.289zm209.285-54.2c3.77 1.673 5.471 6.095 3.77 9.865-1.672 3.77-6.094 5.471-9.864 3.77-5.812-2.579-12.105-2.551-17.604-.453-5.471 2.098-10.148 6.321-12.756 12.132-2.58 5.811-2.58 12.104-.454 17.604 2.098 5.471 6.321 10.148 12.133 12.756 5.782 2.58 12.104 2.551 17.604.453 5.471-2.098 10.148-6.32 12.727-12.132 1.701-3.771 6.123-5.442 9.893-3.771 3.771 1.673 5.443 6.095 3.771 9.865-4.252 9.553-11.99 16.497-21.062 19.984-9.071 3.486-19.475 3.516-29.027-.766-9.581-4.252-16.498-11.99-19.984-21.061-3.487-9.071-3.516-19.474.765-29.026 4.253-9.553 11.991-16.498 21.062-19.985 9.069-3.487 19.472-3.487 29.026.765zm-58.14-69.761c0 4.168-3.373 7.513-7.512 7.513s-7.512-3.345-7.512-7.513c0-6.321-2.552-12.076-6.719-16.243-4.139-4.139-9.893-6.718-16.243-6.718s-12.075 2.579-16.242 6.718c-4.139 4.167-6.719 9.922-6.719 16.243 0 6.35 2.58 12.104 6.719 16.243 4.167 4.167 9.893 6.746 16.242 6.746 4.139 0 7.512 3.345 7.512 7.483 0 4.139-3.373 7.512-7.512 7.512-10.488 0-19.984-4.252-26.844-11.111-6.86-6.889-11.112-16.385-11.112-26.873 0-10.46 4.252-19.956 11.112-26.845 6.859-6.859 16.355-11.111 26.844-11.111 10.488 0 19.985 4.252 26.845 11.111 6.889 6.888 11.141 16.385 11.141 26.845zm-37.985 54.142c14.939 0 28.489-6.066 38.268-15.846 9.808-9.809 15.875-23.329 15.875-38.297 0-14.939-6.067-28.46-15.875-38.269-9.779-9.779-23.301-15.846-38.212-15.846-14.456 0-28.119 5.642-38.324 15.846-9.808 9.809-15.846 23.33-15.846 38.269 0 14.968 6.038 28.488 15.846 38.297 9.78 9.78 23.329 15.846 38.268 15.846zm80.676 104.401c14.967 0 28.488-6.065 38.296-15.847 9.78-9.808 15.847-23.329 15.847-38.268 0-14.967-6.066-28.488-15.847-38.297-9.808-9.779-23.329-15.846-38.296-15.846-14.939 0-28.46 6.066-38.268 15.846-9.808 9.809-15.846 23.33-15.846 38.297 0 14.938 6.038 28.46 15.846 38.268 9.808 9.782 23.328 15.847 38.268 15.847zm-161.294 0c14.938 0 28.489-6.065 38.269-15.847 9.808-9.808 15.846-23.329 15.846-38.268 0-14.967-6.038-28.488-15.846-38.297-9.779-9.779-23.33-15.846-38.269-15.846s-28.488 6.066-38.268 15.846c-9.809 9.809-15.875 23.33-15.875 38.297 0 14.938 6.066 28.46 15.875 38.268 9.779 9.782 23.329 15.847 38.268 15.847zm43.286-347.164c2.353-2.664 5.584-4.082 10.233-4.082h13.777c5.641 0 10.743-2.295 14.456-6.009 3.714-3.714 6.038-8.845 6.038-14.457 0-5.641-2.324-10.744-6.038-14.457-3.713-3.714-8.815-6.038-14.456-6.038h-19.616-93.63c-2.239 0-4.28.936-5.783 2.409-1.474 1.502-2.409 3.543-2.409 5.783v128.694c0 2.239.936 4.28 2.409 5.755 1.503 1.502 3.544 2.438 5.783 2.438h62.25c6.576 0 12.529-2.693 16.866-7.03s7.03-10.317 7.03-16.866v-66.898c0-3.6.794-6.661 3.09-9.242zm-60.549-2.579v60.152c0 5.641 4.62 10.289 10.29 10.289 2.834 0 5.386-1.162 7.257-3.032 1.87-1.871 3.032-4.45 3.032-7.257v-60.152c0-2.835-1.162-5.386-3.032-7.257-1.871-1.871-4.423-3.033-7.257-3.033-2.807 0-5.386 1.162-7.257 3.033-1.871 1.872-3.033 4.422-3.033 7.257zm-14.996 60.153v-60.153c0-6.974 2.835-13.294 7.427-17.858 4.564-4.592 10.886-7.427 17.859-7.427s13.294 2.835 17.858 7.427c4.592 4.564 7.427 10.885 7.427 17.858v60.152c0 6.973-2.835 13.295-7.427 17.858-4.564 4.592-10.886 7.427-17.858 7.427-13.919.001-25.286-11.366-25.286-25.284z"/></g></svg>