<svg id="Capa_1" enable-background="new 0 0 512 512" height="512" viewBox="0 0 512 512" width="512" xmlns="http://www.w3.org/2000/svg"><g><g clip-rule="evenodd" fill-rule="evenodd"><path d="m66.672 183.928 12.416 32.515-25.03 62.589h-16.527c-16.498 0-30.02 13.521-30.02 30.048v62.788c0 4.763 2.495 7.285 7.285 7.285h149.757c0-74.75 0-149.529 0-224.279l-93.204-.596c-4.904-.028-7.257 3.232-7.257 7.853v7.738c.001 4.676.795 9.382 2.58 14.059z" fill="#e28086"/><path d="m159.706 154.873h329.787c8.248 0 15.023 6.746 15.023 14.995v194.26c0 8.278-6.775 15.024-15.023 15.024h-329.787z" fill="#f4fbff"/><path d="m460.38 154.873h29.113c8.248 0 15.023 6.746 15.023 14.995v194.26c0 8.278-6.775 15.024-15.023 15.024h-29.113c8.249 0 14.996-6.746 14.996-15.024v-194.26c0-8.249-6.747-14.995-14.996-14.995z" fill="#e4f6ff"/><path d="m130.595 154.873h29.111v224.279h-29.111z" fill="#dd636e"/><path d="m159.706 279.031h-105.648l25.03-62.589h80.618z" fill="#d3effb"/><path d="m130.595 216.442h29.111v62.589h-29.111z" fill="#b1e4f9"/><path d="m83.595 411.185c17.66 0 32.032-14.372 32.032-32.032 0-17.632-14.372-32.032-32.032-32.032-17.632 0-32.031 14.4-32.031 32.032-.001 17.659 14.399 32.032 32.031 32.032z" fill="#636363"/><path d="m404.056 411.185c17.659 0 32.031-14.372 32.031-32.032 0-17.632-14.372-32.032-32.031-32.032-17.632 0-32.033 14.4-32.033 32.032-.001 17.659 14.401 32.032 32.033 32.032z" fill="#636363"/><path d="m277.742 379.152v-150.691c0-6.605-5.414-12.019-12.02-12.019h-58.451c-6.604 0-12.019 5.414-12.019 12.019v150.691z" fill="#a87547"/><path d="m277.742 379.152v-150.691c0-6.605-5.414-12.019-12.02-12.019h-29.14c6.633 0 12.019 5.414 12.019 12.019v150.691z" fill="#946338"/><path d="m347.759 216.442h78.634c5.329 0 9.694 4.365 9.694 9.694v57.289c0 5.329-4.365 9.694-9.694 9.694h-78.634c-5.329 0-9.695-4.365-9.695-9.694v-57.289c0-5.328 4.366-9.694 9.695-9.694z" fill="#d3effb"/><path d="m454.428 154.873v-34.64c0-10.687-8.731-19.418-19.418-19.418h-296.196c-10.688 0-19.418 8.731-19.418 19.418v34.64z" fill="#ffe07d"/><path d="m193.693 100.815h34.556v54.058h-34.556z" fill="#ffa95f"/><path d="m342.202 100.815h34.583v54.058h-34.583z" fill="#ffa95f"/><g fill="#e28086"><path d="m504.517 345.901h-24.35c-5.357 0-9.724-4.365-9.724-9.694v-17.49c0-5.329 4.366-9.694 9.724-9.694h24.35z"/><path d="m504.517 221.317h-24.35c-5.357 0-9.724-4.365-9.724-9.694v-17.489c0-5.33 4.366-9.695 9.724-9.695h24.35z"/></g></g><path d="m365.248 386.664c-80.93 0-161.889 0-242.818 0-1.531 7.909-5.386 14.967-10.857 20.438-7.172 7.172-17.065 11.594-27.978 11.594s-20.778-4.422-27.949-11.594c-5.471-5.472-9.354-12.529-10.856-20.438h-37.278c-4.138 0-7.512-3.373-7.512-7.512v-70.073c0-10.347 4.224-19.729 11.027-26.532 6.803-6.804 16.186-11.027 26.504-11.027h11.48l22.055-55.134-13.862-36.227c-.397-.936-.623-1.956-.623-3.033v-22.252c0-4.168 3.345-7.513 7.512-7.513h47.82v-27.127c0-7.427 3.005-14.146 7.88-19.021 4.876-4.876 11.624-7.908 19.021-7.908h131.104c4.167 0 7.512 3.373 7.512 7.512s-3.345 7.483-7.512 7.483h-34.157v39.062h98.93v-39.062h-30.784c-4.139 0-7.512-3.345-7.512-7.483 0-4.139 3.373-7.512 7.512-7.512h131.103c7.427 0 14.145 3.032 19.021 7.908s7.909 11.595 7.909 19.021v27.127h27.554c6.207 0 11.82 2.523 15.902 6.605s6.604 9.723 6.604 15.902v194.26c0 6.209-2.522 11.85-6.604 15.932s-9.695 6.604-15.902 6.604h-46.603c-1.531 7.909-5.387 14.967-10.857 20.438-7.172 7.172-17.064 11.594-27.978 11.594-10.913 0-20.778-4.422-27.951-11.594-5.471-5.471-9.354-12.529-10.857-20.438zm70.839-73.588c4.167 0 7.512 3.345 7.512 7.483 0 4.139-3.345 7.512-7.512 7.512h-122.089c-4.139 0-7.483-3.373-7.483-7.512s3.345-7.483 7.483-7.483zm0-136.149c4.167 0 7.512 3.373 7.512 7.512s-3.345 7.512-7.512 7.512h-240.834c-4.139 0-7.484-3.373-7.484-7.512s3.346-7.512 7.484-7.512zm60.918 51.902h-16.838c-4.734 0-9.044-1.928-12.161-5.045-3.119-3.118-5.047-7.427-5.047-12.161v-17.489c0-4.735 1.928-9.044 5.047-12.134 3.117-3.118 7.427-5.073 12.161-5.073h16.838v-7.059c0-2.041-.851-3.94-2.211-5.301-1.361-1.36-3.232-2.211-5.301-2.211-107.435 0-214.87 0-322.275 0v209.313h20.551v-143.208c0-5.386 2.184-10.262 5.727-13.805 3.543-3.515 8.419-5.727 13.776-5.727h58.451c5.357 0 10.262 2.212 13.776 5.727 3.544 3.543 5.726 8.419 5.726 13.805v58.366c0 4.139-3.344 7.483-7.482 7.483s-7.512-3.345-7.512-7.483v-58.366c0-1.247-.511-2.353-1.333-3.175-.821-.822-1.956-1.332-3.175-1.332h-58.451c-1.219 0-2.353.51-3.175 1.332s-1.332 1.928-1.332 3.175v143.208h67.466v-50.883c0-4.139 3.373-7.483 7.512-7.483s7.482 3.345 7.482 7.483v50.883h80.023c1.503-7.909 5.386-14.996 10.857-20.467 7.173-7.143 17.038-11.565 27.951-11.565s20.806 4.422 27.978 11.565c5.471 5.471 9.326 12.558 10.857 20.467h46.603c2.041 0 3.939-.851 5.301-2.211 1.36-1.389 2.211-3.26 2.211-5.33v-10.715h-16.838c-4.734 0-9.044-1.928-12.161-5.046-3.119-3.117-5.047-7.427-5.047-12.16v-17.49c0-4.733 1.928-9.042 5.047-12.132 3.117-3.118 7.427-5.074 12.161-5.074h16.838v-72.682zm-16.838-14.995h16.838v-21.884h-16.838c-.596 0-1.162.227-1.56.651-.396.397-.651.936-.651 1.532v17.489c0 .596.255 1.134.651 1.56.398.397.964.652 1.56.652zm0 124.584h16.838v-21.884h-16.838c-.596 0-1.162.227-1.56.652-.396.397-.651.936-.651 1.53v17.49c0 .596.255 1.134.651 1.559.398.398.964.653 1.56.653zm-130.453-191.058h19.56v-39.062h-19.56zm34.556 0h62.674v-27.127c0-3.288-1.36-6.265-3.515-8.419-2.154-2.154-5.131-3.516-8.419-3.516h-50.74zm-163.504-39.061h-19.589v39.062h19.589zm-34.584 0h-47.367c-3.26 0-6.235 1.361-8.419 3.516-2.155 2.154-3.487 5.131-3.487 8.419v27.127h59.273zm214.472 278.365c-4.139 0-7.484-3.373-7.484-7.512s3.346-7.483 7.484-7.483h6.803c4.139 0 7.512 3.345 7.512 7.483 0 4.139-3.373 7.512-7.512 7.512zm-320.461 0c-4.139 0-7.483-3.373-7.483-7.512s3.345-7.483 7.483-7.483h6.803c4.139 0 7.512 3.345 7.512 7.483 0 4.139-3.373 7.512-7.512 7.512zm-2.806-71.009c-4.166 0-7.512-3.373-7.512-7.512s3.346-7.483 7.512-7.483h13.578c4.139 0 7.512 3.345 7.512 7.483 0 4.139-3.373 7.512-7.512 7.512zm145.505-26.305c-4.139 0-7.483-3.345-7.483-7.512 0-4.139 3.345-7.483 7.483-7.483h27.212c4.139 0 7.484 3.345 7.484 7.483 0 4.167-3.346 7.512-7.484 7.512zm0-29.113c-4.139 0-7.483-3.373-7.483-7.512s3.345-7.512 7.483-7.512h27.212c4.139 0 7.484 3.373 7.484 7.512s-3.346 7.512-7.484 7.512zm171.696-36.283v61.683h31.805c.596 0 1.162-.255 1.559-.652.397-.425.652-.964.652-1.559v-11.651c0-4.139 3.345-7.512 7.483-7.512 4.167 0 7.512 3.373 7.512 7.512v11.651c0 4.733-1.927 9.042-5.046 12.16-3.117 3.118-7.426 5.046-12.16 5.046h-39.316-39.317c-4.734 0-9.043-1.928-12.161-5.046s-5.046-7.427-5.046-12.16v-57.289c0-4.734 1.928-9.043 5.046-12.133 3.118-3.118 7.427-5.074 12.161-5.074h39.317 39.316c4.734 0 9.043 1.956 12.16 5.074 3.119 3.09 5.046 7.398 5.046 12.133v11.65c0 4.139-3.345 7.512-7.512 7.512-4.139 0-7.483-3.373-7.483-7.512v-11.65c0-.596-.255-1.134-.652-1.531-.397-.425-.963-.651-1.559-.651h-31.805zm-14.996 61.683v-61.683h-31.833c-.596 0-1.135.227-1.56.651-.396.397-.651.936-.651 1.531v57.289c0 .595.255 1.134.651 1.559.425.397.964.652 1.56.652h31.833zm41.811 76.167c-4.422-4.422-10.573-7.172-17.348-7.172-6.774 0-12.897 2.75-17.349 7.172-4.422 4.451-7.172 10.574-7.172 17.349s2.75 12.926 7.172 17.349c4.451 4.45 10.574 7.199 17.349 7.199 6.774 0 12.926-2.749 17.348-7.199 4.45-4.423 7.2-10.573 7.2-17.349 0-6.775-2.75-12.898-7.2-17.349zm-298.973 9.865h29.765v-85.153h-98.137-16.527c-6.18 0-11.821 2.551-15.902 6.633-4.082 4.082-6.634 9.723-6.634 15.931v62.59h29.794c1.502-7.909 5.386-14.996 10.856-20.467 7.171-7.143 17.036-11.565 27.949-11.565s20.807 4.422 27.978 11.565c5.472 5.47 9.326 12.557 10.858 20.466zm-21.487-9.865c-4.422-4.422-10.574-7.172-17.349-7.172-6.774 0-12.897 2.75-17.348 7.172-4.422 4.451-7.172 10.574-7.172 17.349s2.75 12.926 7.172 17.349c4.45 4.45 10.573 7.199 17.348 7.199 6.774 0 12.927-2.749 17.349-7.199 4.45-4.423 7.199-10.573 7.199-17.349.001-6.775-2.748-12.898-7.199-17.349zm-16.696-152.874h67.947v-46.573h-80.618v13.407zm-19.134 62.59h87.081v-47.565h-68.032z"/></g></svg>