<svg id="Capa_1" enable-background="new 0 0 511.975 511.975" height="512" viewBox="0 0 511.975 511.975" width="512" xmlns="http://www.w3.org/2000/svg"><g><g><path d="m351.957 98.49h32.71v91.821h-32.71z" fill="#407093"/><path d="m437.175 168.475c-120.791-6.594-241.583-6.594-362.374 0-14.645.799-26.79 11.74-29.014 26.237-9.337 60.867-9.337 121.735 0 182.602 2.224 14.497 14.369 25.438 29.014 26.237 120.791 6.594 241.583 6.594 362.374 0 14.645-.799 26.79-11.74 29.014-26.237 9.337-60.867 9.337-121.734 0-182.602-2.224-14.497-14.369-25.437-29.014-26.237z" fill="#dadada"/><path d="m86.756 404.183c-3.991-.201-7.971-.412-11.952-.633-14.645-.794-26.798-11.741-29.019-26.235-9.338-60.864-9.338-121.737 0-182.6 2.221-14.495 14.374-25.441 29.019-26.235 3.98-.221 7.961-.432 11.952-.633-7.961 4.845-13.701 13.027-15.188 22.727-9.76 63.628-9.76 127.256 0 190.883 1.488 9.699 7.227 17.881 15.188 22.726z" fill="#c2bdb8"/><path d="m443.742 9.265c-50.286-2.367-100.573-2.367-150.859 0-14.431.679-26.189 11.756-27.751 26.118-2.265 20.833-2.265 41.665 0 62.498 1.562 14.362 13.32 25.439 27.751 26.118 50.286 2.367 100.572 2.367 150.859 0 14.431-.679 26.189-11.756 27.751-26.118 2.265-20.833 2.265-41.665 0-62.498-1.562-14.362-13.32-25.439-27.751-26.118z" fill="#ececec"/><path d="m446.509 95.162c-.221 2.07-1.89 3.639-3.95 3.739-24.637 1.156-49.616 1.749-74.242 1.749-.633 0-1.267 0-1.9-.01-20.948-.02-42.127-.472-63.115-1.337-3.086-.12-6.162-.261-9.238-.402-2.061-.101-3.729-1.669-3.95-3.739-2.061-18.928-2.061-38.126 0-57.064.221-2.061 1.89-3.629 3.95-3.729 24.637-1.156 49.616-1.749 74.252-1.749.553 0 1.106 0 1.659.01 20.938.01 42.127.462 63.125 1.327 3.156.131 6.312.261 9.459.412 2.071.1 3.729 1.669 3.95 3.729 2.061 18.937 2.061 38.136 0 57.064z" fill="#d3effb"/><path d="m433.1 33.956-66.684 66.683c-20.948-.02-42.127-.472-63.115-1.337l66.673-66.673c20.939.011 42.128.463 63.126 1.327z" fill="#ecf9f9"/><path d="m248.764 207.388c-50.286-2.367-100.573-2.367-150.859 0-14.431.679-26.189 11.756-27.751 26.118-2.265 20.833-2.265 41.665 0 62.498 1.562 14.362 13.32 25.439 27.751 26.118 50.286 2.367 100.572 2.367 150.859 0 14.431-.679 26.189-11.756 27.751-26.118 2.265-20.833 2.265-41.665 0-62.498-1.562-14.362-13.32-25.439-27.751-26.118z" fill="#407093"/><path d="m464.594 360.135c-139.071-4.237-278.142-4.237-417.212 0-13.06.398-24.275 9.446-27.447 22.122-8.087 32.312-8.087 64.623 0 96.935 3.172 12.676 14.386 21.724 27.447 22.122 139.071 4.236 278.141 4.236 417.212 0 13.06-.398 24.275-9.446 27.447-22.122 8.086-32.312 8.086-64.623 0-96.935-3.173-12.676-14.387-21.725-27.447-22.122z" fill="#ececec"/><path d="m59.086 501.661c-3.9-.111-7.8-.221-11.7-.342-13.067-.402-24.275-9.449-27.451-22.124-8.082-32.316-8.082-64.623 0-96.939 3.176-12.675 14.384-21.722 27.451-22.114 3.89-.121 7.79-.231 11.68-.342-8.112 3.83-14.354 11.148-16.626 20.244-8.454 33.784-8.454 67.578 0 101.372 2.282 9.108 8.525 16.426 16.646 20.245z" fill="#dadada"/><path d="m255.988 479.361c-68.957 0-138.884-1.065-207.841-3.166-1.814-.055-3.391-1.332-3.834-3.104-7.036-28.113-7.036-56.621 0-84.733.444-1.773 2.021-3.05 3.835-3.105 68.952-2.101 138.88-3.166 207.832-3.166h.008c68.957 0 138.884 1.065 207.841 3.166 1.814.055 3.391 1.332 3.834 3.105 7.035 28.112 7.036 56.621 0 84.733-.444 1.772-2.02 3.049-3.834 3.104-68.957 2.1-138.885 3.166-207.841 3.166z" fill="#f2f2f2"/><circle cx="255.988" cy="430.723" fill="#407093" r="22.226"/><path d="m433.762 311.43-20.192-9.532-20.193 9.532-20.192-9.532-20.192 9.532-20.192-9.532-20.192 9.532v-72.659h121.153z" fill="#f2f2f2"/></g><g><path d="m453.967 95.976c2.117-19.471 2.117-39.216 0-58.688-.628-5.762-5.277-10.141-11.054-10.413-24.759-1.165-49.858-1.756-74.6-1.756s-49.841.591-74.601 1.756c-5.778.272-10.427 4.652-11.053 10.414-2.117 19.471-2.117 39.216 0 58.686.626 5.762 5.274 10.142 11.054 10.416 24.752 1.165 49.851 1.755 74.6 1.755s49.848-.591 74.603-1.755c5.775-.274 10.423-4.653 11.051-10.415zm-14.622-4.437c-23.59 1.066-47.471 1.607-71.032 1.607s-47.444-.541-71.032-1.607c-1.613-16.542-1.613-33.27 0-49.813 23.597-1.066 47.478-1.607 71.033-1.607s47.436.541 71.032 1.607c1.611 16.543 1.611 33.272-.001 49.813z"/><path d="m97.553 329.614c25.143 1.183 50.462 1.775 75.782 1.775s50.639-.592 75.782-1.775c18.223-.857 32.881-14.652 34.854-32.8 2.313-21.273 2.313-42.846 0-64.119-1.973-18.147-16.631-31.942-34.854-32.799-50.285-2.367-101.278-2.367-151.563 0-18.223.857-32.881 14.652-34.854 32.799-2.313 21.273-2.313 42.846 0 64.119 1.972 18.149 16.63 31.943 34.853 32.8zm-19.942-34.421c-.017-.161-.029-.322-.046-.483h20.9v19.929c-.069-.003-.138-.005-.207-.009-10.794-.507-19.478-8.682-20.647-19.437zm-1.248-45.394h22.102v29.911h-22.102c-.528-9.959-.528-19.951 0-29.911zm67.013 0v29.911h-29.911v-29.911zm-29.911-15v-20.545c9.952-.372 19.926-.642 29.911-.828v21.373zm119.744 15v29.911h-29.921v-29.911zm-29.921-15v-21.373c9.989.186 19.966.456 29.921.828v20.545zm67.018 44.912h-22.097v-29.911h22.097c.528 9.959.528 19.951 0 29.911zm-37.097 15v20.545c-9.956.373-19.932.642-29.921.828v-21.374h29.921zm-44.921-15h-29.912v-29.911h29.912zm-44.912 15v21.374c-9.986-.186-19.959-.456-29.911-.828v-20.546zm15 21.591v-21.592h29.912v21.592c-9.969.093-19.943.093-29.912 0zm90.035-1.671c-.067.003-.135.005-.202.008v-19.929h20.896c-.017.161-.028.322-.046.483-1.17 10.755-9.853 18.93-20.648 19.438zm20.648-80.314c.017.161.029.322.046.483h-20.896v-19.928c.067.003.135.005.202.008 10.795.508 19.478 8.682 20.648 19.437zm-80.771-21.109v21.591h-29.912v-21.591c4.986-.046 9.972-.087 14.958-.087s9.97.041 14.954.087zm-90.03 1.672c.069-.003.138-.005.207-.009v19.928h-20.9c.017-.161.028-.322.046-.483 1.169-10.754 9.853-18.928 20.647-19.436z"/><path d="m499.316 380.436c-2.962-11.838-11.61-21.203-22.594-25.406 6.13-53.642 5.099-107.924-3.118-161.452-2.744-17.9-17.896-31.605-36.024-32.588-15.112-.825-30.251-1.546-45.409-2.164v-25.731c6.369-.094 12.731-.219 19.077-.388 4.141-.11 7.408-3.557 7.298-7.697-.111-4.141-3.581-7.399-7.697-7.298-39.073 1.042-78.642.636-117.608-1.205-10.793-.508-19.48-8.685-20.656-19.437-2.191-20.194-2.191-40.678 0-60.876 1.176-10.759 9.862-18.932 20.657-19.434 49.815-2.347 100.331-2.347 150.149 0 10.792.501 19.473 8.672 20.642 19.431 2.201 20.202 2.201 40.684 0 60.878-1.168 10.755-9.852 18.93-20.671 19.439-.974.049-1.939.088-2.914.127-4.139.166-7.359 3.655-7.194 7.794s3.679 7.363 7.794 7.194c1.025-.041 2.041-.083 3.043-.133 18.224-.858 32.881-14.653 34.853-32.799 2.318-21.27 2.318-42.845 0-64.123-1.972-18.155-16.632-31.946-34.853-32.792-50.283-2.371-101.274-2.371-151.551 0-18.219.846-32.883 14.635-34.868 32.793-2.308 21.277-2.308 42.85 0 64.124 1.984 18.146 16.646 31.939 34.861 32.796 17.221.813 34.559 1.328 51.918 1.585v24.155c-90.028-2.377-180.51-1.129-270.053 3.759-18.132.983-33.284 14.688-36.027 32.586-8.217 53.53-9.249 107.812-3.118 161.454-10.984 4.202-19.632 13.567-22.594 25.405-8.352 33.369-8.352 67.208 0 100.577 3.971 15.869 18.156 27.299 34.494 27.797 69.286 2.11 139.06 3.166 208.834 3.166s139.548-1.056 208.834-3.166c16.338-.498 30.523-11.929 34.494-27.797 8.352-33.367 8.352-67.206.001-100.574zm-139.864-247.213c3.003.017 6.006.053 9.009.053 2.904 0 5.807-.013 8.71-.029v25.019c-5.904-.214-11.81-.41-17.719-.593zm-306.253 62.628c1.674-10.92 10.931-19.282 22.015-19.883 119.953-6.548 241.596-6.548 361.552 0 11.081.601 20.338 8.962 22.012 19.884 7.975 51.955 9.013 104.635 3.132 156.702-136.66-4.103-275.185-4.103-411.844 0-5.881-52.066-4.843-104.746 3.133-156.703zm431.566 281.519c-2.35 9.389-10.739 16.151-20.4 16.446-138.27 4.212-278.487 4.211-416.755 0-9.662-.294-18.05-7.057-20.4-16.446-7.747-30.952-7.747-62.341 0-93.293 2.349-9.389 10.738-16.151 20.399-16.446 69.134-2.106 138.756-3.159 208.377-3.159s139.243 1.053 208.377 3.159c9.662.294 18.05 7.057 20.4 16.446 7.749 30.952 7.749 62.341.002 93.293z"/><path d="m464.055 377.753c-68.937-2.099-138.941-3.163-208.078-3.163-39.984 0-80.419.357-120.183 1.061-4.142.074-7.439 3.49-7.366 7.632s3.5 7.403 7.632 7.366c39.675-.703 80.021-1.059 119.927-1.059 68.112 0 137.076 1.036 205.007 3.077 5.926 25.273 5.925 50.858.003 76.105-67.834 2.049-136.795 3.087-205.01 3.087-68.206 0-137.162-1.039-205.009-3.087-5.923-25.27-5.922-50.853.002-76.106 17.922-.542 36.492-1.021 55.24-1.429 4.141-.09 7.425-3.52 7.335-7.661-.089-4.141-3.476-7.453-7.661-7.335-19.702.427-39.208.936-57.996 1.512-5.134.17-9.601 3.775-10.868 8.787-7.332 29.318-7.332 59.05.007 88.398 1.274 5.009 5.757 8.606 10.879 8.748 68.825 2.105 138.83 3.173 208.069 3.173s139.244-1.068 208.047-3.173c5.145-.142 9.628-3.74 10.909-8.777 7.332-29.319 7.332-59.051-.005-88.389-1.259-4.991-5.726-8.596-10.881-8.767z"/><path d="m285.714 430.723c0-16.391-13.335-29.726-29.727-29.726s-29.727 13.335-29.727 29.726 13.335 29.727 29.727 29.727 29.727-13.336 29.727-29.727zm-44.453 0c0-8.12 6.606-14.726 14.727-14.726s14.727 6.606 14.727 14.726-6.606 14.727-14.727 14.727-14.727-6.607-14.727-14.727z"/><path d="m302.445 246.272h2.665v65.159c0 2.569 1.315 4.959 3.485 6.335 2.17 1.375 4.893 1.543 7.216.447l16.99-8.021 16.991 8.021c2.027.957 4.376.957 6.403 0l16.99-8.021 16.99 8.021c2.026.957 4.375.957 6.403 0l16.991-8.021 16.99 8.021c1.017.48 2.111.718 3.201.718 1.4 0 2.795-.392 4.015-1.165 2.17-1.375 3.485-3.766 3.485-6.335v-65.159h2.665c4.142 0 7.5-3.358 7.5-7.5s-3.358-7.5-7.5-7.5h-141.48c-4.142 0-7.5 3.358-7.5 7.5s3.358 7.5 7.5 7.5zm123.817 0v53.324l-9.49-4.48c-2.027-.957-4.376-.958-6.403 0l-16.991 8.021-16.99-8.021c-1.014-.479-2.107-.718-3.202-.718s-2.188.239-3.202.718l-16.99 8.021-16.991-8.021c-2.027-.957-4.376-.957-6.403 0l-9.49 4.48v-53.324z"/><path d="m401.492 272.255h9.474c4.142 0 7.5-3.358 7.5-7.5s-3.358-7.5-7.5-7.5h-9.474c-4.142 0-7.5 3.358-7.5 7.5s3.358 7.5 7.5 7.5z"/><path d="m335.405 272.255h46.107c4.142 0 7.5-3.358 7.5-7.5s-3.358-7.5-7.5-7.5h-46.107c-4.142 0-7.5 3.358-7.5 7.5s3.358 7.5 7.5 7.5z"/></g></g></svg>