<svg xmlns="http://www.w3.org/2000/svg" width="512" height="512" viewBox="0 0 512 512" role="img" aria-label="Explorador Total">
  <title>Explorador Total</title>
  <desc>Flat matte engraved achievement badge. Transparent canvas, dark circle #1C1C1E, accent #E5E4E2.</desc>
  <circle cx="256" cy="256" r="220" fill="#1C1C1E"/>
  <circle cx="256" cy="256" r="204" fill="none" stroke="#E5E4E2" stroke-width="8" stroke-linecap="round"/>
  <circle cx="256" cy="256" r="170" fill="none" stroke="#E5E4E2" stroke-width="3" stroke-linecap="round" opacity="0.38"/>
  <polyline points="232,384 256,404 280,384" fill="none" stroke="#E5E4E2" stroke-width="7" stroke-linecap="round" stroke-linejoin="round" opacity="0.85"/>
  <circle cx="256" cy="268" r="92" fill="none" stroke="#E5E4E2" stroke-width="7" stroke-linecap="round"/>
  <ellipse cx="256" cy="268" rx="36" ry="92" fill="none" stroke="#E5E4E2" stroke-width="5" stroke-linecap="round" opacity="0.75"/>
  <ellipse cx="256" cy="268" rx="92" ry="34" fill="none" stroke="#E5E4E2" stroke-width="5" stroke-linecap="round" opacity="0.75"/>
  <circle cx="256" cy="268" r="31.5" fill="none" stroke="#E5E4E2" stroke-width="6" stroke-linecap="round"/>
  <line x1="256" y1="226.6" x2="256" y2="309.4" stroke="#E5E4E2" stroke-width="7" stroke-linecap="round" stroke-linejoin="round"/>
  <line x1="214.6" y1="268" x2="297.4" y2="268" stroke="#E5E4E2" stroke-width="7" stroke-linecap="round" stroke-linejoin="round"/>
  <line x1="229.9" y1="241.9" x2="282.1" y2="294.1" stroke="#E5E4E2" stroke-width="6" stroke-linecap="round" stroke-linejoin="round" opacity="0.70"/>
  <line x1="282.1" y1="241.9" x2="229.9" y2="294.1" stroke="#E5E4E2" stroke-width="6" stroke-linecap="round" stroke-linejoin="round" opacity="0.70"/>
  <polygon points="256,226.6 265.9,268 256,309.4 246.1,268" fill="none" stroke="#E5E4E2" stroke-width="5" stroke-linecap="round" stroke-linejoin="round"/>
  <polyline points="160.0284596226779,227.7908929979258 207.36418523475035,197.73813106123507 270.6074553786723,190.66624884104846 329.07299643437375,208.88828009416838 363.63820909080636,246.4442594119991 362.9976867820679,291.0505761195845 327.360928150241,328.1176325541196 268.38381533984784,345.5217323461083" fill="none" stroke="#E5E4E2" stroke-width="4" stroke-linecap="round" stroke-linejoin="round" opacity="0.75"/>
  <circle cx="160.0284596226779" cy="227.7908929979258" r="6" fill="none" stroke="#E5E4E2" stroke-width="3" stroke-linecap="round"/>
  <circle cx="270.6074553786723" cy="190.66624884104846" r="6" fill="none" stroke="#E5E4E2" stroke-width="3" stroke-linecap="round"/>
  <circle cx="363.63820909080636" cy="246.4442594119991" r="6" fill="none" stroke="#E5E4E2" stroke-width="3" stroke-linecap="round"/>
  <circle cx="327.360928150241" cy="328.1176325541196" r="6" fill="none" stroke="#E5E4E2" stroke-width="3" stroke-linecap="round"/>
</svg>
