<svg xmlns="http://www.w3.org/2000/svg" width="512" height="512" viewBox="0 0 512 512" role="img" aria-label="Aventurero Completo">
  <title>Aventurero Completo</title>
  <desc>Flat matte engraved achievement badge. Transparent canvas, dark circle #1C1C1E, accent #D4A843.</desc>
  <circle cx="256" cy="256" r="220" fill="#1C1C1E"/>
  <circle cx="256" cy="256" r="204" fill="none" stroke="#D4A843" stroke-width="8" stroke-linecap="round"/>
  <circle cx="256" cy="256" r="170" fill="none" stroke="#D4A843" stroke-width="3" stroke-linecap="round" opacity="0.38"/>
  <polyline points="232,384 256,404 280,384" fill="none" stroke="#D4A843" stroke-width="7" stroke-linecap="round" stroke-linejoin="round" opacity="0.85"/>
  <polygon points="190,210 322,210 312,300 256,362 200,300" fill="none" stroke="#D4A843" stroke-width="8" stroke-linecap="round" stroke-linejoin="round"/>
  <line x1="256" y1="224" x2="256" y2="348" stroke="#D4A843" stroke-width="5" stroke-linecap="round" stroke-linejoin="round" opacity="0.65"/>
  <polygon points="256.0,257.0 261.5545706341639,270.35478940315676 275.9721868421982,271.5106431181261 264.9874840789892,280.9202105968433 268.34349029814194,294.9893568818739 256.0,287.45 243.65650970185806,294.9893568818739 247.0125159210108,280.9202105968433 236.02781315780177,271.5106431181261 250.44542936583613,270.35478940315676" fill="none" stroke="#D4A843" stroke-width="5" stroke-linecap="round" stroke-linejoin="round"/>
  <polygon points="256.0,206.0 259.17404036237934,213.63130823037528 267.41267819554184,214.29179606750063 261.13570518799384,219.66869176962473 263.05342302750967,227.70820393249937 256.0,223.4 248.94657697249033,227.70820393249937 250.86429481200616,219.66869176962473 244.58732180445816,214.29179606750063 252.82595963762066,213.63130823037528" fill="none" stroke="#D4A843" stroke-width="4" stroke-linecap="round" stroke-linejoin="round"/>
  <polygon points="307.9615242270663,236.0 311.13556458944566,243.63130823037528 319.37420242260816,244.29179606750063 313.09722941506016,249.66869176962473 315.014947254576,257.7082039324994 307.9615242270663,253.4 300.90810119955665,257.7082039324994 302.8258190390725,249.66869176962473 296.5488460315245,244.29179606750063 304.787483864687,243.63130823037528" fill="none" stroke="#D4A843" stroke-width="4" stroke-linecap="round" stroke-linejoin="round"/>
  <polygon points="307.9615242270663,296.0 311.13556458944566,303.6313082303753 319.37420242260816,304.2917960675006 313.09722941506016,309.66869176962473 315.014947254576,317.7082039324994 307.9615242270663,313.4 300.90810119955665,317.7082039324994 302.8258190390725,309.66869176962473 296.5488460315245,304.2917960675006 304.787483864687,303.6313082303753" fill="none" stroke="#D4A843" stroke-width="4" stroke-linecap="round" stroke-linejoin="round"/>
  <polygon points="256.0,326.0 259.17404036237934,333.6313082303753 267.41267819554184,334.2917960675006 261.13570518799384,339.66869176962473 263.05342302750967,347.7082039324994 256.0,343.4 248.94657697249033,347.7082039324994 250.86429481200616,339.66869176962473 244.58732180445816,334.2917960675006 252.82595963762066,333.6313082303753" fill="none" stroke="#D4A843" stroke-width="4" stroke-linecap="round" stroke-linejoin="round"/>
  <polygon points="204.03847577293368,296.0 207.21251613531302,303.6313082303753 215.45115396847552,304.2917960675006 209.17418096092752,309.66869176962473 211.09189880044335,317.7082039324994 204.03847577293368,313.4 196.985052745424,317.7082039324994 198.90277058493984,309.66869176962473 192.62579757739184,304.2917960675006 200.86443541055434,303.6313082303753" fill="none" stroke="#D4A843" stroke-width="4" stroke-linecap="round" stroke-linejoin="round"/>
  <polygon points="204.03847577293368,236.0 207.21251613531302,243.63130823037528 215.45115396847552,244.29179606750063 209.17418096092752,249.66869176962473 211.09189880044335,257.7082039324994 204.03847577293368,253.4 196.985052745424,257.7082039324994 198.90277058493984,249.66869176962473 192.62579757739184,244.29179606750063 200.86443541055434,243.63130823037528" fill="none" stroke="#D4A843" stroke-width="4" stroke-linecap="round" stroke-linejoin="round"/>
</svg>
