<svg xmlns="http://www.w3.org/2000/svg" width="512" height="512" viewBox="0 0 512 512" role="img" aria-label="Explorador de Categorías">
  <title>Explorador de Categorías</title>
  <desc>Flat matte engraved achievement badge. Transparent canvas, dark circle #1C1C1E, accent #16A085.</desc>
  <circle cx="256" cy="256" r="220" fill="#1C1C1E"/>
  <circle cx="256" cy="256" r="204" fill="none" stroke="#16A085" stroke-width="8" stroke-linecap="round"/>
  <circle cx="256" cy="256" r="170" fill="none" stroke="#16A085" stroke-width="3" stroke-linecap="round" opacity="0.38"/>
  <polyline points="232,384 256,404 280,384" fill="none" stroke="#16A085" stroke-width="7" stroke-linecap="round" stroke-linejoin="round" opacity="0.85"/>
  <line x1="256" y1="164" x2="256" y2="348" stroke="#16A085" stroke-width="5" stroke-linecap="round" stroke-linejoin="round" opacity="0.45"/>
  <line x1="164" y1="256" x2="348" y2="256" stroke="#16A085" stroke-width="5" stroke-linecap="round" stroke-linejoin="round" opacity="0.45"/>
  <polyline points="196.4,201.97 196.59,200.99 196.79,200.03 197.02,199.08 197.27,198.15 197.54,197.24 197.83,196.35 198.14,195.48 198.46,194.63 198.81,193.81 199.17,193.02 199.55,192.25 199.95,191.51 200.36,190.79 200.79,190.11 201.23,189.46 201.69,188.84 202.16,188.26 202.64,187.71 203.13,187.2 203.63,186.72 204.15,186.28 204.67,185.87 205.2,185.51 205.74,185.18 206.29,184.89 206.84,184.64 207.4,184.43 207.96,184.27 208.52,184.14 209.09,184.05 209.66,184.01 210.23,184.0 210.8,184.04 211.36,184.12 211.93,184.24 212.49,184.4 213.05,184.6 213.6,184.84 214.15,185.12 214.69,185.44 215.22,185.8 215.75,186.19 216.26,186.63 216.77,187.1 217.26,187.6 217.75,188.15 218.22,188.73 218.68,189.34 219.12,189.98 219.55,190.66 219.97,191.36 220.37,192.1 220.75,192.86 221.12,193.65 221.47,194.47 221.8,195.31 222.11,196.17 222.4,197.06 222.68,197.97 222.93,198.89 223.16,199.84 223.37,200.8 223.56,201.77 223.73,202.76 223.88,203.75 224.01,204.76 224.11,205.78 224.19,206.8 224.25,207.83 224.29,208.86 224.3,209.9 224.29,210.93 224.26,211.96 224.21,212.99 224.13,214.02 224.03,215.03 223.91,216.04 223.77,217.05 223.6,218.03" fill="none" stroke="#16A085" stroke-width="4" stroke-linecap="round" stroke-linejoin="round" opacity="0.90"/>
  <line x1="200.9" y1="225.6" x2="220.4" y2="194.4" stroke="#16A085" stroke-width="3" stroke-linecap="round" stroke-linejoin="round" opacity="0.70"/>
  <polygon points="302.0,191.0 307.02556390710066,203.0829046980942 320.0700738096079,204.128677106876 310.13153321432355,212.6420953019058 313.16791979355696,225.371322893124 302.0,218.55 290.83208020644304,225.371322893124 293.86846678567645,212.6420953019058 283.92992619039205,204.128677106876 296.97443609289934,203.0829046980942" fill="none" stroke="#16A085" stroke-width="5" stroke-linecap="round" stroke-linejoin="round"/>
  <circle cx="210" cy="302" r="15.75" fill="none" stroke="#16A085" stroke-width="4" stroke-linecap="round" opacity="0.90"/>
  <circle cx="210" cy="302" r="5.25" fill="none" stroke="#16A085" stroke-width="3" stroke-linecap="round" opacity="0.90"/>
  <line x1="226.8" y1="302.0" x2="234.15" y2="302.0" stroke="#16A085" stroke-width="3" stroke-linecap="round" stroke-linejoin="round" opacity="0.90"/>
  <line x1="221.879393923934" y1="313.879393923934" x2="227.07662876565513" y2="319.07662876565513" stroke="#16A085" stroke-width="3" stroke-linecap="round" stroke-linejoin="round" opacity="0.90"/>
  <line x1="210.0" y1="318.8" x2="210.0" y2="326.15" stroke="#16A085" stroke-width="3" stroke-linecap="round" stroke-linejoin="round" opacity="0.90"/>
  <line x1="198.120606076066" y1="313.879393923934" x2="192.92337123434487" y2="319.07662876565513" stroke="#16A085" stroke-width="3" stroke-linecap="round" stroke-linejoin="round" opacity="0.90"/>
  <line x1="193.2" y1="302.0" x2="185.85" y2="302.0" stroke="#16A085" stroke-width="3" stroke-linecap="round" stroke-linejoin="round" opacity="0.90"/>
  <line x1="198.120606076066" y1="290.120606076066" x2="192.92337123434487" y2="284.92337123434487" stroke="#16A085" stroke-width="3" stroke-linecap="round" stroke-linejoin="round" opacity="0.90"/>
  <line x1="210.0" y1="285.2" x2="210.0" y2="277.85" stroke="#16A085" stroke-width="3" stroke-linecap="round" stroke-linejoin="round" opacity="0.90"/>
  <line x1="221.879393923934" y1="290.120606076066" x2="227.07662876565513" y2="284.92337123434487" stroke="#16A085" stroke-width="3" stroke-linecap="round" stroke-linejoin="round" opacity="0.90"/>
  <line x1="283.25" y1="320.75" x2="320.75" y2="283.25" stroke="#16A085" stroke-width="4" stroke-linecap="round" stroke-linejoin="round" opacity="0.90"/>
  <polygon points="314.5,277.0 329.5,287.0 317.0,299.5" fill="none" stroke="#16A085" stroke-width="3" stroke-linecap="round" stroke-linejoin="round" opacity="0.90"/>
</svg>
