<svg xmlns="http://www.w3.org/2000/svg" width="512" height="512" viewBox="0 0 512 512" role="img" aria-label="Leyenda">
  <title>Leyenda</title>
  <desc>Flat matte engraved achievement badge. Transparent canvas, dark circle #1C1C1E, accent #E5E4E2.</desc>
  <circle cx="256" cy="256" r="220" fill="#1C1C1E"/>
  <circle cx="256" cy="256" r="204" fill="none" stroke="#E5E4E2" stroke-width="8" stroke-linecap="round"/>
  <circle cx="256" cy="256" r="170" fill="none" stroke="#E5E4E2" stroke-width="3" stroke-linecap="round" opacity="0.38"/>
  <polyline points="232,384 256,404 280,384" fill="none" stroke="#E5E4E2" stroke-width="7" stroke-linecap="round" stroke-linejoin="round" opacity="0.85"/>
  <polygon points="256,206.0 298.0,262.0 280.0,326.0 256,348.0 226.0,314.0 232.0,260.0" fill="none" stroke="#E5E4E2" stroke-width="7" stroke-linecap="round" stroke-linejoin="round"/>
  <polyline points="256,248.0 272.0,298.0 256,322.0 244.0,292.0" fill="none" stroke="#E5E4E2" stroke-width="5" stroke-linecap="round" stroke-linejoin="round" opacity="0.85"/>
  <polygon points="228.0,176.0 234.0,182.0 228.0,188.0 222.0,182.0" fill="#E5E4E2" opacity="0.90"/>
  <polygon points="256.0,162.0 262.0,168.0 256.0,174.0 250.0,168.0" fill="#E5E4E2" opacity="0.90"/>
  <polygon points="284.0,176.0 290.0,182.0 284.0,188.0 278.0,182.0" fill="#E5E4E2" opacity="0.90"/>
  <polygon points="312.0,162.0 318.0,168.0 312.0,174.0 306.0,168.0" fill="#E5E4E2" opacity="0.90"/>
  <line x1="348.0" y1="286.0" x2="378.0" y2="286.0" stroke="#E5E4E2" stroke-width="5" stroke-linecap="round" stroke-linejoin="round" opacity="0.75"/>
  <line x1="335.6743371481684" y1="332.0" x2="361.65509926170154" y2="347.0" stroke="#E5E4E2" stroke-width="5" stroke-linecap="round" stroke-linejoin="round" opacity="0.75"/>
  <line x1="302.0" y1="365.6743371481683" x2="317.0" y2="391.6550992617015" stroke="#E5E4E2" stroke-width="5" stroke-linecap="round" stroke-linejoin="round" opacity="0.75"/>
  <line x1="256.0" y1="378.0" x2="256.0" y2="408.0" stroke="#E5E4E2" stroke-width="5" stroke-linecap="round" stroke-linejoin="round" opacity="0.75"/>
  <line x1="210.0" y1="365.6743371481684" x2="195.00000000000003" y2="391.65509926170154" stroke="#E5E4E2" stroke-width="5" stroke-linecap="round" stroke-linejoin="round" opacity="0.75"/>
  <line x1="176.32566285183162" y1="332.0" x2="150.34490073829846" y2="347.0" stroke="#E5E4E2" stroke-width="5" stroke-linecap="round" stroke-linejoin="round" opacity="0.75"/>
  <line x1="164.0" y1="286.0" x2="134.0" y2="286.0" stroke="#E5E4E2" stroke-width="5" stroke-linecap="round" stroke-linejoin="round" opacity="0.75"/>
  <line x1="176.32566285183162" y1="240.00000000000003" x2="150.34490073829846" y2="225.00000000000003" stroke="#E5E4E2" stroke-width="5" stroke-linecap="round" stroke-linejoin="round" opacity="0.75"/>
  <line x1="209.99999999999994" y1="206.32566285183168" x2="194.99999999999994" y2="180.34490073829852" stroke="#E5E4E2" stroke-width="5" stroke-linecap="round" stroke-linejoin="round" opacity="0.75"/>
  <line x1="255.99999999999997" y1="194.0" x2="255.99999999999997" y2="164.0" stroke="#E5E4E2" stroke-width="5" stroke-linecap="round" stroke-linejoin="round" opacity="0.75"/>
  <line x1="302.0" y1="206.32566285183165" x2="317.0" y2="180.3449007382985" stroke="#E5E4E2" stroke-width="5" stroke-linecap="round" stroke-linejoin="round" opacity="0.75"/>
  <line x1="335.6743371481683" y1="239.99999999999994" x2="361.6550992617015" y2="224.99999999999994" stroke="#E5E4E2" stroke-width="5" stroke-linecap="round" stroke-linejoin="round" opacity="0.75"/>
  <polyline points="190,354 322,354" fill="none" stroke="#E5E4E2" stroke-width="8" stroke-linecap="round" stroke-linejoin="round"/>
</svg>
