<svg xmlns="http://www.w3.org/2000/svg" width="512" height="512" viewBox="0 0 512 512" role="img" aria-label="Conquistador Completo">
  <title>Conquistador Completo</title>
  <desc>Flat matte engraved achievement badge. Transparent canvas, dark circle #1C1C1E, accent #D4A843.</desc>
  <circle cx="256" cy="256" r="220" fill="#1C1C1E"/>
  <circle cx="256" cy="256" r="204" fill="none" stroke="#D4A843" stroke-width="8" stroke-linecap="round"/>
  <circle cx="256" cy="256" r="170" fill="none" stroke="#D4A843" stroke-width="3" stroke-linecap="round" opacity="0.38"/>
  <polyline points="232,384 256,404 280,384" fill="none" stroke="#D4A843" stroke-width="7" stroke-linecap="round" stroke-linejoin="round" opacity="0.85"/>
  <circle cx="256" cy="276" r="70" fill="none" stroke="#D4A843" stroke-width="6" stroke-linecap="round"/>
  <line x1="256" y1="184" x2="256" y2="368" stroke="#D4A843" stroke-width="7" stroke-linecap="round" stroke-linejoin="round"/>
  <line x1="164" y1="276" x2="348" y2="276" stroke="#D4A843" stroke-width="7" stroke-linecap="round" stroke-linejoin="round"/>
  <line x1="198" y1="218" x2="314" y2="334" stroke="#D4A843" stroke-width="6" stroke-linecap="round" stroke-linejoin="round" opacity="0.70"/>
  <line x1="314" y1="218" x2="198" y2="334" stroke="#D4A843" stroke-width="6" stroke-linecap="round" stroke-linejoin="round" opacity="0.70"/>
  <polygon points="256,184 278,276 256,368 234,276" fill="none" stroke="#D4A843" stroke-width="5" stroke-linecap="round" stroke-linejoin="round"/>
  <polygon points="256.0,159.0 259.17404036237934,166.63130823037528 267.41267819554184,167.29179606750063 261.13570518799384,172.66869176962473 263.05342302750967,180.70820393249937 256.0,176.4 248.94657697249033,180.70820393249937 250.86429481200616,172.66869176962473 244.58732180445816,167.29179606750063 252.82595963762066,166.63130823037528" fill="none" stroke="#D4A843" stroke-width="4" stroke-linecap="round" stroke-linejoin="round"/>
  <polygon points="346.93266739736606,211.5 350.1067077597454,219.13130823037528 358.3453455929079,219.79179606750063 352.0683725853599,225.16869176962473 353.9860904248757,233.20820393249937 346.93266739736606,228.9 339.8792443698564,233.20820393249937 341.7969622093722,225.16869176962473 335.5199892018242,219.79179606750063 343.7586270349867,219.13130823037528" fill="none" stroke="#D4A843" stroke-width="4" stroke-linecap="round" stroke-linejoin="round"/>
  <polygon points="346.93266739736606,316.5 350.1067077597454,324.1313082303753 358.3453455929079,324.7917960675006 352.0683725853599,330.16869176962473 353.9860904248757,338.2082039324994 346.93266739736606,333.9 339.8792443698564,338.2082039324994 341.7969622093722,330.16869176962473 335.5199892018242,324.7917960675006 343.7586270349867,324.1313082303753" fill="none" stroke="#D4A843" stroke-width="4" stroke-linecap="round" stroke-linejoin="round"/>
  <polygon points="256.0,369.0 259.17404036237934,376.6313082303753 267.41267819554184,377.2917960675006 261.13570518799384,382.66869176962473 263.05342302750967,390.7082039324994 256.0,386.4 248.94657697249033,390.7082039324994 250.86429481200616,382.66869176962473 244.58732180445816,377.2917960675006 252.82595963762066,376.6313082303753" fill="none" stroke="#D4A843" stroke-width="4" stroke-linecap="round" stroke-linejoin="round"/>
  <polygon points="165.06733260263394,316.50000000000006 168.24137296501328,324.13130823037534 176.48001079817578,324.7917960675007 170.20303779062777,330.1686917696248 172.1207556301436,338.20820393249943 165.06733260263394,333.90000000000003 158.01390957512427,338.20820393249943 159.9316274146401,330.1686917696248 153.6546544070921,324.7917960675007 161.8932922402546,324.13130823037534" fill="none" stroke="#D4A843" stroke-width="4" stroke-linecap="round" stroke-linejoin="round"/>
  <polygon points="165.06733260263394,211.5 168.24137296501328,219.13130823037528 176.48001079817578,219.79179606750063 170.20303779062777,225.16869176962473 172.1207556301436,233.20820393249937 165.06733260263394,228.9 158.01390957512427,233.20820393249937 159.9316274146401,225.16869176962473 153.6546544070921,219.79179606750063 161.8932922402546,219.13130823037528" fill="none" stroke="#D4A843" stroke-width="4" stroke-linecap="round" stroke-linejoin="round"/>
</svg>
