<svg xmlns="http://www.w3.org/2000/svg" width="512" height="512" viewBox="0 0 512 512" role="img" aria-label="Participante Activo">
  <title>Participante Activo</title>
  <desc>Flat matte engraved achievement badge. Transparent canvas, dark circle #1C1C1E, accent #2ECC71.</desc>
  <circle cx="256" cy="256" r="220" fill="#1C1C1E"/>
  <circle cx="256" cy="256" r="204" fill="none" stroke="#2ECC71" stroke-width="8" stroke-linecap="round"/>
  <circle cx="256" cy="256" r="170" fill="none" stroke="#2ECC71" stroke-width="3" stroke-linecap="round" opacity="0.38"/>
  <polyline points="232,384 256,404 280,384" fill="none" stroke="#2ECC71" stroke-width="7" stroke-linecap="round" stroke-linejoin="round" opacity="0.85"/>
  <polyline points="177.76,349.44 176.32,303.36 187.84,301.92 190.72,260.16 202.24,258.72 203.68,300.48 213.76,254.4 225.28,257.28 220.96,301.92 233.92,265.92 244.0,271.68 228.16,314.88 249.76,297.6 256.96,306.24 233.92,336.48 222.4,352.32" fill="none" stroke="#2ECC71" stroke-width="6" stroke-linecap="round" stroke-linejoin="round"/>
  <line x1="177.76" y1="349.44" x2="222.4" y2="352.32" stroke="#2ECC71" stroke-width="6" stroke-linecap="round" stroke-linejoin="round"/>
  <polyline points="219.04,331.76 217.28,275.44 231.36,273.68 234.88,222.64 248.96,220.88 250.72,271.92 263.04,215.6 277.12,219.12 271.84,273.68 287.68,229.68 300.0,236.72 280.64,289.52 307.04,268.4 315.84000000000003,278.96 287.68,315.92 273.6,335.28" fill="none" stroke="#2ECC71" stroke-width="6" stroke-linecap="round" stroke-linejoin="round"/>
  <line x1="219.04" y1="331.76" x2="273.6" y2="335.28" stroke="#2ECC71" stroke-width="6" stroke-linecap="round" stroke-linejoin="round"/>
  <polyline points="273.76,349.44 272.32,303.36 283.84,301.92 286.72,260.16 298.24,258.72 299.68,300.48 309.76,254.4 321.28,257.28 316.96,301.92 329.92,265.92 340.0,271.68 324.16,314.88 345.76,297.6 352.96,306.24 329.92,336.48 318.4,352.32" fill="none" stroke="#2ECC71" stroke-width="6" stroke-linecap="round" stroke-linejoin="round"/>
  <line x1="273.76" y1="349.44" x2="318.4" y2="352.32" stroke="#2ECC71" stroke-width="6" stroke-linecap="round" stroke-linejoin="round"/>
</svg>
