<svg xmlns="http://www.w3.org/2000/svg" width="512" height="512" viewBox="0 0 512 512" role="img" aria-label="Primer Honor">
  <title>Primer Honor</title>
  <desc>Flat matte engraved achievement badge. Transparent canvas, dark circle #1C1C1E, accent #CD7F32.</desc>
  <circle cx="256" cy="256" r="220" fill="#1C1C1E"/>
  <circle cx="256" cy="256" r="204" fill="none" stroke="#CD7F32" stroke-width="8" stroke-linecap="round"/>
  <circle cx="256" cy="256" r="170" fill="none" stroke="#CD7F32" stroke-width="3" stroke-linecap="round" opacity="0.38"/>
  <polyline points="232,384 256,404 280,384" fill="none" stroke="#CD7F32" stroke-width="7" stroke-linecap="round" stroke-linejoin="round" opacity="0.85"/>
  <polygon points="220,172 248,226 224,226 196,172" fill="none" stroke="#CD7F32" stroke-width="6" stroke-linecap="round" stroke-linejoin="round"/>
  <polygon points="292,172 264,226 288,226 316,172" fill="none" stroke="#CD7F32" stroke-width="6" stroke-linecap="round" stroke-linejoin="round"/>
  <line x1="191" y1="169" x2="321" y2="169" stroke="#CD7F32" stroke-width="8" stroke-linecap="round" stroke-linejoin="round"/>
  <circle cx="256" cy="282" r="54" fill="none" stroke="#CD7F32" stroke-width="7" stroke-linecap="round"/>
  <polygon points="256.0,260.0 261.8190739976955,273.99073175568805 276.9232433584934,275.20162612375117 265.415459511322,285.05926824431197 268.9312755504344,299.79837387624883 256.0,291.9 243.0687244495656,299.79837387624883 246.584540488678,285.05926824431197 235.07675664150662,275.20162612375117 250.18092600230452,273.99073175568805" fill="none" stroke="#CD7F32" stroke-width="5" stroke-linecap="round" stroke-linejoin="round"/>
</svg>
