<svg xmlns="http://www.w3.org/2000/svg" width="512" height="512" viewBox="0 0 512 512" role="img" aria-label="Primera Investidura Conquistador">
  <title>Primera Investidura Conquistador</title>
  <desc>Flat matte engraved achievement badge. Transparent canvas, dark circle #1C1C1E, accent #C0392B.</desc>
  <circle cx="256" cy="256" r="220" fill="#1C1C1E"/>
  <circle cx="256" cy="256" r="204" fill="none" stroke="#C0392B" stroke-width="8" stroke-linecap="round"/>
  <circle cx="256" cy="256" r="170" fill="none" stroke="#C0392B" stroke-width="3" stroke-linecap="round" opacity="0.38"/>
  <polyline points="232,384 256,404 280,384" fill="none" stroke="#C0392B" stroke-width="7" stroke-linecap="round" stroke-linejoin="round" opacity="0.85"/>
  <circle cx="256" cy="276" r="70" fill="none" stroke="#C0392B" stroke-width="6" stroke-linecap="round"/>
  <line x1="256" y1="184" x2="256" y2="368" stroke="#C0392B" stroke-width="7" stroke-linecap="round" stroke-linejoin="round"/>
  <line x1="164" y1="276" x2="348" y2="276" stroke="#C0392B" stroke-width="7" stroke-linecap="round" stroke-linejoin="round"/>
  <line x1="198" y1="218" x2="314" y2="334" stroke="#C0392B" stroke-width="6" stroke-linecap="round" stroke-linejoin="round" opacity="0.70"/>
  <line x1="314" y1="218" x2="198" y2="334" stroke="#C0392B" stroke-width="6" stroke-linecap="round" stroke-linejoin="round" opacity="0.70"/>
  <polygon points="256,184 278,276 256,368 234,276" fill="none" stroke="#C0392B" stroke-width="5" stroke-linecap="round" stroke-linejoin="round"/>
  <polygon points="256.0,254.0 261.8190739976955,267.99073175568805 276.9232433584934,269.20162612375117 265.415459511322,279.05926824431197 268.9312755504344,293.79837387624883 256.0,285.9 243.0687244495656,293.79837387624883 246.584540488678,279.05926824431197 235.07675664150662,269.20162612375117 250.18092600230452,267.99073175568805" fill="none" stroke="#C0392B" stroke-width="5" stroke-linecap="round" stroke-linejoin="round"/>
</svg>
