<svg xmlns="http://www.w3.org/2000/svg" width="512" height="512" viewBox="0 0 512 512" role="img" aria-label="Diversificado">
  <title>Diversificado</title>
  <desc>Flat matte engraved achievement badge. Transparent canvas, dark circle #1C1C1E, accent #D4A843.</desc>
  <circle cx="256" cy="256" r="220" fill="#1C1C1E"/>
  <circle cx="256" cy="256" r="204" fill="none" stroke="#D4A843" stroke-width="8" stroke-linecap="round"/>
  <circle cx="256" cy="256" r="170" fill="none" stroke="#D4A843" stroke-width="3" stroke-linecap="round" opacity="0.38"/>
  <polyline points="232,384 256,404 280,384" fill="none" stroke="#D4A843" stroke-width="7" stroke-linecap="round" stroke-linejoin="round" opacity="0.85"/>
  <polygon points="256.0,214.0 267.10914126832773,240.7095788063135 295.94437368439645,243.0212862362522 273.9749681579784,261.8404211936865 280.6869805962839,289.9787137637478 256.0,274.9 231.31301940371614,289.9787137637478 238.0250318420216,261.8404211936865 216.05562631560355,243.02128623625222 244.89085873167227,240.7095788063135" fill="none" stroke="#D4A843" stroke-width="7" stroke-linecap="round" stroke-linejoin="round"/>
  <polyline points="245.02,149.51 245.17,148.72 245.33,147.94 245.52,147.18 245.72,146.43 245.94,145.69 246.17,144.97 246.42,144.27 246.68,143.59 246.96,142.93 247.25,142.28 247.56,141.66 247.88,141.06 248.21,140.49 248.56,139.94 248.92,139.41 249.29,138.91 249.66,138.44 250.05,138.0 250.45,137.58 250.86,137.2 251.27,136.84 251.7,136.51 252.13,136.22 252.56,135.95 253.0,135.72 253.45,135.52 253.9,135.35 254.35,135.21 254.81,135.11 255.27,135.04 255.72,135.01 256.18,135.0 256.64,135.03 257.1,135.1 257.56,135.19 258.01,135.32 258.46,135.48 258.91,135.68 259.35,135.9 259.79,136.16 260.22,136.45 260.64,136.77 261.06,137.12 261.47,137.5 261.87,137.91 262.26,138.35 262.64,138.82 263.01,139.31 263.37,139.83 263.72,140.38 264.05,140.95 264.38,141.54 264.69,142.16 264.98,142.8 265.26,143.45 265.53,144.13 265.78,144.83 266.02,145.55 266.24,146.28 266.44,147.03 266.63,147.79 266.8,148.57 266.96,149.35 267.09,150.15 267.21,150.96 267.31,151.77 267.4,152.59 267.46,153.42 267.51,154.25 267.54,155.08 267.55,155.92 267.54,156.75 267.52,157.59 267.47,158.42 267.41,159.24 267.33,160.07 267.23,160.88 267.12,161.69 266.98,162.49" fill="none" stroke="#D4A843" stroke-width="4" stroke-linecap="round" stroke-linejoin="round" opacity="0.90"/>
  <line x1="248.65" y1="168.6" x2="264.4" y2="143.4" stroke="#D4A843" stroke-width="3" stroke-linecap="round" stroke-linejoin="round" opacity="0.70"/>
  <circle cx="351.10565162951536" cy="225.09830056250527" r="15.75" fill="none" stroke="#D4A843" stroke-width="4" stroke-linecap="round" opacity="0.90"/>
  <circle cx="351.10565162951536" cy="225.09830056250527" r="5.25" fill="none" stroke="#D4A843" stroke-width="3" stroke-linecap="round" opacity="0.90"/>
  <line x1="367.9056516295154" y1="225.09830056250527" x2="375.25565162951534" y2="225.09830056250527" stroke="#D4A843" stroke-width="3" stroke-linecap="round" stroke-linejoin="round" opacity="0.90"/>
  <line x1="362.98504555344937" y1="236.97769448643928" x2="368.1822803951705" y2="242.1749293281604" stroke="#D4A843" stroke-width="3" stroke-linecap="round" stroke-linejoin="round" opacity="0.90"/>
  <line x1="351.10565162951536" y1="241.89830056250528" x2="351.10565162951536" y2="249.24830056250528" stroke="#D4A843" stroke-width="3" stroke-linecap="round" stroke-linejoin="round" opacity="0.90"/>
  <line x1="339.22625770558136" y1="236.97769448643928" x2="334.02902286386023" y2="242.1749293281604" stroke="#D4A843" stroke-width="3" stroke-linecap="round" stroke-linejoin="round" opacity="0.90"/>
  <line x1="334.30565162951535" y1="225.09830056250527" x2="326.9556516295154" y2="225.09830056250527" stroke="#D4A843" stroke-width="3" stroke-linecap="round" stroke-linejoin="round" opacity="0.90"/>
  <line x1="339.22625770558136" y1="213.21890663857127" x2="334.02902286386023" y2="208.02167179685014" stroke="#D4A843" stroke-width="3" stroke-linecap="round" stroke-linejoin="round" opacity="0.90"/>
  <line x1="351.10565162951536" y1="208.29830056250526" x2="351.10565162951536" y2="200.94830056250527" stroke="#D4A843" stroke-width="3" stroke-linecap="round" stroke-linejoin="round" opacity="0.90"/>
  <line x1="362.98504555344937" y1="213.21890663857127" x2="368.1822803951705" y2="208.02167179685014" stroke="#D4A843" stroke-width="3" stroke-linecap="round" stroke-linejoin="round" opacity="0.90"/>
  <polyline points="294.8285252292473,324.30169943749473 311.6285252292473,318.0016994374948 314.7785252292473,328.5016994374948 314.7785252292473,355.80169943749473 295.8785252292473,347.40169943749476" fill="none" stroke="#D4A843" stroke-width="3" stroke-linecap="round" stroke-linejoin="round" opacity="0.90"/>
  <polyline points="334.7285252292473,324.30169943749473 317.92852522924727,318.0016994374948 314.7785252292473,328.5016994374948 314.7785252292473,355.80169943749473 333.67852522924727,347.40169943749476" fill="none" stroke="#D4A843" stroke-width="3" stroke-linecap="round" stroke-linejoin="round" opacity="0.90"/>
  <line x1="181.4714747707527" y1="352.65169943749476" x2="212.9714747707527" y2="321.15169943749476" stroke="#D4A843" stroke-width="4" stroke-linecap="round" stroke-linejoin="round" opacity="0.90"/>
  <polygon points="207.7214747707527,315.90169943749476 220.3214747707527,324.30169943749473 209.8214747707527,334.80169943749473" fill="none" stroke="#D4A843" stroke-width="3" stroke-linecap="round" stroke-linejoin="round" opacity="0.90"/>
  <line x1="160.89434837048464" y1="201.99830056250528" x2="160.89434837048464" y2="237.69830056250527" stroke="#D4A843" stroke-width="4" stroke-linecap="round" stroke-linejoin="round" opacity="0.90"/>
  <line x1="160.89434837048464" y1="201.99830056250528" x2="183.99434837048463" y2="208.29830056250526" stroke="#D4A843" stroke-width="4" stroke-linecap="round" stroke-linejoin="round" opacity="0.90"/>
  <circle cx="155.64434837048464" cy="243.99830056250528" r="9.450000000000001" fill="none" stroke="#D4A843" stroke-width="4" stroke-linecap="round" opacity="0.90"/>
</svg>
